G04 #@! TF.GenerationSoftware,KiCad,Pcbnew,(5.1.8)-1*
G04 #@! TF.CreationDate,2021-07-21T19:28:53-06:00*
G04 #@! TF.ProjectId,SBus-Decoder,53427573-2d44-4656-936f-6465722e6b69,rev?*
G04 #@! TF.SameCoordinates,Original*
G04 #@! TF.FileFunction,Soldermask,Top*
G04 #@! TF.FilePolarity,Negative*
%FSLAX46Y46*%
G04 Gerber Fmt 4.6, Leading zero omitted, Abs format (unit mm)*
G04 Created by KiCad (PCBNEW (5.1.8)-1) date 2021-07-21 19:28:53*
%MOMM*%
%LPD*%
G01*
G04 APERTURE LIST*
%ADD10O,1.800000X1.800000*%
%ADD11C,1.750000*%
G04 APERTURE END LIST*
G36*
G01*
X121218750Y-103050000D02*
X121781250Y-103050000D01*
G75*
G02*
X122025000Y-103293750I0J-243750D01*
G01*
X122025000Y-103781250D01*
G75*
G02*
X121781250Y-104025000I-243750J0D01*
G01*
X121218750Y-104025000D01*
G75*
G02*
X120975000Y-103781250I0J243750D01*
G01*
X120975000Y-103293750D01*
G75*
G02*
X121218750Y-103050000I243750J0D01*
G01*
G37*
G36*
G01*
X121218750Y-101475000D02*
X121781250Y-101475000D01*
G75*
G02*
X122025000Y-101718750I0J-243750D01*
G01*
X122025000Y-102206250D01*
G75*
G02*
X121781250Y-102450000I-243750J0D01*
G01*
X121218750Y-102450000D01*
G75*
G02*
X120975000Y-102206250I0J243750D01*
G01*
X120975000Y-101718750D01*
G75*
G02*
X121218750Y-101475000I243750J0D01*
G01*
G37*
D10*
X118250000Y-102750000D03*
G36*
G01*
X116560000Y-103650000D02*
X114860000Y-103650000D01*
G75*
G02*
X114810000Y-103600000I0J50000D01*
G01*
X114810000Y-101900000D01*
G75*
G02*
X114860000Y-101850000I50000J0D01*
G01*
X116560000Y-101850000D01*
G75*
G02*
X116610000Y-101900000I0J-50000D01*
G01*
X116610000Y-103600000D01*
G75*
G02*
X116560000Y-103650000I-50000J0D01*
G01*
G37*
G36*
G01*
X121025000Y-79975000D02*
X121025000Y-80525000D01*
G75*
G02*
X120775000Y-80775000I-250000J0D01*
G01*
X120275000Y-80775000D01*
G75*
G02*
X120025000Y-80525000I0J250000D01*
G01*
X120025000Y-79975000D01*
G75*
G02*
X120275000Y-79725000I250000J0D01*
G01*
X120775000Y-79725000D01*
G75*
G02*
X121025000Y-79975000I0J-250000D01*
G01*
G37*
G36*
G01*
X119475000Y-79975000D02*
X119475000Y-80525000D01*
G75*
G02*
X119225000Y-80775000I-250000J0D01*
G01*
X118725000Y-80775000D01*
G75*
G02*
X118475000Y-80525000I0J250000D01*
G01*
X118475000Y-79975000D01*
G75*
G02*
X118725000Y-79725000I250000J0D01*
G01*
X119225000Y-79725000D01*
G75*
G02*
X119475000Y-79975000I0J-250000D01*
G01*
G37*
G36*
G01*
X124050000Y-76025000D02*
X123450000Y-76025000D01*
G75*
G02*
X123225000Y-75800000I0J225000D01*
G01*
X123225000Y-75350000D01*
G75*
G02*
X123450000Y-75125000I225000J0D01*
G01*
X124050000Y-75125000D01*
G75*
G02*
X124275000Y-75350000I0J-225000D01*
G01*
X124275000Y-75800000D01*
G75*
G02*
X124050000Y-76025000I-225000J0D01*
G01*
G37*
G36*
G01*
X124050000Y-74375000D02*
X123450000Y-74375000D01*
G75*
G02*
X123225000Y-74150000I0J225000D01*
G01*
X123225000Y-73700000D01*
G75*
G02*
X123450000Y-73475000I225000J0D01*
G01*
X124050000Y-73475000D01*
G75*
G02*
X124275000Y-73700000I0J-225000D01*
G01*
X124275000Y-74150000D01*
G75*
G02*
X124050000Y-74375000I-225000J0D01*
G01*
G37*
G36*
G01*
X114975000Y-96775000D02*
X115525000Y-96775000D01*
G75*
G02*
X115775000Y-97025000I0J-250000D01*
G01*
X115775000Y-97525000D01*
G75*
G02*
X115525000Y-97775000I-250000J0D01*
G01*
X114975000Y-97775000D01*
G75*
G02*
X114725000Y-97525000I0J250000D01*
G01*
X114725000Y-97025000D01*
G75*
G02*
X114975000Y-96775000I250000J0D01*
G01*
G37*
G36*
G01*
X114975000Y-95225000D02*
X115525000Y-95225000D01*
G75*
G02*
X115775000Y-95475000I0J-250000D01*
G01*
X115775000Y-95975000D01*
G75*
G02*
X115525000Y-96225000I-250000J0D01*
G01*
X114975000Y-96225000D01*
G75*
G02*
X114725000Y-95975000I0J250000D01*
G01*
X114725000Y-95475000D01*
G75*
G02*
X114975000Y-95225000I250000J0D01*
G01*
G37*
G36*
G01*
X111975000Y-87225000D02*
X112525000Y-87225000D01*
G75*
G02*
X112775000Y-87475000I0J-250000D01*
G01*
X112775000Y-87975000D01*
G75*
G02*
X112525000Y-88225000I-250000J0D01*
G01*
X111975000Y-88225000D01*
G75*
G02*
X111725000Y-87975000I0J250000D01*
G01*
X111725000Y-87475000D01*
G75*
G02*
X111975000Y-87225000I250000J0D01*
G01*
G37*
G36*
G01*
X111975000Y-88775000D02*
X112525000Y-88775000D01*
G75*
G02*
X112775000Y-89025000I0J-250000D01*
G01*
X112775000Y-89525000D01*
G75*
G02*
X112525000Y-89775000I-250000J0D01*
G01*
X111975000Y-89775000D01*
G75*
G02*
X111725000Y-89525000I0J250000D01*
G01*
X111725000Y-89025000D01*
G75*
G02*
X111975000Y-88775000I250000J0D01*
G01*
G37*
G36*
G01*
X122947900Y-96227801D02*
X122947900Y-95872201D01*
G75*
G02*
X122997900Y-95822201I50000J0D01*
G01*
X124306000Y-95822201D01*
G75*
G02*
X124356000Y-95872201I0J-50000D01*
G01*
X124356000Y-96227801D01*
G75*
G02*
X124306000Y-96277801I-50000J0D01*
G01*
X122997900Y-96277801D01*
G75*
G02*
X122947900Y-96227801I0J50000D01*
G01*
G37*
G36*
G01*
X122947900Y-96877800D02*
X122947900Y-96522200D01*
G75*
G02*
X122997900Y-96472200I50000J0D01*
G01*
X124306000Y-96472200D01*
G75*
G02*
X124356000Y-96522200I0J-50000D01*
G01*
X124356000Y-96877800D01*
G75*
G02*
X124306000Y-96927800I-50000J0D01*
G01*
X122997900Y-96927800D01*
G75*
G02*
X122947900Y-96877800I0J50000D01*
G01*
G37*
G36*
G01*
X122947900Y-97527801D02*
X122947900Y-97172201D01*
G75*
G02*
X122997900Y-97122201I50000J0D01*
G01*
X124306000Y-97122201D01*
G75*
G02*
X124356000Y-97172201I0J-50000D01*
G01*
X124356000Y-97527801D01*
G75*
G02*
X124306000Y-97577801I-50000J0D01*
G01*
X122997900Y-97577801D01*
G75*
G02*
X122947900Y-97527801I0J50000D01*
G01*
G37*
G36*
G01*
X122947900Y-98177800D02*
X122947900Y-97822200D01*
G75*
G02*
X122997900Y-97772200I50000J0D01*
G01*
X124306000Y-97772200D01*
G75*
G02*
X124356000Y-97822200I0J-50000D01*
G01*
X124356000Y-98177800D01*
G75*
G02*
X124306000Y-98227800I-50000J0D01*
G01*
X122997900Y-98227800D01*
G75*
G02*
X122947900Y-98177800I0J50000D01*
G01*
G37*
G36*
G01*
X122947900Y-98827801D02*
X122947900Y-98472201D01*
G75*
G02*
X122997900Y-98422201I50000J0D01*
G01*
X124306000Y-98422201D01*
G75*
G02*
X124356000Y-98472201I0J-50000D01*
G01*
X124356000Y-98827801D01*
G75*
G02*
X124306000Y-98877801I-50000J0D01*
G01*
X122997900Y-98877801D01*
G75*
G02*
X122947900Y-98827801I0J50000D01*
G01*
G37*
G36*
G01*
X122947900Y-99477800D02*
X122947900Y-99122200D01*
G75*
G02*
X122997900Y-99072200I50000J0D01*
G01*
X124306000Y-99072200D01*
G75*
G02*
X124356000Y-99122200I0J-50000D01*
G01*
X124356000Y-99477800D01*
G75*
G02*
X124306000Y-99527800I-50000J0D01*
G01*
X122997900Y-99527800D01*
G75*
G02*
X122947900Y-99477800I0J50000D01*
G01*
G37*
G36*
G01*
X122947900Y-100127801D02*
X122947900Y-99772201D01*
G75*
G02*
X122997900Y-99722201I50000J0D01*
G01*
X124306000Y-99722201D01*
G75*
G02*
X124356000Y-99772201I0J-50000D01*
G01*
X124356000Y-100127801D01*
G75*
G02*
X124306000Y-100177801I-50000J0D01*
G01*
X122997900Y-100177801D01*
G75*
G02*
X122947900Y-100127801I0J50000D01*
G01*
G37*
G36*
G01*
X117144000Y-100127799D02*
X117144000Y-99772199D01*
G75*
G02*
X117194000Y-99722199I50000J0D01*
G01*
X118502100Y-99722199D01*
G75*
G02*
X118552100Y-99772199I0J-50000D01*
G01*
X118552100Y-100127799D01*
G75*
G02*
X118502100Y-100177799I-50000J0D01*
G01*
X117194000Y-100177799D01*
G75*
G02*
X117144000Y-100127799I0J50000D01*
G01*
G37*
G36*
G01*
X117144000Y-99477800D02*
X117144000Y-99122200D01*
G75*
G02*
X117194000Y-99072200I50000J0D01*
G01*
X118502100Y-99072200D01*
G75*
G02*
X118552100Y-99122200I0J-50000D01*
G01*
X118552100Y-99477800D01*
G75*
G02*
X118502100Y-99527800I-50000J0D01*
G01*
X117194000Y-99527800D01*
G75*
G02*
X117144000Y-99477800I0J50000D01*
G01*
G37*
G36*
G01*
X117144000Y-98827799D02*
X117144000Y-98472199D01*
G75*
G02*
X117194000Y-98422199I50000J0D01*
G01*
X118502100Y-98422199D01*
G75*
G02*
X118552100Y-98472199I0J-50000D01*
G01*
X118552100Y-98827799D01*
G75*
G02*
X118502100Y-98877799I-50000J0D01*
G01*
X117194000Y-98877799D01*
G75*
G02*
X117144000Y-98827799I0J50000D01*
G01*
G37*
G36*
G01*
X117144000Y-98177800D02*
X117144000Y-97822200D01*
G75*
G02*
X117194000Y-97772200I50000J0D01*
G01*
X118502100Y-97772200D01*
G75*
G02*
X118552100Y-97822200I0J-50000D01*
G01*
X118552100Y-98177800D01*
G75*
G02*
X118502100Y-98227800I-50000J0D01*
G01*
X117194000Y-98227800D01*
G75*
G02*
X117144000Y-98177800I0J50000D01*
G01*
G37*
G36*
G01*
X117144000Y-97527801D02*
X117144000Y-97172201D01*
G75*
G02*
X117194000Y-97122201I50000J0D01*
G01*
X118502100Y-97122201D01*
G75*
G02*
X118552100Y-97172201I0J-50000D01*
G01*
X118552100Y-97527801D01*
G75*
G02*
X118502100Y-97577801I-50000J0D01*
G01*
X117194000Y-97577801D01*
G75*
G02*
X117144000Y-97527801I0J50000D01*
G01*
G37*
G36*
G01*
X117144000Y-96877800D02*
X117144000Y-96522200D01*
G75*
G02*
X117194000Y-96472200I50000J0D01*
G01*
X118502100Y-96472200D01*
G75*
G02*
X118552100Y-96522200I0J-50000D01*
G01*
X118552100Y-96877800D01*
G75*
G02*
X118502100Y-96927800I-50000J0D01*
G01*
X117194000Y-96927800D01*
G75*
G02*
X117144000Y-96877800I0J50000D01*
G01*
G37*
G36*
G01*
X117144000Y-96227799D02*
X117144000Y-95872199D01*
G75*
G02*
X117194000Y-95822199I50000J0D01*
G01*
X118502100Y-95822199D01*
G75*
G02*
X118552100Y-95872199I0J-50000D01*
G01*
X118552100Y-96227799D01*
G75*
G02*
X118502100Y-96277799I-50000J0D01*
G01*
X117194000Y-96277799D01*
G75*
G02*
X117144000Y-96227799I0J50000D01*
G01*
G37*
G36*
G01*
X121218750Y-73475000D02*
X121781250Y-73475000D01*
G75*
G02*
X122025000Y-73718750I0J-243750D01*
G01*
X122025000Y-74206250D01*
G75*
G02*
X121781250Y-74450000I-243750J0D01*
G01*
X121218750Y-74450000D01*
G75*
G02*
X120975000Y-74206250I0J243750D01*
G01*
X120975000Y-73718750D01*
G75*
G02*
X121218750Y-73475000I243750J0D01*
G01*
G37*
G36*
G01*
X121218750Y-75050000D02*
X121781250Y-75050000D01*
G75*
G02*
X122025000Y-75293750I0J-243750D01*
G01*
X122025000Y-75781250D01*
G75*
G02*
X121781250Y-76025000I-243750J0D01*
G01*
X121218750Y-76025000D01*
G75*
G02*
X120975000Y-75781250I0J243750D01*
G01*
X120975000Y-75293750D01*
G75*
G02*
X121218750Y-75050000I243750J0D01*
G01*
G37*
G36*
G01*
X112800000Y-83500000D02*
X113600000Y-83500000D01*
G75*
G02*
X113650000Y-83550000I0J-50000D01*
G01*
X113650000Y-84450000D01*
G75*
G02*
X113600000Y-84500000I-50000J0D01*
G01*
X112800000Y-84500000D01*
G75*
G02*
X112750000Y-84450000I0J50000D01*
G01*
X112750000Y-83550000D01*
G75*
G02*
X112800000Y-83500000I50000J0D01*
G01*
G37*
G36*
G01*
X110900000Y-83500000D02*
X111700000Y-83500000D01*
G75*
G02*
X111750000Y-83550000I0J-50000D01*
G01*
X111750000Y-84450000D01*
G75*
G02*
X111700000Y-84500000I-50000J0D01*
G01*
X110900000Y-84500000D01*
G75*
G02*
X110850000Y-84450000I0J50000D01*
G01*
X110850000Y-83550000D01*
G75*
G02*
X110900000Y-83500000I50000J0D01*
G01*
G37*
G36*
G01*
X111850000Y-85500000D02*
X112650000Y-85500000D01*
G75*
G02*
X112700000Y-85550000I0J-50000D01*
G01*
X112700000Y-86450000D01*
G75*
G02*
X112650000Y-86500000I-50000J0D01*
G01*
X111850000Y-86500000D01*
G75*
G02*
X111800000Y-86450000I0J50000D01*
G01*
X111800000Y-85550000D01*
G75*
G02*
X111850000Y-85500000I50000J0D01*
G01*
G37*
G36*
G01*
X114975000Y-81225000D02*
X115525000Y-81225000D01*
G75*
G02*
X115775000Y-81475000I0J-250000D01*
G01*
X115775000Y-81975000D01*
G75*
G02*
X115525000Y-82225000I-250000J0D01*
G01*
X114975000Y-82225000D01*
G75*
G02*
X114725000Y-81975000I0J250000D01*
G01*
X114725000Y-81475000D01*
G75*
G02*
X114975000Y-81225000I250000J0D01*
G01*
G37*
G36*
G01*
X114975000Y-82775000D02*
X115525000Y-82775000D01*
G75*
G02*
X115775000Y-83025000I0J-250000D01*
G01*
X115775000Y-83525000D01*
G75*
G02*
X115525000Y-83775000I-250000J0D01*
G01*
X114975000Y-83775000D01*
G75*
G02*
X114725000Y-83525000I0J250000D01*
G01*
X114725000Y-83025000D01*
G75*
G02*
X114975000Y-82775000I250000J0D01*
G01*
G37*
G36*
G01*
X126175000Y-66875000D02*
X127825000Y-66875000D01*
G75*
G02*
X127875000Y-66925000I0J-50000D01*
G01*
X127875000Y-68575000D01*
G75*
G02*
X127825000Y-68625000I-50000J0D01*
G01*
X126175000Y-68625000D01*
G75*
G02*
X126125000Y-68575000I0J50000D01*
G01*
X126125000Y-66925000D01*
G75*
G02*
X126175000Y-66875000I50000J0D01*
G01*
G37*
D11*
X129540000Y-67750000D03*
X132080000Y-67750000D03*
X127000000Y-70290000D03*
X129540000Y-70290000D03*
X132080000Y-70290000D03*
X127000000Y-72830000D03*
X129540000Y-72830000D03*
X132080000Y-72830000D03*
X127000000Y-75370000D03*
X129540000Y-75370000D03*
X132080000Y-75370000D03*
G36*
G01*
X114975000Y-54775000D02*
X115525000Y-54775000D01*
G75*
G02*
X115775000Y-55025000I0J-250000D01*
G01*
X115775000Y-55525000D01*
G75*
G02*
X115525000Y-55775000I-250000J0D01*
G01*
X114975000Y-55775000D01*
G75*
G02*
X114725000Y-55525000I0J250000D01*
G01*
X114725000Y-55025000D01*
G75*
G02*
X114975000Y-54775000I250000J0D01*
G01*
G37*
G36*
G01*
X114975000Y-53225000D02*
X115525000Y-53225000D01*
G75*
G02*
X115775000Y-53475000I0J-250000D01*
G01*
X115775000Y-53975000D01*
G75*
G02*
X115525000Y-54225000I-250000J0D01*
G01*
X114975000Y-54225000D01*
G75*
G02*
X114725000Y-53975000I0J250000D01*
G01*
X114725000Y-53475000D01*
G75*
G02*
X114975000Y-53225000I250000J0D01*
G01*
G37*
G36*
G01*
X111975000Y-102775000D02*
X112525000Y-102775000D01*
G75*
G02*
X112775000Y-103025000I0J-250000D01*
G01*
X112775000Y-103525000D01*
G75*
G02*
X112525000Y-103775000I-250000J0D01*
G01*
X111975000Y-103775000D01*
G75*
G02*
X111725000Y-103525000I0J250000D01*
G01*
X111725000Y-103025000D01*
G75*
G02*
X111975000Y-102775000I250000J0D01*
G01*
G37*
G36*
G01*
X111975000Y-101225000D02*
X112525000Y-101225000D01*
G75*
G02*
X112775000Y-101475000I0J-250000D01*
G01*
X112775000Y-101975000D01*
G75*
G02*
X112525000Y-102225000I-250000J0D01*
G01*
X111975000Y-102225000D01*
G75*
G02*
X111725000Y-101975000I0J250000D01*
G01*
X111725000Y-101475000D01*
G75*
G02*
X111975000Y-101225000I250000J0D01*
G01*
G37*
G36*
G01*
X116560000Y-89650000D02*
X114860000Y-89650000D01*
G75*
G02*
X114810000Y-89600000I0J50000D01*
G01*
X114810000Y-87900000D01*
G75*
G02*
X114860000Y-87850000I50000J0D01*
G01*
X116560000Y-87850000D01*
G75*
G02*
X116610000Y-87900000I0J-50000D01*
G01*
X116610000Y-89600000D01*
G75*
G02*
X116560000Y-89650000I-50000J0D01*
G01*
G37*
D10*
X118250000Y-88750000D03*
G36*
G01*
X117144000Y-82227799D02*
X117144000Y-81872199D01*
G75*
G02*
X117194000Y-81822199I50000J0D01*
G01*
X118502100Y-81822199D01*
G75*
G02*
X118552100Y-81872199I0J-50000D01*
G01*
X118552100Y-82227799D01*
G75*
G02*
X118502100Y-82277799I-50000J0D01*
G01*
X117194000Y-82277799D01*
G75*
G02*
X117144000Y-82227799I0J50000D01*
G01*
G37*
G36*
G01*
X117144000Y-82877800D02*
X117144000Y-82522200D01*
G75*
G02*
X117194000Y-82472200I50000J0D01*
G01*
X118502100Y-82472200D01*
G75*
G02*
X118552100Y-82522200I0J-50000D01*
G01*
X118552100Y-82877800D01*
G75*
G02*
X118502100Y-82927800I-50000J0D01*
G01*
X117194000Y-82927800D01*
G75*
G02*
X117144000Y-82877800I0J50000D01*
G01*
G37*
G36*
G01*
X117144000Y-83527801D02*
X117144000Y-83172201D01*
G75*
G02*
X117194000Y-83122201I50000J0D01*
G01*
X118502100Y-83122201D01*
G75*
G02*
X118552100Y-83172201I0J-50000D01*
G01*
X118552100Y-83527801D01*
G75*
G02*
X118502100Y-83577801I-50000J0D01*
G01*
X117194000Y-83577801D01*
G75*
G02*
X117144000Y-83527801I0J50000D01*
G01*
G37*
G36*
G01*
X117144000Y-84177800D02*
X117144000Y-83822200D01*
G75*
G02*
X117194000Y-83772200I50000J0D01*
G01*
X118502100Y-83772200D01*
G75*
G02*
X118552100Y-83822200I0J-50000D01*
G01*
X118552100Y-84177800D01*
G75*
G02*
X118502100Y-84227800I-50000J0D01*
G01*
X117194000Y-84227800D01*
G75*
G02*
X117144000Y-84177800I0J50000D01*
G01*
G37*
G36*
G01*
X117144000Y-84827799D02*
X117144000Y-84472199D01*
G75*
G02*
X117194000Y-84422199I50000J0D01*
G01*
X118502100Y-84422199D01*
G75*
G02*
X118552100Y-84472199I0J-50000D01*
G01*
X118552100Y-84827799D01*
G75*
G02*
X118502100Y-84877799I-50000J0D01*
G01*
X117194000Y-84877799D01*
G75*
G02*
X117144000Y-84827799I0J50000D01*
G01*
G37*
G36*
G01*
X117144000Y-85477800D02*
X117144000Y-85122200D01*
G75*
G02*
X117194000Y-85072200I50000J0D01*
G01*
X118502100Y-85072200D01*
G75*
G02*
X118552100Y-85122200I0J-50000D01*
G01*
X118552100Y-85477800D01*
G75*
G02*
X118502100Y-85527800I-50000J0D01*
G01*
X117194000Y-85527800D01*
G75*
G02*
X117144000Y-85477800I0J50000D01*
G01*
G37*
G36*
G01*
X117144000Y-86127799D02*
X117144000Y-85772199D01*
G75*
G02*
X117194000Y-85722199I50000J0D01*
G01*
X118502100Y-85722199D01*
G75*
G02*
X118552100Y-85772199I0J-50000D01*
G01*
X118552100Y-86127799D01*
G75*
G02*
X118502100Y-86177799I-50000J0D01*
G01*
X117194000Y-86177799D01*
G75*
G02*
X117144000Y-86127799I0J50000D01*
G01*
G37*
G36*
G01*
X122947900Y-86127801D02*
X122947900Y-85772201D01*
G75*
G02*
X122997900Y-85722201I50000J0D01*
G01*
X124306000Y-85722201D01*
G75*
G02*
X124356000Y-85772201I0J-50000D01*
G01*
X124356000Y-86127801D01*
G75*
G02*
X124306000Y-86177801I-50000J0D01*
G01*
X122997900Y-86177801D01*
G75*
G02*
X122947900Y-86127801I0J50000D01*
G01*
G37*
G36*
G01*
X122947900Y-85477800D02*
X122947900Y-85122200D01*
G75*
G02*
X122997900Y-85072200I50000J0D01*
G01*
X124306000Y-85072200D01*
G75*
G02*
X124356000Y-85122200I0J-50000D01*
G01*
X124356000Y-85477800D01*
G75*
G02*
X124306000Y-85527800I-50000J0D01*
G01*
X122997900Y-85527800D01*
G75*
G02*
X122947900Y-85477800I0J50000D01*
G01*
G37*
G36*
G01*
X122947900Y-84827801D02*
X122947900Y-84472201D01*
G75*
G02*
X122997900Y-84422201I50000J0D01*
G01*
X124306000Y-84422201D01*
G75*
G02*
X124356000Y-84472201I0J-50000D01*
G01*
X124356000Y-84827801D01*
G75*
G02*
X124306000Y-84877801I-50000J0D01*
G01*
X122997900Y-84877801D01*
G75*
G02*
X122947900Y-84827801I0J50000D01*
G01*
G37*
G36*
G01*
X122947900Y-84177800D02*
X122947900Y-83822200D01*
G75*
G02*
X122997900Y-83772200I50000J0D01*
G01*
X124306000Y-83772200D01*
G75*
G02*
X124356000Y-83822200I0J-50000D01*
G01*
X124356000Y-84177800D01*
G75*
G02*
X124306000Y-84227800I-50000J0D01*
G01*
X122997900Y-84227800D01*
G75*
G02*
X122947900Y-84177800I0J50000D01*
G01*
G37*
G36*
G01*
X122947900Y-83527801D02*
X122947900Y-83172201D01*
G75*
G02*
X122997900Y-83122201I50000J0D01*
G01*
X124306000Y-83122201D01*
G75*
G02*
X124356000Y-83172201I0J-50000D01*
G01*
X124356000Y-83527801D01*
G75*
G02*
X124306000Y-83577801I-50000J0D01*
G01*
X122997900Y-83577801D01*
G75*
G02*
X122947900Y-83527801I0J50000D01*
G01*
G37*
G36*
G01*
X122947900Y-82877800D02*
X122947900Y-82522200D01*
G75*
G02*
X122997900Y-82472200I50000J0D01*
G01*
X124306000Y-82472200D01*
G75*
G02*
X124356000Y-82522200I0J-50000D01*
G01*
X124356000Y-82877800D01*
G75*
G02*
X124306000Y-82927800I-50000J0D01*
G01*
X122997900Y-82927800D01*
G75*
G02*
X122947900Y-82877800I0J50000D01*
G01*
G37*
G36*
G01*
X122947900Y-82227801D02*
X122947900Y-81872201D01*
G75*
G02*
X122997900Y-81822201I50000J0D01*
G01*
X124306000Y-81822201D01*
G75*
G02*
X124356000Y-81872201I0J-50000D01*
G01*
X124356000Y-82227801D01*
G75*
G02*
X124306000Y-82277801I-50000J0D01*
G01*
X122997900Y-82277801D01*
G75*
G02*
X122947900Y-82227801I0J50000D01*
G01*
G37*
G36*
G01*
X111850000Y-99500000D02*
X112650000Y-99500000D01*
G75*
G02*
X112700000Y-99550000I0J-50000D01*
G01*
X112700000Y-100450000D01*
G75*
G02*
X112650000Y-100500000I-50000J0D01*
G01*
X111850000Y-100500000D01*
G75*
G02*
X111800000Y-100450000I0J50000D01*
G01*
X111800000Y-99550000D01*
G75*
G02*
X111850000Y-99500000I50000J0D01*
G01*
G37*
G36*
G01*
X110900000Y-97500000D02*
X111700000Y-97500000D01*
G75*
G02*
X111750000Y-97550000I0J-50000D01*
G01*
X111750000Y-98450000D01*
G75*
G02*
X111700000Y-98500000I-50000J0D01*
G01*
X110900000Y-98500000D01*
G75*
G02*
X110850000Y-98450000I0J50000D01*
G01*
X110850000Y-97550000D01*
G75*
G02*
X110900000Y-97500000I50000J0D01*
G01*
G37*
G36*
G01*
X112800000Y-97500000D02*
X113600000Y-97500000D01*
G75*
G02*
X113650000Y-97550000I0J-50000D01*
G01*
X113650000Y-98450000D01*
G75*
G02*
X113600000Y-98500000I-50000J0D01*
G01*
X112800000Y-98500000D01*
G75*
G02*
X112750000Y-98450000I0J50000D01*
G01*
X112750000Y-97550000D01*
G75*
G02*
X112800000Y-97500000I50000J0D01*
G01*
G37*
G36*
G01*
X107100000Y-69350000D02*
X107100000Y-67650000D01*
G75*
G02*
X107150000Y-67600000I50000J0D01*
G01*
X108850000Y-67600000D01*
G75*
G02*
X108900000Y-67650000I0J-50000D01*
G01*
X108900000Y-69350000D01*
G75*
G02*
X108850000Y-69400000I-50000J0D01*
G01*
X107150000Y-69400000D01*
G75*
G02*
X107100000Y-69350000I0J50000D01*
G01*
G37*
X108000000Y-71040000D03*
X108000000Y-73580000D03*
G36*
G01*
X119475000Y-93975000D02*
X119475000Y-94525000D01*
G75*
G02*
X119225000Y-94775000I-250000J0D01*
G01*
X118725000Y-94775000D01*
G75*
G02*
X118475000Y-94525000I0J250000D01*
G01*
X118475000Y-93975000D01*
G75*
G02*
X118725000Y-93725000I250000J0D01*
G01*
X119225000Y-93725000D01*
G75*
G02*
X119475000Y-93975000I0J-250000D01*
G01*
G37*
G36*
G01*
X121025000Y-93975000D02*
X121025000Y-94525000D01*
G75*
G02*
X120775000Y-94775000I-250000J0D01*
G01*
X120275000Y-94775000D01*
G75*
G02*
X120025000Y-94525000I0J250000D01*
G01*
X120025000Y-93975000D01*
G75*
G02*
X120275000Y-93725000I250000J0D01*
G01*
X120775000Y-93725000D01*
G75*
G02*
X121025000Y-93975000I0J-250000D01*
G01*
G37*
G36*
G01*
X124050000Y-60375000D02*
X123450000Y-60375000D01*
G75*
G02*
X123225000Y-60150000I0J225000D01*
G01*
X123225000Y-59700000D01*
G75*
G02*
X123450000Y-59475000I225000J0D01*
G01*
X124050000Y-59475000D01*
G75*
G02*
X124275000Y-59700000I0J-225000D01*
G01*
X124275000Y-60150000D01*
G75*
G02*
X124050000Y-60375000I-225000J0D01*
G01*
G37*
G36*
G01*
X124050000Y-62025000D02*
X123450000Y-62025000D01*
G75*
G02*
X123225000Y-61800000I0J225000D01*
G01*
X123225000Y-61350000D01*
G75*
G02*
X123450000Y-61125000I225000J0D01*
G01*
X124050000Y-61125000D01*
G75*
G02*
X124275000Y-61350000I0J-225000D01*
G01*
X124275000Y-61800000D01*
G75*
G02*
X124050000Y-62025000I-225000J0D01*
G01*
G37*
X108000000Y-59580000D03*
X108000000Y-57040000D03*
G36*
G01*
X107100000Y-55350000D02*
X107100000Y-53650000D01*
G75*
G02*
X107150000Y-53600000I50000J0D01*
G01*
X108850000Y-53600000D01*
G75*
G02*
X108900000Y-53650000I0J-50000D01*
G01*
X108900000Y-55350000D01*
G75*
G02*
X108850000Y-55400000I-50000J0D01*
G01*
X107150000Y-55400000D01*
G75*
G02*
X107100000Y-55350000I0J50000D01*
G01*
G37*
D11*
X132080000Y-103370000D03*
X129540000Y-103370000D03*
X127000000Y-103370000D03*
X132080000Y-100830000D03*
X129540000Y-100830000D03*
X127000000Y-100830000D03*
X132080000Y-98290000D03*
X129540000Y-98290000D03*
X127000000Y-98290000D03*
X132080000Y-95750000D03*
X129540000Y-95750000D03*
G36*
G01*
X126175000Y-94875000D02*
X127825000Y-94875000D01*
G75*
G02*
X127875000Y-94925000I0J-50000D01*
G01*
X127875000Y-96575000D01*
G75*
G02*
X127825000Y-96625000I-50000J0D01*
G01*
X126175000Y-96625000D01*
G75*
G02*
X126125000Y-96575000I0J50000D01*
G01*
X126125000Y-94925000D01*
G75*
G02*
X126175000Y-94875000I50000J0D01*
G01*
G37*
G36*
G01*
X121218750Y-61050000D02*
X121781250Y-61050000D01*
G75*
G02*
X122025000Y-61293750I0J-243750D01*
G01*
X122025000Y-61781250D01*
G75*
G02*
X121781250Y-62025000I-243750J0D01*
G01*
X121218750Y-62025000D01*
G75*
G02*
X120975000Y-61781250I0J243750D01*
G01*
X120975000Y-61293750D01*
G75*
G02*
X121218750Y-61050000I243750J0D01*
G01*
G37*
G36*
G01*
X121218750Y-59475000D02*
X121781250Y-59475000D01*
G75*
G02*
X122025000Y-59718750I0J-243750D01*
G01*
X122025000Y-60206250D01*
G75*
G02*
X121781250Y-60450000I-243750J0D01*
G01*
X121218750Y-60450000D01*
G75*
G02*
X120975000Y-60206250I0J243750D01*
G01*
X120975000Y-59718750D01*
G75*
G02*
X121218750Y-59475000I243750J0D01*
G01*
G37*
X132080000Y-61370000D03*
X129540000Y-61370000D03*
X127000000Y-61370000D03*
X132080000Y-58830000D03*
X129540000Y-58830000D03*
X127000000Y-58830000D03*
X132080000Y-56290000D03*
X129540000Y-56290000D03*
X127000000Y-56290000D03*
X132080000Y-53750000D03*
X129540000Y-53750000D03*
G36*
G01*
X126175000Y-52875000D02*
X127825000Y-52875000D01*
G75*
G02*
X127875000Y-52925000I0J-50000D01*
G01*
X127875000Y-54575000D01*
G75*
G02*
X127825000Y-54625000I-50000J0D01*
G01*
X126175000Y-54625000D01*
G75*
G02*
X126125000Y-54575000I0J50000D01*
G01*
X126125000Y-52925000D01*
G75*
G02*
X126175000Y-52875000I50000J0D01*
G01*
G37*
D10*
X118250000Y-60750000D03*
G36*
G01*
X116560000Y-61650000D02*
X114860000Y-61650000D01*
G75*
G02*
X114810000Y-61600000I0J50000D01*
G01*
X114810000Y-59900000D01*
G75*
G02*
X114860000Y-59850000I50000J0D01*
G01*
X116560000Y-59850000D01*
G75*
G02*
X116610000Y-59900000I0J-50000D01*
G01*
X116610000Y-61600000D01*
G75*
G02*
X116560000Y-61650000I-50000J0D01*
G01*
G37*
G36*
G01*
X124050000Y-102375000D02*
X123450000Y-102375000D01*
G75*
G02*
X123225000Y-102150000I0J225000D01*
G01*
X123225000Y-101700000D01*
G75*
G02*
X123450000Y-101475000I225000J0D01*
G01*
X124050000Y-101475000D01*
G75*
G02*
X124275000Y-101700000I0J-225000D01*
G01*
X124275000Y-102150000D01*
G75*
G02*
X124050000Y-102375000I-225000J0D01*
G01*
G37*
G36*
G01*
X124050000Y-104025000D02*
X123450000Y-104025000D01*
G75*
G02*
X123225000Y-103800000I0J225000D01*
G01*
X123225000Y-103350000D01*
G75*
G02*
X123450000Y-103125000I225000J0D01*
G01*
X124050000Y-103125000D01*
G75*
G02*
X124275000Y-103350000I0J-225000D01*
G01*
X124275000Y-103800000D01*
G75*
G02*
X124050000Y-104025000I-225000J0D01*
G01*
G37*
G36*
G01*
X116560000Y-75650000D02*
X114860000Y-75650000D01*
G75*
G02*
X114810000Y-75600000I0J50000D01*
G01*
X114810000Y-73900000D01*
G75*
G02*
X114860000Y-73850000I50000J0D01*
G01*
X116560000Y-73850000D01*
G75*
G02*
X116610000Y-73900000I0J-50000D01*
G01*
X116610000Y-75600000D01*
G75*
G02*
X116560000Y-75650000I-50000J0D01*
G01*
G37*
X118250000Y-74750000D03*
G36*
G01*
X126175000Y-80875000D02*
X127825000Y-80875000D01*
G75*
G02*
X127875000Y-80925000I0J-50000D01*
G01*
X127875000Y-82575000D01*
G75*
G02*
X127825000Y-82625000I-50000J0D01*
G01*
X126175000Y-82625000D01*
G75*
G02*
X126125000Y-82575000I0J50000D01*
G01*
X126125000Y-80925000D01*
G75*
G02*
X126175000Y-80875000I50000J0D01*
G01*
G37*
D11*
X129540000Y-81750000D03*
X132080000Y-81750000D03*
X127000000Y-84290000D03*
X129540000Y-84290000D03*
X132080000Y-84290000D03*
X127000000Y-86830000D03*
X129540000Y-86830000D03*
X132080000Y-86830000D03*
X127000000Y-89370000D03*
X129540000Y-89370000D03*
X132080000Y-89370000D03*
G36*
G01*
X119475000Y-51975000D02*
X119475000Y-52525000D01*
G75*
G02*
X119225000Y-52775000I-250000J0D01*
G01*
X118725000Y-52775000D01*
G75*
G02*
X118475000Y-52525000I0J250000D01*
G01*
X118475000Y-51975000D01*
G75*
G02*
X118725000Y-51725000I250000J0D01*
G01*
X119225000Y-51725000D01*
G75*
G02*
X119475000Y-51975000I0J-250000D01*
G01*
G37*
G36*
G01*
X121025000Y-51975000D02*
X121025000Y-52525000D01*
G75*
G02*
X120775000Y-52775000I-250000J0D01*
G01*
X120275000Y-52775000D01*
G75*
G02*
X120025000Y-52525000I0J250000D01*
G01*
X120025000Y-51975000D01*
G75*
G02*
X120275000Y-51725000I250000J0D01*
G01*
X120775000Y-51725000D01*
G75*
G02*
X121025000Y-51975000I0J-250000D01*
G01*
G37*
G36*
G01*
X111850000Y-57500000D02*
X112650000Y-57500000D01*
G75*
G02*
X112700000Y-57550000I0J-50000D01*
G01*
X112700000Y-58450000D01*
G75*
G02*
X112650000Y-58500000I-50000J0D01*
G01*
X111850000Y-58500000D01*
G75*
G02*
X111800000Y-58450000I0J50000D01*
G01*
X111800000Y-57550000D01*
G75*
G02*
X111850000Y-57500000I50000J0D01*
G01*
G37*
G36*
G01*
X110900000Y-55500000D02*
X111700000Y-55500000D01*
G75*
G02*
X111750000Y-55550000I0J-50000D01*
G01*
X111750000Y-56450000D01*
G75*
G02*
X111700000Y-56500000I-50000J0D01*
G01*
X110900000Y-56500000D01*
G75*
G02*
X110850000Y-56450000I0J50000D01*
G01*
X110850000Y-55550000D01*
G75*
G02*
X110900000Y-55500000I50000J0D01*
G01*
G37*
G36*
G01*
X112800000Y-55500000D02*
X113600000Y-55500000D01*
G75*
G02*
X113650000Y-55550000I0J-50000D01*
G01*
X113650000Y-56450000D01*
G75*
G02*
X113600000Y-56500000I-50000J0D01*
G01*
X112800000Y-56500000D01*
G75*
G02*
X112750000Y-56450000I0J50000D01*
G01*
X112750000Y-55550000D01*
G75*
G02*
X112800000Y-55500000I50000J0D01*
G01*
G37*
G36*
G01*
X112800000Y-69500000D02*
X113600000Y-69500000D01*
G75*
G02*
X113650000Y-69550000I0J-50000D01*
G01*
X113650000Y-70450000D01*
G75*
G02*
X113600000Y-70500000I-50000J0D01*
G01*
X112800000Y-70500000D01*
G75*
G02*
X112750000Y-70450000I0J50000D01*
G01*
X112750000Y-69550000D01*
G75*
G02*
X112800000Y-69500000I50000J0D01*
G01*
G37*
G36*
G01*
X110900000Y-69500000D02*
X111700000Y-69500000D01*
G75*
G02*
X111750000Y-69550000I0J-50000D01*
G01*
X111750000Y-70450000D01*
G75*
G02*
X111700000Y-70500000I-50000J0D01*
G01*
X110900000Y-70500000D01*
G75*
G02*
X110850000Y-70450000I0J50000D01*
G01*
X110850000Y-69550000D01*
G75*
G02*
X110900000Y-69500000I50000J0D01*
G01*
G37*
G36*
G01*
X111850000Y-71500000D02*
X112650000Y-71500000D01*
G75*
G02*
X112700000Y-71550000I0J-50000D01*
G01*
X112700000Y-72450000D01*
G75*
G02*
X112650000Y-72500000I-50000J0D01*
G01*
X111850000Y-72500000D01*
G75*
G02*
X111800000Y-72450000I0J50000D01*
G01*
X111800000Y-71550000D01*
G75*
G02*
X111850000Y-71500000I50000J0D01*
G01*
G37*
G36*
G01*
X121025000Y-65975000D02*
X121025000Y-66525000D01*
G75*
G02*
X120775000Y-66775000I-250000J0D01*
G01*
X120275000Y-66775000D01*
G75*
G02*
X120025000Y-66525000I0J250000D01*
G01*
X120025000Y-65975000D01*
G75*
G02*
X120275000Y-65725000I250000J0D01*
G01*
X120775000Y-65725000D01*
G75*
G02*
X121025000Y-65975000I0J-250000D01*
G01*
G37*
G36*
G01*
X119475000Y-65975000D02*
X119475000Y-66525000D01*
G75*
G02*
X119225000Y-66775000I-250000J0D01*
G01*
X118725000Y-66775000D01*
G75*
G02*
X118475000Y-66525000I0J250000D01*
G01*
X118475000Y-65975000D01*
G75*
G02*
X118725000Y-65725000I250000J0D01*
G01*
X119225000Y-65725000D01*
G75*
G02*
X119475000Y-65975000I0J-250000D01*
G01*
G37*
G36*
G01*
X122947900Y-54227801D02*
X122947900Y-53872201D01*
G75*
G02*
X122997900Y-53822201I50000J0D01*
G01*
X124306000Y-53822201D01*
G75*
G02*
X124356000Y-53872201I0J-50000D01*
G01*
X124356000Y-54227801D01*
G75*
G02*
X124306000Y-54277801I-50000J0D01*
G01*
X122997900Y-54277801D01*
G75*
G02*
X122947900Y-54227801I0J50000D01*
G01*
G37*
G36*
G01*
X122947900Y-54877800D02*
X122947900Y-54522200D01*
G75*
G02*
X122997900Y-54472200I50000J0D01*
G01*
X124306000Y-54472200D01*
G75*
G02*
X124356000Y-54522200I0J-50000D01*
G01*
X124356000Y-54877800D01*
G75*
G02*
X124306000Y-54927800I-50000J0D01*
G01*
X122997900Y-54927800D01*
G75*
G02*
X122947900Y-54877800I0J50000D01*
G01*
G37*
G36*
G01*
X122947900Y-55527801D02*
X122947900Y-55172201D01*
G75*
G02*
X122997900Y-55122201I50000J0D01*
G01*
X124306000Y-55122201D01*
G75*
G02*
X124356000Y-55172201I0J-50000D01*
G01*
X124356000Y-55527801D01*
G75*
G02*
X124306000Y-55577801I-50000J0D01*
G01*
X122997900Y-55577801D01*
G75*
G02*
X122947900Y-55527801I0J50000D01*
G01*
G37*
G36*
G01*
X122947900Y-56177800D02*
X122947900Y-55822200D01*
G75*
G02*
X122997900Y-55772200I50000J0D01*
G01*
X124306000Y-55772200D01*
G75*
G02*
X124356000Y-55822200I0J-50000D01*
G01*
X124356000Y-56177800D01*
G75*
G02*
X124306000Y-56227800I-50000J0D01*
G01*
X122997900Y-56227800D01*
G75*
G02*
X122947900Y-56177800I0J50000D01*
G01*
G37*
G36*
G01*
X122947900Y-56827801D02*
X122947900Y-56472201D01*
G75*
G02*
X122997900Y-56422201I50000J0D01*
G01*
X124306000Y-56422201D01*
G75*
G02*
X124356000Y-56472201I0J-50000D01*
G01*
X124356000Y-56827801D01*
G75*
G02*
X124306000Y-56877801I-50000J0D01*
G01*
X122997900Y-56877801D01*
G75*
G02*
X122947900Y-56827801I0J50000D01*
G01*
G37*
G36*
G01*
X122947900Y-57477800D02*
X122947900Y-57122200D01*
G75*
G02*
X122997900Y-57072200I50000J0D01*
G01*
X124306000Y-57072200D01*
G75*
G02*
X124356000Y-57122200I0J-50000D01*
G01*
X124356000Y-57477800D01*
G75*
G02*
X124306000Y-57527800I-50000J0D01*
G01*
X122997900Y-57527800D01*
G75*
G02*
X122947900Y-57477800I0J50000D01*
G01*
G37*
G36*
G01*
X122947900Y-58127801D02*
X122947900Y-57772201D01*
G75*
G02*
X122997900Y-57722201I50000J0D01*
G01*
X124306000Y-57722201D01*
G75*
G02*
X124356000Y-57772201I0J-50000D01*
G01*
X124356000Y-58127801D01*
G75*
G02*
X124306000Y-58177801I-50000J0D01*
G01*
X122997900Y-58177801D01*
G75*
G02*
X122947900Y-58127801I0J50000D01*
G01*
G37*
G36*
G01*
X117144000Y-58127799D02*
X117144000Y-57772199D01*
G75*
G02*
X117194000Y-57722199I50000J0D01*
G01*
X118502100Y-57722199D01*
G75*
G02*
X118552100Y-57772199I0J-50000D01*
G01*
X118552100Y-58127799D01*
G75*
G02*
X118502100Y-58177799I-50000J0D01*
G01*
X117194000Y-58177799D01*
G75*
G02*
X117144000Y-58127799I0J50000D01*
G01*
G37*
G36*
G01*
X117144000Y-57477800D02*
X117144000Y-57122200D01*
G75*
G02*
X117194000Y-57072200I50000J0D01*
G01*
X118502100Y-57072200D01*
G75*
G02*
X118552100Y-57122200I0J-50000D01*
G01*
X118552100Y-57477800D01*
G75*
G02*
X118502100Y-57527800I-50000J0D01*
G01*
X117194000Y-57527800D01*
G75*
G02*
X117144000Y-57477800I0J50000D01*
G01*
G37*
G36*
G01*
X117144000Y-56827799D02*
X117144000Y-56472199D01*
G75*
G02*
X117194000Y-56422199I50000J0D01*
G01*
X118502100Y-56422199D01*
G75*
G02*
X118552100Y-56472199I0J-50000D01*
G01*
X118552100Y-56827799D01*
G75*
G02*
X118502100Y-56877799I-50000J0D01*
G01*
X117194000Y-56877799D01*
G75*
G02*
X117144000Y-56827799I0J50000D01*
G01*
G37*
G36*
G01*
X117144000Y-56177800D02*
X117144000Y-55822200D01*
G75*
G02*
X117194000Y-55772200I50000J0D01*
G01*
X118502100Y-55772200D01*
G75*
G02*
X118552100Y-55822200I0J-50000D01*
G01*
X118552100Y-56177800D01*
G75*
G02*
X118502100Y-56227800I-50000J0D01*
G01*
X117194000Y-56227800D01*
G75*
G02*
X117144000Y-56177800I0J50000D01*
G01*
G37*
G36*
G01*
X117144000Y-55527801D02*
X117144000Y-55172201D01*
G75*
G02*
X117194000Y-55122201I50000J0D01*
G01*
X118502100Y-55122201D01*
G75*
G02*
X118552100Y-55172201I0J-50000D01*
G01*
X118552100Y-55527801D01*
G75*
G02*
X118502100Y-55577801I-50000J0D01*
G01*
X117194000Y-55577801D01*
G75*
G02*
X117144000Y-55527801I0J50000D01*
G01*
G37*
G36*
G01*
X117144000Y-54877800D02*
X117144000Y-54522200D01*
G75*
G02*
X117194000Y-54472200I50000J0D01*
G01*
X118502100Y-54472200D01*
G75*
G02*
X118552100Y-54522200I0J-50000D01*
G01*
X118552100Y-54877800D01*
G75*
G02*
X118502100Y-54927800I-50000J0D01*
G01*
X117194000Y-54927800D01*
G75*
G02*
X117144000Y-54877800I0J50000D01*
G01*
G37*
G36*
G01*
X117144000Y-54227799D02*
X117144000Y-53872199D01*
G75*
G02*
X117194000Y-53822199I50000J0D01*
G01*
X118502100Y-53822199D01*
G75*
G02*
X118552100Y-53872199I0J-50000D01*
G01*
X118552100Y-54227799D01*
G75*
G02*
X118502100Y-54277799I-50000J0D01*
G01*
X117194000Y-54277799D01*
G75*
G02*
X117144000Y-54227799I0J50000D01*
G01*
G37*
G36*
G01*
X121218750Y-87475000D02*
X121781250Y-87475000D01*
G75*
G02*
X122025000Y-87718750I0J-243750D01*
G01*
X122025000Y-88206250D01*
G75*
G02*
X121781250Y-88450000I-243750J0D01*
G01*
X121218750Y-88450000D01*
G75*
G02*
X120975000Y-88206250I0J243750D01*
G01*
X120975000Y-87718750D01*
G75*
G02*
X121218750Y-87475000I243750J0D01*
G01*
G37*
G36*
G01*
X121218750Y-89050000D02*
X121781250Y-89050000D01*
G75*
G02*
X122025000Y-89293750I0J-243750D01*
G01*
X122025000Y-89781250D01*
G75*
G02*
X121781250Y-90025000I-243750J0D01*
G01*
X121218750Y-90025000D01*
G75*
G02*
X120975000Y-89781250I0J243750D01*
G01*
X120975000Y-89293750D01*
G75*
G02*
X121218750Y-89050000I243750J0D01*
G01*
G37*
G36*
G01*
X111975000Y-60775000D02*
X112525000Y-60775000D01*
G75*
G02*
X112775000Y-61025000I0J-250000D01*
G01*
X112775000Y-61525000D01*
G75*
G02*
X112525000Y-61775000I-250000J0D01*
G01*
X111975000Y-61775000D01*
G75*
G02*
X111725000Y-61525000I0J250000D01*
G01*
X111725000Y-61025000D01*
G75*
G02*
X111975000Y-60775000I250000J0D01*
G01*
G37*
G36*
G01*
X111975000Y-59225000D02*
X112525000Y-59225000D01*
G75*
G02*
X112775000Y-59475000I0J-250000D01*
G01*
X112775000Y-59975000D01*
G75*
G02*
X112525000Y-60225000I-250000J0D01*
G01*
X111975000Y-60225000D01*
G75*
G02*
X111725000Y-59975000I0J250000D01*
G01*
X111725000Y-59475000D01*
G75*
G02*
X111975000Y-59225000I250000J0D01*
G01*
G37*
G36*
G01*
X107100000Y-83350000D02*
X107100000Y-81650000D01*
G75*
G02*
X107150000Y-81600000I50000J0D01*
G01*
X108850000Y-81600000D01*
G75*
G02*
X108900000Y-81650000I0J-50000D01*
G01*
X108900000Y-83350000D01*
G75*
G02*
X108850000Y-83400000I-50000J0D01*
G01*
X107150000Y-83400000D01*
G75*
G02*
X107100000Y-83350000I0J50000D01*
G01*
G37*
D10*
X108000000Y-85040000D03*
X108000000Y-87580000D03*
G36*
G01*
X114975000Y-67225000D02*
X115525000Y-67225000D01*
G75*
G02*
X115775000Y-67475000I0J-250000D01*
G01*
X115775000Y-67975000D01*
G75*
G02*
X115525000Y-68225000I-250000J0D01*
G01*
X114975000Y-68225000D01*
G75*
G02*
X114725000Y-67975000I0J250000D01*
G01*
X114725000Y-67475000D01*
G75*
G02*
X114975000Y-67225000I250000J0D01*
G01*
G37*
G36*
G01*
X114975000Y-68775000D02*
X115525000Y-68775000D01*
G75*
G02*
X115775000Y-69025000I0J-250000D01*
G01*
X115775000Y-69525000D01*
G75*
G02*
X115525000Y-69775000I-250000J0D01*
G01*
X114975000Y-69775000D01*
G75*
G02*
X114725000Y-69525000I0J250000D01*
G01*
X114725000Y-69025000D01*
G75*
G02*
X114975000Y-68775000I250000J0D01*
G01*
G37*
G36*
G01*
X111975000Y-73225000D02*
X112525000Y-73225000D01*
G75*
G02*
X112775000Y-73475000I0J-250000D01*
G01*
X112775000Y-73975000D01*
G75*
G02*
X112525000Y-74225000I-250000J0D01*
G01*
X111975000Y-74225000D01*
G75*
G02*
X111725000Y-73975000I0J250000D01*
G01*
X111725000Y-73475000D01*
G75*
G02*
X111975000Y-73225000I250000J0D01*
G01*
G37*
G36*
G01*
X111975000Y-74775000D02*
X112525000Y-74775000D01*
G75*
G02*
X112775000Y-75025000I0J-250000D01*
G01*
X112775000Y-75525000D01*
G75*
G02*
X112525000Y-75775000I-250000J0D01*
G01*
X111975000Y-75775000D01*
G75*
G02*
X111725000Y-75525000I0J250000D01*
G01*
X111725000Y-75025000D01*
G75*
G02*
X111975000Y-74775000I250000J0D01*
G01*
G37*
G36*
G01*
X117144000Y-68227799D02*
X117144000Y-67872199D01*
G75*
G02*
X117194000Y-67822199I50000J0D01*
G01*
X118502100Y-67822199D01*
G75*
G02*
X118552100Y-67872199I0J-50000D01*
G01*
X118552100Y-68227799D01*
G75*
G02*
X118502100Y-68277799I-50000J0D01*
G01*
X117194000Y-68277799D01*
G75*
G02*
X117144000Y-68227799I0J50000D01*
G01*
G37*
G36*
G01*
X117144000Y-68877800D02*
X117144000Y-68522200D01*
G75*
G02*
X117194000Y-68472200I50000J0D01*
G01*
X118502100Y-68472200D01*
G75*
G02*
X118552100Y-68522200I0J-50000D01*
G01*
X118552100Y-68877800D01*
G75*
G02*
X118502100Y-68927800I-50000J0D01*
G01*
X117194000Y-68927800D01*
G75*
G02*
X117144000Y-68877800I0J50000D01*
G01*
G37*
G36*
G01*
X117144000Y-69527801D02*
X117144000Y-69172201D01*
G75*
G02*
X117194000Y-69122201I50000J0D01*
G01*
X118502100Y-69122201D01*
G75*
G02*
X118552100Y-69172201I0J-50000D01*
G01*
X118552100Y-69527801D01*
G75*
G02*
X118502100Y-69577801I-50000J0D01*
G01*
X117194000Y-69577801D01*
G75*
G02*
X117144000Y-69527801I0J50000D01*
G01*
G37*
G36*
G01*
X117144000Y-70177800D02*
X117144000Y-69822200D01*
G75*
G02*
X117194000Y-69772200I50000J0D01*
G01*
X118502100Y-69772200D01*
G75*
G02*
X118552100Y-69822200I0J-50000D01*
G01*
X118552100Y-70177800D01*
G75*
G02*
X118502100Y-70227800I-50000J0D01*
G01*
X117194000Y-70227800D01*
G75*
G02*
X117144000Y-70177800I0J50000D01*
G01*
G37*
G36*
G01*
X117144000Y-70827799D02*
X117144000Y-70472199D01*
G75*
G02*
X117194000Y-70422199I50000J0D01*
G01*
X118502100Y-70422199D01*
G75*
G02*
X118552100Y-70472199I0J-50000D01*
G01*
X118552100Y-70827799D01*
G75*
G02*
X118502100Y-70877799I-50000J0D01*
G01*
X117194000Y-70877799D01*
G75*
G02*
X117144000Y-70827799I0J50000D01*
G01*
G37*
G36*
G01*
X117144000Y-71477800D02*
X117144000Y-71122200D01*
G75*
G02*
X117194000Y-71072200I50000J0D01*
G01*
X118502100Y-71072200D01*
G75*
G02*
X118552100Y-71122200I0J-50000D01*
G01*
X118552100Y-71477800D01*
G75*
G02*
X118502100Y-71527800I-50000J0D01*
G01*
X117194000Y-71527800D01*
G75*
G02*
X117144000Y-71477800I0J50000D01*
G01*
G37*
G36*
G01*
X117144000Y-72127799D02*
X117144000Y-71772199D01*
G75*
G02*
X117194000Y-71722199I50000J0D01*
G01*
X118502100Y-71722199D01*
G75*
G02*
X118552100Y-71772199I0J-50000D01*
G01*
X118552100Y-72127799D01*
G75*
G02*
X118502100Y-72177799I-50000J0D01*
G01*
X117194000Y-72177799D01*
G75*
G02*
X117144000Y-72127799I0J50000D01*
G01*
G37*
G36*
G01*
X122947900Y-72127801D02*
X122947900Y-71772201D01*
G75*
G02*
X122997900Y-71722201I50000J0D01*
G01*
X124306000Y-71722201D01*
G75*
G02*
X124356000Y-71772201I0J-50000D01*
G01*
X124356000Y-72127801D01*
G75*
G02*
X124306000Y-72177801I-50000J0D01*
G01*
X122997900Y-72177801D01*
G75*
G02*
X122947900Y-72127801I0J50000D01*
G01*
G37*
G36*
G01*
X122947900Y-71477800D02*
X122947900Y-71122200D01*
G75*
G02*
X122997900Y-71072200I50000J0D01*
G01*
X124306000Y-71072200D01*
G75*
G02*
X124356000Y-71122200I0J-50000D01*
G01*
X124356000Y-71477800D01*
G75*
G02*
X124306000Y-71527800I-50000J0D01*
G01*
X122997900Y-71527800D01*
G75*
G02*
X122947900Y-71477800I0J50000D01*
G01*
G37*
G36*
G01*
X122947900Y-70827801D02*
X122947900Y-70472201D01*
G75*
G02*
X122997900Y-70422201I50000J0D01*
G01*
X124306000Y-70422201D01*
G75*
G02*
X124356000Y-70472201I0J-50000D01*
G01*
X124356000Y-70827801D01*
G75*
G02*
X124306000Y-70877801I-50000J0D01*
G01*
X122997900Y-70877801D01*
G75*
G02*
X122947900Y-70827801I0J50000D01*
G01*
G37*
G36*
G01*
X122947900Y-70177800D02*
X122947900Y-69822200D01*
G75*
G02*
X122997900Y-69772200I50000J0D01*
G01*
X124306000Y-69772200D01*
G75*
G02*
X124356000Y-69822200I0J-50000D01*
G01*
X124356000Y-70177800D01*
G75*
G02*
X124306000Y-70227800I-50000J0D01*
G01*
X122997900Y-70227800D01*
G75*
G02*
X122947900Y-70177800I0J50000D01*
G01*
G37*
G36*
G01*
X122947900Y-69527801D02*
X122947900Y-69172201D01*
G75*
G02*
X122997900Y-69122201I50000J0D01*
G01*
X124306000Y-69122201D01*
G75*
G02*
X124356000Y-69172201I0J-50000D01*
G01*
X124356000Y-69527801D01*
G75*
G02*
X124306000Y-69577801I-50000J0D01*
G01*
X122997900Y-69577801D01*
G75*
G02*
X122947900Y-69527801I0J50000D01*
G01*
G37*
G36*
G01*
X122947900Y-68877800D02*
X122947900Y-68522200D01*
G75*
G02*
X122997900Y-68472200I50000J0D01*
G01*
X124306000Y-68472200D01*
G75*
G02*
X124356000Y-68522200I0J-50000D01*
G01*
X124356000Y-68877800D01*
G75*
G02*
X124306000Y-68927800I-50000J0D01*
G01*
X122997900Y-68927800D01*
G75*
G02*
X122947900Y-68877800I0J50000D01*
G01*
G37*
G36*
G01*
X122947900Y-68227801D02*
X122947900Y-67872201D01*
G75*
G02*
X122997900Y-67822201I50000J0D01*
G01*
X124306000Y-67822201D01*
G75*
G02*
X124356000Y-67872201I0J-50000D01*
G01*
X124356000Y-68227801D01*
G75*
G02*
X124306000Y-68277801I-50000J0D01*
G01*
X122997900Y-68277801D01*
G75*
G02*
X122947900Y-68227801I0J50000D01*
G01*
G37*
X108000000Y-101580000D03*
X108000000Y-99040000D03*
G36*
G01*
X107100000Y-97350000D02*
X107100000Y-95650000D01*
G75*
G02*
X107150000Y-95600000I50000J0D01*
G01*
X108850000Y-95600000D01*
G75*
G02*
X108900000Y-95650000I0J-50000D01*
G01*
X108900000Y-97350000D01*
G75*
G02*
X108850000Y-97400000I-50000J0D01*
G01*
X107150000Y-97400000D01*
G75*
G02*
X107100000Y-97350000I0J50000D01*
G01*
G37*
G36*
G01*
X124050000Y-90025000D02*
X123450000Y-90025000D01*
G75*
G02*
X123225000Y-89800000I0J225000D01*
G01*
X123225000Y-89350000D01*
G75*
G02*
X123450000Y-89125000I225000J0D01*
G01*
X124050000Y-89125000D01*
G75*
G02*
X124275000Y-89350000I0J-225000D01*
G01*
X124275000Y-89800000D01*
G75*
G02*
X124050000Y-90025000I-225000J0D01*
G01*
G37*
G36*
G01*
X124050000Y-88375000D02*
X123450000Y-88375000D01*
G75*
G02*
X123225000Y-88150000I0J225000D01*
G01*
X123225000Y-87700000D01*
G75*
G02*
X123450000Y-87475000I225000J0D01*
G01*
X124050000Y-87475000D01*
G75*
G02*
X124275000Y-87700000I0J-225000D01*
G01*
X124275000Y-88150000D01*
G75*
G02*
X124050000Y-88375000I-225000J0D01*
G01*
G37*
G36*
G01*
X93468750Y-59475000D02*
X94031250Y-59475000D01*
G75*
G02*
X94275000Y-59718750I0J-243750D01*
G01*
X94275000Y-60206250D01*
G75*
G02*
X94031250Y-60450000I-243750J0D01*
G01*
X93468750Y-60450000D01*
G75*
G02*
X93225000Y-60206250I0J243750D01*
G01*
X93225000Y-59718750D01*
G75*
G02*
X93468750Y-59475000I243750J0D01*
G01*
G37*
G36*
G01*
X93468750Y-61050000D02*
X94031250Y-61050000D01*
G75*
G02*
X94275000Y-61293750I0J-243750D01*
G01*
X94275000Y-61781250D01*
G75*
G02*
X94031250Y-62025000I-243750J0D01*
G01*
X93468750Y-62025000D01*
G75*
G02*
X93225000Y-61781250I0J243750D01*
G01*
X93225000Y-61293750D01*
G75*
G02*
X93468750Y-61050000I243750J0D01*
G01*
G37*
G36*
G01*
X96300000Y-62025000D02*
X95700000Y-62025000D01*
G75*
G02*
X95475000Y-61800000I0J225000D01*
G01*
X95475000Y-61350000D01*
G75*
G02*
X95700000Y-61125000I225000J0D01*
G01*
X96300000Y-61125000D01*
G75*
G02*
X96525000Y-61350000I0J-225000D01*
G01*
X96525000Y-61800000D01*
G75*
G02*
X96300000Y-62025000I-225000J0D01*
G01*
G37*
G36*
G01*
X96300000Y-60375000D02*
X95700000Y-60375000D01*
G75*
G02*
X95475000Y-60150000I0J225000D01*
G01*
X95475000Y-59700000D01*
G75*
G02*
X95700000Y-59475000I225000J0D01*
G01*
X96300000Y-59475000D01*
G75*
G02*
X96525000Y-59700000I0J-225000D01*
G01*
X96525000Y-60150000D01*
G75*
G02*
X96300000Y-60375000I-225000J0D01*
G01*
G37*
G36*
G01*
X79350000Y-55350000D02*
X79350000Y-53650000D01*
G75*
G02*
X79400000Y-53600000I50000J0D01*
G01*
X81100000Y-53600000D01*
G75*
G02*
X81150000Y-53650000I0J-50000D01*
G01*
X81150000Y-55350000D01*
G75*
G02*
X81100000Y-55400000I-50000J0D01*
G01*
X79400000Y-55400000D01*
G75*
G02*
X79350000Y-55350000I0J50000D01*
G01*
G37*
X80250000Y-57040000D03*
X80250000Y-59580000D03*
G36*
G01*
X98425000Y-52875000D02*
X100075000Y-52875000D01*
G75*
G02*
X100125000Y-52925000I0J-50000D01*
G01*
X100125000Y-54575000D01*
G75*
G02*
X100075000Y-54625000I-50000J0D01*
G01*
X98425000Y-54625000D01*
G75*
G02*
X98375000Y-54575000I0J50000D01*
G01*
X98375000Y-52925000D01*
G75*
G02*
X98425000Y-52875000I50000J0D01*
G01*
G37*
D11*
X101790000Y-53750000D03*
X104330000Y-53750000D03*
X99250000Y-56290000D03*
X101790000Y-56290000D03*
X104330000Y-56290000D03*
X99250000Y-58830000D03*
X101790000Y-58830000D03*
X104330000Y-58830000D03*
X99250000Y-61370000D03*
X101790000Y-61370000D03*
X104330000Y-61370000D03*
G36*
G01*
X98425000Y-94875000D02*
X100075000Y-94875000D01*
G75*
G02*
X100125000Y-94925000I0J-50000D01*
G01*
X100125000Y-96575000D01*
G75*
G02*
X100075000Y-96625000I-50000J0D01*
G01*
X98425000Y-96625000D01*
G75*
G02*
X98375000Y-96575000I0J50000D01*
G01*
X98375000Y-94925000D01*
G75*
G02*
X98425000Y-94875000I50000J0D01*
G01*
G37*
X101790000Y-95750000D03*
X104330000Y-95750000D03*
X99250000Y-98290000D03*
X101790000Y-98290000D03*
X104330000Y-98290000D03*
X99250000Y-100830000D03*
X101790000Y-100830000D03*
X104330000Y-100830000D03*
X99250000Y-103370000D03*
X101790000Y-103370000D03*
X104330000Y-103370000D03*
D10*
X90500000Y-88750000D03*
G36*
G01*
X88810000Y-89650000D02*
X87110000Y-89650000D01*
G75*
G02*
X87060000Y-89600000I0J50000D01*
G01*
X87060000Y-87900000D01*
G75*
G02*
X87110000Y-87850000I50000J0D01*
G01*
X88810000Y-87850000D01*
G75*
G02*
X88860000Y-87900000I0J-50000D01*
G01*
X88860000Y-89600000D01*
G75*
G02*
X88810000Y-89650000I-50000J0D01*
G01*
G37*
G36*
G01*
X96300000Y-74375000D02*
X95700000Y-74375000D01*
G75*
G02*
X95475000Y-74150000I0J225000D01*
G01*
X95475000Y-73700000D01*
G75*
G02*
X95700000Y-73475000I225000J0D01*
G01*
X96300000Y-73475000D01*
G75*
G02*
X96525000Y-73700000I0J-225000D01*
G01*
X96525000Y-74150000D01*
G75*
G02*
X96300000Y-74375000I-225000J0D01*
G01*
G37*
G36*
G01*
X96300000Y-76025000D02*
X95700000Y-76025000D01*
G75*
G02*
X95475000Y-75800000I0J225000D01*
G01*
X95475000Y-75350000D01*
G75*
G02*
X95700000Y-75125000I225000J0D01*
G01*
X96300000Y-75125000D01*
G75*
G02*
X96525000Y-75350000I0J-225000D01*
G01*
X96525000Y-75800000D01*
G75*
G02*
X96300000Y-76025000I-225000J0D01*
G01*
G37*
X80250000Y-73580000D03*
X80250000Y-71040000D03*
G36*
G01*
X79350000Y-69350000D02*
X79350000Y-67650000D01*
G75*
G02*
X79400000Y-67600000I50000J0D01*
G01*
X81100000Y-67600000D01*
G75*
G02*
X81150000Y-67650000I0J-50000D01*
G01*
X81150000Y-69350000D01*
G75*
G02*
X81100000Y-69400000I-50000J0D01*
G01*
X79400000Y-69400000D01*
G75*
G02*
X79350000Y-69350000I0J50000D01*
G01*
G37*
G36*
G01*
X87225000Y-95225000D02*
X87775000Y-95225000D01*
G75*
G02*
X88025000Y-95475000I0J-250000D01*
G01*
X88025000Y-95975000D01*
G75*
G02*
X87775000Y-96225000I-250000J0D01*
G01*
X87225000Y-96225000D01*
G75*
G02*
X86975000Y-95975000I0J250000D01*
G01*
X86975000Y-95475000D01*
G75*
G02*
X87225000Y-95225000I250000J0D01*
G01*
G37*
G36*
G01*
X87225000Y-96775000D02*
X87775000Y-96775000D01*
G75*
G02*
X88025000Y-97025000I0J-250000D01*
G01*
X88025000Y-97525000D01*
G75*
G02*
X87775000Y-97775000I-250000J0D01*
G01*
X87225000Y-97775000D01*
G75*
G02*
X86975000Y-97525000I0J250000D01*
G01*
X86975000Y-97025000D01*
G75*
G02*
X87225000Y-96775000I250000J0D01*
G01*
G37*
D11*
X104330000Y-75370000D03*
X101790000Y-75370000D03*
X99250000Y-75370000D03*
X104330000Y-72830000D03*
X101790000Y-72830000D03*
X99250000Y-72830000D03*
X104330000Y-70290000D03*
X101790000Y-70290000D03*
X99250000Y-70290000D03*
X104330000Y-67750000D03*
X101790000Y-67750000D03*
G36*
G01*
X98425000Y-66875000D02*
X100075000Y-66875000D01*
G75*
G02*
X100125000Y-66925000I0J-50000D01*
G01*
X100125000Y-68575000D01*
G75*
G02*
X100075000Y-68625000I-50000J0D01*
G01*
X98425000Y-68625000D01*
G75*
G02*
X98375000Y-68575000I0J50000D01*
G01*
X98375000Y-66925000D01*
G75*
G02*
X98425000Y-66875000I50000J0D01*
G01*
G37*
G36*
G01*
X93275000Y-93975000D02*
X93275000Y-94525000D01*
G75*
G02*
X93025000Y-94775000I-250000J0D01*
G01*
X92525000Y-94775000D01*
G75*
G02*
X92275000Y-94525000I0J250000D01*
G01*
X92275000Y-93975000D01*
G75*
G02*
X92525000Y-93725000I250000J0D01*
G01*
X93025000Y-93725000D01*
G75*
G02*
X93275000Y-93975000I0J-250000D01*
G01*
G37*
G36*
G01*
X91725000Y-93975000D02*
X91725000Y-94525000D01*
G75*
G02*
X91475000Y-94775000I-250000J0D01*
G01*
X90975000Y-94775000D01*
G75*
G02*
X90725000Y-94525000I0J250000D01*
G01*
X90725000Y-93975000D01*
G75*
G02*
X90975000Y-93725000I250000J0D01*
G01*
X91475000Y-93725000D01*
G75*
G02*
X91725000Y-93975000I0J-250000D01*
G01*
G37*
G36*
G01*
X93468750Y-101475000D02*
X94031250Y-101475000D01*
G75*
G02*
X94275000Y-101718750I0J-243750D01*
G01*
X94275000Y-102206250D01*
G75*
G02*
X94031250Y-102450000I-243750J0D01*
G01*
X93468750Y-102450000D01*
G75*
G02*
X93225000Y-102206250I0J243750D01*
G01*
X93225000Y-101718750D01*
G75*
G02*
X93468750Y-101475000I243750J0D01*
G01*
G37*
G36*
G01*
X93468750Y-103050000D02*
X94031250Y-103050000D01*
G75*
G02*
X94275000Y-103293750I0J-243750D01*
G01*
X94275000Y-103781250D01*
G75*
G02*
X94031250Y-104025000I-243750J0D01*
G01*
X93468750Y-104025000D01*
G75*
G02*
X93225000Y-103781250I0J243750D01*
G01*
X93225000Y-103293750D01*
G75*
G02*
X93468750Y-103050000I243750J0D01*
G01*
G37*
G36*
G01*
X88810000Y-103650000D02*
X87110000Y-103650000D01*
G75*
G02*
X87060000Y-103600000I0J50000D01*
G01*
X87060000Y-101900000D01*
G75*
G02*
X87110000Y-101850000I50000J0D01*
G01*
X88810000Y-101850000D01*
G75*
G02*
X88860000Y-101900000I0J-50000D01*
G01*
X88860000Y-103600000D01*
G75*
G02*
X88810000Y-103650000I-50000J0D01*
G01*
G37*
D10*
X90500000Y-102750000D03*
G36*
G01*
X84225000Y-88775000D02*
X84775000Y-88775000D01*
G75*
G02*
X85025000Y-89025000I0J-250000D01*
G01*
X85025000Y-89525000D01*
G75*
G02*
X84775000Y-89775000I-250000J0D01*
G01*
X84225000Y-89775000D01*
G75*
G02*
X83975000Y-89525000I0J250000D01*
G01*
X83975000Y-89025000D01*
G75*
G02*
X84225000Y-88775000I250000J0D01*
G01*
G37*
G36*
G01*
X84225000Y-87225000D02*
X84775000Y-87225000D01*
G75*
G02*
X85025000Y-87475000I0J-250000D01*
G01*
X85025000Y-87975000D01*
G75*
G02*
X84775000Y-88225000I-250000J0D01*
G01*
X84225000Y-88225000D01*
G75*
G02*
X83975000Y-87975000I0J250000D01*
G01*
X83975000Y-87475000D01*
G75*
G02*
X84225000Y-87225000I250000J0D01*
G01*
G37*
G36*
G01*
X84225000Y-101225000D02*
X84775000Y-101225000D01*
G75*
G02*
X85025000Y-101475000I0J-250000D01*
G01*
X85025000Y-101975000D01*
G75*
G02*
X84775000Y-102225000I-250000J0D01*
G01*
X84225000Y-102225000D01*
G75*
G02*
X83975000Y-101975000I0J250000D01*
G01*
X83975000Y-101475000D01*
G75*
G02*
X84225000Y-101225000I250000J0D01*
G01*
G37*
G36*
G01*
X84225000Y-102775000D02*
X84775000Y-102775000D01*
G75*
G02*
X85025000Y-103025000I0J-250000D01*
G01*
X85025000Y-103525000D01*
G75*
G02*
X84775000Y-103775000I-250000J0D01*
G01*
X84225000Y-103775000D01*
G75*
G02*
X83975000Y-103525000I0J250000D01*
G01*
X83975000Y-103025000D01*
G75*
G02*
X84225000Y-102775000I250000J0D01*
G01*
G37*
G36*
G01*
X91725000Y-79975000D02*
X91725000Y-80525000D01*
G75*
G02*
X91475000Y-80775000I-250000J0D01*
G01*
X90975000Y-80775000D01*
G75*
G02*
X90725000Y-80525000I0J250000D01*
G01*
X90725000Y-79975000D01*
G75*
G02*
X90975000Y-79725000I250000J0D01*
G01*
X91475000Y-79725000D01*
G75*
G02*
X91725000Y-79975000I0J-250000D01*
G01*
G37*
G36*
G01*
X93275000Y-79975000D02*
X93275000Y-80525000D01*
G75*
G02*
X93025000Y-80775000I-250000J0D01*
G01*
X92525000Y-80775000D01*
G75*
G02*
X92275000Y-80525000I0J250000D01*
G01*
X92275000Y-79975000D01*
G75*
G02*
X92525000Y-79725000I250000J0D01*
G01*
X93025000Y-79725000D01*
G75*
G02*
X93275000Y-79975000I0J-250000D01*
G01*
G37*
G36*
G01*
X89394000Y-96227799D02*
X89394000Y-95872199D01*
G75*
G02*
X89444000Y-95822199I50000J0D01*
G01*
X90752100Y-95822199D01*
G75*
G02*
X90802100Y-95872199I0J-50000D01*
G01*
X90802100Y-96227799D01*
G75*
G02*
X90752100Y-96277799I-50000J0D01*
G01*
X89444000Y-96277799D01*
G75*
G02*
X89394000Y-96227799I0J50000D01*
G01*
G37*
G36*
G01*
X89394000Y-96877800D02*
X89394000Y-96522200D01*
G75*
G02*
X89444000Y-96472200I50000J0D01*
G01*
X90752100Y-96472200D01*
G75*
G02*
X90802100Y-96522200I0J-50000D01*
G01*
X90802100Y-96877800D01*
G75*
G02*
X90752100Y-96927800I-50000J0D01*
G01*
X89444000Y-96927800D01*
G75*
G02*
X89394000Y-96877800I0J50000D01*
G01*
G37*
G36*
G01*
X89394000Y-97527801D02*
X89394000Y-97172201D01*
G75*
G02*
X89444000Y-97122201I50000J0D01*
G01*
X90752100Y-97122201D01*
G75*
G02*
X90802100Y-97172201I0J-50000D01*
G01*
X90802100Y-97527801D01*
G75*
G02*
X90752100Y-97577801I-50000J0D01*
G01*
X89444000Y-97577801D01*
G75*
G02*
X89394000Y-97527801I0J50000D01*
G01*
G37*
G36*
G01*
X89394000Y-98177800D02*
X89394000Y-97822200D01*
G75*
G02*
X89444000Y-97772200I50000J0D01*
G01*
X90752100Y-97772200D01*
G75*
G02*
X90802100Y-97822200I0J-50000D01*
G01*
X90802100Y-98177800D01*
G75*
G02*
X90752100Y-98227800I-50000J0D01*
G01*
X89444000Y-98227800D01*
G75*
G02*
X89394000Y-98177800I0J50000D01*
G01*
G37*
G36*
G01*
X89394000Y-98827799D02*
X89394000Y-98472199D01*
G75*
G02*
X89444000Y-98422199I50000J0D01*
G01*
X90752100Y-98422199D01*
G75*
G02*
X90802100Y-98472199I0J-50000D01*
G01*
X90802100Y-98827799D01*
G75*
G02*
X90752100Y-98877799I-50000J0D01*
G01*
X89444000Y-98877799D01*
G75*
G02*
X89394000Y-98827799I0J50000D01*
G01*
G37*
G36*
G01*
X89394000Y-99477800D02*
X89394000Y-99122200D01*
G75*
G02*
X89444000Y-99072200I50000J0D01*
G01*
X90752100Y-99072200D01*
G75*
G02*
X90802100Y-99122200I0J-50000D01*
G01*
X90802100Y-99477800D01*
G75*
G02*
X90752100Y-99527800I-50000J0D01*
G01*
X89444000Y-99527800D01*
G75*
G02*
X89394000Y-99477800I0J50000D01*
G01*
G37*
G36*
G01*
X89394000Y-100127799D02*
X89394000Y-99772199D01*
G75*
G02*
X89444000Y-99722199I50000J0D01*
G01*
X90752100Y-99722199D01*
G75*
G02*
X90802100Y-99772199I0J-50000D01*
G01*
X90802100Y-100127799D01*
G75*
G02*
X90752100Y-100177799I-50000J0D01*
G01*
X89444000Y-100177799D01*
G75*
G02*
X89394000Y-100127799I0J50000D01*
G01*
G37*
G36*
G01*
X95197900Y-100127801D02*
X95197900Y-99772201D01*
G75*
G02*
X95247900Y-99722201I50000J0D01*
G01*
X96556000Y-99722201D01*
G75*
G02*
X96606000Y-99772201I0J-50000D01*
G01*
X96606000Y-100127801D01*
G75*
G02*
X96556000Y-100177801I-50000J0D01*
G01*
X95247900Y-100177801D01*
G75*
G02*
X95197900Y-100127801I0J50000D01*
G01*
G37*
G36*
G01*
X95197900Y-99477800D02*
X95197900Y-99122200D01*
G75*
G02*
X95247900Y-99072200I50000J0D01*
G01*
X96556000Y-99072200D01*
G75*
G02*
X96606000Y-99122200I0J-50000D01*
G01*
X96606000Y-99477800D01*
G75*
G02*
X96556000Y-99527800I-50000J0D01*
G01*
X95247900Y-99527800D01*
G75*
G02*
X95197900Y-99477800I0J50000D01*
G01*
G37*
G36*
G01*
X95197900Y-98827801D02*
X95197900Y-98472201D01*
G75*
G02*
X95247900Y-98422201I50000J0D01*
G01*
X96556000Y-98422201D01*
G75*
G02*
X96606000Y-98472201I0J-50000D01*
G01*
X96606000Y-98827801D01*
G75*
G02*
X96556000Y-98877801I-50000J0D01*
G01*
X95247900Y-98877801D01*
G75*
G02*
X95197900Y-98827801I0J50000D01*
G01*
G37*
G36*
G01*
X95197900Y-98177800D02*
X95197900Y-97822200D01*
G75*
G02*
X95247900Y-97772200I50000J0D01*
G01*
X96556000Y-97772200D01*
G75*
G02*
X96606000Y-97822200I0J-50000D01*
G01*
X96606000Y-98177800D01*
G75*
G02*
X96556000Y-98227800I-50000J0D01*
G01*
X95247900Y-98227800D01*
G75*
G02*
X95197900Y-98177800I0J50000D01*
G01*
G37*
G36*
G01*
X95197900Y-97527801D02*
X95197900Y-97172201D01*
G75*
G02*
X95247900Y-97122201I50000J0D01*
G01*
X96556000Y-97122201D01*
G75*
G02*
X96606000Y-97172201I0J-50000D01*
G01*
X96606000Y-97527801D01*
G75*
G02*
X96556000Y-97577801I-50000J0D01*
G01*
X95247900Y-97577801D01*
G75*
G02*
X95197900Y-97527801I0J50000D01*
G01*
G37*
G36*
G01*
X95197900Y-96877800D02*
X95197900Y-96522200D01*
G75*
G02*
X95247900Y-96472200I50000J0D01*
G01*
X96556000Y-96472200D01*
G75*
G02*
X96606000Y-96522200I0J-50000D01*
G01*
X96606000Y-96877800D01*
G75*
G02*
X96556000Y-96927800I-50000J0D01*
G01*
X95247900Y-96927800D01*
G75*
G02*
X95197900Y-96877800I0J50000D01*
G01*
G37*
G36*
G01*
X95197900Y-96227801D02*
X95197900Y-95872201D01*
G75*
G02*
X95247900Y-95822201I50000J0D01*
G01*
X96556000Y-95822201D01*
G75*
G02*
X96606000Y-95872201I0J-50000D01*
G01*
X96606000Y-96227801D01*
G75*
G02*
X96556000Y-96277801I-50000J0D01*
G01*
X95247900Y-96277801D01*
G75*
G02*
X95197900Y-96227801I0J50000D01*
G01*
G37*
G36*
G01*
X93468750Y-75050000D02*
X94031250Y-75050000D01*
G75*
G02*
X94275000Y-75293750I0J-243750D01*
G01*
X94275000Y-75781250D01*
G75*
G02*
X94031250Y-76025000I-243750J0D01*
G01*
X93468750Y-76025000D01*
G75*
G02*
X93225000Y-75781250I0J243750D01*
G01*
X93225000Y-75293750D01*
G75*
G02*
X93468750Y-75050000I243750J0D01*
G01*
G37*
G36*
G01*
X93468750Y-73475000D02*
X94031250Y-73475000D01*
G75*
G02*
X94275000Y-73718750I0J-243750D01*
G01*
X94275000Y-74206250D01*
G75*
G02*
X94031250Y-74450000I-243750J0D01*
G01*
X93468750Y-74450000D01*
G75*
G02*
X93225000Y-74206250I0J243750D01*
G01*
X93225000Y-73718750D01*
G75*
G02*
X93468750Y-73475000I243750J0D01*
G01*
G37*
G36*
G01*
X84100000Y-85500000D02*
X84900000Y-85500000D01*
G75*
G02*
X84950000Y-85550000I0J-50000D01*
G01*
X84950000Y-86450000D01*
G75*
G02*
X84900000Y-86500000I-50000J0D01*
G01*
X84100000Y-86500000D01*
G75*
G02*
X84050000Y-86450000I0J50000D01*
G01*
X84050000Y-85550000D01*
G75*
G02*
X84100000Y-85500000I50000J0D01*
G01*
G37*
G36*
G01*
X83150000Y-83500000D02*
X83950000Y-83500000D01*
G75*
G02*
X84000000Y-83550000I0J-50000D01*
G01*
X84000000Y-84450000D01*
G75*
G02*
X83950000Y-84500000I-50000J0D01*
G01*
X83150000Y-84500000D01*
G75*
G02*
X83100000Y-84450000I0J50000D01*
G01*
X83100000Y-83550000D01*
G75*
G02*
X83150000Y-83500000I50000J0D01*
G01*
G37*
G36*
G01*
X85050000Y-83500000D02*
X85850000Y-83500000D01*
G75*
G02*
X85900000Y-83550000I0J-50000D01*
G01*
X85900000Y-84450000D01*
G75*
G02*
X85850000Y-84500000I-50000J0D01*
G01*
X85050000Y-84500000D01*
G75*
G02*
X85000000Y-84450000I0J50000D01*
G01*
X85000000Y-83550000D01*
G75*
G02*
X85050000Y-83500000I50000J0D01*
G01*
G37*
G36*
G01*
X95197900Y-82227801D02*
X95197900Y-81872201D01*
G75*
G02*
X95247900Y-81822201I50000J0D01*
G01*
X96556000Y-81822201D01*
G75*
G02*
X96606000Y-81872201I0J-50000D01*
G01*
X96606000Y-82227801D01*
G75*
G02*
X96556000Y-82277801I-50000J0D01*
G01*
X95247900Y-82277801D01*
G75*
G02*
X95197900Y-82227801I0J50000D01*
G01*
G37*
G36*
G01*
X95197900Y-82877800D02*
X95197900Y-82522200D01*
G75*
G02*
X95247900Y-82472200I50000J0D01*
G01*
X96556000Y-82472200D01*
G75*
G02*
X96606000Y-82522200I0J-50000D01*
G01*
X96606000Y-82877800D01*
G75*
G02*
X96556000Y-82927800I-50000J0D01*
G01*
X95247900Y-82927800D01*
G75*
G02*
X95197900Y-82877800I0J50000D01*
G01*
G37*
G36*
G01*
X95197900Y-83527801D02*
X95197900Y-83172201D01*
G75*
G02*
X95247900Y-83122201I50000J0D01*
G01*
X96556000Y-83122201D01*
G75*
G02*
X96606000Y-83172201I0J-50000D01*
G01*
X96606000Y-83527801D01*
G75*
G02*
X96556000Y-83577801I-50000J0D01*
G01*
X95247900Y-83577801D01*
G75*
G02*
X95197900Y-83527801I0J50000D01*
G01*
G37*
G36*
G01*
X95197900Y-84177800D02*
X95197900Y-83822200D01*
G75*
G02*
X95247900Y-83772200I50000J0D01*
G01*
X96556000Y-83772200D01*
G75*
G02*
X96606000Y-83822200I0J-50000D01*
G01*
X96606000Y-84177800D01*
G75*
G02*
X96556000Y-84227800I-50000J0D01*
G01*
X95247900Y-84227800D01*
G75*
G02*
X95197900Y-84177800I0J50000D01*
G01*
G37*
G36*
G01*
X95197900Y-84827801D02*
X95197900Y-84472201D01*
G75*
G02*
X95247900Y-84422201I50000J0D01*
G01*
X96556000Y-84422201D01*
G75*
G02*
X96606000Y-84472201I0J-50000D01*
G01*
X96606000Y-84827801D01*
G75*
G02*
X96556000Y-84877801I-50000J0D01*
G01*
X95247900Y-84877801D01*
G75*
G02*
X95197900Y-84827801I0J50000D01*
G01*
G37*
G36*
G01*
X95197900Y-85477800D02*
X95197900Y-85122200D01*
G75*
G02*
X95247900Y-85072200I50000J0D01*
G01*
X96556000Y-85072200D01*
G75*
G02*
X96606000Y-85122200I0J-50000D01*
G01*
X96606000Y-85477800D01*
G75*
G02*
X96556000Y-85527800I-50000J0D01*
G01*
X95247900Y-85527800D01*
G75*
G02*
X95197900Y-85477800I0J50000D01*
G01*
G37*
G36*
G01*
X95197900Y-86127801D02*
X95197900Y-85772201D01*
G75*
G02*
X95247900Y-85722201I50000J0D01*
G01*
X96556000Y-85722201D01*
G75*
G02*
X96606000Y-85772201I0J-50000D01*
G01*
X96606000Y-86127801D01*
G75*
G02*
X96556000Y-86177801I-50000J0D01*
G01*
X95247900Y-86177801D01*
G75*
G02*
X95197900Y-86127801I0J50000D01*
G01*
G37*
G36*
G01*
X89394000Y-86127799D02*
X89394000Y-85772199D01*
G75*
G02*
X89444000Y-85722199I50000J0D01*
G01*
X90752100Y-85722199D01*
G75*
G02*
X90802100Y-85772199I0J-50000D01*
G01*
X90802100Y-86127799D01*
G75*
G02*
X90752100Y-86177799I-50000J0D01*
G01*
X89444000Y-86177799D01*
G75*
G02*
X89394000Y-86127799I0J50000D01*
G01*
G37*
G36*
G01*
X89394000Y-85477800D02*
X89394000Y-85122200D01*
G75*
G02*
X89444000Y-85072200I50000J0D01*
G01*
X90752100Y-85072200D01*
G75*
G02*
X90802100Y-85122200I0J-50000D01*
G01*
X90802100Y-85477800D01*
G75*
G02*
X90752100Y-85527800I-50000J0D01*
G01*
X89444000Y-85527800D01*
G75*
G02*
X89394000Y-85477800I0J50000D01*
G01*
G37*
G36*
G01*
X89394000Y-84827799D02*
X89394000Y-84472199D01*
G75*
G02*
X89444000Y-84422199I50000J0D01*
G01*
X90752100Y-84422199D01*
G75*
G02*
X90802100Y-84472199I0J-50000D01*
G01*
X90802100Y-84827799D01*
G75*
G02*
X90752100Y-84877799I-50000J0D01*
G01*
X89444000Y-84877799D01*
G75*
G02*
X89394000Y-84827799I0J50000D01*
G01*
G37*
G36*
G01*
X89394000Y-84177800D02*
X89394000Y-83822200D01*
G75*
G02*
X89444000Y-83772200I50000J0D01*
G01*
X90752100Y-83772200D01*
G75*
G02*
X90802100Y-83822200I0J-50000D01*
G01*
X90802100Y-84177800D01*
G75*
G02*
X90752100Y-84227800I-50000J0D01*
G01*
X89444000Y-84227800D01*
G75*
G02*
X89394000Y-84177800I0J50000D01*
G01*
G37*
G36*
G01*
X89394000Y-83527801D02*
X89394000Y-83172201D01*
G75*
G02*
X89444000Y-83122201I50000J0D01*
G01*
X90752100Y-83122201D01*
G75*
G02*
X90802100Y-83172201I0J-50000D01*
G01*
X90802100Y-83527801D01*
G75*
G02*
X90752100Y-83577801I-50000J0D01*
G01*
X89444000Y-83577801D01*
G75*
G02*
X89394000Y-83527801I0J50000D01*
G01*
G37*
G36*
G01*
X89394000Y-82877800D02*
X89394000Y-82522200D01*
G75*
G02*
X89444000Y-82472200I50000J0D01*
G01*
X90752100Y-82472200D01*
G75*
G02*
X90802100Y-82522200I0J-50000D01*
G01*
X90802100Y-82877800D01*
G75*
G02*
X90752100Y-82927800I-50000J0D01*
G01*
X89444000Y-82927800D01*
G75*
G02*
X89394000Y-82877800I0J50000D01*
G01*
G37*
G36*
G01*
X89394000Y-82227799D02*
X89394000Y-81872199D01*
G75*
G02*
X89444000Y-81822199I50000J0D01*
G01*
X90752100Y-81822199D01*
G75*
G02*
X90802100Y-81872199I0J-50000D01*
G01*
X90802100Y-82227799D01*
G75*
G02*
X90752100Y-82277799I-50000J0D01*
G01*
X89444000Y-82277799D01*
G75*
G02*
X89394000Y-82227799I0J50000D01*
G01*
G37*
G36*
G01*
X85050000Y-97500000D02*
X85850000Y-97500000D01*
G75*
G02*
X85900000Y-97550000I0J-50000D01*
G01*
X85900000Y-98450000D01*
G75*
G02*
X85850000Y-98500000I-50000J0D01*
G01*
X85050000Y-98500000D01*
G75*
G02*
X85000000Y-98450000I0J50000D01*
G01*
X85000000Y-97550000D01*
G75*
G02*
X85050000Y-97500000I50000J0D01*
G01*
G37*
G36*
G01*
X83150000Y-97500000D02*
X83950000Y-97500000D01*
G75*
G02*
X84000000Y-97550000I0J-50000D01*
G01*
X84000000Y-98450000D01*
G75*
G02*
X83950000Y-98500000I-50000J0D01*
G01*
X83150000Y-98500000D01*
G75*
G02*
X83100000Y-98450000I0J50000D01*
G01*
X83100000Y-97550000D01*
G75*
G02*
X83150000Y-97500000I50000J0D01*
G01*
G37*
G36*
G01*
X84100000Y-99500000D02*
X84900000Y-99500000D01*
G75*
G02*
X84950000Y-99550000I0J-50000D01*
G01*
X84950000Y-100450000D01*
G75*
G02*
X84900000Y-100500000I-50000J0D01*
G01*
X84100000Y-100500000D01*
G75*
G02*
X84050000Y-100450000I0J50000D01*
G01*
X84050000Y-99550000D01*
G75*
G02*
X84100000Y-99500000I50000J0D01*
G01*
G37*
G36*
G01*
X87225000Y-82775000D02*
X87775000Y-82775000D01*
G75*
G02*
X88025000Y-83025000I0J-250000D01*
G01*
X88025000Y-83525000D01*
G75*
G02*
X87775000Y-83775000I-250000J0D01*
G01*
X87225000Y-83775000D01*
G75*
G02*
X86975000Y-83525000I0J250000D01*
G01*
X86975000Y-83025000D01*
G75*
G02*
X87225000Y-82775000I250000J0D01*
G01*
G37*
G36*
G01*
X87225000Y-81225000D02*
X87775000Y-81225000D01*
G75*
G02*
X88025000Y-81475000I0J-250000D01*
G01*
X88025000Y-81975000D01*
G75*
G02*
X87775000Y-82225000I-250000J0D01*
G01*
X87225000Y-82225000D01*
G75*
G02*
X86975000Y-81975000I0J250000D01*
G01*
X86975000Y-81475000D01*
G75*
G02*
X87225000Y-81225000I250000J0D01*
G01*
G37*
G36*
G01*
X87225000Y-53225000D02*
X87775000Y-53225000D01*
G75*
G02*
X88025000Y-53475000I0J-250000D01*
G01*
X88025000Y-53975000D01*
G75*
G02*
X87775000Y-54225000I-250000J0D01*
G01*
X87225000Y-54225000D01*
G75*
G02*
X86975000Y-53975000I0J250000D01*
G01*
X86975000Y-53475000D01*
G75*
G02*
X87225000Y-53225000I250000J0D01*
G01*
G37*
G36*
G01*
X87225000Y-54775000D02*
X87775000Y-54775000D01*
G75*
G02*
X88025000Y-55025000I0J-250000D01*
G01*
X88025000Y-55525000D01*
G75*
G02*
X87775000Y-55775000I-250000J0D01*
G01*
X87225000Y-55775000D01*
G75*
G02*
X86975000Y-55525000I0J250000D01*
G01*
X86975000Y-55025000D01*
G75*
G02*
X87225000Y-54775000I250000J0D01*
G01*
G37*
G36*
G01*
X84100000Y-71500000D02*
X84900000Y-71500000D01*
G75*
G02*
X84950000Y-71550000I0J-50000D01*
G01*
X84950000Y-72450000D01*
G75*
G02*
X84900000Y-72500000I-50000J0D01*
G01*
X84100000Y-72500000D01*
G75*
G02*
X84050000Y-72450000I0J50000D01*
G01*
X84050000Y-71550000D01*
G75*
G02*
X84100000Y-71500000I50000J0D01*
G01*
G37*
G36*
G01*
X83150000Y-69500000D02*
X83950000Y-69500000D01*
G75*
G02*
X84000000Y-69550000I0J-50000D01*
G01*
X84000000Y-70450000D01*
G75*
G02*
X83950000Y-70500000I-50000J0D01*
G01*
X83150000Y-70500000D01*
G75*
G02*
X83100000Y-70450000I0J50000D01*
G01*
X83100000Y-69550000D01*
G75*
G02*
X83150000Y-69500000I50000J0D01*
G01*
G37*
G36*
G01*
X85050000Y-69500000D02*
X85850000Y-69500000D01*
G75*
G02*
X85900000Y-69550000I0J-50000D01*
G01*
X85900000Y-70450000D01*
G75*
G02*
X85850000Y-70500000I-50000J0D01*
G01*
X85050000Y-70500000D01*
G75*
G02*
X85000000Y-70450000I0J50000D01*
G01*
X85000000Y-69550000D01*
G75*
G02*
X85050000Y-69500000I50000J0D01*
G01*
G37*
G36*
G01*
X91725000Y-65975000D02*
X91725000Y-66525000D01*
G75*
G02*
X91475000Y-66775000I-250000J0D01*
G01*
X90975000Y-66775000D01*
G75*
G02*
X90725000Y-66525000I0J250000D01*
G01*
X90725000Y-65975000D01*
G75*
G02*
X90975000Y-65725000I250000J0D01*
G01*
X91475000Y-65725000D01*
G75*
G02*
X91725000Y-65975000I0J-250000D01*
G01*
G37*
G36*
G01*
X93275000Y-65975000D02*
X93275000Y-66525000D01*
G75*
G02*
X93025000Y-66775000I-250000J0D01*
G01*
X92525000Y-66775000D01*
G75*
G02*
X92275000Y-66525000I0J250000D01*
G01*
X92275000Y-65975000D01*
G75*
G02*
X92525000Y-65725000I250000J0D01*
G01*
X93025000Y-65725000D01*
G75*
G02*
X93275000Y-65975000I0J-250000D01*
G01*
G37*
G36*
G01*
X84225000Y-59225000D02*
X84775000Y-59225000D01*
G75*
G02*
X85025000Y-59475000I0J-250000D01*
G01*
X85025000Y-59975000D01*
G75*
G02*
X84775000Y-60225000I-250000J0D01*
G01*
X84225000Y-60225000D01*
G75*
G02*
X83975000Y-59975000I0J250000D01*
G01*
X83975000Y-59475000D01*
G75*
G02*
X84225000Y-59225000I250000J0D01*
G01*
G37*
G36*
G01*
X84225000Y-60775000D02*
X84775000Y-60775000D01*
G75*
G02*
X85025000Y-61025000I0J-250000D01*
G01*
X85025000Y-61525000D01*
G75*
G02*
X84775000Y-61775000I-250000J0D01*
G01*
X84225000Y-61775000D01*
G75*
G02*
X83975000Y-61525000I0J250000D01*
G01*
X83975000Y-61025000D01*
G75*
G02*
X84225000Y-60775000I250000J0D01*
G01*
G37*
G36*
G01*
X87225000Y-68775000D02*
X87775000Y-68775000D01*
G75*
G02*
X88025000Y-69025000I0J-250000D01*
G01*
X88025000Y-69525000D01*
G75*
G02*
X87775000Y-69775000I-250000J0D01*
G01*
X87225000Y-69775000D01*
G75*
G02*
X86975000Y-69525000I0J250000D01*
G01*
X86975000Y-69025000D01*
G75*
G02*
X87225000Y-68775000I250000J0D01*
G01*
G37*
G36*
G01*
X87225000Y-67225000D02*
X87775000Y-67225000D01*
G75*
G02*
X88025000Y-67475000I0J-250000D01*
G01*
X88025000Y-67975000D01*
G75*
G02*
X87775000Y-68225000I-250000J0D01*
G01*
X87225000Y-68225000D01*
G75*
G02*
X86975000Y-67975000I0J250000D01*
G01*
X86975000Y-67475000D01*
G75*
G02*
X87225000Y-67225000I250000J0D01*
G01*
G37*
G36*
G01*
X84225000Y-74775000D02*
X84775000Y-74775000D01*
G75*
G02*
X85025000Y-75025000I0J-250000D01*
G01*
X85025000Y-75525000D01*
G75*
G02*
X84775000Y-75775000I-250000J0D01*
G01*
X84225000Y-75775000D01*
G75*
G02*
X83975000Y-75525000I0J250000D01*
G01*
X83975000Y-75025000D01*
G75*
G02*
X84225000Y-74775000I250000J0D01*
G01*
G37*
G36*
G01*
X84225000Y-73225000D02*
X84775000Y-73225000D01*
G75*
G02*
X85025000Y-73475000I0J-250000D01*
G01*
X85025000Y-73975000D01*
G75*
G02*
X84775000Y-74225000I-250000J0D01*
G01*
X84225000Y-74225000D01*
G75*
G02*
X83975000Y-73975000I0J250000D01*
G01*
X83975000Y-73475000D01*
G75*
G02*
X84225000Y-73225000I250000J0D01*
G01*
G37*
G36*
G01*
X95197900Y-68227801D02*
X95197900Y-67872201D01*
G75*
G02*
X95247900Y-67822201I50000J0D01*
G01*
X96556000Y-67822201D01*
G75*
G02*
X96606000Y-67872201I0J-50000D01*
G01*
X96606000Y-68227801D01*
G75*
G02*
X96556000Y-68277801I-50000J0D01*
G01*
X95247900Y-68277801D01*
G75*
G02*
X95197900Y-68227801I0J50000D01*
G01*
G37*
G36*
G01*
X95197900Y-68877800D02*
X95197900Y-68522200D01*
G75*
G02*
X95247900Y-68472200I50000J0D01*
G01*
X96556000Y-68472200D01*
G75*
G02*
X96606000Y-68522200I0J-50000D01*
G01*
X96606000Y-68877800D01*
G75*
G02*
X96556000Y-68927800I-50000J0D01*
G01*
X95247900Y-68927800D01*
G75*
G02*
X95197900Y-68877800I0J50000D01*
G01*
G37*
G36*
G01*
X95197900Y-69527801D02*
X95197900Y-69172201D01*
G75*
G02*
X95247900Y-69122201I50000J0D01*
G01*
X96556000Y-69122201D01*
G75*
G02*
X96606000Y-69172201I0J-50000D01*
G01*
X96606000Y-69527801D01*
G75*
G02*
X96556000Y-69577801I-50000J0D01*
G01*
X95247900Y-69577801D01*
G75*
G02*
X95197900Y-69527801I0J50000D01*
G01*
G37*
G36*
G01*
X95197900Y-70177800D02*
X95197900Y-69822200D01*
G75*
G02*
X95247900Y-69772200I50000J0D01*
G01*
X96556000Y-69772200D01*
G75*
G02*
X96606000Y-69822200I0J-50000D01*
G01*
X96606000Y-70177800D01*
G75*
G02*
X96556000Y-70227800I-50000J0D01*
G01*
X95247900Y-70227800D01*
G75*
G02*
X95197900Y-70177800I0J50000D01*
G01*
G37*
G36*
G01*
X95197900Y-70827801D02*
X95197900Y-70472201D01*
G75*
G02*
X95247900Y-70422201I50000J0D01*
G01*
X96556000Y-70422201D01*
G75*
G02*
X96606000Y-70472201I0J-50000D01*
G01*
X96606000Y-70827801D01*
G75*
G02*
X96556000Y-70877801I-50000J0D01*
G01*
X95247900Y-70877801D01*
G75*
G02*
X95197900Y-70827801I0J50000D01*
G01*
G37*
G36*
G01*
X95197900Y-71477800D02*
X95197900Y-71122200D01*
G75*
G02*
X95247900Y-71072200I50000J0D01*
G01*
X96556000Y-71072200D01*
G75*
G02*
X96606000Y-71122200I0J-50000D01*
G01*
X96606000Y-71477800D01*
G75*
G02*
X96556000Y-71527800I-50000J0D01*
G01*
X95247900Y-71527800D01*
G75*
G02*
X95197900Y-71477800I0J50000D01*
G01*
G37*
G36*
G01*
X95197900Y-72127801D02*
X95197900Y-71772201D01*
G75*
G02*
X95247900Y-71722201I50000J0D01*
G01*
X96556000Y-71722201D01*
G75*
G02*
X96606000Y-71772201I0J-50000D01*
G01*
X96606000Y-72127801D01*
G75*
G02*
X96556000Y-72177801I-50000J0D01*
G01*
X95247900Y-72177801D01*
G75*
G02*
X95197900Y-72127801I0J50000D01*
G01*
G37*
G36*
G01*
X89394000Y-72127799D02*
X89394000Y-71772199D01*
G75*
G02*
X89444000Y-71722199I50000J0D01*
G01*
X90752100Y-71722199D01*
G75*
G02*
X90802100Y-71772199I0J-50000D01*
G01*
X90802100Y-72127799D01*
G75*
G02*
X90752100Y-72177799I-50000J0D01*
G01*
X89444000Y-72177799D01*
G75*
G02*
X89394000Y-72127799I0J50000D01*
G01*
G37*
G36*
G01*
X89394000Y-71477800D02*
X89394000Y-71122200D01*
G75*
G02*
X89444000Y-71072200I50000J0D01*
G01*
X90752100Y-71072200D01*
G75*
G02*
X90802100Y-71122200I0J-50000D01*
G01*
X90802100Y-71477800D01*
G75*
G02*
X90752100Y-71527800I-50000J0D01*
G01*
X89444000Y-71527800D01*
G75*
G02*
X89394000Y-71477800I0J50000D01*
G01*
G37*
G36*
G01*
X89394000Y-70827799D02*
X89394000Y-70472199D01*
G75*
G02*
X89444000Y-70422199I50000J0D01*
G01*
X90752100Y-70422199D01*
G75*
G02*
X90802100Y-70472199I0J-50000D01*
G01*
X90802100Y-70827799D01*
G75*
G02*
X90752100Y-70877799I-50000J0D01*
G01*
X89444000Y-70877799D01*
G75*
G02*
X89394000Y-70827799I0J50000D01*
G01*
G37*
G36*
G01*
X89394000Y-70177800D02*
X89394000Y-69822200D01*
G75*
G02*
X89444000Y-69772200I50000J0D01*
G01*
X90752100Y-69772200D01*
G75*
G02*
X90802100Y-69822200I0J-50000D01*
G01*
X90802100Y-70177800D01*
G75*
G02*
X90752100Y-70227800I-50000J0D01*
G01*
X89444000Y-70227800D01*
G75*
G02*
X89394000Y-70177800I0J50000D01*
G01*
G37*
G36*
G01*
X89394000Y-69527801D02*
X89394000Y-69172201D01*
G75*
G02*
X89444000Y-69122201I50000J0D01*
G01*
X90752100Y-69122201D01*
G75*
G02*
X90802100Y-69172201I0J-50000D01*
G01*
X90802100Y-69527801D01*
G75*
G02*
X90752100Y-69577801I-50000J0D01*
G01*
X89444000Y-69577801D01*
G75*
G02*
X89394000Y-69527801I0J50000D01*
G01*
G37*
G36*
G01*
X89394000Y-68877800D02*
X89394000Y-68522200D01*
G75*
G02*
X89444000Y-68472200I50000J0D01*
G01*
X90752100Y-68472200D01*
G75*
G02*
X90802100Y-68522200I0J-50000D01*
G01*
X90802100Y-68877800D01*
G75*
G02*
X90752100Y-68927800I-50000J0D01*
G01*
X89444000Y-68927800D01*
G75*
G02*
X89394000Y-68877800I0J50000D01*
G01*
G37*
G36*
G01*
X89394000Y-68227799D02*
X89394000Y-67872199D01*
G75*
G02*
X89444000Y-67822199I50000J0D01*
G01*
X90752100Y-67822199D01*
G75*
G02*
X90802100Y-67872199I0J-50000D01*
G01*
X90802100Y-68227799D01*
G75*
G02*
X90752100Y-68277799I-50000J0D01*
G01*
X89444000Y-68277799D01*
G75*
G02*
X89394000Y-68227799I0J50000D01*
G01*
G37*
X90500000Y-74750000D03*
G36*
G01*
X88810000Y-75650000D02*
X87110000Y-75650000D01*
G75*
G02*
X87060000Y-75600000I0J50000D01*
G01*
X87060000Y-73900000D01*
G75*
G02*
X87110000Y-73850000I50000J0D01*
G01*
X88810000Y-73850000D01*
G75*
G02*
X88860000Y-73900000I0J-50000D01*
G01*
X88860000Y-75600000D01*
G75*
G02*
X88810000Y-75650000I-50000J0D01*
G01*
G37*
G36*
G01*
X93275000Y-51975000D02*
X93275000Y-52525000D01*
G75*
G02*
X93025000Y-52775000I-250000J0D01*
G01*
X92525000Y-52775000D01*
G75*
G02*
X92275000Y-52525000I0J250000D01*
G01*
X92275000Y-51975000D01*
G75*
G02*
X92525000Y-51725000I250000J0D01*
G01*
X93025000Y-51725000D01*
G75*
G02*
X93275000Y-51975000I0J-250000D01*
G01*
G37*
G36*
G01*
X91725000Y-51975000D02*
X91725000Y-52525000D01*
G75*
G02*
X91475000Y-52775000I-250000J0D01*
G01*
X90975000Y-52775000D01*
G75*
G02*
X90725000Y-52525000I0J250000D01*
G01*
X90725000Y-51975000D01*
G75*
G02*
X90975000Y-51725000I250000J0D01*
G01*
X91475000Y-51725000D01*
G75*
G02*
X91725000Y-51975000I0J-250000D01*
G01*
G37*
D11*
X104330000Y-89370000D03*
X101790000Y-89370000D03*
X99250000Y-89370000D03*
X104330000Y-86830000D03*
X101790000Y-86830000D03*
X99250000Y-86830000D03*
X104330000Y-84290000D03*
X101790000Y-84290000D03*
X99250000Y-84290000D03*
X104330000Y-81750000D03*
X101790000Y-81750000D03*
G36*
G01*
X98425000Y-80875000D02*
X100075000Y-80875000D01*
G75*
G02*
X100125000Y-80925000I0J-50000D01*
G01*
X100125000Y-82575000D01*
G75*
G02*
X100075000Y-82625000I-50000J0D01*
G01*
X98425000Y-82625000D01*
G75*
G02*
X98375000Y-82575000I0J50000D01*
G01*
X98375000Y-80925000D01*
G75*
G02*
X98425000Y-80875000I50000J0D01*
G01*
G37*
G36*
G01*
X93468750Y-89050000D02*
X94031250Y-89050000D01*
G75*
G02*
X94275000Y-89293750I0J-243750D01*
G01*
X94275000Y-89781250D01*
G75*
G02*
X94031250Y-90025000I-243750J0D01*
G01*
X93468750Y-90025000D01*
G75*
G02*
X93225000Y-89781250I0J243750D01*
G01*
X93225000Y-89293750D01*
G75*
G02*
X93468750Y-89050000I243750J0D01*
G01*
G37*
G36*
G01*
X93468750Y-87475000D02*
X94031250Y-87475000D01*
G75*
G02*
X94275000Y-87718750I0J-243750D01*
G01*
X94275000Y-88206250D01*
G75*
G02*
X94031250Y-88450000I-243750J0D01*
G01*
X93468750Y-88450000D01*
G75*
G02*
X93225000Y-88206250I0J243750D01*
G01*
X93225000Y-87718750D01*
G75*
G02*
X93468750Y-87475000I243750J0D01*
G01*
G37*
D10*
X80250000Y-87580000D03*
X80250000Y-85040000D03*
G36*
G01*
X79350000Y-83350000D02*
X79350000Y-81650000D01*
G75*
G02*
X79400000Y-81600000I50000J0D01*
G01*
X81100000Y-81600000D01*
G75*
G02*
X81150000Y-81650000I0J-50000D01*
G01*
X81150000Y-83350000D01*
G75*
G02*
X81100000Y-83400000I-50000J0D01*
G01*
X79400000Y-83400000D01*
G75*
G02*
X79350000Y-83350000I0J50000D01*
G01*
G37*
G36*
G01*
X79350000Y-97350000D02*
X79350000Y-95650000D01*
G75*
G02*
X79400000Y-95600000I50000J0D01*
G01*
X81100000Y-95600000D01*
G75*
G02*
X81150000Y-95650000I0J-50000D01*
G01*
X81150000Y-97350000D01*
G75*
G02*
X81100000Y-97400000I-50000J0D01*
G01*
X79400000Y-97400000D01*
G75*
G02*
X79350000Y-97350000I0J50000D01*
G01*
G37*
X80250000Y-99040000D03*
X80250000Y-101580000D03*
G36*
G01*
X96300000Y-88375000D02*
X95700000Y-88375000D01*
G75*
G02*
X95475000Y-88150000I0J225000D01*
G01*
X95475000Y-87700000D01*
G75*
G02*
X95700000Y-87475000I225000J0D01*
G01*
X96300000Y-87475000D01*
G75*
G02*
X96525000Y-87700000I0J-225000D01*
G01*
X96525000Y-88150000D01*
G75*
G02*
X96300000Y-88375000I-225000J0D01*
G01*
G37*
G36*
G01*
X96300000Y-90025000D02*
X95700000Y-90025000D01*
G75*
G02*
X95475000Y-89800000I0J225000D01*
G01*
X95475000Y-89350000D01*
G75*
G02*
X95700000Y-89125000I225000J0D01*
G01*
X96300000Y-89125000D01*
G75*
G02*
X96525000Y-89350000I0J-225000D01*
G01*
X96525000Y-89800000D01*
G75*
G02*
X96300000Y-90025000I-225000J0D01*
G01*
G37*
G36*
G01*
X96300000Y-104025000D02*
X95700000Y-104025000D01*
G75*
G02*
X95475000Y-103800000I0J225000D01*
G01*
X95475000Y-103350000D01*
G75*
G02*
X95700000Y-103125000I225000J0D01*
G01*
X96300000Y-103125000D01*
G75*
G02*
X96525000Y-103350000I0J-225000D01*
G01*
X96525000Y-103800000D01*
G75*
G02*
X96300000Y-104025000I-225000J0D01*
G01*
G37*
G36*
G01*
X96300000Y-102375000D02*
X95700000Y-102375000D01*
G75*
G02*
X95475000Y-102150000I0J225000D01*
G01*
X95475000Y-101700000D01*
G75*
G02*
X95700000Y-101475000I225000J0D01*
G01*
X96300000Y-101475000D01*
G75*
G02*
X96525000Y-101700000I0J-225000D01*
G01*
X96525000Y-102150000D01*
G75*
G02*
X96300000Y-102375000I-225000J0D01*
G01*
G37*
G36*
G01*
X85050000Y-55500000D02*
X85850000Y-55500000D01*
G75*
G02*
X85900000Y-55550000I0J-50000D01*
G01*
X85900000Y-56450000D01*
G75*
G02*
X85850000Y-56500000I-50000J0D01*
G01*
X85050000Y-56500000D01*
G75*
G02*
X85000000Y-56450000I0J50000D01*
G01*
X85000000Y-55550000D01*
G75*
G02*
X85050000Y-55500000I50000J0D01*
G01*
G37*
G36*
G01*
X83150000Y-55500000D02*
X83950000Y-55500000D01*
G75*
G02*
X84000000Y-55550000I0J-50000D01*
G01*
X84000000Y-56450000D01*
G75*
G02*
X83950000Y-56500000I-50000J0D01*
G01*
X83150000Y-56500000D01*
G75*
G02*
X83100000Y-56450000I0J50000D01*
G01*
X83100000Y-55550000D01*
G75*
G02*
X83150000Y-55500000I50000J0D01*
G01*
G37*
G36*
G01*
X84100000Y-57500000D02*
X84900000Y-57500000D01*
G75*
G02*
X84950000Y-57550000I0J-50000D01*
G01*
X84950000Y-58450000D01*
G75*
G02*
X84900000Y-58500000I-50000J0D01*
G01*
X84100000Y-58500000D01*
G75*
G02*
X84050000Y-58450000I0J50000D01*
G01*
X84050000Y-57550000D01*
G75*
G02*
X84100000Y-57500000I50000J0D01*
G01*
G37*
G36*
G01*
X89394000Y-54227799D02*
X89394000Y-53872199D01*
G75*
G02*
X89444000Y-53822199I50000J0D01*
G01*
X90752100Y-53822199D01*
G75*
G02*
X90802100Y-53872199I0J-50000D01*
G01*
X90802100Y-54227799D01*
G75*
G02*
X90752100Y-54277799I-50000J0D01*
G01*
X89444000Y-54277799D01*
G75*
G02*
X89394000Y-54227799I0J50000D01*
G01*
G37*
G36*
G01*
X89394000Y-54877800D02*
X89394000Y-54522200D01*
G75*
G02*
X89444000Y-54472200I50000J0D01*
G01*
X90752100Y-54472200D01*
G75*
G02*
X90802100Y-54522200I0J-50000D01*
G01*
X90802100Y-54877800D01*
G75*
G02*
X90752100Y-54927800I-50000J0D01*
G01*
X89444000Y-54927800D01*
G75*
G02*
X89394000Y-54877800I0J50000D01*
G01*
G37*
G36*
G01*
X89394000Y-55527801D02*
X89394000Y-55172201D01*
G75*
G02*
X89444000Y-55122201I50000J0D01*
G01*
X90752100Y-55122201D01*
G75*
G02*
X90802100Y-55172201I0J-50000D01*
G01*
X90802100Y-55527801D01*
G75*
G02*
X90752100Y-55577801I-50000J0D01*
G01*
X89444000Y-55577801D01*
G75*
G02*
X89394000Y-55527801I0J50000D01*
G01*
G37*
G36*
G01*
X89394000Y-56177800D02*
X89394000Y-55822200D01*
G75*
G02*
X89444000Y-55772200I50000J0D01*
G01*
X90752100Y-55772200D01*
G75*
G02*
X90802100Y-55822200I0J-50000D01*
G01*
X90802100Y-56177800D01*
G75*
G02*
X90752100Y-56227800I-50000J0D01*
G01*
X89444000Y-56227800D01*
G75*
G02*
X89394000Y-56177800I0J50000D01*
G01*
G37*
G36*
G01*
X89394000Y-56827799D02*
X89394000Y-56472199D01*
G75*
G02*
X89444000Y-56422199I50000J0D01*
G01*
X90752100Y-56422199D01*
G75*
G02*
X90802100Y-56472199I0J-50000D01*
G01*
X90802100Y-56827799D01*
G75*
G02*
X90752100Y-56877799I-50000J0D01*
G01*
X89444000Y-56877799D01*
G75*
G02*
X89394000Y-56827799I0J50000D01*
G01*
G37*
G36*
G01*
X89394000Y-57477800D02*
X89394000Y-57122200D01*
G75*
G02*
X89444000Y-57072200I50000J0D01*
G01*
X90752100Y-57072200D01*
G75*
G02*
X90802100Y-57122200I0J-50000D01*
G01*
X90802100Y-57477800D01*
G75*
G02*
X90752100Y-57527800I-50000J0D01*
G01*
X89444000Y-57527800D01*
G75*
G02*
X89394000Y-57477800I0J50000D01*
G01*
G37*
G36*
G01*
X89394000Y-58127799D02*
X89394000Y-57772199D01*
G75*
G02*
X89444000Y-57722199I50000J0D01*
G01*
X90752100Y-57722199D01*
G75*
G02*
X90802100Y-57772199I0J-50000D01*
G01*
X90802100Y-58127799D01*
G75*
G02*
X90752100Y-58177799I-50000J0D01*
G01*
X89444000Y-58177799D01*
G75*
G02*
X89394000Y-58127799I0J50000D01*
G01*
G37*
G36*
G01*
X95197900Y-58127801D02*
X95197900Y-57772201D01*
G75*
G02*
X95247900Y-57722201I50000J0D01*
G01*
X96556000Y-57722201D01*
G75*
G02*
X96606000Y-57772201I0J-50000D01*
G01*
X96606000Y-58127801D01*
G75*
G02*
X96556000Y-58177801I-50000J0D01*
G01*
X95247900Y-58177801D01*
G75*
G02*
X95197900Y-58127801I0J50000D01*
G01*
G37*
G36*
G01*
X95197900Y-57477800D02*
X95197900Y-57122200D01*
G75*
G02*
X95247900Y-57072200I50000J0D01*
G01*
X96556000Y-57072200D01*
G75*
G02*
X96606000Y-57122200I0J-50000D01*
G01*
X96606000Y-57477800D01*
G75*
G02*
X96556000Y-57527800I-50000J0D01*
G01*
X95247900Y-57527800D01*
G75*
G02*
X95197900Y-57477800I0J50000D01*
G01*
G37*
G36*
G01*
X95197900Y-56827801D02*
X95197900Y-56472201D01*
G75*
G02*
X95247900Y-56422201I50000J0D01*
G01*
X96556000Y-56422201D01*
G75*
G02*
X96606000Y-56472201I0J-50000D01*
G01*
X96606000Y-56827801D01*
G75*
G02*
X96556000Y-56877801I-50000J0D01*
G01*
X95247900Y-56877801D01*
G75*
G02*
X95197900Y-56827801I0J50000D01*
G01*
G37*
G36*
G01*
X95197900Y-56177800D02*
X95197900Y-55822200D01*
G75*
G02*
X95247900Y-55772200I50000J0D01*
G01*
X96556000Y-55772200D01*
G75*
G02*
X96606000Y-55822200I0J-50000D01*
G01*
X96606000Y-56177800D01*
G75*
G02*
X96556000Y-56227800I-50000J0D01*
G01*
X95247900Y-56227800D01*
G75*
G02*
X95197900Y-56177800I0J50000D01*
G01*
G37*
G36*
G01*
X95197900Y-55527801D02*
X95197900Y-55172201D01*
G75*
G02*
X95247900Y-55122201I50000J0D01*
G01*
X96556000Y-55122201D01*
G75*
G02*
X96606000Y-55172201I0J-50000D01*
G01*
X96606000Y-55527801D01*
G75*
G02*
X96556000Y-55577801I-50000J0D01*
G01*
X95247900Y-55577801D01*
G75*
G02*
X95197900Y-55527801I0J50000D01*
G01*
G37*
G36*
G01*
X95197900Y-54877800D02*
X95197900Y-54522200D01*
G75*
G02*
X95247900Y-54472200I50000J0D01*
G01*
X96556000Y-54472200D01*
G75*
G02*
X96606000Y-54522200I0J-50000D01*
G01*
X96606000Y-54877800D01*
G75*
G02*
X96556000Y-54927800I-50000J0D01*
G01*
X95247900Y-54927800D01*
G75*
G02*
X95197900Y-54877800I0J50000D01*
G01*
G37*
G36*
G01*
X95197900Y-54227801D02*
X95197900Y-53872201D01*
G75*
G02*
X95247900Y-53822201I50000J0D01*
G01*
X96556000Y-53822201D01*
G75*
G02*
X96606000Y-53872201I0J-50000D01*
G01*
X96606000Y-54227801D01*
G75*
G02*
X96556000Y-54277801I-50000J0D01*
G01*
X95247900Y-54277801D01*
G75*
G02*
X95197900Y-54227801I0J50000D01*
G01*
G37*
G36*
G01*
X88810000Y-61650000D02*
X87110000Y-61650000D01*
G75*
G02*
X87060000Y-61600000I0J50000D01*
G01*
X87060000Y-59900000D01*
G75*
G02*
X87110000Y-59850000I50000J0D01*
G01*
X88810000Y-59850000D01*
G75*
G02*
X88860000Y-59900000I0J-50000D01*
G01*
X88860000Y-61600000D01*
G75*
G02*
X88810000Y-61650000I-50000J0D01*
G01*
G37*
X90500000Y-60750000D03*
G36*
G01*
X65718750Y-87475000D02*
X66281250Y-87475000D01*
G75*
G02*
X66525000Y-87718750I0J-243750D01*
G01*
X66525000Y-88206250D01*
G75*
G02*
X66281250Y-88450000I-243750J0D01*
G01*
X65718750Y-88450000D01*
G75*
G02*
X65475000Y-88206250I0J243750D01*
G01*
X65475000Y-87718750D01*
G75*
G02*
X65718750Y-87475000I243750J0D01*
G01*
G37*
G36*
G01*
X65718750Y-89050000D02*
X66281250Y-89050000D01*
G75*
G02*
X66525000Y-89293750I0J-243750D01*
G01*
X66525000Y-89781250D01*
G75*
G02*
X66281250Y-90025000I-243750J0D01*
G01*
X65718750Y-90025000D01*
G75*
G02*
X65475000Y-89781250I0J243750D01*
G01*
X65475000Y-89293750D01*
G75*
G02*
X65718750Y-89050000I243750J0D01*
G01*
G37*
G36*
G01*
X68550000Y-90025000D02*
X67950000Y-90025000D01*
G75*
G02*
X67725000Y-89800000I0J225000D01*
G01*
X67725000Y-89350000D01*
G75*
G02*
X67950000Y-89125000I225000J0D01*
G01*
X68550000Y-89125000D01*
G75*
G02*
X68775000Y-89350000I0J-225000D01*
G01*
X68775000Y-89800000D01*
G75*
G02*
X68550000Y-90025000I-225000J0D01*
G01*
G37*
G36*
G01*
X68550000Y-88375000D02*
X67950000Y-88375000D01*
G75*
G02*
X67725000Y-88150000I0J225000D01*
G01*
X67725000Y-87700000D01*
G75*
G02*
X67950000Y-87475000I225000J0D01*
G01*
X68550000Y-87475000D01*
G75*
G02*
X68775000Y-87700000I0J-225000D01*
G01*
X68775000Y-88150000D01*
G75*
G02*
X68550000Y-88375000I-225000J0D01*
G01*
G37*
G36*
G01*
X51600000Y-83350000D02*
X51600000Y-81650000D01*
G75*
G02*
X51650000Y-81600000I50000J0D01*
G01*
X53350000Y-81600000D01*
G75*
G02*
X53400000Y-81650000I0J-50000D01*
G01*
X53400000Y-83350000D01*
G75*
G02*
X53350000Y-83400000I-50000J0D01*
G01*
X51650000Y-83400000D01*
G75*
G02*
X51600000Y-83350000I0J50000D01*
G01*
G37*
X52500000Y-85040000D03*
X52500000Y-87580000D03*
G36*
G01*
X70675000Y-80875000D02*
X72325000Y-80875000D01*
G75*
G02*
X72375000Y-80925000I0J-50000D01*
G01*
X72375000Y-82575000D01*
G75*
G02*
X72325000Y-82625000I-50000J0D01*
G01*
X70675000Y-82625000D01*
G75*
G02*
X70625000Y-82575000I0J50000D01*
G01*
X70625000Y-80925000D01*
G75*
G02*
X70675000Y-80875000I50000J0D01*
G01*
G37*
D11*
X74040000Y-81750000D03*
X76580000Y-81750000D03*
X71500000Y-84290000D03*
X74040000Y-84290000D03*
X76580000Y-84290000D03*
X71500000Y-86830000D03*
X74040000Y-86830000D03*
X76580000Y-86830000D03*
X71500000Y-89370000D03*
X74040000Y-89370000D03*
X76580000Y-89370000D03*
G36*
G01*
X68550000Y-102375000D02*
X67950000Y-102375000D01*
G75*
G02*
X67725000Y-102150000I0J225000D01*
G01*
X67725000Y-101700000D01*
G75*
G02*
X67950000Y-101475000I225000J0D01*
G01*
X68550000Y-101475000D01*
G75*
G02*
X68775000Y-101700000I0J-225000D01*
G01*
X68775000Y-102150000D01*
G75*
G02*
X68550000Y-102375000I-225000J0D01*
G01*
G37*
G36*
G01*
X68550000Y-104025000D02*
X67950000Y-104025000D01*
G75*
G02*
X67725000Y-103800000I0J225000D01*
G01*
X67725000Y-103350000D01*
G75*
G02*
X67950000Y-103125000I225000J0D01*
G01*
X68550000Y-103125000D01*
G75*
G02*
X68775000Y-103350000I0J-225000D01*
G01*
X68775000Y-103800000D01*
G75*
G02*
X68550000Y-104025000I-225000J0D01*
G01*
G37*
D10*
X52500000Y-101580000D03*
X52500000Y-99040000D03*
G36*
G01*
X51600000Y-97350000D02*
X51600000Y-95650000D01*
G75*
G02*
X51650000Y-95600000I50000J0D01*
G01*
X53350000Y-95600000D01*
G75*
G02*
X53400000Y-95650000I0J-50000D01*
G01*
X53400000Y-97350000D01*
G75*
G02*
X53350000Y-97400000I-50000J0D01*
G01*
X51650000Y-97400000D01*
G75*
G02*
X51600000Y-97350000I0J50000D01*
G01*
G37*
D11*
X76580000Y-103370000D03*
X74040000Y-103370000D03*
X71500000Y-103370000D03*
X76580000Y-100830000D03*
X74040000Y-100830000D03*
X71500000Y-100830000D03*
X76580000Y-98290000D03*
X74040000Y-98290000D03*
X71500000Y-98290000D03*
X76580000Y-95750000D03*
X74040000Y-95750000D03*
G36*
G01*
X70675000Y-94875000D02*
X72325000Y-94875000D01*
G75*
G02*
X72375000Y-94925000I0J-50000D01*
G01*
X72375000Y-96575000D01*
G75*
G02*
X72325000Y-96625000I-50000J0D01*
G01*
X70675000Y-96625000D01*
G75*
G02*
X70625000Y-96575000I0J50000D01*
G01*
X70625000Y-94925000D01*
G75*
G02*
X70675000Y-94875000I50000J0D01*
G01*
G37*
G36*
G01*
X65718750Y-103050000D02*
X66281250Y-103050000D01*
G75*
G02*
X66525000Y-103293750I0J-243750D01*
G01*
X66525000Y-103781250D01*
G75*
G02*
X66281250Y-104025000I-243750J0D01*
G01*
X65718750Y-104025000D01*
G75*
G02*
X65475000Y-103781250I0J243750D01*
G01*
X65475000Y-103293750D01*
G75*
G02*
X65718750Y-103050000I243750J0D01*
G01*
G37*
G36*
G01*
X65718750Y-101475000D02*
X66281250Y-101475000D01*
G75*
G02*
X66525000Y-101718750I0J-243750D01*
G01*
X66525000Y-102206250D01*
G75*
G02*
X66281250Y-102450000I-243750J0D01*
G01*
X65718750Y-102450000D01*
G75*
G02*
X65475000Y-102206250I0J243750D01*
G01*
X65475000Y-101718750D01*
G75*
G02*
X65718750Y-101475000I243750J0D01*
G01*
G37*
G36*
G01*
X59475000Y-81225000D02*
X60025000Y-81225000D01*
G75*
G02*
X60275000Y-81475000I0J-250000D01*
G01*
X60275000Y-81975000D01*
G75*
G02*
X60025000Y-82225000I-250000J0D01*
G01*
X59475000Y-82225000D01*
G75*
G02*
X59225000Y-81975000I0J250000D01*
G01*
X59225000Y-81475000D01*
G75*
G02*
X59475000Y-81225000I250000J0D01*
G01*
G37*
G36*
G01*
X59475000Y-82775000D02*
X60025000Y-82775000D01*
G75*
G02*
X60275000Y-83025000I0J-250000D01*
G01*
X60275000Y-83525000D01*
G75*
G02*
X60025000Y-83775000I-250000J0D01*
G01*
X59475000Y-83775000D01*
G75*
G02*
X59225000Y-83525000I0J250000D01*
G01*
X59225000Y-83025000D01*
G75*
G02*
X59475000Y-82775000I250000J0D01*
G01*
G37*
G36*
G01*
X56350000Y-99500000D02*
X57150000Y-99500000D01*
G75*
G02*
X57200000Y-99550000I0J-50000D01*
G01*
X57200000Y-100450000D01*
G75*
G02*
X57150000Y-100500000I-50000J0D01*
G01*
X56350000Y-100500000D01*
G75*
G02*
X56300000Y-100450000I0J50000D01*
G01*
X56300000Y-99550000D01*
G75*
G02*
X56350000Y-99500000I50000J0D01*
G01*
G37*
G36*
G01*
X55400000Y-97500000D02*
X56200000Y-97500000D01*
G75*
G02*
X56250000Y-97550000I0J-50000D01*
G01*
X56250000Y-98450000D01*
G75*
G02*
X56200000Y-98500000I-50000J0D01*
G01*
X55400000Y-98500000D01*
G75*
G02*
X55350000Y-98450000I0J50000D01*
G01*
X55350000Y-97550000D01*
G75*
G02*
X55400000Y-97500000I50000J0D01*
G01*
G37*
G36*
G01*
X57300000Y-97500000D02*
X58100000Y-97500000D01*
G75*
G02*
X58150000Y-97550000I0J-50000D01*
G01*
X58150000Y-98450000D01*
G75*
G02*
X58100000Y-98500000I-50000J0D01*
G01*
X57300000Y-98500000D01*
G75*
G02*
X57250000Y-98450000I0J50000D01*
G01*
X57250000Y-97550000D01*
G75*
G02*
X57300000Y-97500000I50000J0D01*
G01*
G37*
G36*
G01*
X63975000Y-93975000D02*
X63975000Y-94525000D01*
G75*
G02*
X63725000Y-94775000I-250000J0D01*
G01*
X63225000Y-94775000D01*
G75*
G02*
X62975000Y-94525000I0J250000D01*
G01*
X62975000Y-93975000D01*
G75*
G02*
X63225000Y-93725000I250000J0D01*
G01*
X63725000Y-93725000D01*
G75*
G02*
X63975000Y-93975000I0J-250000D01*
G01*
G37*
G36*
G01*
X65525000Y-93975000D02*
X65525000Y-94525000D01*
G75*
G02*
X65275000Y-94775000I-250000J0D01*
G01*
X64775000Y-94775000D01*
G75*
G02*
X64525000Y-94525000I0J250000D01*
G01*
X64525000Y-93975000D01*
G75*
G02*
X64775000Y-93725000I250000J0D01*
G01*
X65275000Y-93725000D01*
G75*
G02*
X65525000Y-93975000I0J-250000D01*
G01*
G37*
G36*
G01*
X56475000Y-87225000D02*
X57025000Y-87225000D01*
G75*
G02*
X57275000Y-87475000I0J-250000D01*
G01*
X57275000Y-87975000D01*
G75*
G02*
X57025000Y-88225000I-250000J0D01*
G01*
X56475000Y-88225000D01*
G75*
G02*
X56225000Y-87975000I0J250000D01*
G01*
X56225000Y-87475000D01*
G75*
G02*
X56475000Y-87225000I250000J0D01*
G01*
G37*
G36*
G01*
X56475000Y-88775000D02*
X57025000Y-88775000D01*
G75*
G02*
X57275000Y-89025000I0J-250000D01*
G01*
X57275000Y-89525000D01*
G75*
G02*
X57025000Y-89775000I-250000J0D01*
G01*
X56475000Y-89775000D01*
G75*
G02*
X56225000Y-89525000I0J250000D01*
G01*
X56225000Y-89025000D01*
G75*
G02*
X56475000Y-88775000I250000J0D01*
G01*
G37*
G36*
G01*
X59475000Y-96775000D02*
X60025000Y-96775000D01*
G75*
G02*
X60275000Y-97025000I0J-250000D01*
G01*
X60275000Y-97525000D01*
G75*
G02*
X60025000Y-97775000I-250000J0D01*
G01*
X59475000Y-97775000D01*
G75*
G02*
X59225000Y-97525000I0J250000D01*
G01*
X59225000Y-97025000D01*
G75*
G02*
X59475000Y-96775000I250000J0D01*
G01*
G37*
G36*
G01*
X59475000Y-95225000D02*
X60025000Y-95225000D01*
G75*
G02*
X60275000Y-95475000I0J-250000D01*
G01*
X60275000Y-95975000D01*
G75*
G02*
X60025000Y-96225000I-250000J0D01*
G01*
X59475000Y-96225000D01*
G75*
G02*
X59225000Y-95975000I0J250000D01*
G01*
X59225000Y-95475000D01*
G75*
G02*
X59475000Y-95225000I250000J0D01*
G01*
G37*
G36*
G01*
X56475000Y-102775000D02*
X57025000Y-102775000D01*
G75*
G02*
X57275000Y-103025000I0J-250000D01*
G01*
X57275000Y-103525000D01*
G75*
G02*
X57025000Y-103775000I-250000J0D01*
G01*
X56475000Y-103775000D01*
G75*
G02*
X56225000Y-103525000I0J250000D01*
G01*
X56225000Y-103025000D01*
G75*
G02*
X56475000Y-102775000I250000J0D01*
G01*
G37*
G36*
G01*
X56475000Y-101225000D02*
X57025000Y-101225000D01*
G75*
G02*
X57275000Y-101475000I0J-250000D01*
G01*
X57275000Y-101975000D01*
G75*
G02*
X57025000Y-102225000I-250000J0D01*
G01*
X56475000Y-102225000D01*
G75*
G02*
X56225000Y-101975000I0J250000D01*
G01*
X56225000Y-101475000D01*
G75*
G02*
X56475000Y-101225000I250000J0D01*
G01*
G37*
G36*
G01*
X67447900Y-96227801D02*
X67447900Y-95872201D01*
G75*
G02*
X67497900Y-95822201I50000J0D01*
G01*
X68806000Y-95822201D01*
G75*
G02*
X68856000Y-95872201I0J-50000D01*
G01*
X68856000Y-96227801D01*
G75*
G02*
X68806000Y-96277801I-50000J0D01*
G01*
X67497900Y-96277801D01*
G75*
G02*
X67447900Y-96227801I0J50000D01*
G01*
G37*
G36*
G01*
X67447900Y-96877800D02*
X67447900Y-96522200D01*
G75*
G02*
X67497900Y-96472200I50000J0D01*
G01*
X68806000Y-96472200D01*
G75*
G02*
X68856000Y-96522200I0J-50000D01*
G01*
X68856000Y-96877800D01*
G75*
G02*
X68806000Y-96927800I-50000J0D01*
G01*
X67497900Y-96927800D01*
G75*
G02*
X67447900Y-96877800I0J50000D01*
G01*
G37*
G36*
G01*
X67447900Y-97527801D02*
X67447900Y-97172201D01*
G75*
G02*
X67497900Y-97122201I50000J0D01*
G01*
X68806000Y-97122201D01*
G75*
G02*
X68856000Y-97172201I0J-50000D01*
G01*
X68856000Y-97527801D01*
G75*
G02*
X68806000Y-97577801I-50000J0D01*
G01*
X67497900Y-97577801D01*
G75*
G02*
X67447900Y-97527801I0J50000D01*
G01*
G37*
G36*
G01*
X67447900Y-98177800D02*
X67447900Y-97822200D01*
G75*
G02*
X67497900Y-97772200I50000J0D01*
G01*
X68806000Y-97772200D01*
G75*
G02*
X68856000Y-97822200I0J-50000D01*
G01*
X68856000Y-98177800D01*
G75*
G02*
X68806000Y-98227800I-50000J0D01*
G01*
X67497900Y-98227800D01*
G75*
G02*
X67447900Y-98177800I0J50000D01*
G01*
G37*
G36*
G01*
X67447900Y-98827801D02*
X67447900Y-98472201D01*
G75*
G02*
X67497900Y-98422201I50000J0D01*
G01*
X68806000Y-98422201D01*
G75*
G02*
X68856000Y-98472201I0J-50000D01*
G01*
X68856000Y-98827801D01*
G75*
G02*
X68806000Y-98877801I-50000J0D01*
G01*
X67497900Y-98877801D01*
G75*
G02*
X67447900Y-98827801I0J50000D01*
G01*
G37*
G36*
G01*
X67447900Y-99477800D02*
X67447900Y-99122200D01*
G75*
G02*
X67497900Y-99072200I50000J0D01*
G01*
X68806000Y-99072200D01*
G75*
G02*
X68856000Y-99122200I0J-50000D01*
G01*
X68856000Y-99477800D01*
G75*
G02*
X68806000Y-99527800I-50000J0D01*
G01*
X67497900Y-99527800D01*
G75*
G02*
X67447900Y-99477800I0J50000D01*
G01*
G37*
G36*
G01*
X67447900Y-100127801D02*
X67447900Y-99772201D01*
G75*
G02*
X67497900Y-99722201I50000J0D01*
G01*
X68806000Y-99722201D01*
G75*
G02*
X68856000Y-99772201I0J-50000D01*
G01*
X68856000Y-100127801D01*
G75*
G02*
X68806000Y-100177801I-50000J0D01*
G01*
X67497900Y-100177801D01*
G75*
G02*
X67447900Y-100127801I0J50000D01*
G01*
G37*
G36*
G01*
X61644000Y-100127799D02*
X61644000Y-99772199D01*
G75*
G02*
X61694000Y-99722199I50000J0D01*
G01*
X63002100Y-99722199D01*
G75*
G02*
X63052100Y-99772199I0J-50000D01*
G01*
X63052100Y-100127799D01*
G75*
G02*
X63002100Y-100177799I-50000J0D01*
G01*
X61694000Y-100177799D01*
G75*
G02*
X61644000Y-100127799I0J50000D01*
G01*
G37*
G36*
G01*
X61644000Y-99477800D02*
X61644000Y-99122200D01*
G75*
G02*
X61694000Y-99072200I50000J0D01*
G01*
X63002100Y-99072200D01*
G75*
G02*
X63052100Y-99122200I0J-50000D01*
G01*
X63052100Y-99477800D01*
G75*
G02*
X63002100Y-99527800I-50000J0D01*
G01*
X61694000Y-99527800D01*
G75*
G02*
X61644000Y-99477800I0J50000D01*
G01*
G37*
G36*
G01*
X61644000Y-98827799D02*
X61644000Y-98472199D01*
G75*
G02*
X61694000Y-98422199I50000J0D01*
G01*
X63002100Y-98422199D01*
G75*
G02*
X63052100Y-98472199I0J-50000D01*
G01*
X63052100Y-98827799D01*
G75*
G02*
X63002100Y-98877799I-50000J0D01*
G01*
X61694000Y-98877799D01*
G75*
G02*
X61644000Y-98827799I0J50000D01*
G01*
G37*
G36*
G01*
X61644000Y-98177800D02*
X61644000Y-97822200D01*
G75*
G02*
X61694000Y-97772200I50000J0D01*
G01*
X63002100Y-97772200D01*
G75*
G02*
X63052100Y-97822200I0J-50000D01*
G01*
X63052100Y-98177800D01*
G75*
G02*
X63002100Y-98227800I-50000J0D01*
G01*
X61694000Y-98227800D01*
G75*
G02*
X61644000Y-98177800I0J50000D01*
G01*
G37*
G36*
G01*
X61644000Y-97527801D02*
X61644000Y-97172201D01*
G75*
G02*
X61694000Y-97122201I50000J0D01*
G01*
X63002100Y-97122201D01*
G75*
G02*
X63052100Y-97172201I0J-50000D01*
G01*
X63052100Y-97527801D01*
G75*
G02*
X63002100Y-97577801I-50000J0D01*
G01*
X61694000Y-97577801D01*
G75*
G02*
X61644000Y-97527801I0J50000D01*
G01*
G37*
G36*
G01*
X61644000Y-96877800D02*
X61644000Y-96522200D01*
G75*
G02*
X61694000Y-96472200I50000J0D01*
G01*
X63002100Y-96472200D01*
G75*
G02*
X63052100Y-96522200I0J-50000D01*
G01*
X63052100Y-96877800D01*
G75*
G02*
X63002100Y-96927800I-50000J0D01*
G01*
X61694000Y-96927800D01*
G75*
G02*
X61644000Y-96877800I0J50000D01*
G01*
G37*
G36*
G01*
X61644000Y-96227799D02*
X61644000Y-95872199D01*
G75*
G02*
X61694000Y-95822199I50000J0D01*
G01*
X63002100Y-95822199D01*
G75*
G02*
X63052100Y-95872199I0J-50000D01*
G01*
X63052100Y-96227799D01*
G75*
G02*
X63002100Y-96277799I-50000J0D01*
G01*
X61694000Y-96277799D01*
G75*
G02*
X61644000Y-96227799I0J50000D01*
G01*
G37*
D10*
X62750000Y-102750000D03*
G36*
G01*
X61060000Y-103650000D02*
X59360000Y-103650000D01*
G75*
G02*
X59310000Y-103600000I0J50000D01*
G01*
X59310000Y-101900000D01*
G75*
G02*
X59360000Y-101850000I50000J0D01*
G01*
X61060000Y-101850000D01*
G75*
G02*
X61110000Y-101900000I0J-50000D01*
G01*
X61110000Y-103600000D01*
G75*
G02*
X61060000Y-103650000I-50000J0D01*
G01*
G37*
G36*
G01*
X65525000Y-79975000D02*
X65525000Y-80525000D01*
G75*
G02*
X65275000Y-80775000I-250000J0D01*
G01*
X64775000Y-80775000D01*
G75*
G02*
X64525000Y-80525000I0J250000D01*
G01*
X64525000Y-79975000D01*
G75*
G02*
X64775000Y-79725000I250000J0D01*
G01*
X65275000Y-79725000D01*
G75*
G02*
X65525000Y-79975000I0J-250000D01*
G01*
G37*
G36*
G01*
X63975000Y-79975000D02*
X63975000Y-80525000D01*
G75*
G02*
X63725000Y-80775000I-250000J0D01*
G01*
X63225000Y-80775000D01*
G75*
G02*
X62975000Y-80525000I0J250000D01*
G01*
X62975000Y-79975000D01*
G75*
G02*
X63225000Y-79725000I250000J0D01*
G01*
X63725000Y-79725000D01*
G75*
G02*
X63975000Y-79975000I0J-250000D01*
G01*
G37*
G36*
G01*
X57300000Y-83500000D02*
X58100000Y-83500000D01*
G75*
G02*
X58150000Y-83550000I0J-50000D01*
G01*
X58150000Y-84450000D01*
G75*
G02*
X58100000Y-84500000I-50000J0D01*
G01*
X57300000Y-84500000D01*
G75*
G02*
X57250000Y-84450000I0J50000D01*
G01*
X57250000Y-83550000D01*
G75*
G02*
X57300000Y-83500000I50000J0D01*
G01*
G37*
G36*
G01*
X55400000Y-83500000D02*
X56200000Y-83500000D01*
G75*
G02*
X56250000Y-83550000I0J-50000D01*
G01*
X56250000Y-84450000D01*
G75*
G02*
X56200000Y-84500000I-50000J0D01*
G01*
X55400000Y-84500000D01*
G75*
G02*
X55350000Y-84450000I0J50000D01*
G01*
X55350000Y-83550000D01*
G75*
G02*
X55400000Y-83500000I50000J0D01*
G01*
G37*
G36*
G01*
X56350000Y-85500000D02*
X57150000Y-85500000D01*
G75*
G02*
X57200000Y-85550000I0J-50000D01*
G01*
X57200000Y-86450000D01*
G75*
G02*
X57150000Y-86500000I-50000J0D01*
G01*
X56350000Y-86500000D01*
G75*
G02*
X56300000Y-86450000I0J50000D01*
G01*
X56300000Y-85550000D01*
G75*
G02*
X56350000Y-85500000I50000J0D01*
G01*
G37*
G36*
G01*
X61644000Y-82227799D02*
X61644000Y-81872199D01*
G75*
G02*
X61694000Y-81822199I50000J0D01*
G01*
X63002100Y-81822199D01*
G75*
G02*
X63052100Y-81872199I0J-50000D01*
G01*
X63052100Y-82227799D01*
G75*
G02*
X63002100Y-82277799I-50000J0D01*
G01*
X61694000Y-82277799D01*
G75*
G02*
X61644000Y-82227799I0J50000D01*
G01*
G37*
G36*
G01*
X61644000Y-82877800D02*
X61644000Y-82522200D01*
G75*
G02*
X61694000Y-82472200I50000J0D01*
G01*
X63002100Y-82472200D01*
G75*
G02*
X63052100Y-82522200I0J-50000D01*
G01*
X63052100Y-82877800D01*
G75*
G02*
X63002100Y-82927800I-50000J0D01*
G01*
X61694000Y-82927800D01*
G75*
G02*
X61644000Y-82877800I0J50000D01*
G01*
G37*
G36*
G01*
X61644000Y-83527801D02*
X61644000Y-83172201D01*
G75*
G02*
X61694000Y-83122201I50000J0D01*
G01*
X63002100Y-83122201D01*
G75*
G02*
X63052100Y-83172201I0J-50000D01*
G01*
X63052100Y-83527801D01*
G75*
G02*
X63002100Y-83577801I-50000J0D01*
G01*
X61694000Y-83577801D01*
G75*
G02*
X61644000Y-83527801I0J50000D01*
G01*
G37*
G36*
G01*
X61644000Y-84177800D02*
X61644000Y-83822200D01*
G75*
G02*
X61694000Y-83772200I50000J0D01*
G01*
X63002100Y-83772200D01*
G75*
G02*
X63052100Y-83822200I0J-50000D01*
G01*
X63052100Y-84177800D01*
G75*
G02*
X63002100Y-84227800I-50000J0D01*
G01*
X61694000Y-84227800D01*
G75*
G02*
X61644000Y-84177800I0J50000D01*
G01*
G37*
G36*
G01*
X61644000Y-84827799D02*
X61644000Y-84472199D01*
G75*
G02*
X61694000Y-84422199I50000J0D01*
G01*
X63002100Y-84422199D01*
G75*
G02*
X63052100Y-84472199I0J-50000D01*
G01*
X63052100Y-84827799D01*
G75*
G02*
X63002100Y-84877799I-50000J0D01*
G01*
X61694000Y-84877799D01*
G75*
G02*
X61644000Y-84827799I0J50000D01*
G01*
G37*
G36*
G01*
X61644000Y-85477800D02*
X61644000Y-85122200D01*
G75*
G02*
X61694000Y-85072200I50000J0D01*
G01*
X63002100Y-85072200D01*
G75*
G02*
X63052100Y-85122200I0J-50000D01*
G01*
X63052100Y-85477800D01*
G75*
G02*
X63002100Y-85527800I-50000J0D01*
G01*
X61694000Y-85527800D01*
G75*
G02*
X61644000Y-85477800I0J50000D01*
G01*
G37*
G36*
G01*
X61644000Y-86127799D02*
X61644000Y-85772199D01*
G75*
G02*
X61694000Y-85722199I50000J0D01*
G01*
X63002100Y-85722199D01*
G75*
G02*
X63052100Y-85772199I0J-50000D01*
G01*
X63052100Y-86127799D01*
G75*
G02*
X63002100Y-86177799I-50000J0D01*
G01*
X61694000Y-86177799D01*
G75*
G02*
X61644000Y-86127799I0J50000D01*
G01*
G37*
G36*
G01*
X67447900Y-86127801D02*
X67447900Y-85772201D01*
G75*
G02*
X67497900Y-85722201I50000J0D01*
G01*
X68806000Y-85722201D01*
G75*
G02*
X68856000Y-85772201I0J-50000D01*
G01*
X68856000Y-86127801D01*
G75*
G02*
X68806000Y-86177801I-50000J0D01*
G01*
X67497900Y-86177801D01*
G75*
G02*
X67447900Y-86127801I0J50000D01*
G01*
G37*
G36*
G01*
X67447900Y-85477800D02*
X67447900Y-85122200D01*
G75*
G02*
X67497900Y-85072200I50000J0D01*
G01*
X68806000Y-85072200D01*
G75*
G02*
X68856000Y-85122200I0J-50000D01*
G01*
X68856000Y-85477800D01*
G75*
G02*
X68806000Y-85527800I-50000J0D01*
G01*
X67497900Y-85527800D01*
G75*
G02*
X67447900Y-85477800I0J50000D01*
G01*
G37*
G36*
G01*
X67447900Y-84827801D02*
X67447900Y-84472201D01*
G75*
G02*
X67497900Y-84422201I50000J0D01*
G01*
X68806000Y-84422201D01*
G75*
G02*
X68856000Y-84472201I0J-50000D01*
G01*
X68856000Y-84827801D01*
G75*
G02*
X68806000Y-84877801I-50000J0D01*
G01*
X67497900Y-84877801D01*
G75*
G02*
X67447900Y-84827801I0J50000D01*
G01*
G37*
G36*
G01*
X67447900Y-84177800D02*
X67447900Y-83822200D01*
G75*
G02*
X67497900Y-83772200I50000J0D01*
G01*
X68806000Y-83772200D01*
G75*
G02*
X68856000Y-83822200I0J-50000D01*
G01*
X68856000Y-84177800D01*
G75*
G02*
X68806000Y-84227800I-50000J0D01*
G01*
X67497900Y-84227800D01*
G75*
G02*
X67447900Y-84177800I0J50000D01*
G01*
G37*
G36*
G01*
X67447900Y-83527801D02*
X67447900Y-83172201D01*
G75*
G02*
X67497900Y-83122201I50000J0D01*
G01*
X68806000Y-83122201D01*
G75*
G02*
X68856000Y-83172201I0J-50000D01*
G01*
X68856000Y-83527801D01*
G75*
G02*
X68806000Y-83577801I-50000J0D01*
G01*
X67497900Y-83577801D01*
G75*
G02*
X67447900Y-83527801I0J50000D01*
G01*
G37*
G36*
G01*
X67447900Y-82877800D02*
X67447900Y-82522200D01*
G75*
G02*
X67497900Y-82472200I50000J0D01*
G01*
X68806000Y-82472200D01*
G75*
G02*
X68856000Y-82522200I0J-50000D01*
G01*
X68856000Y-82877800D01*
G75*
G02*
X68806000Y-82927800I-50000J0D01*
G01*
X67497900Y-82927800D01*
G75*
G02*
X67447900Y-82877800I0J50000D01*
G01*
G37*
G36*
G01*
X67447900Y-82227801D02*
X67447900Y-81872201D01*
G75*
G02*
X67497900Y-81822201I50000J0D01*
G01*
X68806000Y-81822201D01*
G75*
G02*
X68856000Y-81872201I0J-50000D01*
G01*
X68856000Y-82227801D01*
G75*
G02*
X68806000Y-82277801I-50000J0D01*
G01*
X67497900Y-82277801D01*
G75*
G02*
X67447900Y-82227801I0J50000D01*
G01*
G37*
G36*
G01*
X61060000Y-89650000D02*
X59360000Y-89650000D01*
G75*
G02*
X59310000Y-89600000I0J50000D01*
G01*
X59310000Y-87900000D01*
G75*
G02*
X59360000Y-87850000I50000J0D01*
G01*
X61060000Y-87850000D01*
G75*
G02*
X61110000Y-87900000I0J-50000D01*
G01*
X61110000Y-89600000D01*
G75*
G02*
X61060000Y-89650000I-50000J0D01*
G01*
G37*
X62750000Y-88750000D03*
G36*
G01*
X65718750Y-73475000D02*
X66281250Y-73475000D01*
G75*
G02*
X66525000Y-73718750I0J-243750D01*
G01*
X66525000Y-74206250D01*
G75*
G02*
X66281250Y-74450000I-243750J0D01*
G01*
X65718750Y-74450000D01*
G75*
G02*
X65475000Y-74206250I0J243750D01*
G01*
X65475000Y-73718750D01*
G75*
G02*
X65718750Y-73475000I243750J0D01*
G01*
G37*
G36*
G01*
X65718750Y-75050000D02*
X66281250Y-75050000D01*
G75*
G02*
X66525000Y-75293750I0J-243750D01*
G01*
X66525000Y-75781250D01*
G75*
G02*
X66281250Y-76025000I-243750J0D01*
G01*
X65718750Y-76025000D01*
G75*
G02*
X65475000Y-75781250I0J243750D01*
G01*
X65475000Y-75293750D01*
G75*
G02*
X65718750Y-75050000I243750J0D01*
G01*
G37*
G36*
G01*
X68550000Y-76025000D02*
X67950000Y-76025000D01*
G75*
G02*
X67725000Y-75800000I0J225000D01*
G01*
X67725000Y-75350000D01*
G75*
G02*
X67950000Y-75125000I225000J0D01*
G01*
X68550000Y-75125000D01*
G75*
G02*
X68775000Y-75350000I0J-225000D01*
G01*
X68775000Y-75800000D01*
G75*
G02*
X68550000Y-76025000I-225000J0D01*
G01*
G37*
G36*
G01*
X68550000Y-74375000D02*
X67950000Y-74375000D01*
G75*
G02*
X67725000Y-74150000I0J225000D01*
G01*
X67725000Y-73700000D01*
G75*
G02*
X67950000Y-73475000I225000J0D01*
G01*
X68550000Y-73475000D01*
G75*
G02*
X68775000Y-73700000I0J-225000D01*
G01*
X68775000Y-74150000D01*
G75*
G02*
X68550000Y-74375000I-225000J0D01*
G01*
G37*
G36*
G01*
X51600000Y-69350000D02*
X51600000Y-67650000D01*
G75*
G02*
X51650000Y-67600000I50000J0D01*
G01*
X53350000Y-67600000D01*
G75*
G02*
X53400000Y-67650000I0J-50000D01*
G01*
X53400000Y-69350000D01*
G75*
G02*
X53350000Y-69400000I-50000J0D01*
G01*
X51650000Y-69400000D01*
G75*
G02*
X51600000Y-69350000I0J50000D01*
G01*
G37*
X52500000Y-71040000D03*
X52500000Y-73580000D03*
G36*
G01*
X70675000Y-66875000D02*
X72325000Y-66875000D01*
G75*
G02*
X72375000Y-66925000I0J-50000D01*
G01*
X72375000Y-68575000D01*
G75*
G02*
X72325000Y-68625000I-50000J0D01*
G01*
X70675000Y-68625000D01*
G75*
G02*
X70625000Y-68575000I0J50000D01*
G01*
X70625000Y-66925000D01*
G75*
G02*
X70675000Y-66875000I50000J0D01*
G01*
G37*
D11*
X74040000Y-67750000D03*
X76580000Y-67750000D03*
X71500000Y-70290000D03*
X74040000Y-70290000D03*
X76580000Y-70290000D03*
X71500000Y-72830000D03*
X74040000Y-72830000D03*
X76580000Y-72830000D03*
X71500000Y-75370000D03*
X74040000Y-75370000D03*
X76580000Y-75370000D03*
G36*
G01*
X59475000Y-67225000D02*
X60025000Y-67225000D01*
G75*
G02*
X60275000Y-67475000I0J-250000D01*
G01*
X60275000Y-67975000D01*
G75*
G02*
X60025000Y-68225000I-250000J0D01*
G01*
X59475000Y-68225000D01*
G75*
G02*
X59225000Y-67975000I0J250000D01*
G01*
X59225000Y-67475000D01*
G75*
G02*
X59475000Y-67225000I250000J0D01*
G01*
G37*
G36*
G01*
X59475000Y-68775000D02*
X60025000Y-68775000D01*
G75*
G02*
X60275000Y-69025000I0J-250000D01*
G01*
X60275000Y-69525000D01*
G75*
G02*
X60025000Y-69775000I-250000J0D01*
G01*
X59475000Y-69775000D01*
G75*
G02*
X59225000Y-69525000I0J250000D01*
G01*
X59225000Y-69025000D01*
G75*
G02*
X59475000Y-68775000I250000J0D01*
G01*
G37*
G36*
G01*
X56475000Y-73225000D02*
X57025000Y-73225000D01*
G75*
G02*
X57275000Y-73475000I0J-250000D01*
G01*
X57275000Y-73975000D01*
G75*
G02*
X57025000Y-74225000I-250000J0D01*
G01*
X56475000Y-74225000D01*
G75*
G02*
X56225000Y-73975000I0J250000D01*
G01*
X56225000Y-73475000D01*
G75*
G02*
X56475000Y-73225000I250000J0D01*
G01*
G37*
G36*
G01*
X56475000Y-74775000D02*
X57025000Y-74775000D01*
G75*
G02*
X57275000Y-75025000I0J-250000D01*
G01*
X57275000Y-75525000D01*
G75*
G02*
X57025000Y-75775000I-250000J0D01*
G01*
X56475000Y-75775000D01*
G75*
G02*
X56225000Y-75525000I0J250000D01*
G01*
X56225000Y-75025000D01*
G75*
G02*
X56475000Y-74775000I250000J0D01*
G01*
G37*
G36*
G01*
X65525000Y-65975000D02*
X65525000Y-66525000D01*
G75*
G02*
X65275000Y-66775000I-250000J0D01*
G01*
X64775000Y-66775000D01*
G75*
G02*
X64525000Y-66525000I0J250000D01*
G01*
X64525000Y-65975000D01*
G75*
G02*
X64775000Y-65725000I250000J0D01*
G01*
X65275000Y-65725000D01*
G75*
G02*
X65525000Y-65975000I0J-250000D01*
G01*
G37*
G36*
G01*
X63975000Y-65975000D02*
X63975000Y-66525000D01*
G75*
G02*
X63725000Y-66775000I-250000J0D01*
G01*
X63225000Y-66775000D01*
G75*
G02*
X62975000Y-66525000I0J250000D01*
G01*
X62975000Y-65975000D01*
G75*
G02*
X63225000Y-65725000I250000J0D01*
G01*
X63725000Y-65725000D01*
G75*
G02*
X63975000Y-65975000I0J-250000D01*
G01*
G37*
G36*
G01*
X57300000Y-69500000D02*
X58100000Y-69500000D01*
G75*
G02*
X58150000Y-69550000I0J-50000D01*
G01*
X58150000Y-70450000D01*
G75*
G02*
X58100000Y-70500000I-50000J0D01*
G01*
X57300000Y-70500000D01*
G75*
G02*
X57250000Y-70450000I0J50000D01*
G01*
X57250000Y-69550000D01*
G75*
G02*
X57300000Y-69500000I50000J0D01*
G01*
G37*
G36*
G01*
X55400000Y-69500000D02*
X56200000Y-69500000D01*
G75*
G02*
X56250000Y-69550000I0J-50000D01*
G01*
X56250000Y-70450000D01*
G75*
G02*
X56200000Y-70500000I-50000J0D01*
G01*
X55400000Y-70500000D01*
G75*
G02*
X55350000Y-70450000I0J50000D01*
G01*
X55350000Y-69550000D01*
G75*
G02*
X55400000Y-69500000I50000J0D01*
G01*
G37*
G36*
G01*
X56350000Y-71500000D02*
X57150000Y-71500000D01*
G75*
G02*
X57200000Y-71550000I0J-50000D01*
G01*
X57200000Y-72450000D01*
G75*
G02*
X57150000Y-72500000I-50000J0D01*
G01*
X56350000Y-72500000D01*
G75*
G02*
X56300000Y-72450000I0J50000D01*
G01*
X56300000Y-71550000D01*
G75*
G02*
X56350000Y-71500000I50000J0D01*
G01*
G37*
G36*
G01*
X61644000Y-68227799D02*
X61644000Y-67872199D01*
G75*
G02*
X61694000Y-67822199I50000J0D01*
G01*
X63002100Y-67822199D01*
G75*
G02*
X63052100Y-67872199I0J-50000D01*
G01*
X63052100Y-68227799D01*
G75*
G02*
X63002100Y-68277799I-50000J0D01*
G01*
X61694000Y-68277799D01*
G75*
G02*
X61644000Y-68227799I0J50000D01*
G01*
G37*
G36*
G01*
X61644000Y-68877800D02*
X61644000Y-68522200D01*
G75*
G02*
X61694000Y-68472200I50000J0D01*
G01*
X63002100Y-68472200D01*
G75*
G02*
X63052100Y-68522200I0J-50000D01*
G01*
X63052100Y-68877800D01*
G75*
G02*
X63002100Y-68927800I-50000J0D01*
G01*
X61694000Y-68927800D01*
G75*
G02*
X61644000Y-68877800I0J50000D01*
G01*
G37*
G36*
G01*
X61644000Y-69527801D02*
X61644000Y-69172201D01*
G75*
G02*
X61694000Y-69122201I50000J0D01*
G01*
X63002100Y-69122201D01*
G75*
G02*
X63052100Y-69172201I0J-50000D01*
G01*
X63052100Y-69527801D01*
G75*
G02*
X63002100Y-69577801I-50000J0D01*
G01*
X61694000Y-69577801D01*
G75*
G02*
X61644000Y-69527801I0J50000D01*
G01*
G37*
G36*
G01*
X61644000Y-70177800D02*
X61644000Y-69822200D01*
G75*
G02*
X61694000Y-69772200I50000J0D01*
G01*
X63002100Y-69772200D01*
G75*
G02*
X63052100Y-69822200I0J-50000D01*
G01*
X63052100Y-70177800D01*
G75*
G02*
X63002100Y-70227800I-50000J0D01*
G01*
X61694000Y-70227800D01*
G75*
G02*
X61644000Y-70177800I0J50000D01*
G01*
G37*
G36*
G01*
X61644000Y-70827799D02*
X61644000Y-70472199D01*
G75*
G02*
X61694000Y-70422199I50000J0D01*
G01*
X63002100Y-70422199D01*
G75*
G02*
X63052100Y-70472199I0J-50000D01*
G01*
X63052100Y-70827799D01*
G75*
G02*
X63002100Y-70877799I-50000J0D01*
G01*
X61694000Y-70877799D01*
G75*
G02*
X61644000Y-70827799I0J50000D01*
G01*
G37*
G36*
G01*
X61644000Y-71477800D02*
X61644000Y-71122200D01*
G75*
G02*
X61694000Y-71072200I50000J0D01*
G01*
X63002100Y-71072200D01*
G75*
G02*
X63052100Y-71122200I0J-50000D01*
G01*
X63052100Y-71477800D01*
G75*
G02*
X63002100Y-71527800I-50000J0D01*
G01*
X61694000Y-71527800D01*
G75*
G02*
X61644000Y-71477800I0J50000D01*
G01*
G37*
G36*
G01*
X61644000Y-72127799D02*
X61644000Y-71772199D01*
G75*
G02*
X61694000Y-71722199I50000J0D01*
G01*
X63002100Y-71722199D01*
G75*
G02*
X63052100Y-71772199I0J-50000D01*
G01*
X63052100Y-72127799D01*
G75*
G02*
X63002100Y-72177799I-50000J0D01*
G01*
X61694000Y-72177799D01*
G75*
G02*
X61644000Y-72127799I0J50000D01*
G01*
G37*
G36*
G01*
X67447900Y-72127801D02*
X67447900Y-71772201D01*
G75*
G02*
X67497900Y-71722201I50000J0D01*
G01*
X68806000Y-71722201D01*
G75*
G02*
X68856000Y-71772201I0J-50000D01*
G01*
X68856000Y-72127801D01*
G75*
G02*
X68806000Y-72177801I-50000J0D01*
G01*
X67497900Y-72177801D01*
G75*
G02*
X67447900Y-72127801I0J50000D01*
G01*
G37*
G36*
G01*
X67447900Y-71477800D02*
X67447900Y-71122200D01*
G75*
G02*
X67497900Y-71072200I50000J0D01*
G01*
X68806000Y-71072200D01*
G75*
G02*
X68856000Y-71122200I0J-50000D01*
G01*
X68856000Y-71477800D01*
G75*
G02*
X68806000Y-71527800I-50000J0D01*
G01*
X67497900Y-71527800D01*
G75*
G02*
X67447900Y-71477800I0J50000D01*
G01*
G37*
G36*
G01*
X67447900Y-70827801D02*
X67447900Y-70472201D01*
G75*
G02*
X67497900Y-70422201I50000J0D01*
G01*
X68806000Y-70422201D01*
G75*
G02*
X68856000Y-70472201I0J-50000D01*
G01*
X68856000Y-70827801D01*
G75*
G02*
X68806000Y-70877801I-50000J0D01*
G01*
X67497900Y-70877801D01*
G75*
G02*
X67447900Y-70827801I0J50000D01*
G01*
G37*
G36*
G01*
X67447900Y-70177800D02*
X67447900Y-69822200D01*
G75*
G02*
X67497900Y-69772200I50000J0D01*
G01*
X68806000Y-69772200D01*
G75*
G02*
X68856000Y-69822200I0J-50000D01*
G01*
X68856000Y-70177800D01*
G75*
G02*
X68806000Y-70227800I-50000J0D01*
G01*
X67497900Y-70227800D01*
G75*
G02*
X67447900Y-70177800I0J50000D01*
G01*
G37*
G36*
G01*
X67447900Y-69527801D02*
X67447900Y-69172201D01*
G75*
G02*
X67497900Y-69122201I50000J0D01*
G01*
X68806000Y-69122201D01*
G75*
G02*
X68856000Y-69172201I0J-50000D01*
G01*
X68856000Y-69527801D01*
G75*
G02*
X68806000Y-69577801I-50000J0D01*
G01*
X67497900Y-69577801D01*
G75*
G02*
X67447900Y-69527801I0J50000D01*
G01*
G37*
G36*
G01*
X67447900Y-68877800D02*
X67447900Y-68522200D01*
G75*
G02*
X67497900Y-68472200I50000J0D01*
G01*
X68806000Y-68472200D01*
G75*
G02*
X68856000Y-68522200I0J-50000D01*
G01*
X68856000Y-68877800D01*
G75*
G02*
X68806000Y-68927800I-50000J0D01*
G01*
X67497900Y-68927800D01*
G75*
G02*
X67447900Y-68877800I0J50000D01*
G01*
G37*
G36*
G01*
X67447900Y-68227801D02*
X67447900Y-67872201D01*
G75*
G02*
X67497900Y-67822201I50000J0D01*
G01*
X68806000Y-67822201D01*
G75*
G02*
X68856000Y-67872201I0J-50000D01*
G01*
X68856000Y-68227801D01*
G75*
G02*
X68806000Y-68277801I-50000J0D01*
G01*
X67497900Y-68277801D01*
G75*
G02*
X67447900Y-68227801I0J50000D01*
G01*
G37*
G36*
G01*
X61060000Y-75650000D02*
X59360000Y-75650000D01*
G75*
G02*
X59310000Y-75600000I0J50000D01*
G01*
X59310000Y-73900000D01*
G75*
G02*
X59360000Y-73850000I50000J0D01*
G01*
X61060000Y-73850000D01*
G75*
G02*
X61110000Y-73900000I0J-50000D01*
G01*
X61110000Y-75600000D01*
G75*
G02*
X61060000Y-75650000I-50000J0D01*
G01*
G37*
D10*
X62750000Y-74750000D03*
X62750000Y-60750000D03*
G36*
G01*
X61060000Y-61650000D02*
X59360000Y-61650000D01*
G75*
G02*
X59310000Y-61600000I0J50000D01*
G01*
X59310000Y-59900000D01*
G75*
G02*
X59360000Y-59850000I50000J0D01*
G01*
X61060000Y-59850000D01*
G75*
G02*
X61110000Y-59900000I0J-50000D01*
G01*
X61110000Y-61600000D01*
G75*
G02*
X61060000Y-61650000I-50000J0D01*
G01*
G37*
D11*
X76580000Y-61370000D03*
X74040000Y-61370000D03*
X71500000Y-61370000D03*
X76580000Y-58830000D03*
X74040000Y-58830000D03*
X71500000Y-58830000D03*
X76580000Y-56290000D03*
X74040000Y-56290000D03*
X71500000Y-56290000D03*
X76580000Y-53750000D03*
X74040000Y-53750000D03*
G36*
G01*
X70675000Y-52875000D02*
X72325000Y-52875000D01*
G75*
G02*
X72375000Y-52925000I0J-50000D01*
G01*
X72375000Y-54575000D01*
G75*
G02*
X72325000Y-54625000I-50000J0D01*
G01*
X70675000Y-54625000D01*
G75*
G02*
X70625000Y-54575000I0J50000D01*
G01*
X70625000Y-52925000D01*
G75*
G02*
X70675000Y-52875000I50000J0D01*
G01*
G37*
D10*
X52500000Y-59580000D03*
X52500000Y-57040000D03*
G36*
G01*
X51600000Y-55350000D02*
X51600000Y-53650000D01*
G75*
G02*
X51650000Y-53600000I50000J0D01*
G01*
X53350000Y-53600000D01*
G75*
G02*
X53400000Y-53650000I0J-50000D01*
G01*
X53400000Y-55350000D01*
G75*
G02*
X53350000Y-55400000I-50000J0D01*
G01*
X51650000Y-55400000D01*
G75*
G02*
X51600000Y-55350000I0J50000D01*
G01*
G37*
G36*
G01*
X67447900Y-54227801D02*
X67447900Y-53872201D01*
G75*
G02*
X67497900Y-53822201I50000J0D01*
G01*
X68806000Y-53822201D01*
G75*
G02*
X68856000Y-53872201I0J-50000D01*
G01*
X68856000Y-54227801D01*
G75*
G02*
X68806000Y-54277801I-50000J0D01*
G01*
X67497900Y-54277801D01*
G75*
G02*
X67447900Y-54227801I0J50000D01*
G01*
G37*
G36*
G01*
X67447900Y-54877800D02*
X67447900Y-54522200D01*
G75*
G02*
X67497900Y-54472200I50000J0D01*
G01*
X68806000Y-54472200D01*
G75*
G02*
X68856000Y-54522200I0J-50000D01*
G01*
X68856000Y-54877800D01*
G75*
G02*
X68806000Y-54927800I-50000J0D01*
G01*
X67497900Y-54927800D01*
G75*
G02*
X67447900Y-54877800I0J50000D01*
G01*
G37*
G36*
G01*
X67447900Y-55527801D02*
X67447900Y-55172201D01*
G75*
G02*
X67497900Y-55122201I50000J0D01*
G01*
X68806000Y-55122201D01*
G75*
G02*
X68856000Y-55172201I0J-50000D01*
G01*
X68856000Y-55527801D01*
G75*
G02*
X68806000Y-55577801I-50000J0D01*
G01*
X67497900Y-55577801D01*
G75*
G02*
X67447900Y-55527801I0J50000D01*
G01*
G37*
G36*
G01*
X67447900Y-56177800D02*
X67447900Y-55822200D01*
G75*
G02*
X67497900Y-55772200I50000J0D01*
G01*
X68806000Y-55772200D01*
G75*
G02*
X68856000Y-55822200I0J-50000D01*
G01*
X68856000Y-56177800D01*
G75*
G02*
X68806000Y-56227800I-50000J0D01*
G01*
X67497900Y-56227800D01*
G75*
G02*
X67447900Y-56177800I0J50000D01*
G01*
G37*
G36*
G01*
X67447900Y-56827801D02*
X67447900Y-56472201D01*
G75*
G02*
X67497900Y-56422201I50000J0D01*
G01*
X68806000Y-56422201D01*
G75*
G02*
X68856000Y-56472201I0J-50000D01*
G01*
X68856000Y-56827801D01*
G75*
G02*
X68806000Y-56877801I-50000J0D01*
G01*
X67497900Y-56877801D01*
G75*
G02*
X67447900Y-56827801I0J50000D01*
G01*
G37*
G36*
G01*
X67447900Y-57477800D02*
X67447900Y-57122200D01*
G75*
G02*
X67497900Y-57072200I50000J0D01*
G01*
X68806000Y-57072200D01*
G75*
G02*
X68856000Y-57122200I0J-50000D01*
G01*
X68856000Y-57477800D01*
G75*
G02*
X68806000Y-57527800I-50000J0D01*
G01*
X67497900Y-57527800D01*
G75*
G02*
X67447900Y-57477800I0J50000D01*
G01*
G37*
G36*
G01*
X67447900Y-58127801D02*
X67447900Y-57772201D01*
G75*
G02*
X67497900Y-57722201I50000J0D01*
G01*
X68806000Y-57722201D01*
G75*
G02*
X68856000Y-57772201I0J-50000D01*
G01*
X68856000Y-58127801D01*
G75*
G02*
X68806000Y-58177801I-50000J0D01*
G01*
X67497900Y-58177801D01*
G75*
G02*
X67447900Y-58127801I0J50000D01*
G01*
G37*
G36*
G01*
X61644000Y-58127799D02*
X61644000Y-57772199D01*
G75*
G02*
X61694000Y-57722199I50000J0D01*
G01*
X63002100Y-57722199D01*
G75*
G02*
X63052100Y-57772199I0J-50000D01*
G01*
X63052100Y-58127799D01*
G75*
G02*
X63002100Y-58177799I-50000J0D01*
G01*
X61694000Y-58177799D01*
G75*
G02*
X61644000Y-58127799I0J50000D01*
G01*
G37*
G36*
G01*
X61644000Y-57477800D02*
X61644000Y-57122200D01*
G75*
G02*
X61694000Y-57072200I50000J0D01*
G01*
X63002100Y-57072200D01*
G75*
G02*
X63052100Y-57122200I0J-50000D01*
G01*
X63052100Y-57477800D01*
G75*
G02*
X63002100Y-57527800I-50000J0D01*
G01*
X61694000Y-57527800D01*
G75*
G02*
X61644000Y-57477800I0J50000D01*
G01*
G37*
G36*
G01*
X61644000Y-56827799D02*
X61644000Y-56472199D01*
G75*
G02*
X61694000Y-56422199I50000J0D01*
G01*
X63002100Y-56422199D01*
G75*
G02*
X63052100Y-56472199I0J-50000D01*
G01*
X63052100Y-56827799D01*
G75*
G02*
X63002100Y-56877799I-50000J0D01*
G01*
X61694000Y-56877799D01*
G75*
G02*
X61644000Y-56827799I0J50000D01*
G01*
G37*
G36*
G01*
X61644000Y-56177800D02*
X61644000Y-55822200D01*
G75*
G02*
X61694000Y-55772200I50000J0D01*
G01*
X63002100Y-55772200D01*
G75*
G02*
X63052100Y-55822200I0J-50000D01*
G01*
X63052100Y-56177800D01*
G75*
G02*
X63002100Y-56227800I-50000J0D01*
G01*
X61694000Y-56227800D01*
G75*
G02*
X61644000Y-56177800I0J50000D01*
G01*
G37*
G36*
G01*
X61644000Y-55527801D02*
X61644000Y-55172201D01*
G75*
G02*
X61694000Y-55122201I50000J0D01*
G01*
X63002100Y-55122201D01*
G75*
G02*
X63052100Y-55172201I0J-50000D01*
G01*
X63052100Y-55527801D01*
G75*
G02*
X63002100Y-55577801I-50000J0D01*
G01*
X61694000Y-55577801D01*
G75*
G02*
X61644000Y-55527801I0J50000D01*
G01*
G37*
G36*
G01*
X61644000Y-54877800D02*
X61644000Y-54522200D01*
G75*
G02*
X61694000Y-54472200I50000J0D01*
G01*
X63002100Y-54472200D01*
G75*
G02*
X63052100Y-54522200I0J-50000D01*
G01*
X63052100Y-54877800D01*
G75*
G02*
X63002100Y-54927800I-50000J0D01*
G01*
X61694000Y-54927800D01*
G75*
G02*
X61644000Y-54877800I0J50000D01*
G01*
G37*
G36*
G01*
X61644000Y-54227799D02*
X61644000Y-53872199D01*
G75*
G02*
X61694000Y-53822199I50000J0D01*
G01*
X63002100Y-53822199D01*
G75*
G02*
X63052100Y-53872199I0J-50000D01*
G01*
X63052100Y-54227799D01*
G75*
G02*
X63002100Y-54277799I-50000J0D01*
G01*
X61694000Y-54277799D01*
G75*
G02*
X61644000Y-54227799I0J50000D01*
G01*
G37*
G36*
G01*
X56350000Y-57500000D02*
X57150000Y-57500000D01*
G75*
G02*
X57200000Y-57550000I0J-50000D01*
G01*
X57200000Y-58450000D01*
G75*
G02*
X57150000Y-58500000I-50000J0D01*
G01*
X56350000Y-58500000D01*
G75*
G02*
X56300000Y-58450000I0J50000D01*
G01*
X56300000Y-57550000D01*
G75*
G02*
X56350000Y-57500000I50000J0D01*
G01*
G37*
G36*
G01*
X55400000Y-55500000D02*
X56200000Y-55500000D01*
G75*
G02*
X56250000Y-55550000I0J-50000D01*
G01*
X56250000Y-56450000D01*
G75*
G02*
X56200000Y-56500000I-50000J0D01*
G01*
X55400000Y-56500000D01*
G75*
G02*
X55350000Y-56450000I0J50000D01*
G01*
X55350000Y-55550000D01*
G75*
G02*
X55400000Y-55500000I50000J0D01*
G01*
G37*
G36*
G01*
X57300000Y-55500000D02*
X58100000Y-55500000D01*
G75*
G02*
X58150000Y-55550000I0J-50000D01*
G01*
X58150000Y-56450000D01*
G75*
G02*
X58100000Y-56500000I-50000J0D01*
G01*
X57300000Y-56500000D01*
G75*
G02*
X57250000Y-56450000I0J50000D01*
G01*
X57250000Y-55550000D01*
G75*
G02*
X57300000Y-55500000I50000J0D01*
G01*
G37*
G36*
G01*
X68550000Y-60375000D02*
X67950000Y-60375000D01*
G75*
G02*
X67725000Y-60150000I0J225000D01*
G01*
X67725000Y-59700000D01*
G75*
G02*
X67950000Y-59475000I225000J0D01*
G01*
X68550000Y-59475000D01*
G75*
G02*
X68775000Y-59700000I0J-225000D01*
G01*
X68775000Y-60150000D01*
G75*
G02*
X68550000Y-60375000I-225000J0D01*
G01*
G37*
G36*
G01*
X68550000Y-62025000D02*
X67950000Y-62025000D01*
G75*
G02*
X67725000Y-61800000I0J225000D01*
G01*
X67725000Y-61350000D01*
G75*
G02*
X67950000Y-61125000I225000J0D01*
G01*
X68550000Y-61125000D01*
G75*
G02*
X68775000Y-61350000I0J-225000D01*
G01*
X68775000Y-61800000D01*
G75*
G02*
X68550000Y-62025000I-225000J0D01*
G01*
G37*
G36*
G01*
X65718750Y-61050000D02*
X66281250Y-61050000D01*
G75*
G02*
X66525000Y-61293750I0J-243750D01*
G01*
X66525000Y-61781250D01*
G75*
G02*
X66281250Y-62025000I-243750J0D01*
G01*
X65718750Y-62025000D01*
G75*
G02*
X65475000Y-61781250I0J243750D01*
G01*
X65475000Y-61293750D01*
G75*
G02*
X65718750Y-61050000I243750J0D01*
G01*
G37*
G36*
G01*
X65718750Y-59475000D02*
X66281250Y-59475000D01*
G75*
G02*
X66525000Y-59718750I0J-243750D01*
G01*
X66525000Y-60206250D01*
G75*
G02*
X66281250Y-60450000I-243750J0D01*
G01*
X65718750Y-60450000D01*
G75*
G02*
X65475000Y-60206250I0J243750D01*
G01*
X65475000Y-59718750D01*
G75*
G02*
X65718750Y-59475000I243750J0D01*
G01*
G37*
G36*
G01*
X59475000Y-54775000D02*
X60025000Y-54775000D01*
G75*
G02*
X60275000Y-55025000I0J-250000D01*
G01*
X60275000Y-55525000D01*
G75*
G02*
X60025000Y-55775000I-250000J0D01*
G01*
X59475000Y-55775000D01*
G75*
G02*
X59225000Y-55525000I0J250000D01*
G01*
X59225000Y-55025000D01*
G75*
G02*
X59475000Y-54775000I250000J0D01*
G01*
G37*
G36*
G01*
X59475000Y-53225000D02*
X60025000Y-53225000D01*
G75*
G02*
X60275000Y-53475000I0J-250000D01*
G01*
X60275000Y-53975000D01*
G75*
G02*
X60025000Y-54225000I-250000J0D01*
G01*
X59475000Y-54225000D01*
G75*
G02*
X59225000Y-53975000I0J250000D01*
G01*
X59225000Y-53475000D01*
G75*
G02*
X59475000Y-53225000I250000J0D01*
G01*
G37*
G36*
G01*
X63975000Y-51975000D02*
X63975000Y-52525000D01*
G75*
G02*
X63725000Y-52775000I-250000J0D01*
G01*
X63225000Y-52775000D01*
G75*
G02*
X62975000Y-52525000I0J250000D01*
G01*
X62975000Y-51975000D01*
G75*
G02*
X63225000Y-51725000I250000J0D01*
G01*
X63725000Y-51725000D01*
G75*
G02*
X63975000Y-51975000I0J-250000D01*
G01*
G37*
G36*
G01*
X65525000Y-51975000D02*
X65525000Y-52525000D01*
G75*
G02*
X65275000Y-52775000I-250000J0D01*
G01*
X64775000Y-52775000D01*
G75*
G02*
X64525000Y-52525000I0J250000D01*
G01*
X64525000Y-51975000D01*
G75*
G02*
X64775000Y-51725000I250000J0D01*
G01*
X65275000Y-51725000D01*
G75*
G02*
X65525000Y-51975000I0J-250000D01*
G01*
G37*
G36*
G01*
X56475000Y-60775000D02*
X57025000Y-60775000D01*
G75*
G02*
X57275000Y-61025000I0J-250000D01*
G01*
X57275000Y-61525000D01*
G75*
G02*
X57025000Y-61775000I-250000J0D01*
G01*
X56475000Y-61775000D01*
G75*
G02*
X56225000Y-61525000I0J250000D01*
G01*
X56225000Y-61025000D01*
G75*
G02*
X56475000Y-60775000I250000J0D01*
G01*
G37*
G36*
G01*
X56475000Y-59225000D02*
X57025000Y-59225000D01*
G75*
G02*
X57275000Y-59475000I0J-250000D01*
G01*
X57275000Y-59975000D01*
G75*
G02*
X57025000Y-60225000I-250000J0D01*
G01*
X56475000Y-60225000D01*
G75*
G02*
X56225000Y-59975000I0J250000D01*
G01*
X56225000Y-59475000D01*
G75*
G02*
X56475000Y-59225000I250000J0D01*
G01*
G37*
M02*
