G04 #@! TF.GenerationSoftware,KiCad,Pcbnew,(5.1.8)-1*
G04 #@! TF.CreationDate,2021-07-21T19:28:53-06:00*
G04 #@! TF.ProjectId,SBus-Decoder,53427573-2d44-4656-936f-6465722e6b69,rev?*
G04 #@! TF.SameCoordinates,Original*
G04 #@! TF.FileFunction,Legend,Top*
G04 #@! TF.FilePolarity,Positive*
%FSLAX46Y46*%
G04 Gerber Fmt 4.6, Leading zero omitted, Abs format (unit mm)*
G04 Created by KiCad (PCBNEW (5.1.8)-1) date 2021-07-21 19:28:53*
%MOMM*%
%LPD*%
G01*
G04 APERTURE LIST*
%ADD10C,0.300000*%
%ADD11C,0.160000*%
%ADD12C,0.150000*%
%ADD13C,0.120000*%
%ADD14C,0.100000*%
G04 APERTURE END LIST*
D10*
X126500000Y-80000000D02*
X126500000Y-79250000D01*
X127500000Y-79250000D02*
X127500000Y-80000000D01*
X126500000Y-65250000D02*
X127500000Y-65250000D01*
X127500000Y-94000000D02*
X128000000Y-94000000D01*
X126000000Y-66000000D02*
X126500000Y-66000000D01*
X126500000Y-93250000D02*
X127500000Y-93250000D01*
X126000000Y-94000000D02*
X126500000Y-94000000D01*
X106250000Y-64250000D02*
X133750000Y-64250000D01*
X127500000Y-66000000D02*
X128000000Y-66000000D01*
X126500000Y-52000000D02*
X126500000Y-51250000D01*
X106250000Y-92250000D02*
X133750000Y-92250000D01*
X126500000Y-79250000D02*
X127500000Y-79250000D01*
X126000000Y-80000000D02*
X126500000Y-80000000D01*
X126500000Y-66000000D02*
X126500000Y-65250000D01*
X127500000Y-80000000D02*
X128000000Y-80000000D01*
X126500000Y-94000000D02*
X126500000Y-93250000D01*
X127500000Y-93250000D02*
X127500000Y-94000000D01*
X127500000Y-51250000D02*
X127500000Y-52000000D01*
X106250000Y-78250000D02*
X133750000Y-78250000D01*
X127500000Y-65250000D02*
X127500000Y-66000000D01*
X127500000Y-52000000D02*
X128000000Y-52000000D01*
X126000000Y-52000000D02*
X126500000Y-52000000D01*
X126500000Y-51250000D02*
X127500000Y-51250000D01*
D11*
X129119047Y-51571428D02*
X129880952Y-51571428D01*
X129500000Y-51952380D02*
X129500000Y-51190476D01*
D12*
X120250000Y-101452380D02*
X120250000Y-101690476D01*
X120011904Y-101595238D02*
X120250000Y-101690476D01*
X120488095Y-101595238D01*
X120107142Y-101880952D02*
X120250000Y-101690476D01*
X120392857Y-101880952D01*
D11*
X129119047Y-79571428D02*
X129880952Y-79571428D01*
X129500000Y-79952380D02*
X129500000Y-79190476D01*
X117261904Y-104452380D02*
X117880952Y-104452380D01*
X117547619Y-104833333D01*
X117690476Y-104833333D01*
X117785714Y-104880952D01*
X117833333Y-104928571D01*
X117880952Y-105023809D01*
X117880952Y-105261904D01*
X117833333Y-105357142D01*
X117785714Y-105404761D01*
X117690476Y-105452380D01*
X117404761Y-105452380D01*
X117309523Y-105404761D01*
X117261904Y-105357142D01*
X118166666Y-104452380D02*
X118500000Y-105452380D01*
X118833333Y-104452380D01*
X119071428Y-104452380D02*
X119690476Y-104452380D01*
X119357142Y-104833333D01*
X119500000Y-104833333D01*
X119595238Y-104880952D01*
X119642857Y-104928571D01*
X119690476Y-105023809D01*
X119690476Y-105261904D01*
X119642857Y-105357142D01*
X119595238Y-105404761D01*
X119500000Y-105452380D01*
X119214285Y-105452380D01*
X119119047Y-105404761D01*
X119071428Y-105357142D01*
X129119047Y-93571428D02*
X129880952Y-93571428D01*
X129500000Y-93952380D02*
X129500000Y-93190476D01*
X131619047Y-93571428D02*
X132380952Y-93571428D01*
D12*
X120250000Y-59452380D02*
X120250000Y-59690476D01*
X120011904Y-59595238D02*
X120250000Y-59690476D01*
X120488095Y-59595238D01*
X120107142Y-59880952D02*
X120250000Y-59690476D01*
X120392857Y-59880952D01*
D11*
X131619047Y-65571428D02*
X132380952Y-65571428D01*
X114666666Y-63452380D02*
X114666666Y-62452380D01*
X115000000Y-63166666D01*
X115333333Y-62452380D01*
X115333333Y-63452380D01*
X116380952Y-63357142D02*
X116333333Y-63404761D01*
X116190476Y-63452380D01*
X116095238Y-63452380D01*
X115952380Y-63404761D01*
X115857142Y-63309523D01*
X115809523Y-63214285D01*
X115761904Y-63023809D01*
X115761904Y-62880952D01*
X115809523Y-62690476D01*
X115857142Y-62595238D01*
X115952380Y-62500000D01*
X116095238Y-62452380D01*
X116190476Y-62452380D01*
X116333333Y-62500000D01*
X116380952Y-62547619D01*
X114666666Y-77452380D02*
X114666666Y-76452380D01*
X115000000Y-77166666D01*
X115333333Y-76452380D01*
X115333333Y-77452380D01*
X116380952Y-77357142D02*
X116333333Y-77404761D01*
X116190476Y-77452380D01*
X116095238Y-77452380D01*
X115952380Y-77404761D01*
X115857142Y-77309523D01*
X115809523Y-77214285D01*
X115761904Y-77023809D01*
X115761904Y-76880952D01*
X115809523Y-76690476D01*
X115857142Y-76595238D01*
X115952380Y-76500000D01*
X116095238Y-76452380D01*
X116190476Y-76452380D01*
X116333333Y-76500000D01*
X116380952Y-76547619D01*
X114666666Y-105452380D02*
X114666666Y-104452380D01*
X115000000Y-105166666D01*
X115333333Y-104452380D01*
X115333333Y-105452380D01*
X116380952Y-105357142D02*
X116333333Y-105404761D01*
X116190476Y-105452380D01*
X116095238Y-105452380D01*
X115952380Y-105404761D01*
X115857142Y-105309523D01*
X115809523Y-105214285D01*
X115761904Y-105023809D01*
X115761904Y-104880952D01*
X115809523Y-104690476D01*
X115857142Y-104595238D01*
X115952380Y-104500000D01*
X116095238Y-104452380D01*
X116190476Y-104452380D01*
X116333333Y-104500000D01*
X116380952Y-104547619D01*
X129119047Y-65571428D02*
X129880952Y-65571428D01*
X129500000Y-65952380D02*
X129500000Y-65190476D01*
X117261904Y-90452380D02*
X117880952Y-90452380D01*
X117547619Y-90833333D01*
X117690476Y-90833333D01*
X117785714Y-90880952D01*
X117833333Y-90928571D01*
X117880952Y-91023809D01*
X117880952Y-91261904D01*
X117833333Y-91357142D01*
X117785714Y-91404761D01*
X117690476Y-91452380D01*
X117404761Y-91452380D01*
X117309523Y-91404761D01*
X117261904Y-91357142D01*
X118166666Y-90452380D02*
X118500000Y-91452380D01*
X118833333Y-90452380D01*
X119071428Y-90452380D02*
X119690476Y-90452380D01*
X119357142Y-90833333D01*
X119500000Y-90833333D01*
X119595238Y-90880952D01*
X119642857Y-90928571D01*
X119690476Y-91023809D01*
X119690476Y-91261904D01*
X119642857Y-91357142D01*
X119595238Y-91404761D01*
X119500000Y-91452380D01*
X119214285Y-91452380D01*
X119119047Y-91404761D01*
X119071428Y-91357142D01*
X131619047Y-51571428D02*
X132380952Y-51571428D01*
X117261904Y-62452380D02*
X117880952Y-62452380D01*
X117547619Y-62833333D01*
X117690476Y-62833333D01*
X117785714Y-62880952D01*
X117833333Y-62928571D01*
X117880952Y-63023809D01*
X117880952Y-63261904D01*
X117833333Y-63357142D01*
X117785714Y-63404761D01*
X117690476Y-63452380D01*
X117404761Y-63452380D01*
X117309523Y-63404761D01*
X117261904Y-63357142D01*
X118166666Y-62452380D02*
X118500000Y-63452380D01*
X118833333Y-62452380D01*
X119071428Y-62452380D02*
X119690476Y-62452380D01*
X119357142Y-62833333D01*
X119500000Y-62833333D01*
X119595238Y-62880952D01*
X119642857Y-62928571D01*
X119690476Y-63023809D01*
X119690476Y-63261904D01*
X119642857Y-63357142D01*
X119595238Y-63404761D01*
X119500000Y-63452380D01*
X119214285Y-63452380D01*
X119119047Y-63404761D01*
X119071428Y-63357142D01*
X114666666Y-91452380D02*
X114666666Y-90452380D01*
X115000000Y-91166666D01*
X115333333Y-90452380D01*
X115333333Y-91452380D01*
X116380952Y-91357142D02*
X116333333Y-91404761D01*
X116190476Y-91452380D01*
X116095238Y-91452380D01*
X115952380Y-91404761D01*
X115857142Y-91309523D01*
X115809523Y-91214285D01*
X115761904Y-91023809D01*
X115761904Y-90880952D01*
X115809523Y-90690476D01*
X115857142Y-90595238D01*
X115952380Y-90500000D01*
X116095238Y-90452380D01*
X116190476Y-90452380D01*
X116333333Y-90500000D01*
X116380952Y-90547619D01*
X117261904Y-76452380D02*
X117880952Y-76452380D01*
X117547619Y-76833333D01*
X117690476Y-76833333D01*
X117785714Y-76880952D01*
X117833333Y-76928571D01*
X117880952Y-77023809D01*
X117880952Y-77261904D01*
X117833333Y-77357142D01*
X117785714Y-77404761D01*
X117690476Y-77452380D01*
X117404761Y-77452380D01*
X117309523Y-77404761D01*
X117261904Y-77357142D01*
X118166666Y-76452380D02*
X118500000Y-77452380D01*
X118833333Y-76452380D01*
X119071428Y-76452380D02*
X119690476Y-76452380D01*
X119357142Y-76833333D01*
X119500000Y-76833333D01*
X119595238Y-76880952D01*
X119642857Y-76928571D01*
X119690476Y-77023809D01*
X119690476Y-77261904D01*
X119642857Y-77357142D01*
X119595238Y-77404761D01*
X119500000Y-77452380D01*
X119214285Y-77452380D01*
X119119047Y-77404761D01*
X119071428Y-77357142D01*
D12*
X120250000Y-73452380D02*
X120250000Y-73690476D01*
X120011904Y-73595238D02*
X120250000Y-73690476D01*
X120488095Y-73595238D01*
X120107142Y-73880952D02*
X120250000Y-73690476D01*
X120392857Y-73880952D01*
X120250000Y-87452380D02*
X120250000Y-87690476D01*
X120011904Y-87595238D02*
X120250000Y-87690476D01*
X120488095Y-87595238D01*
X120107142Y-87880952D02*
X120250000Y-87690476D01*
X120392857Y-87880952D01*
D11*
X131619047Y-79571428D02*
X132380952Y-79571428D01*
D10*
X98750000Y-52000000D02*
X98750000Y-51250000D01*
X98750000Y-79250000D02*
X99750000Y-79250000D01*
X99750000Y-79250000D02*
X99750000Y-80000000D01*
X98750000Y-65250000D02*
X99750000Y-65250000D01*
X98250000Y-66000000D02*
X98750000Y-66000000D01*
X99750000Y-66000000D02*
X100250000Y-66000000D01*
X78500000Y-64250000D02*
X122250000Y-64250000D01*
X106000000Y-50500000D02*
X106000000Y-106250000D01*
X98750000Y-80000000D02*
X98750000Y-79250000D01*
X98750000Y-66000000D02*
X98750000Y-65250000D01*
X98750000Y-93250000D02*
X99750000Y-93250000D01*
X98250000Y-94000000D02*
X98750000Y-94000000D01*
X99750000Y-94000000D02*
X100250000Y-94000000D01*
X78500000Y-92250000D02*
X122250000Y-92250000D01*
X98250000Y-80000000D02*
X98750000Y-80000000D01*
X99750000Y-80000000D02*
X100250000Y-80000000D01*
X98750000Y-94000000D02*
X98750000Y-93250000D01*
X78500000Y-78250000D02*
X122250000Y-78250000D01*
X99750000Y-93250000D02*
X99750000Y-94000000D01*
X99750000Y-65250000D02*
X99750000Y-66000000D01*
X98250000Y-52000000D02*
X98750000Y-52000000D01*
D11*
X86916666Y-105452380D02*
X86916666Y-104452380D01*
X87250000Y-105166666D01*
X87583333Y-104452380D01*
X87583333Y-105452380D01*
X88630952Y-105357142D02*
X88583333Y-105404761D01*
X88440476Y-105452380D01*
X88345238Y-105452380D01*
X88202380Y-105404761D01*
X88107142Y-105309523D01*
X88059523Y-105214285D01*
X88011904Y-105023809D01*
X88011904Y-104880952D01*
X88059523Y-104690476D01*
X88107142Y-104595238D01*
X88202380Y-104500000D01*
X88345238Y-104452380D01*
X88440476Y-104452380D01*
X88583333Y-104500000D01*
X88630952Y-104547619D01*
X103869047Y-93571428D02*
X104630952Y-93571428D01*
X86916666Y-91452380D02*
X86916666Y-90452380D01*
X87250000Y-91166666D01*
X87583333Y-90452380D01*
X87583333Y-91452380D01*
X88630952Y-91357142D02*
X88583333Y-91404761D01*
X88440476Y-91452380D01*
X88345238Y-91452380D01*
X88202380Y-91404761D01*
X88107142Y-91309523D01*
X88059523Y-91214285D01*
X88011904Y-91023809D01*
X88011904Y-90880952D01*
X88059523Y-90690476D01*
X88107142Y-90595238D01*
X88202380Y-90500000D01*
X88345238Y-90452380D01*
X88440476Y-90452380D01*
X88583333Y-90500000D01*
X88630952Y-90547619D01*
X101369047Y-93571428D02*
X102130952Y-93571428D01*
X101750000Y-93952380D02*
X101750000Y-93190476D01*
X103869047Y-79571428D02*
X104630952Y-79571428D01*
D12*
X92500000Y-87452380D02*
X92500000Y-87690476D01*
X92261904Y-87595238D02*
X92500000Y-87690476D01*
X92738095Y-87595238D01*
X92357142Y-87880952D02*
X92500000Y-87690476D01*
X92642857Y-87880952D01*
X92500000Y-101452380D02*
X92500000Y-101690476D01*
X92261904Y-101595238D02*
X92500000Y-101690476D01*
X92738095Y-101595238D01*
X92357142Y-101880952D02*
X92500000Y-101690476D01*
X92642857Y-101880952D01*
D11*
X89511904Y-104452380D02*
X90130952Y-104452380D01*
X89797619Y-104833333D01*
X89940476Y-104833333D01*
X90035714Y-104880952D01*
X90083333Y-104928571D01*
X90130952Y-105023809D01*
X90130952Y-105261904D01*
X90083333Y-105357142D01*
X90035714Y-105404761D01*
X89940476Y-105452380D01*
X89654761Y-105452380D01*
X89559523Y-105404761D01*
X89511904Y-105357142D01*
X90416666Y-104452380D02*
X90750000Y-105452380D01*
X91083333Y-104452380D01*
X91321428Y-104452380D02*
X91940476Y-104452380D01*
X91607142Y-104833333D01*
X91750000Y-104833333D01*
X91845238Y-104880952D01*
X91892857Y-104928571D01*
X91940476Y-105023809D01*
X91940476Y-105261904D01*
X91892857Y-105357142D01*
X91845238Y-105404761D01*
X91750000Y-105452380D01*
X91464285Y-105452380D01*
X91369047Y-105404761D01*
X91321428Y-105357142D01*
X89511904Y-90452380D02*
X90130952Y-90452380D01*
X89797619Y-90833333D01*
X89940476Y-90833333D01*
X90035714Y-90880952D01*
X90083333Y-90928571D01*
X90130952Y-91023809D01*
X90130952Y-91261904D01*
X90083333Y-91357142D01*
X90035714Y-91404761D01*
X89940476Y-91452380D01*
X89654761Y-91452380D01*
X89559523Y-91404761D01*
X89511904Y-91357142D01*
X90416666Y-90452380D02*
X90750000Y-91452380D01*
X91083333Y-90452380D01*
X91321428Y-90452380D02*
X91940476Y-90452380D01*
X91607142Y-90833333D01*
X91750000Y-90833333D01*
X91845238Y-90880952D01*
X91892857Y-90928571D01*
X91940476Y-91023809D01*
X91940476Y-91261904D01*
X91892857Y-91357142D01*
X91845238Y-91404761D01*
X91750000Y-91452380D01*
X91464285Y-91452380D01*
X91369047Y-91404761D01*
X91321428Y-91357142D01*
X101369047Y-79571428D02*
X102130952Y-79571428D01*
X101750000Y-79952380D02*
X101750000Y-79190476D01*
X103869047Y-65571428D02*
X104630952Y-65571428D01*
X103869047Y-51571428D02*
X104630952Y-51571428D01*
X86916666Y-63452380D02*
X86916666Y-62452380D01*
X87250000Y-63166666D01*
X87583333Y-62452380D01*
X87583333Y-63452380D01*
X88630952Y-63357142D02*
X88583333Y-63404761D01*
X88440476Y-63452380D01*
X88345238Y-63452380D01*
X88202380Y-63404761D01*
X88107142Y-63309523D01*
X88059523Y-63214285D01*
X88011904Y-63023809D01*
X88011904Y-62880952D01*
X88059523Y-62690476D01*
X88107142Y-62595238D01*
X88202380Y-62500000D01*
X88345238Y-62452380D01*
X88440476Y-62452380D01*
X88583333Y-62500000D01*
X88630952Y-62547619D01*
D12*
X92500000Y-59452380D02*
X92500000Y-59690476D01*
X92261904Y-59595238D02*
X92500000Y-59690476D01*
X92738095Y-59595238D01*
X92357142Y-59880952D02*
X92500000Y-59690476D01*
X92642857Y-59880952D01*
D11*
X86916666Y-77452380D02*
X86916666Y-76452380D01*
X87250000Y-77166666D01*
X87583333Y-76452380D01*
X87583333Y-77452380D01*
X88630952Y-77357142D02*
X88583333Y-77404761D01*
X88440476Y-77452380D01*
X88345238Y-77452380D01*
X88202380Y-77404761D01*
X88107142Y-77309523D01*
X88059523Y-77214285D01*
X88011904Y-77023809D01*
X88011904Y-76880952D01*
X88059523Y-76690476D01*
X88107142Y-76595238D01*
X88202380Y-76500000D01*
X88345238Y-76452380D01*
X88440476Y-76452380D01*
X88583333Y-76500000D01*
X88630952Y-76547619D01*
X89511904Y-76452380D02*
X90130952Y-76452380D01*
X89797619Y-76833333D01*
X89940476Y-76833333D01*
X90035714Y-76880952D01*
X90083333Y-76928571D01*
X90130952Y-77023809D01*
X90130952Y-77261904D01*
X90083333Y-77357142D01*
X90035714Y-77404761D01*
X89940476Y-77452380D01*
X89654761Y-77452380D01*
X89559523Y-77404761D01*
X89511904Y-77357142D01*
X90416666Y-76452380D02*
X90750000Y-77452380D01*
X91083333Y-76452380D01*
X91321428Y-76452380D02*
X91940476Y-76452380D01*
X91607142Y-76833333D01*
X91750000Y-76833333D01*
X91845238Y-76880952D01*
X91892857Y-76928571D01*
X91940476Y-77023809D01*
X91940476Y-77261904D01*
X91892857Y-77357142D01*
X91845238Y-77404761D01*
X91750000Y-77452380D01*
X91464285Y-77452380D01*
X91369047Y-77404761D01*
X91321428Y-77357142D01*
D12*
X92500000Y-73452380D02*
X92500000Y-73690476D01*
X92261904Y-73595238D02*
X92500000Y-73690476D01*
X92738095Y-73595238D01*
X92357142Y-73880952D02*
X92500000Y-73690476D01*
X92642857Y-73880952D01*
D11*
X89511904Y-62452380D02*
X90130952Y-62452380D01*
X89797619Y-62833333D01*
X89940476Y-62833333D01*
X90035714Y-62880952D01*
X90083333Y-62928571D01*
X90130952Y-63023809D01*
X90130952Y-63261904D01*
X90083333Y-63357142D01*
X90035714Y-63404761D01*
X89940476Y-63452380D01*
X89654761Y-63452380D01*
X89559523Y-63404761D01*
X89511904Y-63357142D01*
X90416666Y-62452380D02*
X90750000Y-63452380D01*
X91083333Y-62452380D01*
X91321428Y-62452380D02*
X91940476Y-62452380D01*
X91607142Y-62833333D01*
X91750000Y-62833333D01*
X91845238Y-62880952D01*
X91892857Y-62928571D01*
X91940476Y-63023809D01*
X91940476Y-63261904D01*
X91892857Y-63357142D01*
X91845238Y-63404761D01*
X91750000Y-63452380D01*
X91464285Y-63452380D01*
X91369047Y-63404761D01*
X91321428Y-63357142D01*
X101369047Y-65571428D02*
X102130952Y-65571428D01*
X101750000Y-65952380D02*
X101750000Y-65190476D01*
X101369047Y-51571428D02*
X102130952Y-51571428D01*
X101750000Y-51952380D02*
X101750000Y-51190476D01*
D10*
X99750000Y-52000000D02*
X100250000Y-52000000D01*
X98750000Y-51250000D02*
X99750000Y-51250000D01*
X99750000Y-51250000D02*
X99750000Y-52000000D01*
X78250000Y-50500000D02*
X78250000Y-106250000D01*
X71000000Y-80000000D02*
X71000000Y-79250000D01*
X71000000Y-93250000D02*
X72000000Y-93250000D01*
X70500000Y-94000000D02*
X71000000Y-94000000D01*
X72000000Y-94000000D02*
X72500000Y-94000000D01*
X50750000Y-92250000D02*
X94500000Y-92250000D01*
X71000000Y-94000000D02*
X71000000Y-93250000D01*
X72000000Y-93250000D02*
X72000000Y-94000000D01*
X70500000Y-80000000D02*
X71000000Y-80000000D01*
D11*
X76119047Y-93571428D02*
X76880952Y-93571428D01*
X76119047Y-79571428D02*
X76880952Y-79571428D01*
X59166666Y-91452380D02*
X59166666Y-90452380D01*
X59500000Y-91166666D01*
X59833333Y-90452380D01*
X59833333Y-91452380D01*
X60880952Y-91357142D02*
X60833333Y-91404761D01*
X60690476Y-91452380D01*
X60595238Y-91452380D01*
X60452380Y-91404761D01*
X60357142Y-91309523D01*
X60309523Y-91214285D01*
X60261904Y-91023809D01*
X60261904Y-90880952D01*
X60309523Y-90690476D01*
X60357142Y-90595238D01*
X60452380Y-90500000D01*
X60595238Y-90452380D01*
X60690476Y-90452380D01*
X60833333Y-90500000D01*
X60880952Y-90547619D01*
D12*
X64750000Y-87452380D02*
X64750000Y-87690476D01*
X64511904Y-87595238D02*
X64750000Y-87690476D01*
X64988095Y-87595238D01*
X64607142Y-87880952D02*
X64750000Y-87690476D01*
X64892857Y-87880952D01*
D11*
X59166666Y-105452380D02*
X59166666Y-104452380D01*
X59500000Y-105166666D01*
X59833333Y-104452380D01*
X59833333Y-105452380D01*
X60880952Y-105357142D02*
X60833333Y-105404761D01*
X60690476Y-105452380D01*
X60595238Y-105452380D01*
X60452380Y-105404761D01*
X60357142Y-105309523D01*
X60309523Y-105214285D01*
X60261904Y-105023809D01*
X60261904Y-104880952D01*
X60309523Y-104690476D01*
X60357142Y-104595238D01*
X60452380Y-104500000D01*
X60595238Y-104452380D01*
X60690476Y-104452380D01*
X60833333Y-104500000D01*
X60880952Y-104547619D01*
X61761904Y-104452380D02*
X62380952Y-104452380D01*
X62047619Y-104833333D01*
X62190476Y-104833333D01*
X62285714Y-104880952D01*
X62333333Y-104928571D01*
X62380952Y-105023809D01*
X62380952Y-105261904D01*
X62333333Y-105357142D01*
X62285714Y-105404761D01*
X62190476Y-105452380D01*
X61904761Y-105452380D01*
X61809523Y-105404761D01*
X61761904Y-105357142D01*
X62666666Y-104452380D02*
X63000000Y-105452380D01*
X63333333Y-104452380D01*
X63571428Y-104452380D02*
X64190476Y-104452380D01*
X63857142Y-104833333D01*
X64000000Y-104833333D01*
X64095238Y-104880952D01*
X64142857Y-104928571D01*
X64190476Y-105023809D01*
X64190476Y-105261904D01*
X64142857Y-105357142D01*
X64095238Y-105404761D01*
X64000000Y-105452380D01*
X63714285Y-105452380D01*
X63619047Y-105404761D01*
X63571428Y-105357142D01*
D12*
X64750000Y-101452380D02*
X64750000Y-101690476D01*
X64511904Y-101595238D02*
X64750000Y-101690476D01*
X64988095Y-101595238D01*
X64607142Y-101880952D02*
X64750000Y-101690476D01*
X64892857Y-101880952D01*
D11*
X61761904Y-90452380D02*
X62380952Y-90452380D01*
X62047619Y-90833333D01*
X62190476Y-90833333D01*
X62285714Y-90880952D01*
X62333333Y-90928571D01*
X62380952Y-91023809D01*
X62380952Y-91261904D01*
X62333333Y-91357142D01*
X62285714Y-91404761D01*
X62190476Y-91452380D01*
X61904761Y-91452380D01*
X61809523Y-91404761D01*
X61761904Y-91357142D01*
X62666666Y-90452380D02*
X63000000Y-91452380D01*
X63333333Y-90452380D01*
X63571428Y-90452380D02*
X64190476Y-90452380D01*
X63857142Y-90833333D01*
X64000000Y-90833333D01*
X64095238Y-90880952D01*
X64142857Y-90928571D01*
X64190476Y-91023809D01*
X64190476Y-91261904D01*
X64142857Y-91357142D01*
X64095238Y-91404761D01*
X64000000Y-91452380D01*
X63714285Y-91452380D01*
X63619047Y-91404761D01*
X63571428Y-91357142D01*
X73619047Y-93571428D02*
X74380952Y-93571428D01*
X74000000Y-93952380D02*
X74000000Y-93190476D01*
X73619047Y-79571428D02*
X74380952Y-79571428D01*
X74000000Y-79952380D02*
X74000000Y-79190476D01*
D10*
X72000000Y-80000000D02*
X72500000Y-80000000D01*
X71000000Y-79250000D02*
X72000000Y-79250000D01*
X72000000Y-79250000D02*
X72000000Y-80000000D01*
X71000000Y-66000000D02*
X71000000Y-65250000D01*
X50750000Y-78250000D02*
X94500000Y-78250000D01*
X70500000Y-66000000D02*
X71000000Y-66000000D01*
D11*
X76119047Y-65571428D02*
X76880952Y-65571428D01*
X59166666Y-77452380D02*
X59166666Y-76452380D01*
X59500000Y-77166666D01*
X59833333Y-76452380D01*
X59833333Y-77452380D01*
X60880952Y-77357142D02*
X60833333Y-77404761D01*
X60690476Y-77452380D01*
X60595238Y-77452380D01*
X60452380Y-77404761D01*
X60357142Y-77309523D01*
X60309523Y-77214285D01*
X60261904Y-77023809D01*
X60261904Y-76880952D01*
X60309523Y-76690476D01*
X60357142Y-76595238D01*
X60452380Y-76500000D01*
X60595238Y-76452380D01*
X60690476Y-76452380D01*
X60833333Y-76500000D01*
X60880952Y-76547619D01*
D12*
X64750000Y-73452380D02*
X64750000Y-73690476D01*
X64511904Y-73595238D02*
X64750000Y-73690476D01*
X64988095Y-73595238D01*
X64607142Y-73880952D02*
X64750000Y-73690476D01*
X64892857Y-73880952D01*
D11*
X61761904Y-76452380D02*
X62380952Y-76452380D01*
X62047619Y-76833333D01*
X62190476Y-76833333D01*
X62285714Y-76880952D01*
X62333333Y-76928571D01*
X62380952Y-77023809D01*
X62380952Y-77261904D01*
X62333333Y-77357142D01*
X62285714Y-77404761D01*
X62190476Y-77452380D01*
X61904761Y-77452380D01*
X61809523Y-77404761D01*
X61761904Y-77357142D01*
X62666666Y-76452380D02*
X63000000Y-77452380D01*
X63333333Y-76452380D01*
X63571428Y-76452380D02*
X64190476Y-76452380D01*
X63857142Y-76833333D01*
X64000000Y-76833333D01*
X64095238Y-76880952D01*
X64142857Y-76928571D01*
X64190476Y-77023809D01*
X64190476Y-77261904D01*
X64142857Y-77357142D01*
X64095238Y-77404761D01*
X64000000Y-77452380D01*
X63714285Y-77452380D01*
X63619047Y-77404761D01*
X63571428Y-77357142D01*
X73619047Y-65571428D02*
X74380952Y-65571428D01*
X74000000Y-65952380D02*
X74000000Y-65190476D01*
D10*
X72000000Y-66000000D02*
X72500000Y-66000000D01*
X71000000Y-65250000D02*
X72000000Y-65250000D01*
X72000000Y-65250000D02*
X72000000Y-66000000D01*
X50750000Y-64250000D02*
X94500000Y-64250000D01*
D11*
X61761904Y-62452380D02*
X62380952Y-62452380D01*
X62047619Y-62833333D01*
X62190476Y-62833333D01*
X62285714Y-62880952D01*
X62333333Y-62928571D01*
X62380952Y-63023809D01*
X62380952Y-63261904D01*
X62333333Y-63357142D01*
X62285714Y-63404761D01*
X62190476Y-63452380D01*
X61904761Y-63452380D01*
X61809523Y-63404761D01*
X61761904Y-63357142D01*
X62666666Y-62452380D02*
X63000000Y-63452380D01*
X63333333Y-62452380D01*
X63571428Y-62452380D02*
X64190476Y-62452380D01*
X63857142Y-62833333D01*
X64000000Y-62833333D01*
X64095238Y-62880952D01*
X64142857Y-62928571D01*
X64190476Y-63023809D01*
X64190476Y-63261904D01*
X64142857Y-63357142D01*
X64095238Y-63404761D01*
X64000000Y-63452380D01*
X63714285Y-63452380D01*
X63619047Y-63404761D01*
X63571428Y-63357142D01*
X59166666Y-63452380D02*
X59166666Y-62452380D01*
X59500000Y-63166666D01*
X59833333Y-62452380D01*
X59833333Y-63452380D01*
X60880952Y-63357142D02*
X60833333Y-63404761D01*
X60690476Y-63452380D01*
X60595238Y-63452380D01*
X60452380Y-63404761D01*
X60357142Y-63309523D01*
X60309523Y-63214285D01*
X60261904Y-63023809D01*
X60261904Y-62880952D01*
X60309523Y-62690476D01*
X60357142Y-62595238D01*
X60452380Y-62500000D01*
X60595238Y-62452380D01*
X60690476Y-62452380D01*
X60833333Y-62500000D01*
X60880952Y-62547619D01*
X76119047Y-51571428D02*
X76880952Y-51571428D01*
X73619047Y-51571428D02*
X74380952Y-51571428D01*
X74000000Y-51952380D02*
X74000000Y-51190476D01*
D10*
X72000000Y-52000000D02*
X72500000Y-52000000D01*
X72000000Y-51250000D02*
X72000000Y-52000000D01*
X71000000Y-51250000D02*
X72000000Y-51250000D01*
X71000000Y-52000000D02*
X71000000Y-51250000D01*
X70500000Y-52000000D02*
X71000000Y-52000000D01*
D12*
X64750000Y-59452380D02*
X64750000Y-59690476D01*
X64511904Y-59595238D02*
X64750000Y-59690476D01*
X64988095Y-59595238D01*
X64607142Y-59880952D02*
X64750000Y-59690476D01*
X64892857Y-59880952D01*
D13*
X122235000Y-103550000D02*
X122235000Y-101265000D01*
X122235000Y-101265000D02*
X120765000Y-101265000D01*
X120765000Y-101265000D02*
X120765000Y-103550000D01*
X119580000Y-104080000D02*
X119580000Y-101420000D01*
X116980000Y-104080000D02*
X119580000Y-104080000D01*
X116980000Y-101420000D02*
X119580000Y-101420000D01*
X116980000Y-104080000D02*
X116980000Y-101420000D01*
X115710000Y-104080000D02*
X114380000Y-104080000D01*
X114380000Y-104080000D02*
X114380000Y-102750000D01*
X119890580Y-79740000D02*
X119609420Y-79740000D01*
X119890580Y-80760000D02*
X119609420Y-80760000D01*
X124272500Y-74987258D02*
X124272500Y-74512742D01*
X123227500Y-74987258D02*
X123227500Y-74512742D01*
X115760000Y-96359420D02*
X115760000Y-96640580D01*
X114740000Y-96359420D02*
X114740000Y-96640580D01*
X111740000Y-88359420D02*
X111740000Y-88640580D01*
X112760000Y-88359420D02*
X112760000Y-88640580D01*
D14*
G36*
X124814000Y-98459499D02*
G01*
X124814000Y-98840499D01*
X124560000Y-98840499D01*
X124560000Y-98459499D01*
X124814000Y-98459499D01*
G37*
X124814000Y-98459499D02*
X124814000Y-98840499D01*
X124560000Y-98840499D01*
X124560000Y-98459499D01*
X124814000Y-98459499D01*
D13*
X123124900Y-95539461D02*
X123124900Y-95320300D01*
X118375100Y-100460539D02*
X118375100Y-100679700D01*
X118375100Y-95320300D02*
X118375100Y-95539459D01*
X123124900Y-95320300D02*
X118375100Y-95320300D01*
X123124900Y-100679700D02*
X123124900Y-100460541D01*
X118375100Y-100679700D02*
X123124900Y-100679700D01*
X120765000Y-73265000D02*
X120765000Y-75550000D01*
X122235000Y-73265000D02*
X120765000Y-73265000D01*
X122235000Y-75550000D02*
X122235000Y-73265000D01*
X110670000Y-85760000D02*
X110670000Y-84300000D01*
X113830000Y-85760000D02*
X113830000Y-83600000D01*
X113830000Y-85760000D02*
X112900000Y-85760000D01*
X110670000Y-85760000D02*
X111600000Y-85760000D01*
X114740000Y-82359420D02*
X114740000Y-82640580D01*
X115760000Y-82359420D02*
X115760000Y-82640580D01*
X115760000Y-54359420D02*
X115760000Y-54640580D01*
X114740000Y-54359420D02*
X114740000Y-54640580D01*
X112760000Y-102359420D02*
X112760000Y-102640580D01*
X111740000Y-102359420D02*
X111740000Y-102640580D01*
X114380000Y-90080000D02*
X114380000Y-88750000D01*
X115710000Y-90080000D02*
X114380000Y-90080000D01*
X116980000Y-90080000D02*
X116980000Y-87420000D01*
X116980000Y-87420000D02*
X119580000Y-87420000D01*
X116980000Y-90080000D02*
X119580000Y-90080000D01*
X119580000Y-90080000D02*
X119580000Y-87420000D01*
X118375100Y-86679700D02*
X123124900Y-86679700D01*
X123124900Y-86679700D02*
X123124900Y-86460541D01*
X123124900Y-81320300D02*
X118375100Y-81320300D01*
X118375100Y-81320300D02*
X118375100Y-81539459D01*
X118375100Y-86460539D02*
X118375100Y-86679700D01*
X123124900Y-81539461D02*
X123124900Y-81320300D01*
D14*
G36*
X124814000Y-84459499D02*
G01*
X124814000Y-84840499D01*
X124560000Y-84840499D01*
X124560000Y-84459499D01*
X124814000Y-84459499D01*
G37*
X124814000Y-84459499D02*
X124814000Y-84840499D01*
X124560000Y-84840499D01*
X124560000Y-84459499D01*
X124814000Y-84459499D01*
D13*
X110670000Y-99760000D02*
X111600000Y-99760000D01*
X113830000Y-99760000D02*
X112900000Y-99760000D01*
X113830000Y-99760000D02*
X113830000Y-97600000D01*
X110670000Y-99760000D02*
X110670000Y-98300000D01*
X106670000Y-74910000D02*
X109330000Y-74910000D01*
X106670000Y-69770000D02*
X106670000Y-74910000D01*
X109330000Y-69770000D02*
X109330000Y-74910000D01*
X106670000Y-69770000D02*
X109330000Y-69770000D01*
X106670000Y-68500000D02*
X106670000Y-67170000D01*
X106670000Y-67170000D02*
X108000000Y-67170000D01*
X119890580Y-94760000D02*
X119609420Y-94760000D01*
X119890580Y-93740000D02*
X119609420Y-93740000D01*
X123227500Y-60987258D02*
X123227500Y-60512742D01*
X124272500Y-60987258D02*
X124272500Y-60512742D01*
X106670000Y-53170000D02*
X108000000Y-53170000D01*
X106670000Y-54500000D02*
X106670000Y-53170000D01*
X106670000Y-55770000D02*
X109330000Y-55770000D01*
X109330000Y-55770000D02*
X109330000Y-60910000D01*
X106670000Y-55770000D02*
X106670000Y-60910000D01*
X106670000Y-60910000D02*
X109330000Y-60910000D01*
X122235000Y-61550000D02*
X122235000Y-59265000D01*
X122235000Y-59265000D02*
X120765000Y-59265000D01*
X120765000Y-59265000D02*
X120765000Y-61550000D01*
X119580000Y-62080000D02*
X119580000Y-59420000D01*
X116980000Y-62080000D02*
X119580000Y-62080000D01*
X116980000Y-59420000D02*
X119580000Y-59420000D01*
X116980000Y-62080000D02*
X116980000Y-59420000D01*
X115710000Y-62080000D02*
X114380000Y-62080000D01*
X114380000Y-62080000D02*
X114380000Y-60750000D01*
X123227500Y-102987258D02*
X123227500Y-102512742D01*
X124272500Y-102987258D02*
X124272500Y-102512742D01*
X114380000Y-76080000D02*
X114380000Y-74750000D01*
X115710000Y-76080000D02*
X114380000Y-76080000D01*
X116980000Y-76080000D02*
X116980000Y-73420000D01*
X116980000Y-73420000D02*
X119580000Y-73420000D01*
X116980000Y-76080000D02*
X119580000Y-76080000D01*
X119580000Y-76080000D02*
X119580000Y-73420000D01*
X119890580Y-52760000D02*
X119609420Y-52760000D01*
X119890580Y-51740000D02*
X119609420Y-51740000D01*
X110670000Y-57760000D02*
X111600000Y-57760000D01*
X113830000Y-57760000D02*
X112900000Y-57760000D01*
X113830000Y-57760000D02*
X113830000Y-55600000D01*
X110670000Y-57760000D02*
X110670000Y-56300000D01*
X110670000Y-71760000D02*
X110670000Y-70300000D01*
X113830000Y-71760000D02*
X113830000Y-69600000D01*
X113830000Y-71760000D02*
X112900000Y-71760000D01*
X110670000Y-71760000D02*
X111600000Y-71760000D01*
X119890580Y-65740000D02*
X119609420Y-65740000D01*
X119890580Y-66760000D02*
X119609420Y-66760000D01*
D14*
G36*
X124814000Y-56459499D02*
G01*
X124814000Y-56840499D01*
X124560000Y-56840499D01*
X124560000Y-56459499D01*
X124814000Y-56459499D01*
G37*
X124814000Y-56459499D02*
X124814000Y-56840499D01*
X124560000Y-56840499D01*
X124560000Y-56459499D01*
X124814000Y-56459499D01*
D13*
X123124900Y-53539461D02*
X123124900Y-53320300D01*
X118375100Y-58460539D02*
X118375100Y-58679700D01*
X118375100Y-53320300D02*
X118375100Y-53539459D01*
X123124900Y-53320300D02*
X118375100Y-53320300D01*
X123124900Y-58679700D02*
X123124900Y-58460541D01*
X118375100Y-58679700D02*
X123124900Y-58679700D01*
X120765000Y-87265000D02*
X120765000Y-89550000D01*
X122235000Y-87265000D02*
X120765000Y-87265000D01*
X122235000Y-89550000D02*
X122235000Y-87265000D01*
X112760000Y-60359420D02*
X112760000Y-60640580D01*
X111740000Y-60359420D02*
X111740000Y-60640580D01*
X106670000Y-88910000D02*
X109330000Y-88910000D01*
X106670000Y-83770000D02*
X106670000Y-88910000D01*
X109330000Y-83770000D02*
X109330000Y-88910000D01*
X106670000Y-83770000D02*
X109330000Y-83770000D01*
X106670000Y-82500000D02*
X106670000Y-81170000D01*
X106670000Y-81170000D02*
X108000000Y-81170000D01*
X114740000Y-68359420D02*
X114740000Y-68640580D01*
X115760000Y-68359420D02*
X115760000Y-68640580D01*
X111740000Y-74359420D02*
X111740000Y-74640580D01*
X112760000Y-74359420D02*
X112760000Y-74640580D01*
X118375100Y-72679700D02*
X123124900Y-72679700D01*
X123124900Y-72679700D02*
X123124900Y-72460541D01*
X123124900Y-67320300D02*
X118375100Y-67320300D01*
X118375100Y-67320300D02*
X118375100Y-67539459D01*
X118375100Y-72460539D02*
X118375100Y-72679700D01*
X123124900Y-67539461D02*
X123124900Y-67320300D01*
D14*
G36*
X124814000Y-70459499D02*
G01*
X124814000Y-70840499D01*
X124560000Y-70840499D01*
X124560000Y-70459499D01*
X124814000Y-70459499D01*
G37*
X124814000Y-70459499D02*
X124814000Y-70840499D01*
X124560000Y-70840499D01*
X124560000Y-70459499D01*
X124814000Y-70459499D01*
D13*
X106670000Y-95170000D02*
X108000000Y-95170000D01*
X106670000Y-96500000D02*
X106670000Y-95170000D01*
X106670000Y-97770000D02*
X109330000Y-97770000D01*
X109330000Y-97770000D02*
X109330000Y-102910000D01*
X106670000Y-97770000D02*
X106670000Y-102910000D01*
X106670000Y-102910000D02*
X109330000Y-102910000D01*
X124272500Y-88987258D02*
X124272500Y-88512742D01*
X123227500Y-88987258D02*
X123227500Y-88512742D01*
X93015000Y-59265000D02*
X93015000Y-61550000D01*
X94485000Y-59265000D02*
X93015000Y-59265000D01*
X94485000Y-61550000D02*
X94485000Y-59265000D01*
X96522500Y-60987258D02*
X96522500Y-60512742D01*
X95477500Y-60987258D02*
X95477500Y-60512742D01*
X78920000Y-60910000D02*
X81580000Y-60910000D01*
X78920000Y-55770000D02*
X78920000Y-60910000D01*
X81580000Y-55770000D02*
X81580000Y-60910000D01*
X78920000Y-55770000D02*
X81580000Y-55770000D01*
X78920000Y-54500000D02*
X78920000Y-53170000D01*
X78920000Y-53170000D02*
X80250000Y-53170000D01*
X91830000Y-90080000D02*
X91830000Y-87420000D01*
X89230000Y-90080000D02*
X91830000Y-90080000D01*
X89230000Y-87420000D02*
X91830000Y-87420000D01*
X89230000Y-90080000D02*
X89230000Y-87420000D01*
X87960000Y-90080000D02*
X86630000Y-90080000D01*
X86630000Y-90080000D02*
X86630000Y-88750000D01*
X95477500Y-74987258D02*
X95477500Y-74512742D01*
X96522500Y-74987258D02*
X96522500Y-74512742D01*
X78920000Y-67170000D02*
X80250000Y-67170000D01*
X78920000Y-68500000D02*
X78920000Y-67170000D01*
X78920000Y-69770000D02*
X81580000Y-69770000D01*
X81580000Y-69770000D02*
X81580000Y-74910000D01*
X78920000Y-69770000D02*
X78920000Y-74910000D01*
X78920000Y-74910000D02*
X81580000Y-74910000D01*
X86990000Y-96359420D02*
X86990000Y-96640580D01*
X88010000Y-96359420D02*
X88010000Y-96640580D01*
X92140580Y-93740000D02*
X91859420Y-93740000D01*
X92140580Y-94760000D02*
X91859420Y-94760000D01*
X93015000Y-101265000D02*
X93015000Y-103550000D01*
X94485000Y-101265000D02*
X93015000Y-101265000D01*
X94485000Y-103550000D02*
X94485000Y-101265000D01*
X86630000Y-104080000D02*
X86630000Y-102750000D01*
X87960000Y-104080000D02*
X86630000Y-104080000D01*
X89230000Y-104080000D02*
X89230000Y-101420000D01*
X89230000Y-101420000D02*
X91830000Y-101420000D01*
X89230000Y-104080000D02*
X91830000Y-104080000D01*
X91830000Y-104080000D02*
X91830000Y-101420000D01*
X85010000Y-88359420D02*
X85010000Y-88640580D01*
X83990000Y-88359420D02*
X83990000Y-88640580D01*
X83990000Y-102359420D02*
X83990000Y-102640580D01*
X85010000Y-102359420D02*
X85010000Y-102640580D01*
X92140580Y-80760000D02*
X91859420Y-80760000D01*
X92140580Y-79740000D02*
X91859420Y-79740000D01*
X90625100Y-100679700D02*
X95374900Y-100679700D01*
X95374900Y-100679700D02*
X95374900Y-100460541D01*
X95374900Y-95320300D02*
X90625100Y-95320300D01*
X90625100Y-95320300D02*
X90625100Y-95539459D01*
X90625100Y-100460539D02*
X90625100Y-100679700D01*
X95374900Y-95539461D02*
X95374900Y-95320300D01*
D14*
G36*
X97064000Y-98459499D02*
G01*
X97064000Y-98840499D01*
X96810000Y-98840499D01*
X96810000Y-98459499D01*
X97064000Y-98459499D01*
G37*
X97064000Y-98459499D02*
X97064000Y-98840499D01*
X96810000Y-98840499D01*
X96810000Y-98459499D01*
X97064000Y-98459499D01*
D13*
X94485000Y-75550000D02*
X94485000Y-73265000D01*
X94485000Y-73265000D02*
X93015000Y-73265000D01*
X93015000Y-73265000D02*
X93015000Y-75550000D01*
X82920000Y-85760000D02*
X83850000Y-85760000D01*
X86080000Y-85760000D02*
X85150000Y-85760000D01*
X86080000Y-85760000D02*
X86080000Y-83600000D01*
X82920000Y-85760000D02*
X82920000Y-84300000D01*
D14*
G36*
X97064000Y-84459499D02*
G01*
X97064000Y-84840499D01*
X96810000Y-84840499D01*
X96810000Y-84459499D01*
X97064000Y-84459499D01*
G37*
X97064000Y-84459499D02*
X97064000Y-84840499D01*
X96810000Y-84840499D01*
X96810000Y-84459499D01*
X97064000Y-84459499D01*
D13*
X95374900Y-81539461D02*
X95374900Y-81320300D01*
X90625100Y-86460539D02*
X90625100Y-86679700D01*
X90625100Y-81320300D02*
X90625100Y-81539459D01*
X95374900Y-81320300D02*
X90625100Y-81320300D01*
X95374900Y-86679700D02*
X95374900Y-86460541D01*
X90625100Y-86679700D02*
X95374900Y-86679700D01*
X82920000Y-99760000D02*
X82920000Y-98300000D01*
X86080000Y-99760000D02*
X86080000Y-97600000D01*
X86080000Y-99760000D02*
X85150000Y-99760000D01*
X82920000Y-99760000D02*
X83850000Y-99760000D01*
X88010000Y-82359420D02*
X88010000Y-82640580D01*
X86990000Y-82359420D02*
X86990000Y-82640580D01*
X86990000Y-54359420D02*
X86990000Y-54640580D01*
X88010000Y-54359420D02*
X88010000Y-54640580D01*
X82920000Y-71760000D02*
X83850000Y-71760000D01*
X86080000Y-71760000D02*
X85150000Y-71760000D01*
X86080000Y-71760000D02*
X86080000Y-69600000D01*
X82920000Y-71760000D02*
X82920000Y-70300000D01*
X92140580Y-66760000D02*
X91859420Y-66760000D01*
X92140580Y-65740000D02*
X91859420Y-65740000D01*
X83990000Y-60359420D02*
X83990000Y-60640580D01*
X85010000Y-60359420D02*
X85010000Y-60640580D01*
X88010000Y-68359420D02*
X88010000Y-68640580D01*
X86990000Y-68359420D02*
X86990000Y-68640580D01*
X85010000Y-74359420D02*
X85010000Y-74640580D01*
X83990000Y-74359420D02*
X83990000Y-74640580D01*
D14*
G36*
X97064000Y-70459499D02*
G01*
X97064000Y-70840499D01*
X96810000Y-70840499D01*
X96810000Y-70459499D01*
X97064000Y-70459499D01*
G37*
X97064000Y-70459499D02*
X97064000Y-70840499D01*
X96810000Y-70840499D01*
X96810000Y-70459499D01*
X97064000Y-70459499D01*
D13*
X95374900Y-67539461D02*
X95374900Y-67320300D01*
X90625100Y-72460539D02*
X90625100Y-72679700D01*
X90625100Y-67320300D02*
X90625100Y-67539459D01*
X95374900Y-67320300D02*
X90625100Y-67320300D01*
X95374900Y-72679700D02*
X95374900Y-72460541D01*
X90625100Y-72679700D02*
X95374900Y-72679700D01*
X91830000Y-76080000D02*
X91830000Y-73420000D01*
X89230000Y-76080000D02*
X91830000Y-76080000D01*
X89230000Y-73420000D02*
X91830000Y-73420000D01*
X89230000Y-76080000D02*
X89230000Y-73420000D01*
X87960000Y-76080000D02*
X86630000Y-76080000D01*
X86630000Y-76080000D02*
X86630000Y-74750000D01*
X92140580Y-51740000D02*
X91859420Y-51740000D01*
X92140580Y-52760000D02*
X91859420Y-52760000D01*
X94485000Y-89550000D02*
X94485000Y-87265000D01*
X94485000Y-87265000D02*
X93015000Y-87265000D01*
X93015000Y-87265000D02*
X93015000Y-89550000D01*
X78920000Y-81170000D02*
X80250000Y-81170000D01*
X78920000Y-82500000D02*
X78920000Y-81170000D01*
X78920000Y-83770000D02*
X81580000Y-83770000D01*
X81580000Y-83770000D02*
X81580000Y-88910000D01*
X78920000Y-83770000D02*
X78920000Y-88910000D01*
X78920000Y-88910000D02*
X81580000Y-88910000D01*
X78920000Y-102910000D02*
X81580000Y-102910000D01*
X78920000Y-97770000D02*
X78920000Y-102910000D01*
X81580000Y-97770000D02*
X81580000Y-102910000D01*
X78920000Y-97770000D02*
X81580000Y-97770000D01*
X78920000Y-96500000D02*
X78920000Y-95170000D01*
X78920000Y-95170000D02*
X80250000Y-95170000D01*
X95477500Y-88987258D02*
X95477500Y-88512742D01*
X96522500Y-88987258D02*
X96522500Y-88512742D01*
X96522500Y-102987258D02*
X96522500Y-102512742D01*
X95477500Y-102987258D02*
X95477500Y-102512742D01*
X82920000Y-57760000D02*
X82920000Y-56300000D01*
X86080000Y-57760000D02*
X86080000Y-55600000D01*
X86080000Y-57760000D02*
X85150000Y-57760000D01*
X82920000Y-57760000D02*
X83850000Y-57760000D01*
X90625100Y-58679700D02*
X95374900Y-58679700D01*
X95374900Y-58679700D02*
X95374900Y-58460541D01*
X95374900Y-53320300D02*
X90625100Y-53320300D01*
X90625100Y-53320300D02*
X90625100Y-53539459D01*
X90625100Y-58460539D02*
X90625100Y-58679700D01*
X95374900Y-53539461D02*
X95374900Y-53320300D01*
D14*
G36*
X97064000Y-56459499D02*
G01*
X97064000Y-56840499D01*
X96810000Y-56840499D01*
X96810000Y-56459499D01*
X97064000Y-56459499D01*
G37*
X97064000Y-56459499D02*
X97064000Y-56840499D01*
X96810000Y-56840499D01*
X96810000Y-56459499D01*
X97064000Y-56459499D01*
D13*
X86630000Y-62080000D02*
X86630000Y-60750000D01*
X87960000Y-62080000D02*
X86630000Y-62080000D01*
X89230000Y-62080000D02*
X89230000Y-59420000D01*
X89230000Y-59420000D02*
X91830000Y-59420000D01*
X89230000Y-62080000D02*
X91830000Y-62080000D01*
X91830000Y-62080000D02*
X91830000Y-59420000D01*
X65265000Y-87265000D02*
X65265000Y-89550000D01*
X66735000Y-87265000D02*
X65265000Y-87265000D01*
X66735000Y-89550000D02*
X66735000Y-87265000D01*
X68772500Y-88987258D02*
X68772500Y-88512742D01*
X67727500Y-88987258D02*
X67727500Y-88512742D01*
X51170000Y-88910000D02*
X53830000Y-88910000D01*
X51170000Y-83770000D02*
X51170000Y-88910000D01*
X53830000Y-83770000D02*
X53830000Y-88910000D01*
X51170000Y-83770000D02*
X53830000Y-83770000D01*
X51170000Y-82500000D02*
X51170000Y-81170000D01*
X51170000Y-81170000D02*
X52500000Y-81170000D01*
X67727500Y-102987258D02*
X67727500Y-102512742D01*
X68772500Y-102987258D02*
X68772500Y-102512742D01*
X51170000Y-95170000D02*
X52500000Y-95170000D01*
X51170000Y-96500000D02*
X51170000Y-95170000D01*
X51170000Y-97770000D02*
X53830000Y-97770000D01*
X53830000Y-97770000D02*
X53830000Y-102910000D01*
X51170000Y-97770000D02*
X51170000Y-102910000D01*
X51170000Y-102910000D02*
X53830000Y-102910000D01*
X66735000Y-103550000D02*
X66735000Y-101265000D01*
X66735000Y-101265000D02*
X65265000Y-101265000D01*
X65265000Y-101265000D02*
X65265000Y-103550000D01*
X59240000Y-82359420D02*
X59240000Y-82640580D01*
X60260000Y-82359420D02*
X60260000Y-82640580D01*
X55170000Y-99760000D02*
X56100000Y-99760000D01*
X58330000Y-99760000D02*
X57400000Y-99760000D01*
X58330000Y-99760000D02*
X58330000Y-97600000D01*
X55170000Y-99760000D02*
X55170000Y-98300000D01*
X64390580Y-94760000D02*
X64109420Y-94760000D01*
X64390580Y-93740000D02*
X64109420Y-93740000D01*
X56240000Y-88359420D02*
X56240000Y-88640580D01*
X57260000Y-88359420D02*
X57260000Y-88640580D01*
X60260000Y-96359420D02*
X60260000Y-96640580D01*
X59240000Y-96359420D02*
X59240000Y-96640580D01*
X57260000Y-102359420D02*
X57260000Y-102640580D01*
X56240000Y-102359420D02*
X56240000Y-102640580D01*
D14*
G36*
X69314000Y-98459499D02*
G01*
X69314000Y-98840499D01*
X69060000Y-98840499D01*
X69060000Y-98459499D01*
X69314000Y-98459499D01*
G37*
X69314000Y-98459499D02*
X69314000Y-98840499D01*
X69060000Y-98840499D01*
X69060000Y-98459499D01*
X69314000Y-98459499D01*
D13*
X67624900Y-95539461D02*
X67624900Y-95320300D01*
X62875100Y-100460539D02*
X62875100Y-100679700D01*
X62875100Y-95320300D02*
X62875100Y-95539459D01*
X67624900Y-95320300D02*
X62875100Y-95320300D01*
X67624900Y-100679700D02*
X67624900Y-100460541D01*
X62875100Y-100679700D02*
X67624900Y-100679700D01*
X64080000Y-104080000D02*
X64080000Y-101420000D01*
X61480000Y-104080000D02*
X64080000Y-104080000D01*
X61480000Y-101420000D02*
X64080000Y-101420000D01*
X61480000Y-104080000D02*
X61480000Y-101420000D01*
X60210000Y-104080000D02*
X58880000Y-104080000D01*
X58880000Y-104080000D02*
X58880000Y-102750000D01*
X64390580Y-79740000D02*
X64109420Y-79740000D01*
X64390580Y-80760000D02*
X64109420Y-80760000D01*
X55170000Y-85760000D02*
X55170000Y-84300000D01*
X58330000Y-85760000D02*
X58330000Y-83600000D01*
X58330000Y-85760000D02*
X57400000Y-85760000D01*
X55170000Y-85760000D02*
X56100000Y-85760000D01*
X62875100Y-86679700D02*
X67624900Y-86679700D01*
X67624900Y-86679700D02*
X67624900Y-86460541D01*
X67624900Y-81320300D02*
X62875100Y-81320300D01*
X62875100Y-81320300D02*
X62875100Y-81539459D01*
X62875100Y-86460539D02*
X62875100Y-86679700D01*
X67624900Y-81539461D02*
X67624900Y-81320300D01*
D14*
G36*
X69314000Y-84459499D02*
G01*
X69314000Y-84840499D01*
X69060000Y-84840499D01*
X69060000Y-84459499D01*
X69314000Y-84459499D01*
G37*
X69314000Y-84459499D02*
X69314000Y-84840499D01*
X69060000Y-84840499D01*
X69060000Y-84459499D01*
X69314000Y-84459499D01*
D13*
X58880000Y-90080000D02*
X58880000Y-88750000D01*
X60210000Y-90080000D02*
X58880000Y-90080000D01*
X61480000Y-90080000D02*
X61480000Y-87420000D01*
X61480000Y-87420000D02*
X64080000Y-87420000D01*
X61480000Y-90080000D02*
X64080000Y-90080000D01*
X64080000Y-90080000D02*
X64080000Y-87420000D01*
X65265000Y-73265000D02*
X65265000Y-75550000D01*
X66735000Y-73265000D02*
X65265000Y-73265000D01*
X66735000Y-75550000D02*
X66735000Y-73265000D01*
X68772500Y-74987258D02*
X68772500Y-74512742D01*
X67727500Y-74987258D02*
X67727500Y-74512742D01*
X51170000Y-74910000D02*
X53830000Y-74910000D01*
X51170000Y-69770000D02*
X51170000Y-74910000D01*
X53830000Y-69770000D02*
X53830000Y-74910000D01*
X51170000Y-69770000D02*
X53830000Y-69770000D01*
X51170000Y-68500000D02*
X51170000Y-67170000D01*
X51170000Y-67170000D02*
X52500000Y-67170000D01*
X59240000Y-68359420D02*
X59240000Y-68640580D01*
X60260000Y-68359420D02*
X60260000Y-68640580D01*
X56240000Y-74359420D02*
X56240000Y-74640580D01*
X57260000Y-74359420D02*
X57260000Y-74640580D01*
X64390580Y-65740000D02*
X64109420Y-65740000D01*
X64390580Y-66760000D02*
X64109420Y-66760000D01*
X55170000Y-71760000D02*
X55170000Y-70300000D01*
X58330000Y-71760000D02*
X58330000Y-69600000D01*
X58330000Y-71760000D02*
X57400000Y-71760000D01*
X55170000Y-71760000D02*
X56100000Y-71760000D01*
X62875100Y-72679700D02*
X67624900Y-72679700D01*
X67624900Y-72679700D02*
X67624900Y-72460541D01*
X67624900Y-67320300D02*
X62875100Y-67320300D01*
X62875100Y-67320300D02*
X62875100Y-67539459D01*
X62875100Y-72460539D02*
X62875100Y-72679700D01*
X67624900Y-67539461D02*
X67624900Y-67320300D01*
D14*
G36*
X69314000Y-70459499D02*
G01*
X69314000Y-70840499D01*
X69060000Y-70840499D01*
X69060000Y-70459499D01*
X69314000Y-70459499D01*
G37*
X69314000Y-70459499D02*
X69314000Y-70840499D01*
X69060000Y-70840499D01*
X69060000Y-70459499D01*
X69314000Y-70459499D01*
D13*
X58880000Y-76080000D02*
X58880000Y-74750000D01*
X60210000Y-76080000D02*
X58880000Y-76080000D01*
X61480000Y-76080000D02*
X61480000Y-73420000D01*
X61480000Y-73420000D02*
X64080000Y-73420000D01*
X61480000Y-76080000D02*
X64080000Y-76080000D01*
X64080000Y-76080000D02*
X64080000Y-73420000D01*
X64080000Y-62080000D02*
X64080000Y-59420000D01*
X61480000Y-62080000D02*
X64080000Y-62080000D01*
X61480000Y-59420000D02*
X64080000Y-59420000D01*
X61480000Y-62080000D02*
X61480000Y-59420000D01*
X60210000Y-62080000D02*
X58880000Y-62080000D01*
X58880000Y-62080000D02*
X58880000Y-60750000D01*
X51170000Y-53170000D02*
X52500000Y-53170000D01*
X51170000Y-54500000D02*
X51170000Y-53170000D01*
X51170000Y-55770000D02*
X53830000Y-55770000D01*
X53830000Y-55770000D02*
X53830000Y-60910000D01*
X51170000Y-55770000D02*
X51170000Y-60910000D01*
X51170000Y-60910000D02*
X53830000Y-60910000D01*
D14*
G36*
X69314000Y-56459499D02*
G01*
X69314000Y-56840499D01*
X69060000Y-56840499D01*
X69060000Y-56459499D01*
X69314000Y-56459499D01*
G37*
X69314000Y-56459499D02*
X69314000Y-56840499D01*
X69060000Y-56840499D01*
X69060000Y-56459499D01*
X69314000Y-56459499D01*
D13*
X67624900Y-53539461D02*
X67624900Y-53320300D01*
X62875100Y-58460539D02*
X62875100Y-58679700D01*
X62875100Y-53320300D02*
X62875100Y-53539459D01*
X67624900Y-53320300D02*
X62875100Y-53320300D01*
X67624900Y-58679700D02*
X67624900Y-58460541D01*
X62875100Y-58679700D02*
X67624900Y-58679700D01*
X55170000Y-57760000D02*
X56100000Y-57760000D01*
X58330000Y-57760000D02*
X57400000Y-57760000D01*
X58330000Y-57760000D02*
X58330000Y-55600000D01*
X55170000Y-57760000D02*
X55170000Y-56300000D01*
X67727500Y-60987258D02*
X67727500Y-60512742D01*
X68772500Y-60987258D02*
X68772500Y-60512742D01*
X66735000Y-61550000D02*
X66735000Y-59265000D01*
X66735000Y-59265000D02*
X65265000Y-59265000D01*
X65265000Y-59265000D02*
X65265000Y-61550000D01*
X60260000Y-54359420D02*
X60260000Y-54640580D01*
X59240000Y-54359420D02*
X59240000Y-54640580D01*
X64390580Y-52760000D02*
X64109420Y-52760000D01*
X64390580Y-51740000D02*
X64109420Y-51740000D01*
X57260000Y-60359420D02*
X57260000Y-60640580D01*
X56240000Y-60359420D02*
X56240000Y-60640580D01*
D11*
X120761904Y-105452380D02*
X120761904Y-104452380D01*
X121000000Y-104452380D01*
X121142857Y-104500000D01*
X121238095Y-104595238D01*
X121285714Y-104690476D01*
X121333333Y-104880952D01*
X121333333Y-105023809D01*
X121285714Y-105214285D01*
X121238095Y-105309523D01*
X121142857Y-105404761D01*
X121000000Y-105452380D01*
X120761904Y-105452380D01*
X122285714Y-105452380D02*
X121714285Y-105452380D01*
X122000000Y-105452380D02*
X122000000Y-104452380D01*
X121904761Y-104595238D01*
X121809523Y-104690476D01*
X121714285Y-104738095D01*
D12*
X113916666Y-100202380D02*
X113916666Y-100916666D01*
X113869047Y-101059523D01*
X113773809Y-101154761D01*
X113630952Y-101202380D01*
X113535714Y-101202380D01*
X114345238Y-100297619D02*
X114392857Y-100250000D01*
X114488095Y-100202380D01*
X114726190Y-100202380D01*
X114821428Y-100250000D01*
X114869047Y-100297619D01*
X114916666Y-100392857D01*
X114916666Y-100488095D01*
X114869047Y-100630952D01*
X114297619Y-101202380D01*
X114916666Y-101202380D01*
D11*
X122333333Y-80607142D02*
X122285714Y-80654761D01*
X122142857Y-80702380D01*
X122047619Y-80702380D01*
X121904761Y-80654761D01*
X121809523Y-80559523D01*
X121761904Y-80464285D01*
X121714285Y-80273809D01*
X121714285Y-80130952D01*
X121761904Y-79940476D01*
X121809523Y-79845238D01*
X121904761Y-79750000D01*
X122047619Y-79702380D01*
X122142857Y-79702380D01*
X122285714Y-79750000D01*
X122333333Y-79797619D01*
X122714285Y-79797619D02*
X122761904Y-79750000D01*
X122857142Y-79702380D01*
X123095238Y-79702380D01*
X123190476Y-79750000D01*
X123238095Y-79797619D01*
X123285714Y-79892857D01*
X123285714Y-79988095D01*
X123238095Y-80130952D01*
X122666666Y-80702380D01*
X123285714Y-80702380D01*
X123583333Y-77452380D02*
X123250000Y-76976190D01*
X123011904Y-77452380D02*
X123011904Y-76452380D01*
X123392857Y-76452380D01*
X123488095Y-76500000D01*
X123535714Y-76547619D01*
X123583333Y-76642857D01*
X123583333Y-76785714D01*
X123535714Y-76880952D01*
X123488095Y-76928571D01*
X123392857Y-76976190D01*
X123011904Y-76976190D01*
X124535714Y-77452380D02*
X123964285Y-77452380D01*
X124250000Y-77452380D02*
X124250000Y-76452380D01*
X124154761Y-76595238D01*
X124059523Y-76690476D01*
X123964285Y-76738095D01*
X115083333Y-94607142D02*
X115035714Y-94654761D01*
X114892857Y-94702380D01*
X114797619Y-94702380D01*
X114654761Y-94654761D01*
X114559523Y-94559523D01*
X114511904Y-94464285D01*
X114464285Y-94273809D01*
X114464285Y-94130952D01*
X114511904Y-93940476D01*
X114559523Y-93845238D01*
X114654761Y-93750000D01*
X114797619Y-93702380D01*
X114892857Y-93702380D01*
X115035714Y-93750000D01*
X115083333Y-93797619D01*
X115416666Y-93702380D02*
X116035714Y-93702380D01*
X115702380Y-94083333D01*
X115845238Y-94083333D01*
X115940476Y-94130952D01*
X115988095Y-94178571D01*
X116035714Y-94273809D01*
X116035714Y-94511904D01*
X115988095Y-94607142D01*
X115940476Y-94654761D01*
X115845238Y-94702380D01*
X115559523Y-94702380D01*
X115464285Y-94654761D01*
X115416666Y-94607142D01*
X111107142Y-88666666D02*
X111154761Y-88714285D01*
X111202380Y-88857142D01*
X111202380Y-88952380D01*
X111154761Y-89095238D01*
X111059523Y-89190476D01*
X110964285Y-89238095D01*
X110773809Y-89285714D01*
X110630952Y-89285714D01*
X110440476Y-89238095D01*
X110345238Y-89190476D01*
X110250000Y-89095238D01*
X110202380Y-88952380D01*
X110202380Y-88857142D01*
X110250000Y-88714285D01*
X110297619Y-88666666D01*
X111202380Y-87714285D02*
X111202380Y-88285714D01*
X111202380Y-88000000D02*
X110202380Y-88000000D01*
X110345238Y-88095238D01*
X110440476Y-88190476D01*
X110488095Y-88285714D01*
X119988095Y-97452380D02*
X119988095Y-98261904D01*
X120035714Y-98357142D01*
X120083333Y-98404761D01*
X120178571Y-98452380D01*
X120369047Y-98452380D01*
X120464285Y-98404761D01*
X120511904Y-98357142D01*
X120559523Y-98261904D01*
X120559523Y-97452380D01*
X121559523Y-98452380D02*
X120988095Y-98452380D01*
X121273809Y-98452380D02*
X121273809Y-97452380D01*
X121178571Y-97595238D01*
X121083333Y-97690476D01*
X120988095Y-97738095D01*
D12*
X117594050Y-94003780D02*
X117594050Y-94241876D01*
X117355954Y-94146638D02*
X117594050Y-94241876D01*
X117832145Y-94146638D01*
X117451192Y-94432352D02*
X117594050Y-94241876D01*
X117736907Y-94432352D01*
X117594050Y-94003780D02*
X117594050Y-94241876D01*
X117355954Y-94146638D02*
X117594050Y-94241876D01*
X117832145Y-94146638D01*
X117451192Y-94432352D02*
X117594050Y-94241876D01*
X117736907Y-94432352D01*
D11*
X120761904Y-77452380D02*
X120761904Y-76452380D01*
X121000000Y-76452380D01*
X121142857Y-76500000D01*
X121238095Y-76595238D01*
X121285714Y-76690476D01*
X121333333Y-76880952D01*
X121333333Y-77023809D01*
X121285714Y-77214285D01*
X121238095Y-77309523D01*
X121142857Y-77404761D01*
X121000000Y-77452380D01*
X120761904Y-77452380D01*
X122285714Y-77452380D02*
X121714285Y-77452380D01*
X122000000Y-77452380D02*
X122000000Y-76452380D01*
X121904761Y-76595238D01*
X121809523Y-76690476D01*
X121714285Y-76738095D01*
X111488095Y-81702380D02*
X111488095Y-82511904D01*
X111535714Y-82607142D01*
X111583333Y-82654761D01*
X111678571Y-82702380D01*
X111869047Y-82702380D01*
X111964285Y-82654761D01*
X112011904Y-82607142D01*
X112059523Y-82511904D01*
X112059523Y-81702380D01*
X112488095Y-81797619D02*
X112535714Y-81750000D01*
X112630952Y-81702380D01*
X112869047Y-81702380D01*
X112964285Y-81750000D01*
X113011904Y-81797619D01*
X113059523Y-81892857D01*
X113059523Y-81988095D01*
X113011904Y-82130952D01*
X112440476Y-82702380D01*
X113059523Y-82702380D01*
X115083333Y-80607142D02*
X115035714Y-80654761D01*
X114892857Y-80702380D01*
X114797619Y-80702380D01*
X114654761Y-80654761D01*
X114559523Y-80559523D01*
X114511904Y-80464285D01*
X114464285Y-80273809D01*
X114464285Y-80130952D01*
X114511904Y-79940476D01*
X114559523Y-79845238D01*
X114654761Y-79750000D01*
X114797619Y-79702380D01*
X114892857Y-79702380D01*
X115035714Y-79750000D01*
X115083333Y-79797619D01*
X115416666Y-79702380D02*
X116035714Y-79702380D01*
X115702380Y-80083333D01*
X115845238Y-80083333D01*
X115940476Y-80130952D01*
X115988095Y-80178571D01*
X116035714Y-80273809D01*
X116035714Y-80511904D01*
X115988095Y-80607142D01*
X115940476Y-80654761D01*
X115845238Y-80702380D01*
X115559523Y-80702380D01*
X115464285Y-80654761D01*
X115416666Y-80607142D01*
X115083333Y-52607142D02*
X115035714Y-52654761D01*
X114892857Y-52702380D01*
X114797619Y-52702380D01*
X114654761Y-52654761D01*
X114559523Y-52559523D01*
X114511904Y-52464285D01*
X114464285Y-52273809D01*
X114464285Y-52130952D01*
X114511904Y-51940476D01*
X114559523Y-51845238D01*
X114654761Y-51750000D01*
X114797619Y-51702380D01*
X114892857Y-51702380D01*
X115035714Y-51750000D01*
X115083333Y-51797619D01*
X115416666Y-51702380D02*
X116035714Y-51702380D01*
X115702380Y-52083333D01*
X115845238Y-52083333D01*
X115940476Y-52130952D01*
X115988095Y-52178571D01*
X116035714Y-52273809D01*
X116035714Y-52511904D01*
X115988095Y-52607142D01*
X115940476Y-52654761D01*
X115845238Y-52702380D01*
X115559523Y-52702380D01*
X115464285Y-52654761D01*
X115416666Y-52607142D01*
X111107142Y-102666666D02*
X111154761Y-102714285D01*
X111202380Y-102857142D01*
X111202380Y-102952380D01*
X111154761Y-103095238D01*
X111059523Y-103190476D01*
X110964285Y-103238095D01*
X110773809Y-103285714D01*
X110630952Y-103285714D01*
X110440476Y-103238095D01*
X110345238Y-103190476D01*
X110250000Y-103095238D01*
X110202380Y-102952380D01*
X110202380Y-102857142D01*
X110250000Y-102714285D01*
X110297619Y-102666666D01*
X111202380Y-101714285D02*
X111202380Y-102285714D01*
X111202380Y-102000000D02*
X110202380Y-102000000D01*
X110345238Y-102095238D01*
X110440476Y-102190476D01*
X110488095Y-102285714D01*
D12*
X113916666Y-86202380D02*
X113916666Y-86916666D01*
X113869047Y-87059523D01*
X113773809Y-87154761D01*
X113630952Y-87202380D01*
X113535714Y-87202380D01*
X114345238Y-86297619D02*
X114392857Y-86250000D01*
X114488095Y-86202380D01*
X114726190Y-86202380D01*
X114821428Y-86250000D01*
X114869047Y-86297619D01*
X114916666Y-86392857D01*
X114916666Y-86488095D01*
X114869047Y-86630952D01*
X114297619Y-87202380D01*
X114916666Y-87202380D01*
D11*
X119988095Y-83452380D02*
X119988095Y-84261904D01*
X120035714Y-84357142D01*
X120083333Y-84404761D01*
X120178571Y-84452380D01*
X120369047Y-84452380D01*
X120464285Y-84404761D01*
X120511904Y-84357142D01*
X120559523Y-84261904D01*
X120559523Y-83452380D01*
X121559523Y-84452380D02*
X120988095Y-84452380D01*
X121273809Y-84452380D02*
X121273809Y-83452380D01*
X121178571Y-83595238D01*
X121083333Y-83690476D01*
X120988095Y-83738095D01*
D12*
X117594050Y-80003780D02*
X117594050Y-80241876D01*
X117355954Y-80146638D02*
X117594050Y-80241876D01*
X117832145Y-80146638D01*
X117451192Y-80432352D02*
X117594050Y-80241876D01*
X117736907Y-80432352D01*
X117594050Y-80003780D02*
X117594050Y-80241876D01*
X117355954Y-80146638D02*
X117594050Y-80241876D01*
X117832145Y-80146638D01*
X117451192Y-80432352D02*
X117594050Y-80241876D01*
X117736907Y-80432352D01*
D11*
X111488095Y-95702380D02*
X111488095Y-96511904D01*
X111535714Y-96607142D01*
X111583333Y-96654761D01*
X111678571Y-96702380D01*
X111869047Y-96702380D01*
X111964285Y-96654761D01*
X112011904Y-96607142D01*
X112059523Y-96511904D01*
X112059523Y-95702380D01*
X112488095Y-95797619D02*
X112535714Y-95750000D01*
X112630952Y-95702380D01*
X112869047Y-95702380D01*
X112964285Y-95750000D01*
X113011904Y-95797619D01*
X113059523Y-95892857D01*
X113059523Y-95988095D01*
X113011904Y-96130952D01*
X112440476Y-96702380D01*
X113059523Y-96702380D01*
D12*
X107666666Y-65622380D02*
X107666666Y-66336666D01*
X107619047Y-66479523D01*
X107523809Y-66574761D01*
X107380952Y-66622380D01*
X107285714Y-66622380D01*
X108666666Y-66622380D02*
X108095238Y-66622380D01*
X108380952Y-66622380D02*
X108380952Y-65622380D01*
X108285714Y-65765238D01*
X108190476Y-65860476D01*
X108095238Y-65908095D01*
D11*
X122333333Y-94607142D02*
X122285714Y-94654761D01*
X122142857Y-94702380D01*
X122047619Y-94702380D01*
X121904761Y-94654761D01*
X121809523Y-94559523D01*
X121761904Y-94464285D01*
X121714285Y-94273809D01*
X121714285Y-94130952D01*
X121761904Y-93940476D01*
X121809523Y-93845238D01*
X121904761Y-93750000D01*
X122047619Y-93702380D01*
X122142857Y-93702380D01*
X122285714Y-93750000D01*
X122333333Y-93797619D01*
X122714285Y-93797619D02*
X122761904Y-93750000D01*
X122857142Y-93702380D01*
X123095238Y-93702380D01*
X123190476Y-93750000D01*
X123238095Y-93797619D01*
X123285714Y-93892857D01*
X123285714Y-93988095D01*
X123238095Y-94130952D01*
X122666666Y-94702380D01*
X123285714Y-94702380D01*
X123583333Y-63452380D02*
X123250000Y-62976190D01*
X123011904Y-63452380D02*
X123011904Y-62452380D01*
X123392857Y-62452380D01*
X123488095Y-62500000D01*
X123535714Y-62547619D01*
X123583333Y-62642857D01*
X123583333Y-62785714D01*
X123535714Y-62880952D01*
X123488095Y-62928571D01*
X123392857Y-62976190D01*
X123011904Y-62976190D01*
X124535714Y-63452380D02*
X123964285Y-63452380D01*
X124250000Y-63452380D02*
X124250000Y-62452380D01*
X124154761Y-62595238D01*
X124059523Y-62690476D01*
X123964285Y-62738095D01*
D12*
X107666666Y-51622380D02*
X107666666Y-52336666D01*
X107619047Y-52479523D01*
X107523809Y-52574761D01*
X107380952Y-52622380D01*
X107285714Y-52622380D01*
X108666666Y-52622380D02*
X108095238Y-52622380D01*
X108380952Y-52622380D02*
X108380952Y-51622380D01*
X108285714Y-51765238D01*
X108190476Y-51860476D01*
X108095238Y-51908095D01*
D11*
X120761904Y-63452380D02*
X120761904Y-62452380D01*
X121000000Y-62452380D01*
X121142857Y-62500000D01*
X121238095Y-62595238D01*
X121285714Y-62690476D01*
X121333333Y-62880952D01*
X121333333Y-63023809D01*
X121285714Y-63214285D01*
X121238095Y-63309523D01*
X121142857Y-63404761D01*
X121000000Y-63452380D01*
X120761904Y-63452380D01*
X122285714Y-63452380D02*
X121714285Y-63452380D01*
X122000000Y-63452380D02*
X122000000Y-62452380D01*
X121904761Y-62595238D01*
X121809523Y-62690476D01*
X121714285Y-62738095D01*
D12*
X113916666Y-58202380D02*
X113916666Y-58916666D01*
X113869047Y-59059523D01*
X113773809Y-59154761D01*
X113630952Y-59202380D01*
X113535714Y-59202380D01*
X114345238Y-58297619D02*
X114392857Y-58250000D01*
X114488095Y-58202380D01*
X114726190Y-58202380D01*
X114821428Y-58250000D01*
X114869047Y-58297619D01*
X114916666Y-58392857D01*
X114916666Y-58488095D01*
X114869047Y-58630952D01*
X114297619Y-59202380D01*
X114916666Y-59202380D01*
D11*
X123583333Y-105452380D02*
X123250000Y-104976190D01*
X123011904Y-105452380D02*
X123011904Y-104452380D01*
X123392857Y-104452380D01*
X123488095Y-104500000D01*
X123535714Y-104547619D01*
X123583333Y-104642857D01*
X123583333Y-104785714D01*
X123535714Y-104880952D01*
X123488095Y-104928571D01*
X123392857Y-104976190D01*
X123011904Y-104976190D01*
X124535714Y-105452380D02*
X123964285Y-105452380D01*
X124250000Y-105452380D02*
X124250000Y-104452380D01*
X124154761Y-104595238D01*
X124059523Y-104690476D01*
X123964285Y-104738095D01*
D12*
X113916666Y-72202380D02*
X113916666Y-72916666D01*
X113869047Y-73059523D01*
X113773809Y-73154761D01*
X113630952Y-73202380D01*
X113535714Y-73202380D01*
X114345238Y-72297619D02*
X114392857Y-72250000D01*
X114488095Y-72202380D01*
X114726190Y-72202380D01*
X114821428Y-72250000D01*
X114869047Y-72297619D01*
X114916666Y-72392857D01*
X114916666Y-72488095D01*
X114869047Y-72630952D01*
X114297619Y-73202380D01*
X114916666Y-73202380D01*
D11*
X122333333Y-52607142D02*
X122285714Y-52654761D01*
X122142857Y-52702380D01*
X122047619Y-52702380D01*
X121904761Y-52654761D01*
X121809523Y-52559523D01*
X121761904Y-52464285D01*
X121714285Y-52273809D01*
X121714285Y-52130952D01*
X121761904Y-51940476D01*
X121809523Y-51845238D01*
X121904761Y-51750000D01*
X122047619Y-51702380D01*
X122142857Y-51702380D01*
X122285714Y-51750000D01*
X122333333Y-51797619D01*
X122714285Y-51797619D02*
X122761904Y-51750000D01*
X122857142Y-51702380D01*
X123095238Y-51702380D01*
X123190476Y-51750000D01*
X123238095Y-51797619D01*
X123285714Y-51892857D01*
X123285714Y-51988095D01*
X123238095Y-52130952D01*
X122666666Y-52702380D01*
X123285714Y-52702380D01*
X111488095Y-53702380D02*
X111488095Y-54511904D01*
X111535714Y-54607142D01*
X111583333Y-54654761D01*
X111678571Y-54702380D01*
X111869047Y-54702380D01*
X111964285Y-54654761D01*
X112011904Y-54607142D01*
X112059523Y-54511904D01*
X112059523Y-53702380D01*
X112488095Y-53797619D02*
X112535714Y-53750000D01*
X112630952Y-53702380D01*
X112869047Y-53702380D01*
X112964285Y-53750000D01*
X113011904Y-53797619D01*
X113059523Y-53892857D01*
X113059523Y-53988095D01*
X113011904Y-54130952D01*
X112440476Y-54702380D01*
X113059523Y-54702380D01*
X111488095Y-67702380D02*
X111488095Y-68511904D01*
X111535714Y-68607142D01*
X111583333Y-68654761D01*
X111678571Y-68702380D01*
X111869047Y-68702380D01*
X111964285Y-68654761D01*
X112011904Y-68607142D01*
X112059523Y-68511904D01*
X112059523Y-67702380D01*
X112488095Y-67797619D02*
X112535714Y-67750000D01*
X112630952Y-67702380D01*
X112869047Y-67702380D01*
X112964285Y-67750000D01*
X113011904Y-67797619D01*
X113059523Y-67892857D01*
X113059523Y-67988095D01*
X113011904Y-68130952D01*
X112440476Y-68702380D01*
X113059523Y-68702380D01*
X122333333Y-66607142D02*
X122285714Y-66654761D01*
X122142857Y-66702380D01*
X122047619Y-66702380D01*
X121904761Y-66654761D01*
X121809523Y-66559523D01*
X121761904Y-66464285D01*
X121714285Y-66273809D01*
X121714285Y-66130952D01*
X121761904Y-65940476D01*
X121809523Y-65845238D01*
X121904761Y-65750000D01*
X122047619Y-65702380D01*
X122142857Y-65702380D01*
X122285714Y-65750000D01*
X122333333Y-65797619D01*
X122714285Y-65797619D02*
X122761904Y-65750000D01*
X122857142Y-65702380D01*
X123095238Y-65702380D01*
X123190476Y-65750000D01*
X123238095Y-65797619D01*
X123285714Y-65892857D01*
X123285714Y-65988095D01*
X123238095Y-66130952D01*
X122666666Y-66702380D01*
X123285714Y-66702380D01*
X119988095Y-55452380D02*
X119988095Y-56261904D01*
X120035714Y-56357142D01*
X120083333Y-56404761D01*
X120178571Y-56452380D01*
X120369047Y-56452380D01*
X120464285Y-56404761D01*
X120511904Y-56357142D01*
X120559523Y-56261904D01*
X120559523Y-55452380D01*
X121559523Y-56452380D02*
X120988095Y-56452380D01*
X121273809Y-56452380D02*
X121273809Y-55452380D01*
X121178571Y-55595238D01*
X121083333Y-55690476D01*
X120988095Y-55738095D01*
D12*
X117594050Y-52003780D02*
X117594050Y-52241876D01*
X117355954Y-52146638D02*
X117594050Y-52241876D01*
X117832145Y-52146638D01*
X117451192Y-52432352D02*
X117594050Y-52241876D01*
X117736907Y-52432352D01*
X117594050Y-52003780D02*
X117594050Y-52241876D01*
X117355954Y-52146638D02*
X117594050Y-52241876D01*
X117832145Y-52146638D01*
X117451192Y-52432352D02*
X117594050Y-52241876D01*
X117736907Y-52432352D01*
D11*
X120761904Y-91452380D02*
X120761904Y-90452380D01*
X121000000Y-90452380D01*
X121142857Y-90500000D01*
X121238095Y-90595238D01*
X121285714Y-90690476D01*
X121333333Y-90880952D01*
X121333333Y-91023809D01*
X121285714Y-91214285D01*
X121238095Y-91309523D01*
X121142857Y-91404761D01*
X121000000Y-91452380D01*
X120761904Y-91452380D01*
X122285714Y-91452380D02*
X121714285Y-91452380D01*
X122000000Y-91452380D02*
X122000000Y-90452380D01*
X121904761Y-90595238D01*
X121809523Y-90690476D01*
X121714285Y-90738095D01*
X111107142Y-60666666D02*
X111154761Y-60714285D01*
X111202380Y-60857142D01*
X111202380Y-60952380D01*
X111154761Y-61095238D01*
X111059523Y-61190476D01*
X110964285Y-61238095D01*
X110773809Y-61285714D01*
X110630952Y-61285714D01*
X110440476Y-61238095D01*
X110345238Y-61190476D01*
X110250000Y-61095238D01*
X110202380Y-60952380D01*
X110202380Y-60857142D01*
X110250000Y-60714285D01*
X110297619Y-60666666D01*
X111202380Y-59714285D02*
X111202380Y-60285714D01*
X111202380Y-60000000D02*
X110202380Y-60000000D01*
X110345238Y-60095238D01*
X110440476Y-60190476D01*
X110488095Y-60285714D01*
D12*
X107666666Y-79622380D02*
X107666666Y-80336666D01*
X107619047Y-80479523D01*
X107523809Y-80574761D01*
X107380952Y-80622380D01*
X107285714Y-80622380D01*
X108666666Y-80622380D02*
X108095238Y-80622380D01*
X108380952Y-80622380D02*
X108380952Y-79622380D01*
X108285714Y-79765238D01*
X108190476Y-79860476D01*
X108095238Y-79908095D01*
D11*
X115083333Y-66607142D02*
X115035714Y-66654761D01*
X114892857Y-66702380D01*
X114797619Y-66702380D01*
X114654761Y-66654761D01*
X114559523Y-66559523D01*
X114511904Y-66464285D01*
X114464285Y-66273809D01*
X114464285Y-66130952D01*
X114511904Y-65940476D01*
X114559523Y-65845238D01*
X114654761Y-65750000D01*
X114797619Y-65702380D01*
X114892857Y-65702380D01*
X115035714Y-65750000D01*
X115083333Y-65797619D01*
X115416666Y-65702380D02*
X116035714Y-65702380D01*
X115702380Y-66083333D01*
X115845238Y-66083333D01*
X115940476Y-66130952D01*
X115988095Y-66178571D01*
X116035714Y-66273809D01*
X116035714Y-66511904D01*
X115988095Y-66607142D01*
X115940476Y-66654761D01*
X115845238Y-66702380D01*
X115559523Y-66702380D01*
X115464285Y-66654761D01*
X115416666Y-66607142D01*
X111107142Y-74666666D02*
X111154761Y-74714285D01*
X111202380Y-74857142D01*
X111202380Y-74952380D01*
X111154761Y-75095238D01*
X111059523Y-75190476D01*
X110964285Y-75238095D01*
X110773809Y-75285714D01*
X110630952Y-75285714D01*
X110440476Y-75238095D01*
X110345238Y-75190476D01*
X110250000Y-75095238D01*
X110202380Y-74952380D01*
X110202380Y-74857142D01*
X110250000Y-74714285D01*
X110297619Y-74666666D01*
X111202380Y-73714285D02*
X111202380Y-74285714D01*
X111202380Y-74000000D02*
X110202380Y-74000000D01*
X110345238Y-74095238D01*
X110440476Y-74190476D01*
X110488095Y-74285714D01*
X119988095Y-69452380D02*
X119988095Y-70261904D01*
X120035714Y-70357142D01*
X120083333Y-70404761D01*
X120178571Y-70452380D01*
X120369047Y-70452380D01*
X120464285Y-70404761D01*
X120511904Y-70357142D01*
X120559523Y-70261904D01*
X120559523Y-69452380D01*
X121559523Y-70452380D02*
X120988095Y-70452380D01*
X121273809Y-70452380D02*
X121273809Y-69452380D01*
X121178571Y-69595238D01*
X121083333Y-69690476D01*
X120988095Y-69738095D01*
D12*
X117594050Y-66003780D02*
X117594050Y-66241876D01*
X117355954Y-66146638D02*
X117594050Y-66241876D01*
X117832145Y-66146638D01*
X117451192Y-66432352D02*
X117594050Y-66241876D01*
X117736907Y-66432352D01*
X117594050Y-66003780D02*
X117594050Y-66241876D01*
X117355954Y-66146638D02*
X117594050Y-66241876D01*
X117832145Y-66146638D01*
X117451192Y-66432352D02*
X117594050Y-66241876D01*
X117736907Y-66432352D01*
X107666666Y-93622380D02*
X107666666Y-94336666D01*
X107619047Y-94479523D01*
X107523809Y-94574761D01*
X107380952Y-94622380D01*
X107285714Y-94622380D01*
X108666666Y-94622380D02*
X108095238Y-94622380D01*
X108380952Y-94622380D02*
X108380952Y-93622380D01*
X108285714Y-93765238D01*
X108190476Y-93860476D01*
X108095238Y-93908095D01*
D11*
X123583333Y-91452380D02*
X123250000Y-90976190D01*
X123011904Y-91452380D02*
X123011904Y-90452380D01*
X123392857Y-90452380D01*
X123488095Y-90500000D01*
X123535714Y-90547619D01*
X123583333Y-90642857D01*
X123583333Y-90785714D01*
X123535714Y-90880952D01*
X123488095Y-90928571D01*
X123392857Y-90976190D01*
X123011904Y-90976190D01*
X124535714Y-91452380D02*
X123964285Y-91452380D01*
X124250000Y-91452380D02*
X124250000Y-90452380D01*
X124154761Y-90595238D01*
X124059523Y-90690476D01*
X123964285Y-90738095D01*
X93011904Y-63452380D02*
X93011904Y-62452380D01*
X93250000Y-62452380D01*
X93392857Y-62500000D01*
X93488095Y-62595238D01*
X93535714Y-62690476D01*
X93583333Y-62880952D01*
X93583333Y-63023809D01*
X93535714Y-63214285D01*
X93488095Y-63309523D01*
X93392857Y-63404761D01*
X93250000Y-63452380D01*
X93011904Y-63452380D01*
X94535714Y-63452380D02*
X93964285Y-63452380D01*
X94250000Y-63452380D02*
X94250000Y-62452380D01*
X94154761Y-62595238D01*
X94059523Y-62690476D01*
X93964285Y-62738095D01*
X95833333Y-63452380D02*
X95500000Y-62976190D01*
X95261904Y-63452380D02*
X95261904Y-62452380D01*
X95642857Y-62452380D01*
X95738095Y-62500000D01*
X95785714Y-62547619D01*
X95833333Y-62642857D01*
X95833333Y-62785714D01*
X95785714Y-62880952D01*
X95738095Y-62928571D01*
X95642857Y-62976190D01*
X95261904Y-62976190D01*
X96785714Y-63452380D02*
X96214285Y-63452380D01*
X96500000Y-63452380D02*
X96500000Y-62452380D01*
X96404761Y-62595238D01*
X96309523Y-62690476D01*
X96214285Y-62738095D01*
D12*
X79916666Y-51622380D02*
X79916666Y-52336666D01*
X79869047Y-52479523D01*
X79773809Y-52574761D01*
X79630952Y-52622380D01*
X79535714Y-52622380D01*
X80916666Y-52622380D02*
X80345238Y-52622380D01*
X80630952Y-52622380D02*
X80630952Y-51622380D01*
X80535714Y-51765238D01*
X80440476Y-51860476D01*
X80345238Y-51908095D01*
X86166666Y-86202380D02*
X86166666Y-86916666D01*
X86119047Y-87059523D01*
X86023809Y-87154761D01*
X85880952Y-87202380D01*
X85785714Y-87202380D01*
X86595238Y-86297619D02*
X86642857Y-86250000D01*
X86738095Y-86202380D01*
X86976190Y-86202380D01*
X87071428Y-86250000D01*
X87119047Y-86297619D01*
X87166666Y-86392857D01*
X87166666Y-86488095D01*
X87119047Y-86630952D01*
X86547619Y-87202380D01*
X87166666Y-87202380D01*
D11*
X95833333Y-77452380D02*
X95500000Y-76976190D01*
X95261904Y-77452380D02*
X95261904Y-76452380D01*
X95642857Y-76452380D01*
X95738095Y-76500000D01*
X95785714Y-76547619D01*
X95833333Y-76642857D01*
X95833333Y-76785714D01*
X95785714Y-76880952D01*
X95738095Y-76928571D01*
X95642857Y-76976190D01*
X95261904Y-76976190D01*
X96785714Y-77452380D02*
X96214285Y-77452380D01*
X96500000Y-77452380D02*
X96500000Y-76452380D01*
X96404761Y-76595238D01*
X96309523Y-76690476D01*
X96214285Y-76738095D01*
D12*
X79916666Y-65622380D02*
X79916666Y-66336666D01*
X79869047Y-66479523D01*
X79773809Y-66574761D01*
X79630952Y-66622380D01*
X79535714Y-66622380D01*
X80916666Y-66622380D02*
X80345238Y-66622380D01*
X80630952Y-66622380D02*
X80630952Y-65622380D01*
X80535714Y-65765238D01*
X80440476Y-65860476D01*
X80345238Y-65908095D01*
D11*
X87333333Y-94607142D02*
X87285714Y-94654761D01*
X87142857Y-94702380D01*
X87047619Y-94702380D01*
X86904761Y-94654761D01*
X86809523Y-94559523D01*
X86761904Y-94464285D01*
X86714285Y-94273809D01*
X86714285Y-94130952D01*
X86761904Y-93940476D01*
X86809523Y-93845238D01*
X86904761Y-93750000D01*
X87047619Y-93702380D01*
X87142857Y-93702380D01*
X87285714Y-93750000D01*
X87333333Y-93797619D01*
X87666666Y-93702380D02*
X88285714Y-93702380D01*
X87952380Y-94083333D01*
X88095238Y-94083333D01*
X88190476Y-94130952D01*
X88238095Y-94178571D01*
X88285714Y-94273809D01*
X88285714Y-94511904D01*
X88238095Y-94607142D01*
X88190476Y-94654761D01*
X88095238Y-94702380D01*
X87809523Y-94702380D01*
X87714285Y-94654761D01*
X87666666Y-94607142D01*
X94583333Y-94607142D02*
X94535714Y-94654761D01*
X94392857Y-94702380D01*
X94297619Y-94702380D01*
X94154761Y-94654761D01*
X94059523Y-94559523D01*
X94011904Y-94464285D01*
X93964285Y-94273809D01*
X93964285Y-94130952D01*
X94011904Y-93940476D01*
X94059523Y-93845238D01*
X94154761Y-93750000D01*
X94297619Y-93702380D01*
X94392857Y-93702380D01*
X94535714Y-93750000D01*
X94583333Y-93797619D01*
X94964285Y-93797619D02*
X95011904Y-93750000D01*
X95107142Y-93702380D01*
X95345238Y-93702380D01*
X95440476Y-93750000D01*
X95488095Y-93797619D01*
X95535714Y-93892857D01*
X95535714Y-93988095D01*
X95488095Y-94130952D01*
X94916666Y-94702380D01*
X95535714Y-94702380D01*
X93011904Y-105452380D02*
X93011904Y-104452380D01*
X93250000Y-104452380D01*
X93392857Y-104500000D01*
X93488095Y-104595238D01*
X93535714Y-104690476D01*
X93583333Y-104880952D01*
X93583333Y-105023809D01*
X93535714Y-105214285D01*
X93488095Y-105309523D01*
X93392857Y-105404761D01*
X93250000Y-105452380D01*
X93011904Y-105452380D01*
X94535714Y-105452380D02*
X93964285Y-105452380D01*
X94250000Y-105452380D02*
X94250000Y-104452380D01*
X94154761Y-104595238D01*
X94059523Y-104690476D01*
X93964285Y-104738095D01*
D12*
X86166666Y-100202380D02*
X86166666Y-100916666D01*
X86119047Y-101059523D01*
X86023809Y-101154761D01*
X85880952Y-101202380D01*
X85785714Y-101202380D01*
X86595238Y-100297619D02*
X86642857Y-100250000D01*
X86738095Y-100202380D01*
X86976190Y-100202380D01*
X87071428Y-100250000D01*
X87119047Y-100297619D01*
X87166666Y-100392857D01*
X87166666Y-100488095D01*
X87119047Y-100630952D01*
X86547619Y-101202380D01*
X87166666Y-101202380D01*
D11*
X83357142Y-88666666D02*
X83404761Y-88714285D01*
X83452380Y-88857142D01*
X83452380Y-88952380D01*
X83404761Y-89095238D01*
X83309523Y-89190476D01*
X83214285Y-89238095D01*
X83023809Y-89285714D01*
X82880952Y-89285714D01*
X82690476Y-89238095D01*
X82595238Y-89190476D01*
X82500000Y-89095238D01*
X82452380Y-88952380D01*
X82452380Y-88857142D01*
X82500000Y-88714285D01*
X82547619Y-88666666D01*
X83452380Y-87714285D02*
X83452380Y-88285714D01*
X83452380Y-88000000D02*
X82452380Y-88000000D01*
X82595238Y-88095238D01*
X82690476Y-88190476D01*
X82738095Y-88285714D01*
X83357142Y-102666666D02*
X83404761Y-102714285D01*
X83452380Y-102857142D01*
X83452380Y-102952380D01*
X83404761Y-103095238D01*
X83309523Y-103190476D01*
X83214285Y-103238095D01*
X83023809Y-103285714D01*
X82880952Y-103285714D01*
X82690476Y-103238095D01*
X82595238Y-103190476D01*
X82500000Y-103095238D01*
X82452380Y-102952380D01*
X82452380Y-102857142D01*
X82500000Y-102714285D01*
X82547619Y-102666666D01*
X83452380Y-101714285D02*
X83452380Y-102285714D01*
X83452380Y-102000000D02*
X82452380Y-102000000D01*
X82595238Y-102095238D01*
X82690476Y-102190476D01*
X82738095Y-102285714D01*
X94583333Y-80607142D02*
X94535714Y-80654761D01*
X94392857Y-80702380D01*
X94297619Y-80702380D01*
X94154761Y-80654761D01*
X94059523Y-80559523D01*
X94011904Y-80464285D01*
X93964285Y-80273809D01*
X93964285Y-80130952D01*
X94011904Y-79940476D01*
X94059523Y-79845238D01*
X94154761Y-79750000D01*
X94297619Y-79702380D01*
X94392857Y-79702380D01*
X94535714Y-79750000D01*
X94583333Y-79797619D01*
X94964285Y-79797619D02*
X95011904Y-79750000D01*
X95107142Y-79702380D01*
X95345238Y-79702380D01*
X95440476Y-79750000D01*
X95488095Y-79797619D01*
X95535714Y-79892857D01*
X95535714Y-79988095D01*
X95488095Y-80130952D01*
X94916666Y-80702380D01*
X95535714Y-80702380D01*
X92238095Y-97452380D02*
X92238095Y-98261904D01*
X92285714Y-98357142D01*
X92333333Y-98404761D01*
X92428571Y-98452380D01*
X92619047Y-98452380D01*
X92714285Y-98404761D01*
X92761904Y-98357142D01*
X92809523Y-98261904D01*
X92809523Y-97452380D01*
X93809523Y-98452380D02*
X93238095Y-98452380D01*
X93523809Y-98452380D02*
X93523809Y-97452380D01*
X93428571Y-97595238D01*
X93333333Y-97690476D01*
X93238095Y-97738095D01*
D12*
X89844050Y-94003780D02*
X89844050Y-94241876D01*
X89605954Y-94146638D02*
X89844050Y-94241876D01*
X90082145Y-94146638D01*
X89701192Y-94432352D02*
X89844050Y-94241876D01*
X89986907Y-94432352D01*
X89844050Y-94003780D02*
X89844050Y-94241876D01*
X89605954Y-94146638D02*
X89844050Y-94241876D01*
X90082145Y-94146638D01*
X89701192Y-94432352D02*
X89844050Y-94241876D01*
X89986907Y-94432352D01*
D11*
X93011904Y-77452380D02*
X93011904Y-76452380D01*
X93250000Y-76452380D01*
X93392857Y-76500000D01*
X93488095Y-76595238D01*
X93535714Y-76690476D01*
X93583333Y-76880952D01*
X93583333Y-77023809D01*
X93535714Y-77214285D01*
X93488095Y-77309523D01*
X93392857Y-77404761D01*
X93250000Y-77452380D01*
X93011904Y-77452380D01*
X94535714Y-77452380D02*
X93964285Y-77452380D01*
X94250000Y-77452380D02*
X94250000Y-76452380D01*
X94154761Y-76595238D01*
X94059523Y-76690476D01*
X93964285Y-76738095D01*
X83738095Y-81702380D02*
X83738095Y-82511904D01*
X83785714Y-82607142D01*
X83833333Y-82654761D01*
X83928571Y-82702380D01*
X84119047Y-82702380D01*
X84214285Y-82654761D01*
X84261904Y-82607142D01*
X84309523Y-82511904D01*
X84309523Y-81702380D01*
X84738095Y-81797619D02*
X84785714Y-81750000D01*
X84880952Y-81702380D01*
X85119047Y-81702380D01*
X85214285Y-81750000D01*
X85261904Y-81797619D01*
X85309523Y-81892857D01*
X85309523Y-81988095D01*
X85261904Y-82130952D01*
X84690476Y-82702380D01*
X85309523Y-82702380D01*
X92238095Y-83452380D02*
X92238095Y-84261904D01*
X92285714Y-84357142D01*
X92333333Y-84404761D01*
X92428571Y-84452380D01*
X92619047Y-84452380D01*
X92714285Y-84404761D01*
X92761904Y-84357142D01*
X92809523Y-84261904D01*
X92809523Y-83452380D01*
X93809523Y-84452380D02*
X93238095Y-84452380D01*
X93523809Y-84452380D02*
X93523809Y-83452380D01*
X93428571Y-83595238D01*
X93333333Y-83690476D01*
X93238095Y-83738095D01*
D12*
X89844050Y-80003780D02*
X89844050Y-80241876D01*
X89605954Y-80146638D02*
X89844050Y-80241876D01*
X90082145Y-80146638D01*
X89701192Y-80432352D02*
X89844050Y-80241876D01*
X89986907Y-80432352D01*
X89844050Y-80003780D02*
X89844050Y-80241876D01*
X89605954Y-80146638D02*
X89844050Y-80241876D01*
X90082145Y-80146638D01*
X89701192Y-80432352D02*
X89844050Y-80241876D01*
X89986907Y-80432352D01*
D11*
X83738095Y-95702380D02*
X83738095Y-96511904D01*
X83785714Y-96607142D01*
X83833333Y-96654761D01*
X83928571Y-96702380D01*
X84119047Y-96702380D01*
X84214285Y-96654761D01*
X84261904Y-96607142D01*
X84309523Y-96511904D01*
X84309523Y-95702380D01*
X84738095Y-95797619D02*
X84785714Y-95750000D01*
X84880952Y-95702380D01*
X85119047Y-95702380D01*
X85214285Y-95750000D01*
X85261904Y-95797619D01*
X85309523Y-95892857D01*
X85309523Y-95988095D01*
X85261904Y-96130952D01*
X84690476Y-96702380D01*
X85309523Y-96702380D01*
X87333333Y-80607142D02*
X87285714Y-80654761D01*
X87142857Y-80702380D01*
X87047619Y-80702380D01*
X86904761Y-80654761D01*
X86809523Y-80559523D01*
X86761904Y-80464285D01*
X86714285Y-80273809D01*
X86714285Y-80130952D01*
X86761904Y-79940476D01*
X86809523Y-79845238D01*
X86904761Y-79750000D01*
X87047619Y-79702380D01*
X87142857Y-79702380D01*
X87285714Y-79750000D01*
X87333333Y-79797619D01*
X87666666Y-79702380D02*
X88285714Y-79702380D01*
X87952380Y-80083333D01*
X88095238Y-80083333D01*
X88190476Y-80130952D01*
X88238095Y-80178571D01*
X88285714Y-80273809D01*
X88285714Y-80511904D01*
X88238095Y-80607142D01*
X88190476Y-80654761D01*
X88095238Y-80702380D01*
X87809523Y-80702380D01*
X87714285Y-80654761D01*
X87666666Y-80607142D01*
X87333333Y-52607142D02*
X87285714Y-52654761D01*
X87142857Y-52702380D01*
X87047619Y-52702380D01*
X86904761Y-52654761D01*
X86809523Y-52559523D01*
X86761904Y-52464285D01*
X86714285Y-52273809D01*
X86714285Y-52130952D01*
X86761904Y-51940476D01*
X86809523Y-51845238D01*
X86904761Y-51750000D01*
X87047619Y-51702380D01*
X87142857Y-51702380D01*
X87285714Y-51750000D01*
X87333333Y-51797619D01*
X87666666Y-51702380D02*
X88285714Y-51702380D01*
X87952380Y-52083333D01*
X88095238Y-52083333D01*
X88190476Y-52130952D01*
X88238095Y-52178571D01*
X88285714Y-52273809D01*
X88285714Y-52511904D01*
X88238095Y-52607142D01*
X88190476Y-52654761D01*
X88095238Y-52702380D01*
X87809523Y-52702380D01*
X87714285Y-52654761D01*
X87666666Y-52607142D01*
X83738095Y-67702380D02*
X83738095Y-68511904D01*
X83785714Y-68607142D01*
X83833333Y-68654761D01*
X83928571Y-68702380D01*
X84119047Y-68702380D01*
X84214285Y-68654761D01*
X84261904Y-68607142D01*
X84309523Y-68511904D01*
X84309523Y-67702380D01*
X84738095Y-67797619D02*
X84785714Y-67750000D01*
X84880952Y-67702380D01*
X85119047Y-67702380D01*
X85214285Y-67750000D01*
X85261904Y-67797619D01*
X85309523Y-67892857D01*
X85309523Y-67988095D01*
X85261904Y-68130952D01*
X84690476Y-68702380D01*
X85309523Y-68702380D01*
X94583333Y-66607142D02*
X94535714Y-66654761D01*
X94392857Y-66702380D01*
X94297619Y-66702380D01*
X94154761Y-66654761D01*
X94059523Y-66559523D01*
X94011904Y-66464285D01*
X93964285Y-66273809D01*
X93964285Y-66130952D01*
X94011904Y-65940476D01*
X94059523Y-65845238D01*
X94154761Y-65750000D01*
X94297619Y-65702380D01*
X94392857Y-65702380D01*
X94535714Y-65750000D01*
X94583333Y-65797619D01*
X94964285Y-65797619D02*
X95011904Y-65750000D01*
X95107142Y-65702380D01*
X95345238Y-65702380D01*
X95440476Y-65750000D01*
X95488095Y-65797619D01*
X95535714Y-65892857D01*
X95535714Y-65988095D01*
X95488095Y-66130952D01*
X94916666Y-66702380D01*
X95535714Y-66702380D01*
X83357142Y-60666666D02*
X83404761Y-60714285D01*
X83452380Y-60857142D01*
X83452380Y-60952380D01*
X83404761Y-61095238D01*
X83309523Y-61190476D01*
X83214285Y-61238095D01*
X83023809Y-61285714D01*
X82880952Y-61285714D01*
X82690476Y-61238095D01*
X82595238Y-61190476D01*
X82500000Y-61095238D01*
X82452380Y-60952380D01*
X82452380Y-60857142D01*
X82500000Y-60714285D01*
X82547619Y-60666666D01*
X83452380Y-59714285D02*
X83452380Y-60285714D01*
X83452380Y-60000000D02*
X82452380Y-60000000D01*
X82595238Y-60095238D01*
X82690476Y-60190476D01*
X82738095Y-60285714D01*
X87333333Y-66607142D02*
X87285714Y-66654761D01*
X87142857Y-66702380D01*
X87047619Y-66702380D01*
X86904761Y-66654761D01*
X86809523Y-66559523D01*
X86761904Y-66464285D01*
X86714285Y-66273809D01*
X86714285Y-66130952D01*
X86761904Y-65940476D01*
X86809523Y-65845238D01*
X86904761Y-65750000D01*
X87047619Y-65702380D01*
X87142857Y-65702380D01*
X87285714Y-65750000D01*
X87333333Y-65797619D01*
X87666666Y-65702380D02*
X88285714Y-65702380D01*
X87952380Y-66083333D01*
X88095238Y-66083333D01*
X88190476Y-66130952D01*
X88238095Y-66178571D01*
X88285714Y-66273809D01*
X88285714Y-66511904D01*
X88238095Y-66607142D01*
X88190476Y-66654761D01*
X88095238Y-66702380D01*
X87809523Y-66702380D01*
X87714285Y-66654761D01*
X87666666Y-66607142D01*
X83357142Y-74666666D02*
X83404761Y-74714285D01*
X83452380Y-74857142D01*
X83452380Y-74952380D01*
X83404761Y-75095238D01*
X83309523Y-75190476D01*
X83214285Y-75238095D01*
X83023809Y-75285714D01*
X82880952Y-75285714D01*
X82690476Y-75238095D01*
X82595238Y-75190476D01*
X82500000Y-75095238D01*
X82452380Y-74952380D01*
X82452380Y-74857142D01*
X82500000Y-74714285D01*
X82547619Y-74666666D01*
X83452380Y-73714285D02*
X83452380Y-74285714D01*
X83452380Y-74000000D02*
X82452380Y-74000000D01*
X82595238Y-74095238D01*
X82690476Y-74190476D01*
X82738095Y-74285714D01*
X92238095Y-69452380D02*
X92238095Y-70261904D01*
X92285714Y-70357142D01*
X92333333Y-70404761D01*
X92428571Y-70452380D01*
X92619047Y-70452380D01*
X92714285Y-70404761D01*
X92761904Y-70357142D01*
X92809523Y-70261904D01*
X92809523Y-69452380D01*
X93809523Y-70452380D02*
X93238095Y-70452380D01*
X93523809Y-70452380D02*
X93523809Y-69452380D01*
X93428571Y-69595238D01*
X93333333Y-69690476D01*
X93238095Y-69738095D01*
D12*
X89844050Y-66003780D02*
X89844050Y-66241876D01*
X89605954Y-66146638D02*
X89844050Y-66241876D01*
X90082145Y-66146638D01*
X89701192Y-66432352D02*
X89844050Y-66241876D01*
X89986907Y-66432352D01*
X89844050Y-66003780D02*
X89844050Y-66241876D01*
X89605954Y-66146638D02*
X89844050Y-66241876D01*
X90082145Y-66146638D01*
X89701192Y-66432352D02*
X89844050Y-66241876D01*
X89986907Y-66432352D01*
X86166666Y-72202380D02*
X86166666Y-72916666D01*
X86119047Y-73059523D01*
X86023809Y-73154761D01*
X85880952Y-73202380D01*
X85785714Y-73202380D01*
X86595238Y-72297619D02*
X86642857Y-72250000D01*
X86738095Y-72202380D01*
X86976190Y-72202380D01*
X87071428Y-72250000D01*
X87119047Y-72297619D01*
X87166666Y-72392857D01*
X87166666Y-72488095D01*
X87119047Y-72630952D01*
X86547619Y-73202380D01*
X87166666Y-73202380D01*
D11*
X94583333Y-52607142D02*
X94535714Y-52654761D01*
X94392857Y-52702380D01*
X94297619Y-52702380D01*
X94154761Y-52654761D01*
X94059523Y-52559523D01*
X94011904Y-52464285D01*
X93964285Y-52273809D01*
X93964285Y-52130952D01*
X94011904Y-51940476D01*
X94059523Y-51845238D01*
X94154761Y-51750000D01*
X94297619Y-51702380D01*
X94392857Y-51702380D01*
X94535714Y-51750000D01*
X94583333Y-51797619D01*
X94964285Y-51797619D02*
X95011904Y-51750000D01*
X95107142Y-51702380D01*
X95345238Y-51702380D01*
X95440476Y-51750000D01*
X95488095Y-51797619D01*
X95535714Y-51892857D01*
X95535714Y-51988095D01*
X95488095Y-52130952D01*
X94916666Y-52702380D01*
X95535714Y-52702380D01*
X93011904Y-91452380D02*
X93011904Y-90452380D01*
X93250000Y-90452380D01*
X93392857Y-90500000D01*
X93488095Y-90595238D01*
X93535714Y-90690476D01*
X93583333Y-90880952D01*
X93583333Y-91023809D01*
X93535714Y-91214285D01*
X93488095Y-91309523D01*
X93392857Y-91404761D01*
X93250000Y-91452380D01*
X93011904Y-91452380D01*
X94535714Y-91452380D02*
X93964285Y-91452380D01*
X94250000Y-91452380D02*
X94250000Y-90452380D01*
X94154761Y-90595238D01*
X94059523Y-90690476D01*
X93964285Y-90738095D01*
D12*
X79916666Y-79622380D02*
X79916666Y-80336666D01*
X79869047Y-80479523D01*
X79773809Y-80574761D01*
X79630952Y-80622380D01*
X79535714Y-80622380D01*
X80916666Y-80622380D02*
X80345238Y-80622380D01*
X80630952Y-80622380D02*
X80630952Y-79622380D01*
X80535714Y-79765238D01*
X80440476Y-79860476D01*
X80345238Y-79908095D01*
X79916666Y-93622380D02*
X79916666Y-94336666D01*
X79869047Y-94479523D01*
X79773809Y-94574761D01*
X79630952Y-94622380D01*
X79535714Y-94622380D01*
X80916666Y-94622380D02*
X80345238Y-94622380D01*
X80630952Y-94622380D02*
X80630952Y-93622380D01*
X80535714Y-93765238D01*
X80440476Y-93860476D01*
X80345238Y-93908095D01*
D11*
X95833333Y-91452380D02*
X95500000Y-90976190D01*
X95261904Y-91452380D02*
X95261904Y-90452380D01*
X95642857Y-90452380D01*
X95738095Y-90500000D01*
X95785714Y-90547619D01*
X95833333Y-90642857D01*
X95833333Y-90785714D01*
X95785714Y-90880952D01*
X95738095Y-90928571D01*
X95642857Y-90976190D01*
X95261904Y-90976190D01*
X96785714Y-91452380D02*
X96214285Y-91452380D01*
X96500000Y-91452380D02*
X96500000Y-90452380D01*
X96404761Y-90595238D01*
X96309523Y-90690476D01*
X96214285Y-90738095D01*
X95833333Y-105452380D02*
X95500000Y-104976190D01*
X95261904Y-105452380D02*
X95261904Y-104452380D01*
X95642857Y-104452380D01*
X95738095Y-104500000D01*
X95785714Y-104547619D01*
X95833333Y-104642857D01*
X95833333Y-104785714D01*
X95785714Y-104880952D01*
X95738095Y-104928571D01*
X95642857Y-104976190D01*
X95261904Y-104976190D01*
X96785714Y-105452380D02*
X96214285Y-105452380D01*
X96500000Y-105452380D02*
X96500000Y-104452380D01*
X96404761Y-104595238D01*
X96309523Y-104690476D01*
X96214285Y-104738095D01*
X83738095Y-53702380D02*
X83738095Y-54511904D01*
X83785714Y-54607142D01*
X83833333Y-54654761D01*
X83928571Y-54702380D01*
X84119047Y-54702380D01*
X84214285Y-54654761D01*
X84261904Y-54607142D01*
X84309523Y-54511904D01*
X84309523Y-53702380D01*
X84738095Y-53797619D02*
X84785714Y-53750000D01*
X84880952Y-53702380D01*
X85119047Y-53702380D01*
X85214285Y-53750000D01*
X85261904Y-53797619D01*
X85309523Y-53892857D01*
X85309523Y-53988095D01*
X85261904Y-54130952D01*
X84690476Y-54702380D01*
X85309523Y-54702380D01*
X92238095Y-55452380D02*
X92238095Y-56261904D01*
X92285714Y-56357142D01*
X92333333Y-56404761D01*
X92428571Y-56452380D01*
X92619047Y-56452380D01*
X92714285Y-56404761D01*
X92761904Y-56357142D01*
X92809523Y-56261904D01*
X92809523Y-55452380D01*
X93809523Y-56452380D02*
X93238095Y-56452380D01*
X93523809Y-56452380D02*
X93523809Y-55452380D01*
X93428571Y-55595238D01*
X93333333Y-55690476D01*
X93238095Y-55738095D01*
D12*
X89844050Y-52003780D02*
X89844050Y-52241876D01*
X89605954Y-52146638D02*
X89844050Y-52241876D01*
X90082145Y-52146638D01*
X89701192Y-52432352D02*
X89844050Y-52241876D01*
X89986907Y-52432352D01*
X89844050Y-52003780D02*
X89844050Y-52241876D01*
X89605954Y-52146638D02*
X89844050Y-52241876D01*
X90082145Y-52146638D01*
X89701192Y-52432352D02*
X89844050Y-52241876D01*
X89986907Y-52432352D01*
X86166666Y-58202380D02*
X86166666Y-58916666D01*
X86119047Y-59059523D01*
X86023809Y-59154761D01*
X85880952Y-59202380D01*
X85785714Y-59202380D01*
X86595238Y-58297619D02*
X86642857Y-58250000D01*
X86738095Y-58202380D01*
X86976190Y-58202380D01*
X87071428Y-58250000D01*
X87119047Y-58297619D01*
X87166666Y-58392857D01*
X87166666Y-58488095D01*
X87119047Y-58630952D01*
X86547619Y-59202380D01*
X87166666Y-59202380D01*
D11*
X65261904Y-91452380D02*
X65261904Y-90452380D01*
X65500000Y-90452380D01*
X65642857Y-90500000D01*
X65738095Y-90595238D01*
X65785714Y-90690476D01*
X65833333Y-90880952D01*
X65833333Y-91023809D01*
X65785714Y-91214285D01*
X65738095Y-91309523D01*
X65642857Y-91404761D01*
X65500000Y-91452380D01*
X65261904Y-91452380D01*
X66785714Y-91452380D02*
X66214285Y-91452380D01*
X66500000Y-91452380D02*
X66500000Y-90452380D01*
X66404761Y-90595238D01*
X66309523Y-90690476D01*
X66214285Y-90738095D01*
X68083333Y-91452380D02*
X67750000Y-90976190D01*
X67511904Y-91452380D02*
X67511904Y-90452380D01*
X67892857Y-90452380D01*
X67988095Y-90500000D01*
X68035714Y-90547619D01*
X68083333Y-90642857D01*
X68083333Y-90785714D01*
X68035714Y-90880952D01*
X67988095Y-90928571D01*
X67892857Y-90976190D01*
X67511904Y-90976190D01*
X69035714Y-91452380D02*
X68464285Y-91452380D01*
X68750000Y-91452380D02*
X68750000Y-90452380D01*
X68654761Y-90595238D01*
X68559523Y-90690476D01*
X68464285Y-90738095D01*
D12*
X52166666Y-79622380D02*
X52166666Y-80336666D01*
X52119047Y-80479523D01*
X52023809Y-80574761D01*
X51880952Y-80622380D01*
X51785714Y-80622380D01*
X53166666Y-80622380D02*
X52595238Y-80622380D01*
X52880952Y-80622380D02*
X52880952Y-79622380D01*
X52785714Y-79765238D01*
X52690476Y-79860476D01*
X52595238Y-79908095D01*
D11*
X68083333Y-105452380D02*
X67750000Y-104976190D01*
X67511904Y-105452380D02*
X67511904Y-104452380D01*
X67892857Y-104452380D01*
X67988095Y-104500000D01*
X68035714Y-104547619D01*
X68083333Y-104642857D01*
X68083333Y-104785714D01*
X68035714Y-104880952D01*
X67988095Y-104928571D01*
X67892857Y-104976190D01*
X67511904Y-104976190D01*
X69035714Y-105452380D02*
X68464285Y-105452380D01*
X68750000Y-105452380D02*
X68750000Y-104452380D01*
X68654761Y-104595238D01*
X68559523Y-104690476D01*
X68464285Y-104738095D01*
D12*
X52166666Y-93622380D02*
X52166666Y-94336666D01*
X52119047Y-94479523D01*
X52023809Y-94574761D01*
X51880952Y-94622380D01*
X51785714Y-94622380D01*
X53166666Y-94622380D02*
X52595238Y-94622380D01*
X52880952Y-94622380D02*
X52880952Y-93622380D01*
X52785714Y-93765238D01*
X52690476Y-93860476D01*
X52595238Y-93908095D01*
D11*
X65261904Y-105452380D02*
X65261904Y-104452380D01*
X65500000Y-104452380D01*
X65642857Y-104500000D01*
X65738095Y-104595238D01*
X65785714Y-104690476D01*
X65833333Y-104880952D01*
X65833333Y-105023809D01*
X65785714Y-105214285D01*
X65738095Y-105309523D01*
X65642857Y-105404761D01*
X65500000Y-105452380D01*
X65261904Y-105452380D01*
X66785714Y-105452380D02*
X66214285Y-105452380D01*
X66500000Y-105452380D02*
X66500000Y-104452380D01*
X66404761Y-104595238D01*
X66309523Y-104690476D01*
X66214285Y-104738095D01*
X59583333Y-80607142D02*
X59535714Y-80654761D01*
X59392857Y-80702380D01*
X59297619Y-80702380D01*
X59154761Y-80654761D01*
X59059523Y-80559523D01*
X59011904Y-80464285D01*
X58964285Y-80273809D01*
X58964285Y-80130952D01*
X59011904Y-79940476D01*
X59059523Y-79845238D01*
X59154761Y-79750000D01*
X59297619Y-79702380D01*
X59392857Y-79702380D01*
X59535714Y-79750000D01*
X59583333Y-79797619D01*
X59916666Y-79702380D02*
X60535714Y-79702380D01*
X60202380Y-80083333D01*
X60345238Y-80083333D01*
X60440476Y-80130952D01*
X60488095Y-80178571D01*
X60535714Y-80273809D01*
X60535714Y-80511904D01*
X60488095Y-80607142D01*
X60440476Y-80654761D01*
X60345238Y-80702380D01*
X60059523Y-80702380D01*
X59964285Y-80654761D01*
X59916666Y-80607142D01*
X55988095Y-95702380D02*
X55988095Y-96511904D01*
X56035714Y-96607142D01*
X56083333Y-96654761D01*
X56178571Y-96702380D01*
X56369047Y-96702380D01*
X56464285Y-96654761D01*
X56511904Y-96607142D01*
X56559523Y-96511904D01*
X56559523Y-95702380D01*
X56988095Y-95797619D02*
X57035714Y-95750000D01*
X57130952Y-95702380D01*
X57369047Y-95702380D01*
X57464285Y-95750000D01*
X57511904Y-95797619D01*
X57559523Y-95892857D01*
X57559523Y-95988095D01*
X57511904Y-96130952D01*
X56940476Y-96702380D01*
X57559523Y-96702380D01*
X66833333Y-94607142D02*
X66785714Y-94654761D01*
X66642857Y-94702380D01*
X66547619Y-94702380D01*
X66404761Y-94654761D01*
X66309523Y-94559523D01*
X66261904Y-94464285D01*
X66214285Y-94273809D01*
X66214285Y-94130952D01*
X66261904Y-93940476D01*
X66309523Y-93845238D01*
X66404761Y-93750000D01*
X66547619Y-93702380D01*
X66642857Y-93702380D01*
X66785714Y-93750000D01*
X66833333Y-93797619D01*
X67214285Y-93797619D02*
X67261904Y-93750000D01*
X67357142Y-93702380D01*
X67595238Y-93702380D01*
X67690476Y-93750000D01*
X67738095Y-93797619D01*
X67785714Y-93892857D01*
X67785714Y-93988095D01*
X67738095Y-94130952D01*
X67166666Y-94702380D01*
X67785714Y-94702380D01*
X55607142Y-88666666D02*
X55654761Y-88714285D01*
X55702380Y-88857142D01*
X55702380Y-88952380D01*
X55654761Y-89095238D01*
X55559523Y-89190476D01*
X55464285Y-89238095D01*
X55273809Y-89285714D01*
X55130952Y-89285714D01*
X54940476Y-89238095D01*
X54845238Y-89190476D01*
X54750000Y-89095238D01*
X54702380Y-88952380D01*
X54702380Y-88857142D01*
X54750000Y-88714285D01*
X54797619Y-88666666D01*
X55702380Y-87714285D02*
X55702380Y-88285714D01*
X55702380Y-88000000D02*
X54702380Y-88000000D01*
X54845238Y-88095238D01*
X54940476Y-88190476D01*
X54988095Y-88285714D01*
X59583333Y-94607142D02*
X59535714Y-94654761D01*
X59392857Y-94702380D01*
X59297619Y-94702380D01*
X59154761Y-94654761D01*
X59059523Y-94559523D01*
X59011904Y-94464285D01*
X58964285Y-94273809D01*
X58964285Y-94130952D01*
X59011904Y-93940476D01*
X59059523Y-93845238D01*
X59154761Y-93750000D01*
X59297619Y-93702380D01*
X59392857Y-93702380D01*
X59535714Y-93750000D01*
X59583333Y-93797619D01*
X59916666Y-93702380D02*
X60535714Y-93702380D01*
X60202380Y-94083333D01*
X60345238Y-94083333D01*
X60440476Y-94130952D01*
X60488095Y-94178571D01*
X60535714Y-94273809D01*
X60535714Y-94511904D01*
X60488095Y-94607142D01*
X60440476Y-94654761D01*
X60345238Y-94702380D01*
X60059523Y-94702380D01*
X59964285Y-94654761D01*
X59916666Y-94607142D01*
X55607142Y-102666666D02*
X55654761Y-102714285D01*
X55702380Y-102857142D01*
X55702380Y-102952380D01*
X55654761Y-103095238D01*
X55559523Y-103190476D01*
X55464285Y-103238095D01*
X55273809Y-103285714D01*
X55130952Y-103285714D01*
X54940476Y-103238095D01*
X54845238Y-103190476D01*
X54750000Y-103095238D01*
X54702380Y-102952380D01*
X54702380Y-102857142D01*
X54750000Y-102714285D01*
X54797619Y-102666666D01*
X55702380Y-101714285D02*
X55702380Y-102285714D01*
X55702380Y-102000000D02*
X54702380Y-102000000D01*
X54845238Y-102095238D01*
X54940476Y-102190476D01*
X54988095Y-102285714D01*
X64488095Y-97452380D02*
X64488095Y-98261904D01*
X64535714Y-98357142D01*
X64583333Y-98404761D01*
X64678571Y-98452380D01*
X64869047Y-98452380D01*
X64964285Y-98404761D01*
X65011904Y-98357142D01*
X65059523Y-98261904D01*
X65059523Y-97452380D01*
X66059523Y-98452380D02*
X65488095Y-98452380D01*
X65773809Y-98452380D02*
X65773809Y-97452380D01*
X65678571Y-97595238D01*
X65583333Y-97690476D01*
X65488095Y-97738095D01*
D12*
X62094050Y-94003780D02*
X62094050Y-94241876D01*
X61855954Y-94146638D02*
X62094050Y-94241876D01*
X62332145Y-94146638D01*
X61951192Y-94432352D02*
X62094050Y-94241876D01*
X62236907Y-94432352D01*
X62094050Y-94003780D02*
X62094050Y-94241876D01*
X61855954Y-94146638D02*
X62094050Y-94241876D01*
X62332145Y-94146638D01*
X61951192Y-94432352D02*
X62094050Y-94241876D01*
X62236907Y-94432352D01*
X58416666Y-100202380D02*
X58416666Y-100916666D01*
X58369047Y-101059523D01*
X58273809Y-101154761D01*
X58130952Y-101202380D01*
X58035714Y-101202380D01*
X58845238Y-100297619D02*
X58892857Y-100250000D01*
X58988095Y-100202380D01*
X59226190Y-100202380D01*
X59321428Y-100250000D01*
X59369047Y-100297619D01*
X59416666Y-100392857D01*
X59416666Y-100488095D01*
X59369047Y-100630952D01*
X58797619Y-101202380D01*
X59416666Y-101202380D01*
D11*
X66833333Y-80607142D02*
X66785714Y-80654761D01*
X66642857Y-80702380D01*
X66547619Y-80702380D01*
X66404761Y-80654761D01*
X66309523Y-80559523D01*
X66261904Y-80464285D01*
X66214285Y-80273809D01*
X66214285Y-80130952D01*
X66261904Y-79940476D01*
X66309523Y-79845238D01*
X66404761Y-79750000D01*
X66547619Y-79702380D01*
X66642857Y-79702380D01*
X66785714Y-79750000D01*
X66833333Y-79797619D01*
X67214285Y-79797619D02*
X67261904Y-79750000D01*
X67357142Y-79702380D01*
X67595238Y-79702380D01*
X67690476Y-79750000D01*
X67738095Y-79797619D01*
X67785714Y-79892857D01*
X67785714Y-79988095D01*
X67738095Y-80130952D01*
X67166666Y-80702380D01*
X67785714Y-80702380D01*
X55988095Y-81702380D02*
X55988095Y-82511904D01*
X56035714Y-82607142D01*
X56083333Y-82654761D01*
X56178571Y-82702380D01*
X56369047Y-82702380D01*
X56464285Y-82654761D01*
X56511904Y-82607142D01*
X56559523Y-82511904D01*
X56559523Y-81702380D01*
X56988095Y-81797619D02*
X57035714Y-81750000D01*
X57130952Y-81702380D01*
X57369047Y-81702380D01*
X57464285Y-81750000D01*
X57511904Y-81797619D01*
X57559523Y-81892857D01*
X57559523Y-81988095D01*
X57511904Y-82130952D01*
X56940476Y-82702380D01*
X57559523Y-82702380D01*
X64488095Y-83452380D02*
X64488095Y-84261904D01*
X64535714Y-84357142D01*
X64583333Y-84404761D01*
X64678571Y-84452380D01*
X64869047Y-84452380D01*
X64964285Y-84404761D01*
X65011904Y-84357142D01*
X65059523Y-84261904D01*
X65059523Y-83452380D01*
X66059523Y-84452380D02*
X65488095Y-84452380D01*
X65773809Y-84452380D02*
X65773809Y-83452380D01*
X65678571Y-83595238D01*
X65583333Y-83690476D01*
X65488095Y-83738095D01*
D12*
X62094050Y-80003780D02*
X62094050Y-80241876D01*
X61855954Y-80146638D02*
X62094050Y-80241876D01*
X62332145Y-80146638D01*
X61951192Y-80432352D02*
X62094050Y-80241876D01*
X62236907Y-80432352D01*
X62094050Y-80003780D02*
X62094050Y-80241876D01*
X61855954Y-80146638D02*
X62094050Y-80241876D01*
X62332145Y-80146638D01*
X61951192Y-80432352D02*
X62094050Y-80241876D01*
X62236907Y-80432352D01*
X58416666Y-86202380D02*
X58416666Y-86916666D01*
X58369047Y-87059523D01*
X58273809Y-87154761D01*
X58130952Y-87202380D01*
X58035714Y-87202380D01*
X58845238Y-86297619D02*
X58892857Y-86250000D01*
X58988095Y-86202380D01*
X59226190Y-86202380D01*
X59321428Y-86250000D01*
X59369047Y-86297619D01*
X59416666Y-86392857D01*
X59416666Y-86488095D01*
X59369047Y-86630952D01*
X58797619Y-87202380D01*
X59416666Y-87202380D01*
D11*
X65261904Y-77452380D02*
X65261904Y-76452380D01*
X65500000Y-76452380D01*
X65642857Y-76500000D01*
X65738095Y-76595238D01*
X65785714Y-76690476D01*
X65833333Y-76880952D01*
X65833333Y-77023809D01*
X65785714Y-77214285D01*
X65738095Y-77309523D01*
X65642857Y-77404761D01*
X65500000Y-77452380D01*
X65261904Y-77452380D01*
X66785714Y-77452380D02*
X66214285Y-77452380D01*
X66500000Y-77452380D02*
X66500000Y-76452380D01*
X66404761Y-76595238D01*
X66309523Y-76690476D01*
X66214285Y-76738095D01*
X68083333Y-77452380D02*
X67750000Y-76976190D01*
X67511904Y-77452380D02*
X67511904Y-76452380D01*
X67892857Y-76452380D01*
X67988095Y-76500000D01*
X68035714Y-76547619D01*
X68083333Y-76642857D01*
X68083333Y-76785714D01*
X68035714Y-76880952D01*
X67988095Y-76928571D01*
X67892857Y-76976190D01*
X67511904Y-76976190D01*
X69035714Y-77452380D02*
X68464285Y-77452380D01*
X68750000Y-77452380D02*
X68750000Y-76452380D01*
X68654761Y-76595238D01*
X68559523Y-76690476D01*
X68464285Y-76738095D01*
D12*
X52166666Y-65622380D02*
X52166666Y-66336666D01*
X52119047Y-66479523D01*
X52023809Y-66574761D01*
X51880952Y-66622380D01*
X51785714Y-66622380D01*
X53166666Y-66622380D02*
X52595238Y-66622380D01*
X52880952Y-66622380D02*
X52880952Y-65622380D01*
X52785714Y-65765238D01*
X52690476Y-65860476D01*
X52595238Y-65908095D01*
D11*
X59583333Y-66607142D02*
X59535714Y-66654761D01*
X59392857Y-66702380D01*
X59297619Y-66702380D01*
X59154761Y-66654761D01*
X59059523Y-66559523D01*
X59011904Y-66464285D01*
X58964285Y-66273809D01*
X58964285Y-66130952D01*
X59011904Y-65940476D01*
X59059523Y-65845238D01*
X59154761Y-65750000D01*
X59297619Y-65702380D01*
X59392857Y-65702380D01*
X59535714Y-65750000D01*
X59583333Y-65797619D01*
X59916666Y-65702380D02*
X60535714Y-65702380D01*
X60202380Y-66083333D01*
X60345238Y-66083333D01*
X60440476Y-66130952D01*
X60488095Y-66178571D01*
X60535714Y-66273809D01*
X60535714Y-66511904D01*
X60488095Y-66607142D01*
X60440476Y-66654761D01*
X60345238Y-66702380D01*
X60059523Y-66702380D01*
X59964285Y-66654761D01*
X59916666Y-66607142D01*
X55607142Y-74666666D02*
X55654761Y-74714285D01*
X55702380Y-74857142D01*
X55702380Y-74952380D01*
X55654761Y-75095238D01*
X55559523Y-75190476D01*
X55464285Y-75238095D01*
X55273809Y-75285714D01*
X55130952Y-75285714D01*
X54940476Y-75238095D01*
X54845238Y-75190476D01*
X54750000Y-75095238D01*
X54702380Y-74952380D01*
X54702380Y-74857142D01*
X54750000Y-74714285D01*
X54797619Y-74666666D01*
X55702380Y-73714285D02*
X55702380Y-74285714D01*
X55702380Y-74000000D02*
X54702380Y-74000000D01*
X54845238Y-74095238D01*
X54940476Y-74190476D01*
X54988095Y-74285714D01*
X66833333Y-66607142D02*
X66785714Y-66654761D01*
X66642857Y-66702380D01*
X66547619Y-66702380D01*
X66404761Y-66654761D01*
X66309523Y-66559523D01*
X66261904Y-66464285D01*
X66214285Y-66273809D01*
X66214285Y-66130952D01*
X66261904Y-65940476D01*
X66309523Y-65845238D01*
X66404761Y-65750000D01*
X66547619Y-65702380D01*
X66642857Y-65702380D01*
X66785714Y-65750000D01*
X66833333Y-65797619D01*
X67214285Y-65797619D02*
X67261904Y-65750000D01*
X67357142Y-65702380D01*
X67595238Y-65702380D01*
X67690476Y-65750000D01*
X67738095Y-65797619D01*
X67785714Y-65892857D01*
X67785714Y-65988095D01*
X67738095Y-66130952D01*
X67166666Y-66702380D01*
X67785714Y-66702380D01*
X55988095Y-67702380D02*
X55988095Y-68511904D01*
X56035714Y-68607142D01*
X56083333Y-68654761D01*
X56178571Y-68702380D01*
X56369047Y-68702380D01*
X56464285Y-68654761D01*
X56511904Y-68607142D01*
X56559523Y-68511904D01*
X56559523Y-67702380D01*
X56988095Y-67797619D02*
X57035714Y-67750000D01*
X57130952Y-67702380D01*
X57369047Y-67702380D01*
X57464285Y-67750000D01*
X57511904Y-67797619D01*
X57559523Y-67892857D01*
X57559523Y-67988095D01*
X57511904Y-68130952D01*
X56940476Y-68702380D01*
X57559523Y-68702380D01*
X64488095Y-69452380D02*
X64488095Y-70261904D01*
X64535714Y-70357142D01*
X64583333Y-70404761D01*
X64678571Y-70452380D01*
X64869047Y-70452380D01*
X64964285Y-70404761D01*
X65011904Y-70357142D01*
X65059523Y-70261904D01*
X65059523Y-69452380D01*
X66059523Y-70452380D02*
X65488095Y-70452380D01*
X65773809Y-70452380D02*
X65773809Y-69452380D01*
X65678571Y-69595238D01*
X65583333Y-69690476D01*
X65488095Y-69738095D01*
D12*
X62094050Y-66003780D02*
X62094050Y-66241876D01*
X61855954Y-66146638D02*
X62094050Y-66241876D01*
X62332145Y-66146638D01*
X61951192Y-66432352D02*
X62094050Y-66241876D01*
X62236907Y-66432352D01*
X62094050Y-66003780D02*
X62094050Y-66241876D01*
X61855954Y-66146638D02*
X62094050Y-66241876D01*
X62332145Y-66146638D01*
X61951192Y-66432352D02*
X62094050Y-66241876D01*
X62236907Y-66432352D01*
X58416666Y-72202380D02*
X58416666Y-72916666D01*
X58369047Y-73059523D01*
X58273809Y-73154761D01*
X58130952Y-73202380D01*
X58035714Y-73202380D01*
X58845238Y-72297619D02*
X58892857Y-72250000D01*
X58988095Y-72202380D01*
X59226190Y-72202380D01*
X59321428Y-72250000D01*
X59369047Y-72297619D01*
X59416666Y-72392857D01*
X59416666Y-72488095D01*
X59369047Y-72630952D01*
X58797619Y-73202380D01*
X59416666Y-73202380D01*
X58416666Y-58202380D02*
X58416666Y-58916666D01*
X58369047Y-59059523D01*
X58273809Y-59154761D01*
X58130952Y-59202380D01*
X58035714Y-59202380D01*
X58845238Y-58297619D02*
X58892857Y-58250000D01*
X58988095Y-58202380D01*
X59226190Y-58202380D01*
X59321428Y-58250000D01*
X59369047Y-58297619D01*
X59416666Y-58392857D01*
X59416666Y-58488095D01*
X59369047Y-58630952D01*
X58797619Y-59202380D01*
X59416666Y-59202380D01*
X52166666Y-51622380D02*
X52166666Y-52336666D01*
X52119047Y-52479523D01*
X52023809Y-52574761D01*
X51880952Y-52622380D01*
X51785714Y-52622380D01*
X53166666Y-52622380D02*
X52595238Y-52622380D01*
X52880952Y-52622380D02*
X52880952Y-51622380D01*
X52785714Y-51765238D01*
X52690476Y-51860476D01*
X52595238Y-51908095D01*
D11*
X64488095Y-55452380D02*
X64488095Y-56261904D01*
X64535714Y-56357142D01*
X64583333Y-56404761D01*
X64678571Y-56452380D01*
X64869047Y-56452380D01*
X64964285Y-56404761D01*
X65011904Y-56357142D01*
X65059523Y-56261904D01*
X65059523Y-55452380D01*
X66059523Y-56452380D02*
X65488095Y-56452380D01*
X65773809Y-56452380D02*
X65773809Y-55452380D01*
X65678571Y-55595238D01*
X65583333Y-55690476D01*
X65488095Y-55738095D01*
D12*
X62094050Y-52003780D02*
X62094050Y-52241876D01*
X61855954Y-52146638D02*
X62094050Y-52241876D01*
X62332145Y-52146638D01*
X61951192Y-52432352D02*
X62094050Y-52241876D01*
X62236907Y-52432352D01*
X62094050Y-52003780D02*
X62094050Y-52241876D01*
X61855954Y-52146638D02*
X62094050Y-52241876D01*
X62332145Y-52146638D01*
X61951192Y-52432352D02*
X62094050Y-52241876D01*
X62236907Y-52432352D01*
D11*
X55988095Y-53702380D02*
X55988095Y-54511904D01*
X56035714Y-54607142D01*
X56083333Y-54654761D01*
X56178571Y-54702380D01*
X56369047Y-54702380D01*
X56464285Y-54654761D01*
X56511904Y-54607142D01*
X56559523Y-54511904D01*
X56559523Y-53702380D01*
X56988095Y-53797619D02*
X57035714Y-53750000D01*
X57130952Y-53702380D01*
X57369047Y-53702380D01*
X57464285Y-53750000D01*
X57511904Y-53797619D01*
X57559523Y-53892857D01*
X57559523Y-53988095D01*
X57511904Y-54130952D01*
X56940476Y-54702380D01*
X57559523Y-54702380D01*
X68083333Y-63452380D02*
X67750000Y-62976190D01*
X67511904Y-63452380D02*
X67511904Y-62452380D01*
X67892857Y-62452380D01*
X67988095Y-62500000D01*
X68035714Y-62547619D01*
X68083333Y-62642857D01*
X68083333Y-62785714D01*
X68035714Y-62880952D01*
X67988095Y-62928571D01*
X67892857Y-62976190D01*
X67511904Y-62976190D01*
X69035714Y-63452380D02*
X68464285Y-63452380D01*
X68750000Y-63452380D02*
X68750000Y-62452380D01*
X68654761Y-62595238D01*
X68559523Y-62690476D01*
X68464285Y-62738095D01*
X65261904Y-63452380D02*
X65261904Y-62452380D01*
X65500000Y-62452380D01*
X65642857Y-62500000D01*
X65738095Y-62595238D01*
X65785714Y-62690476D01*
X65833333Y-62880952D01*
X65833333Y-63023809D01*
X65785714Y-63214285D01*
X65738095Y-63309523D01*
X65642857Y-63404761D01*
X65500000Y-63452380D01*
X65261904Y-63452380D01*
X66785714Y-63452380D02*
X66214285Y-63452380D01*
X66500000Y-63452380D02*
X66500000Y-62452380D01*
X66404761Y-62595238D01*
X66309523Y-62690476D01*
X66214285Y-62738095D01*
X59583333Y-52607142D02*
X59535714Y-52654761D01*
X59392857Y-52702380D01*
X59297619Y-52702380D01*
X59154761Y-52654761D01*
X59059523Y-52559523D01*
X59011904Y-52464285D01*
X58964285Y-52273809D01*
X58964285Y-52130952D01*
X59011904Y-51940476D01*
X59059523Y-51845238D01*
X59154761Y-51750000D01*
X59297619Y-51702380D01*
X59392857Y-51702380D01*
X59535714Y-51750000D01*
X59583333Y-51797619D01*
X59916666Y-51702380D02*
X60535714Y-51702380D01*
X60202380Y-52083333D01*
X60345238Y-52083333D01*
X60440476Y-52130952D01*
X60488095Y-52178571D01*
X60535714Y-52273809D01*
X60535714Y-52511904D01*
X60488095Y-52607142D01*
X60440476Y-52654761D01*
X60345238Y-52702380D01*
X60059523Y-52702380D01*
X59964285Y-52654761D01*
X59916666Y-52607142D01*
X66833333Y-52607142D02*
X66785714Y-52654761D01*
X66642857Y-52702380D01*
X66547619Y-52702380D01*
X66404761Y-52654761D01*
X66309523Y-52559523D01*
X66261904Y-52464285D01*
X66214285Y-52273809D01*
X66214285Y-52130952D01*
X66261904Y-51940476D01*
X66309523Y-51845238D01*
X66404761Y-51750000D01*
X66547619Y-51702380D01*
X66642857Y-51702380D01*
X66785714Y-51750000D01*
X66833333Y-51797619D01*
X67214285Y-51797619D02*
X67261904Y-51750000D01*
X67357142Y-51702380D01*
X67595238Y-51702380D01*
X67690476Y-51750000D01*
X67738095Y-51797619D01*
X67785714Y-51892857D01*
X67785714Y-51988095D01*
X67738095Y-52130952D01*
X67166666Y-52702380D01*
X67785714Y-52702380D01*
X55607142Y-60666666D02*
X55654761Y-60714285D01*
X55702380Y-60857142D01*
X55702380Y-60952380D01*
X55654761Y-61095238D01*
X55559523Y-61190476D01*
X55464285Y-61238095D01*
X55273809Y-61285714D01*
X55130952Y-61285714D01*
X54940476Y-61238095D01*
X54845238Y-61190476D01*
X54750000Y-61095238D01*
X54702380Y-60952380D01*
X54702380Y-60857142D01*
X54750000Y-60714285D01*
X54797619Y-60666666D01*
X55702380Y-59714285D02*
X55702380Y-60285714D01*
X55702380Y-60000000D02*
X54702380Y-60000000D01*
X54845238Y-60095238D01*
X54940476Y-60190476D01*
X54988095Y-60285714D01*
M02*
