M48
; DRILL file {KiCad (5.1.8)-1} date 07/21/21 19:28:57
; FORMAT={-:-/ absolute / inch / decimal}
; #@! TF.CreationDate,2021-07-21T19:28:57-06:00
; #@! TF.GenerationSoftware,Kicad,Pcbnew,(5.1.8)-1
; #@! TF.FileFunction,Plated,1,2,PTH
FMAT,2
INCH
T1C0.0157
T2C0.0394
T3C0.0433
%
G90
G05
T1
X2.3819Y-2.2244
X2.3819Y-2.7756
X2.3819Y-3.3268
X2.3819Y-3.878
X2.5787Y-2.126
X2.5787Y-2.6772
X2.5787Y-3.2283
X2.5787Y-3.7795
X2.5886Y-2.3031
X2.5886Y-2.8543
X2.5886Y-3.4055
X2.5886Y-3.9567
X3.4744Y-2.2244
X3.4744Y-2.7756
X3.4744Y-3.3268
X3.4744Y-3.878
X3.6713Y-2.126
X3.6713Y-2.6772
X3.6713Y-3.2283
X3.6713Y-3.7795
X3.6811Y-2.3031
X3.6811Y-2.8543
X3.6811Y-3.4055
X3.6811Y-3.9567
X4.5669Y-2.2244
X4.5669Y-2.7756
X4.5669Y-3.3268
X4.5669Y-3.878
X4.7638Y-2.126
X4.7638Y-2.6772
X4.7638Y-3.2283
X4.7638Y-3.7795
X4.7736Y-2.3031
X4.7736Y-2.8543
X4.7736Y-3.4055
X4.7736Y-3.9567
T2
X3.463Y-4.0453
X3.563Y-4.0453
X2.3705Y-3.4941
X2.4705Y-3.4941
X4.5555Y-2.3917
X4.6555Y-2.3917
X3.463Y-2.3917
X3.563Y-2.3917
X4.5555Y-2.9429
X4.6555Y-2.9429
X3.1594Y-3.7992
X3.1594Y-3.8992
X3.1594Y-3.9992
X4.252Y-3.7992
X4.252Y-3.8992
X4.252Y-3.9992
X4.252Y-3.248
X4.252Y-3.348
X4.252Y-3.448
X4.5555Y-4.0453
X4.6555Y-4.0453
X4.5555Y-3.4941
X4.6555Y-3.4941
X2.0669Y-3.248
X2.0669Y-3.348
X2.0669Y-3.448
X2.0669Y-2.1457
X2.0669Y-2.2457
X2.0669Y-2.3457
X2.0669Y-2.6969
X2.0669Y-2.7969
X2.0669Y-2.8969
X3.1594Y-2.6969
X3.1594Y-2.7969
X3.1594Y-2.8969
X3.1594Y-3.248
X3.1594Y-3.348
X3.1594Y-3.448
X2.3705Y-2.9429
X2.4705Y-2.9429
X3.1594Y-2.1457
X3.1594Y-2.2457
X3.1594Y-2.3457
X2.0669Y-3.7992
X2.0669Y-3.8992
X2.0669Y-3.9992
X2.3705Y-4.0453
X2.4705Y-4.0453
X4.252Y-2.1457
X4.252Y-2.2457
X4.252Y-2.3457
X3.463Y-3.4941
X3.563Y-3.4941
X2.3705Y-2.3917
X2.4705Y-2.3917
X3.463Y-2.9429
X3.563Y-2.9429
X4.252Y-2.6969
X4.252Y-2.7969
X4.252Y-2.8969
T3
X3.9075Y-3.2185
X3.9075Y-3.3185
X3.9075Y-3.4185
X3.9075Y-3.5185
X4.0075Y-3.2185
X4.0075Y-3.3185
X4.0075Y-3.4185
X4.0075Y-3.5185
X4.1075Y-3.2185
X4.1075Y-3.3185
X4.1075Y-3.4185
X4.1075Y-3.5185
X3.9075Y-3.7697
X3.9075Y-3.8697
X3.9075Y-3.9697
X3.9075Y-4.0697
X4.0075Y-3.7697
X4.0075Y-3.8697
X4.0075Y-3.9697
X4.0075Y-4.0697
X4.1075Y-3.7697
X4.1075Y-3.8697
X4.1075Y-3.9697
X4.1075Y-4.0697
X2.815Y-2.1161
X2.815Y-2.2161
X2.815Y-2.3161
X2.815Y-2.4161
X2.915Y-2.1161
X2.915Y-2.2161
X2.915Y-2.3161
X2.915Y-2.4161
X3.015Y-2.1161
X3.015Y-2.2161
X3.015Y-2.3161
X3.015Y-2.4161
X3.9075Y-2.1161
X3.9075Y-2.2161
X3.9075Y-2.3161
X3.9075Y-2.4161
X4.0075Y-2.1161
X4.0075Y-2.2161
X4.0075Y-2.3161
X4.0075Y-2.4161
X4.1075Y-2.1161
X4.1075Y-2.2161
X4.1075Y-2.3161
X4.1075Y-2.4161
X5.0Y-2.1161
X5.0Y-2.2161
X5.0Y-2.3161
X5.0Y-2.4161
X5.1Y-2.1161
X5.1Y-2.2161
X5.1Y-2.3161
X5.1Y-2.4161
X5.2Y-2.1161
X5.2Y-2.2161
X5.2Y-2.3161
X5.2Y-2.4161
X5.0Y-2.6673
X5.0Y-2.7673
X5.0Y-2.8673
X5.0Y-2.9673
X5.1Y-2.6673
X5.1Y-2.7673
X5.1Y-2.8673
X5.1Y-2.9673
X5.2Y-2.6673
X5.2Y-2.7673
X5.2Y-2.8673
X5.2Y-2.9673
X3.9075Y-2.6673
X3.9075Y-2.7673
X3.9075Y-2.8673
X3.9075Y-2.9673
X4.0075Y-2.6673
X4.0075Y-2.7673
X4.0075Y-2.8673
X4.0075Y-2.9673
X4.1075Y-2.6673
X4.1075Y-2.7673
X4.1075Y-2.8673
X4.1075Y-2.9673
X2.815Y-2.6673
X2.815Y-2.7673
X2.815Y-2.8673
X2.815Y-2.9673
X2.915Y-2.6673
X2.915Y-2.7673
X2.915Y-2.8673
X2.915Y-2.9673
X3.015Y-2.6673
X3.015Y-2.7673
X3.015Y-2.8673
X3.015Y-2.9673
X5.0Y-3.7697
X5.0Y-3.8697
X5.0Y-3.9697
X5.0Y-4.0697
X5.1Y-3.7697
X5.1Y-3.8697
X5.1Y-3.9697
X5.1Y-4.0697
X5.2Y-3.7697
X5.2Y-3.8697
X5.2Y-3.9697
X5.2Y-4.0697
X2.815Y-3.7697
X2.815Y-3.8697
X2.815Y-3.9697
X2.815Y-4.0697
X2.915Y-3.7697
X2.915Y-3.8697
X2.915Y-3.9697
X2.915Y-4.0697
X3.015Y-3.7697
X3.015Y-3.8697
X3.015Y-3.9697
X3.015Y-4.0697
X5.0Y-3.2185
X5.0Y-3.3185
X5.0Y-3.4185
X5.0Y-3.5185
X5.1Y-3.2185
X5.1Y-3.3185
X5.1Y-3.4185
X5.1Y-3.5185
X5.2Y-3.2185
X5.2Y-3.3185
X5.2Y-3.4185
X5.2Y-3.5185
X2.815Y-3.2185
X2.815Y-3.3185
X2.815Y-3.4185
X2.815Y-3.5185
X2.915Y-3.2185
X2.915Y-3.3185
X2.915Y-3.4185
X2.915Y-3.5185
X3.015Y-3.2185
X3.015Y-3.3185
X3.015Y-3.4185
X3.015Y-3.5185
T0
M30
