G04 #@! TF.GenerationSoftware,KiCad,Pcbnew,(5.1.8)-1*
G04 #@! TF.CreationDate,2021-07-21T19:28:53-06:00*
G04 #@! TF.ProjectId,SBus-Decoder,53427573-2d44-4656-936f-6465722e6b69,rev?*
G04 #@! TF.SameCoordinates,Original*
G04 #@! TF.FileFunction,Soldermask,Bot*
G04 #@! TF.FilePolarity,Negative*
%FSLAX46Y46*%
G04 Gerber Fmt 4.6, Leading zero omitted, Abs format (unit mm)*
G04 Created by KiCad (PCBNEW (5.1.8)-1) date 2021-07-21 19:28:53*
%MOMM*%
%LPD*%
G01*
G04 APERTURE LIST*
%ADD10O,1.800000X1.800000*%
%ADD11C,1.750000*%
G04 APERTURE END LIST*
D10*
X118250000Y-102750000D03*
G36*
G01*
X116560000Y-103650000D02*
X114860000Y-103650000D01*
G75*
G02*
X114810000Y-103600000I0J50000D01*
G01*
X114810000Y-101900000D01*
G75*
G02*
X114860000Y-101850000I50000J0D01*
G01*
X116560000Y-101850000D01*
G75*
G02*
X116610000Y-101900000I0J-50000D01*
G01*
X116610000Y-103600000D01*
G75*
G02*
X116560000Y-103650000I-50000J0D01*
G01*
G37*
G36*
G01*
X126175000Y-66875000D02*
X127825000Y-66875000D01*
G75*
G02*
X127875000Y-66925000I0J-50000D01*
G01*
X127875000Y-68575000D01*
G75*
G02*
X127825000Y-68625000I-50000J0D01*
G01*
X126175000Y-68625000D01*
G75*
G02*
X126125000Y-68575000I0J50000D01*
G01*
X126125000Y-66925000D01*
G75*
G02*
X126175000Y-66875000I50000J0D01*
G01*
G37*
D11*
X129540000Y-67750000D03*
X132080000Y-67750000D03*
X127000000Y-70290000D03*
X129540000Y-70290000D03*
X132080000Y-70290000D03*
X127000000Y-72830000D03*
X129540000Y-72830000D03*
X132080000Y-72830000D03*
X127000000Y-75370000D03*
X129540000Y-75370000D03*
X132080000Y-75370000D03*
G36*
G01*
X116560000Y-89650000D02*
X114860000Y-89650000D01*
G75*
G02*
X114810000Y-89600000I0J50000D01*
G01*
X114810000Y-87900000D01*
G75*
G02*
X114860000Y-87850000I50000J0D01*
G01*
X116560000Y-87850000D01*
G75*
G02*
X116610000Y-87900000I0J-50000D01*
G01*
X116610000Y-89600000D01*
G75*
G02*
X116560000Y-89650000I-50000J0D01*
G01*
G37*
D10*
X118250000Y-88750000D03*
G36*
G01*
X107100000Y-69350000D02*
X107100000Y-67650000D01*
G75*
G02*
X107150000Y-67600000I50000J0D01*
G01*
X108850000Y-67600000D01*
G75*
G02*
X108900000Y-67650000I0J-50000D01*
G01*
X108900000Y-69350000D01*
G75*
G02*
X108850000Y-69400000I-50000J0D01*
G01*
X107150000Y-69400000D01*
G75*
G02*
X107100000Y-69350000I0J50000D01*
G01*
G37*
X108000000Y-71040000D03*
X108000000Y-73580000D03*
X108000000Y-59580000D03*
X108000000Y-57040000D03*
G36*
G01*
X107100000Y-55350000D02*
X107100000Y-53650000D01*
G75*
G02*
X107150000Y-53600000I50000J0D01*
G01*
X108850000Y-53600000D01*
G75*
G02*
X108900000Y-53650000I0J-50000D01*
G01*
X108900000Y-55350000D01*
G75*
G02*
X108850000Y-55400000I-50000J0D01*
G01*
X107150000Y-55400000D01*
G75*
G02*
X107100000Y-55350000I0J50000D01*
G01*
G37*
D11*
X132080000Y-103370000D03*
X129540000Y-103370000D03*
X127000000Y-103370000D03*
X132080000Y-100830000D03*
X129540000Y-100830000D03*
X127000000Y-100830000D03*
X132080000Y-98290000D03*
X129540000Y-98290000D03*
X127000000Y-98290000D03*
X132080000Y-95750000D03*
X129540000Y-95750000D03*
G36*
G01*
X126175000Y-94875000D02*
X127825000Y-94875000D01*
G75*
G02*
X127875000Y-94925000I0J-50000D01*
G01*
X127875000Y-96575000D01*
G75*
G02*
X127825000Y-96625000I-50000J0D01*
G01*
X126175000Y-96625000D01*
G75*
G02*
X126125000Y-96575000I0J50000D01*
G01*
X126125000Y-94925000D01*
G75*
G02*
X126175000Y-94875000I50000J0D01*
G01*
G37*
X132080000Y-61370000D03*
X129540000Y-61370000D03*
X127000000Y-61370000D03*
X132080000Y-58830000D03*
X129540000Y-58830000D03*
X127000000Y-58830000D03*
X132080000Y-56290000D03*
X129540000Y-56290000D03*
X127000000Y-56290000D03*
X132080000Y-53750000D03*
X129540000Y-53750000D03*
G36*
G01*
X126175000Y-52875000D02*
X127825000Y-52875000D01*
G75*
G02*
X127875000Y-52925000I0J-50000D01*
G01*
X127875000Y-54575000D01*
G75*
G02*
X127825000Y-54625000I-50000J0D01*
G01*
X126175000Y-54625000D01*
G75*
G02*
X126125000Y-54575000I0J50000D01*
G01*
X126125000Y-52925000D01*
G75*
G02*
X126175000Y-52875000I50000J0D01*
G01*
G37*
D10*
X118250000Y-60750000D03*
G36*
G01*
X116560000Y-61650000D02*
X114860000Y-61650000D01*
G75*
G02*
X114810000Y-61600000I0J50000D01*
G01*
X114810000Y-59900000D01*
G75*
G02*
X114860000Y-59850000I50000J0D01*
G01*
X116560000Y-59850000D01*
G75*
G02*
X116610000Y-59900000I0J-50000D01*
G01*
X116610000Y-61600000D01*
G75*
G02*
X116560000Y-61650000I-50000J0D01*
G01*
G37*
G36*
G01*
X116560000Y-75650000D02*
X114860000Y-75650000D01*
G75*
G02*
X114810000Y-75600000I0J50000D01*
G01*
X114810000Y-73900000D01*
G75*
G02*
X114860000Y-73850000I50000J0D01*
G01*
X116560000Y-73850000D01*
G75*
G02*
X116610000Y-73900000I0J-50000D01*
G01*
X116610000Y-75600000D01*
G75*
G02*
X116560000Y-75650000I-50000J0D01*
G01*
G37*
X118250000Y-74750000D03*
G36*
G01*
X126175000Y-80875000D02*
X127825000Y-80875000D01*
G75*
G02*
X127875000Y-80925000I0J-50000D01*
G01*
X127875000Y-82575000D01*
G75*
G02*
X127825000Y-82625000I-50000J0D01*
G01*
X126175000Y-82625000D01*
G75*
G02*
X126125000Y-82575000I0J50000D01*
G01*
X126125000Y-80925000D01*
G75*
G02*
X126175000Y-80875000I50000J0D01*
G01*
G37*
D11*
X129540000Y-81750000D03*
X132080000Y-81750000D03*
X127000000Y-84290000D03*
X129540000Y-84290000D03*
X132080000Y-84290000D03*
X127000000Y-86830000D03*
X129540000Y-86830000D03*
X132080000Y-86830000D03*
X127000000Y-89370000D03*
X129540000Y-89370000D03*
X132080000Y-89370000D03*
G36*
G01*
X107100000Y-83350000D02*
X107100000Y-81650000D01*
G75*
G02*
X107150000Y-81600000I50000J0D01*
G01*
X108850000Y-81600000D01*
G75*
G02*
X108900000Y-81650000I0J-50000D01*
G01*
X108900000Y-83350000D01*
G75*
G02*
X108850000Y-83400000I-50000J0D01*
G01*
X107150000Y-83400000D01*
G75*
G02*
X107100000Y-83350000I0J50000D01*
G01*
G37*
D10*
X108000000Y-85040000D03*
X108000000Y-87580000D03*
X108000000Y-101580000D03*
X108000000Y-99040000D03*
G36*
G01*
X107100000Y-97350000D02*
X107100000Y-95650000D01*
G75*
G02*
X107150000Y-95600000I50000J0D01*
G01*
X108850000Y-95600000D01*
G75*
G02*
X108900000Y-95650000I0J-50000D01*
G01*
X108900000Y-97350000D01*
G75*
G02*
X108850000Y-97400000I-50000J0D01*
G01*
X107150000Y-97400000D01*
G75*
G02*
X107100000Y-97350000I0J50000D01*
G01*
G37*
G36*
G01*
X79350000Y-55350000D02*
X79350000Y-53650000D01*
G75*
G02*
X79400000Y-53600000I50000J0D01*
G01*
X81100000Y-53600000D01*
G75*
G02*
X81150000Y-53650000I0J-50000D01*
G01*
X81150000Y-55350000D01*
G75*
G02*
X81100000Y-55400000I-50000J0D01*
G01*
X79400000Y-55400000D01*
G75*
G02*
X79350000Y-55350000I0J50000D01*
G01*
G37*
X80250000Y-57040000D03*
X80250000Y-59580000D03*
G36*
G01*
X98425000Y-52875000D02*
X100075000Y-52875000D01*
G75*
G02*
X100125000Y-52925000I0J-50000D01*
G01*
X100125000Y-54575000D01*
G75*
G02*
X100075000Y-54625000I-50000J0D01*
G01*
X98425000Y-54625000D01*
G75*
G02*
X98375000Y-54575000I0J50000D01*
G01*
X98375000Y-52925000D01*
G75*
G02*
X98425000Y-52875000I50000J0D01*
G01*
G37*
D11*
X101790000Y-53750000D03*
X104330000Y-53750000D03*
X99250000Y-56290000D03*
X101790000Y-56290000D03*
X104330000Y-56290000D03*
X99250000Y-58830000D03*
X101790000Y-58830000D03*
X104330000Y-58830000D03*
X99250000Y-61370000D03*
X101790000Y-61370000D03*
X104330000Y-61370000D03*
G36*
G01*
X98425000Y-94875000D02*
X100075000Y-94875000D01*
G75*
G02*
X100125000Y-94925000I0J-50000D01*
G01*
X100125000Y-96575000D01*
G75*
G02*
X100075000Y-96625000I-50000J0D01*
G01*
X98425000Y-96625000D01*
G75*
G02*
X98375000Y-96575000I0J50000D01*
G01*
X98375000Y-94925000D01*
G75*
G02*
X98425000Y-94875000I50000J0D01*
G01*
G37*
X101790000Y-95750000D03*
X104330000Y-95750000D03*
X99250000Y-98290000D03*
X101790000Y-98290000D03*
X104330000Y-98290000D03*
X99250000Y-100830000D03*
X101790000Y-100830000D03*
X104330000Y-100830000D03*
X99250000Y-103370000D03*
X101790000Y-103370000D03*
X104330000Y-103370000D03*
D10*
X90500000Y-88750000D03*
G36*
G01*
X88810000Y-89650000D02*
X87110000Y-89650000D01*
G75*
G02*
X87060000Y-89600000I0J50000D01*
G01*
X87060000Y-87900000D01*
G75*
G02*
X87110000Y-87850000I50000J0D01*
G01*
X88810000Y-87850000D01*
G75*
G02*
X88860000Y-87900000I0J-50000D01*
G01*
X88860000Y-89600000D01*
G75*
G02*
X88810000Y-89650000I-50000J0D01*
G01*
G37*
X80250000Y-73580000D03*
X80250000Y-71040000D03*
G36*
G01*
X79350000Y-69350000D02*
X79350000Y-67650000D01*
G75*
G02*
X79400000Y-67600000I50000J0D01*
G01*
X81100000Y-67600000D01*
G75*
G02*
X81150000Y-67650000I0J-50000D01*
G01*
X81150000Y-69350000D01*
G75*
G02*
X81100000Y-69400000I-50000J0D01*
G01*
X79400000Y-69400000D01*
G75*
G02*
X79350000Y-69350000I0J50000D01*
G01*
G37*
D11*
X104330000Y-75370000D03*
X101790000Y-75370000D03*
X99250000Y-75370000D03*
X104330000Y-72830000D03*
X101790000Y-72830000D03*
X99250000Y-72830000D03*
X104330000Y-70290000D03*
X101790000Y-70290000D03*
X99250000Y-70290000D03*
X104330000Y-67750000D03*
X101790000Y-67750000D03*
G36*
G01*
X98425000Y-66875000D02*
X100075000Y-66875000D01*
G75*
G02*
X100125000Y-66925000I0J-50000D01*
G01*
X100125000Y-68575000D01*
G75*
G02*
X100075000Y-68625000I-50000J0D01*
G01*
X98425000Y-68625000D01*
G75*
G02*
X98375000Y-68575000I0J50000D01*
G01*
X98375000Y-66925000D01*
G75*
G02*
X98425000Y-66875000I50000J0D01*
G01*
G37*
G36*
G01*
X88810000Y-103650000D02*
X87110000Y-103650000D01*
G75*
G02*
X87060000Y-103600000I0J50000D01*
G01*
X87060000Y-101900000D01*
G75*
G02*
X87110000Y-101850000I50000J0D01*
G01*
X88810000Y-101850000D01*
G75*
G02*
X88860000Y-101900000I0J-50000D01*
G01*
X88860000Y-103600000D01*
G75*
G02*
X88810000Y-103650000I-50000J0D01*
G01*
G37*
D10*
X90500000Y-102750000D03*
X90500000Y-74750000D03*
G36*
G01*
X88810000Y-75650000D02*
X87110000Y-75650000D01*
G75*
G02*
X87060000Y-75600000I0J50000D01*
G01*
X87060000Y-73900000D01*
G75*
G02*
X87110000Y-73850000I50000J0D01*
G01*
X88810000Y-73850000D01*
G75*
G02*
X88860000Y-73900000I0J-50000D01*
G01*
X88860000Y-75600000D01*
G75*
G02*
X88810000Y-75650000I-50000J0D01*
G01*
G37*
D11*
X104330000Y-89370000D03*
X101790000Y-89370000D03*
X99250000Y-89370000D03*
X104330000Y-86830000D03*
X101790000Y-86830000D03*
X99250000Y-86830000D03*
X104330000Y-84290000D03*
X101790000Y-84290000D03*
X99250000Y-84290000D03*
X104330000Y-81750000D03*
X101790000Y-81750000D03*
G36*
G01*
X98425000Y-80875000D02*
X100075000Y-80875000D01*
G75*
G02*
X100125000Y-80925000I0J-50000D01*
G01*
X100125000Y-82575000D01*
G75*
G02*
X100075000Y-82625000I-50000J0D01*
G01*
X98425000Y-82625000D01*
G75*
G02*
X98375000Y-82575000I0J50000D01*
G01*
X98375000Y-80925000D01*
G75*
G02*
X98425000Y-80875000I50000J0D01*
G01*
G37*
D10*
X80250000Y-87580000D03*
X80250000Y-85040000D03*
G36*
G01*
X79350000Y-83350000D02*
X79350000Y-81650000D01*
G75*
G02*
X79400000Y-81600000I50000J0D01*
G01*
X81100000Y-81600000D01*
G75*
G02*
X81150000Y-81650000I0J-50000D01*
G01*
X81150000Y-83350000D01*
G75*
G02*
X81100000Y-83400000I-50000J0D01*
G01*
X79400000Y-83400000D01*
G75*
G02*
X79350000Y-83350000I0J50000D01*
G01*
G37*
G36*
G01*
X79350000Y-97350000D02*
X79350000Y-95650000D01*
G75*
G02*
X79400000Y-95600000I50000J0D01*
G01*
X81100000Y-95600000D01*
G75*
G02*
X81150000Y-95650000I0J-50000D01*
G01*
X81150000Y-97350000D01*
G75*
G02*
X81100000Y-97400000I-50000J0D01*
G01*
X79400000Y-97400000D01*
G75*
G02*
X79350000Y-97350000I0J50000D01*
G01*
G37*
X80250000Y-99040000D03*
X80250000Y-101580000D03*
G36*
G01*
X88810000Y-61650000D02*
X87110000Y-61650000D01*
G75*
G02*
X87060000Y-61600000I0J50000D01*
G01*
X87060000Y-59900000D01*
G75*
G02*
X87110000Y-59850000I50000J0D01*
G01*
X88810000Y-59850000D01*
G75*
G02*
X88860000Y-59900000I0J-50000D01*
G01*
X88860000Y-61600000D01*
G75*
G02*
X88810000Y-61650000I-50000J0D01*
G01*
G37*
X90500000Y-60750000D03*
G36*
G01*
X51600000Y-83350000D02*
X51600000Y-81650000D01*
G75*
G02*
X51650000Y-81600000I50000J0D01*
G01*
X53350000Y-81600000D01*
G75*
G02*
X53400000Y-81650000I0J-50000D01*
G01*
X53400000Y-83350000D01*
G75*
G02*
X53350000Y-83400000I-50000J0D01*
G01*
X51650000Y-83400000D01*
G75*
G02*
X51600000Y-83350000I0J50000D01*
G01*
G37*
X52500000Y-85040000D03*
X52500000Y-87580000D03*
G36*
G01*
X70675000Y-80875000D02*
X72325000Y-80875000D01*
G75*
G02*
X72375000Y-80925000I0J-50000D01*
G01*
X72375000Y-82575000D01*
G75*
G02*
X72325000Y-82625000I-50000J0D01*
G01*
X70675000Y-82625000D01*
G75*
G02*
X70625000Y-82575000I0J50000D01*
G01*
X70625000Y-80925000D01*
G75*
G02*
X70675000Y-80875000I50000J0D01*
G01*
G37*
D11*
X74040000Y-81750000D03*
X76580000Y-81750000D03*
X71500000Y-84290000D03*
X74040000Y-84290000D03*
X76580000Y-84290000D03*
X71500000Y-86830000D03*
X74040000Y-86830000D03*
X76580000Y-86830000D03*
X71500000Y-89370000D03*
X74040000Y-89370000D03*
X76580000Y-89370000D03*
D10*
X52500000Y-101580000D03*
X52500000Y-99040000D03*
G36*
G01*
X51600000Y-97350000D02*
X51600000Y-95650000D01*
G75*
G02*
X51650000Y-95600000I50000J0D01*
G01*
X53350000Y-95600000D01*
G75*
G02*
X53400000Y-95650000I0J-50000D01*
G01*
X53400000Y-97350000D01*
G75*
G02*
X53350000Y-97400000I-50000J0D01*
G01*
X51650000Y-97400000D01*
G75*
G02*
X51600000Y-97350000I0J50000D01*
G01*
G37*
D11*
X76580000Y-103370000D03*
X74040000Y-103370000D03*
X71500000Y-103370000D03*
X76580000Y-100830000D03*
X74040000Y-100830000D03*
X71500000Y-100830000D03*
X76580000Y-98290000D03*
X74040000Y-98290000D03*
X71500000Y-98290000D03*
X76580000Y-95750000D03*
X74040000Y-95750000D03*
G36*
G01*
X70675000Y-94875000D02*
X72325000Y-94875000D01*
G75*
G02*
X72375000Y-94925000I0J-50000D01*
G01*
X72375000Y-96575000D01*
G75*
G02*
X72325000Y-96625000I-50000J0D01*
G01*
X70675000Y-96625000D01*
G75*
G02*
X70625000Y-96575000I0J50000D01*
G01*
X70625000Y-94925000D01*
G75*
G02*
X70675000Y-94875000I50000J0D01*
G01*
G37*
D10*
X62750000Y-102750000D03*
G36*
G01*
X61060000Y-103650000D02*
X59360000Y-103650000D01*
G75*
G02*
X59310000Y-103600000I0J50000D01*
G01*
X59310000Y-101900000D01*
G75*
G02*
X59360000Y-101850000I50000J0D01*
G01*
X61060000Y-101850000D01*
G75*
G02*
X61110000Y-101900000I0J-50000D01*
G01*
X61110000Y-103600000D01*
G75*
G02*
X61060000Y-103650000I-50000J0D01*
G01*
G37*
G36*
G01*
X61060000Y-89650000D02*
X59360000Y-89650000D01*
G75*
G02*
X59310000Y-89600000I0J50000D01*
G01*
X59310000Y-87900000D01*
G75*
G02*
X59360000Y-87850000I50000J0D01*
G01*
X61060000Y-87850000D01*
G75*
G02*
X61110000Y-87900000I0J-50000D01*
G01*
X61110000Y-89600000D01*
G75*
G02*
X61060000Y-89650000I-50000J0D01*
G01*
G37*
X62750000Y-88750000D03*
G36*
G01*
X51600000Y-69350000D02*
X51600000Y-67650000D01*
G75*
G02*
X51650000Y-67600000I50000J0D01*
G01*
X53350000Y-67600000D01*
G75*
G02*
X53400000Y-67650000I0J-50000D01*
G01*
X53400000Y-69350000D01*
G75*
G02*
X53350000Y-69400000I-50000J0D01*
G01*
X51650000Y-69400000D01*
G75*
G02*
X51600000Y-69350000I0J50000D01*
G01*
G37*
X52500000Y-71040000D03*
X52500000Y-73580000D03*
G36*
G01*
X70675000Y-66875000D02*
X72325000Y-66875000D01*
G75*
G02*
X72375000Y-66925000I0J-50000D01*
G01*
X72375000Y-68575000D01*
G75*
G02*
X72325000Y-68625000I-50000J0D01*
G01*
X70675000Y-68625000D01*
G75*
G02*
X70625000Y-68575000I0J50000D01*
G01*
X70625000Y-66925000D01*
G75*
G02*
X70675000Y-66875000I50000J0D01*
G01*
G37*
D11*
X74040000Y-67750000D03*
X76580000Y-67750000D03*
X71500000Y-70290000D03*
X74040000Y-70290000D03*
X76580000Y-70290000D03*
X71500000Y-72830000D03*
X74040000Y-72830000D03*
X76580000Y-72830000D03*
X71500000Y-75370000D03*
X74040000Y-75370000D03*
X76580000Y-75370000D03*
G36*
G01*
X61060000Y-75650000D02*
X59360000Y-75650000D01*
G75*
G02*
X59310000Y-75600000I0J50000D01*
G01*
X59310000Y-73900000D01*
G75*
G02*
X59360000Y-73850000I50000J0D01*
G01*
X61060000Y-73850000D01*
G75*
G02*
X61110000Y-73900000I0J-50000D01*
G01*
X61110000Y-75600000D01*
G75*
G02*
X61060000Y-75650000I-50000J0D01*
G01*
G37*
D10*
X62750000Y-74750000D03*
X62750000Y-60750000D03*
G36*
G01*
X61060000Y-61650000D02*
X59360000Y-61650000D01*
G75*
G02*
X59310000Y-61600000I0J50000D01*
G01*
X59310000Y-59900000D01*
G75*
G02*
X59360000Y-59850000I50000J0D01*
G01*
X61060000Y-59850000D01*
G75*
G02*
X61110000Y-59900000I0J-50000D01*
G01*
X61110000Y-61600000D01*
G75*
G02*
X61060000Y-61650000I-50000J0D01*
G01*
G37*
D11*
X76580000Y-61370000D03*
X74040000Y-61370000D03*
X71500000Y-61370000D03*
X76580000Y-58830000D03*
X74040000Y-58830000D03*
X71500000Y-58830000D03*
X76580000Y-56290000D03*
X74040000Y-56290000D03*
X71500000Y-56290000D03*
X76580000Y-53750000D03*
X74040000Y-53750000D03*
G36*
G01*
X70675000Y-52875000D02*
X72325000Y-52875000D01*
G75*
G02*
X72375000Y-52925000I0J-50000D01*
G01*
X72375000Y-54575000D01*
G75*
G02*
X72325000Y-54625000I-50000J0D01*
G01*
X70675000Y-54625000D01*
G75*
G02*
X70625000Y-54575000I0J50000D01*
G01*
X70625000Y-52925000D01*
G75*
G02*
X70675000Y-52875000I50000J0D01*
G01*
G37*
D10*
X52500000Y-59580000D03*
X52500000Y-57040000D03*
G36*
G01*
X51600000Y-55350000D02*
X51600000Y-53650000D01*
G75*
G02*
X51650000Y-53600000I50000J0D01*
G01*
X53350000Y-53600000D01*
G75*
G02*
X53400000Y-53650000I0J-50000D01*
G01*
X53400000Y-55350000D01*
G75*
G02*
X53350000Y-55400000I-50000J0D01*
G01*
X51650000Y-55400000D01*
G75*
G02*
X51600000Y-55350000I0J50000D01*
G01*
G37*
M02*
