G04 #@! TF.GenerationSoftware,KiCad,Pcbnew,(5.1.8)-1*
G04 #@! TF.CreationDate,2021-07-21T19:28:53-06:00*
G04 #@! TF.ProjectId,SBus-Decoder,53427573-2d44-4656-936f-6465722e6b69,rev?*
G04 #@! TF.SameCoordinates,Original*
G04 #@! TF.FileFunction,Legend,Bot*
G04 #@! TF.FilePolarity,Positive*
%FSLAX46Y46*%
G04 Gerber Fmt 4.6, Leading zero omitted, Abs format (unit mm)*
G04 Created by KiCad (PCBNEW (5.1.8)-1) date 2021-07-21 19:28:53*
%MOMM*%
%LPD*%
G01*
G04 APERTURE LIST*
%ADD10C,0.160000*%
%ADD11C,0.180000*%
G04 APERTURE END LIST*
D10*
X119619047Y-104702380D02*
X119619047Y-105416666D01*
X119666666Y-105559523D01*
X119761904Y-105654761D01*
X119904761Y-105702380D01*
X120000000Y-105702380D01*
X118666666Y-105702380D02*
X119142857Y-105702380D01*
X119142857Y-104702380D01*
X117761904Y-105607142D02*
X117809523Y-105654761D01*
X117952380Y-105702380D01*
X118047619Y-105702380D01*
X118190476Y-105654761D01*
X118285714Y-105559523D01*
X118333333Y-105464285D01*
X118380952Y-105273809D01*
X118380952Y-105130952D01*
X118333333Y-104940476D01*
X118285714Y-104845238D01*
X118190476Y-104750000D01*
X118047619Y-104702380D01*
X117952380Y-104702380D01*
X117809523Y-104750000D01*
X117761904Y-104797619D01*
X117047619Y-104702380D02*
X117047619Y-105416666D01*
X117095238Y-105559523D01*
X117190476Y-105654761D01*
X117333333Y-105702380D01*
X117428571Y-105702380D01*
X116095238Y-105702380D02*
X116571428Y-105702380D01*
X116571428Y-104702380D01*
X115190476Y-105607142D02*
X115238095Y-105654761D01*
X115380952Y-105702380D01*
X115476190Y-105702380D01*
X115619047Y-105654761D01*
X115714285Y-105559523D01*
X115761904Y-105464285D01*
X115809523Y-105273809D01*
X115809523Y-105130952D01*
X115761904Y-104940476D01*
X115714285Y-104845238D01*
X115619047Y-104750000D01*
X115476190Y-104702380D01*
X115380952Y-104702380D01*
X115238095Y-104750000D01*
X115190476Y-104797619D01*
X114476190Y-104702380D02*
X114476190Y-105416666D01*
X114523809Y-105559523D01*
X114619047Y-105654761D01*
X114761904Y-105702380D01*
X114857142Y-105702380D01*
X113523809Y-105702380D02*
X114000000Y-105702380D01*
X114000000Y-104702380D01*
X112619047Y-105607142D02*
X112666666Y-105654761D01*
X112809523Y-105702380D01*
X112904761Y-105702380D01*
X113047619Y-105654761D01*
X113142857Y-105559523D01*
X113190476Y-105464285D01*
X113238095Y-105273809D01*
X113238095Y-105130952D01*
X113190476Y-104940476D01*
X113142857Y-104845238D01*
X113047619Y-104750000D01*
X112904761Y-104702380D01*
X112809523Y-104702380D01*
X112666666Y-104750000D01*
X112619047Y-104797619D01*
X111904761Y-104702380D02*
X111904761Y-105416666D01*
X111952380Y-105559523D01*
X112047619Y-105654761D01*
X112190476Y-105702380D01*
X112285714Y-105702380D01*
X110952380Y-105702380D02*
X111428571Y-105702380D01*
X111428571Y-104702380D01*
X110047619Y-105607142D02*
X110095238Y-105654761D01*
X110238095Y-105702380D01*
X110333333Y-105702380D01*
X110476190Y-105654761D01*
X110571428Y-105559523D01*
X110619047Y-105464285D01*
X110666666Y-105273809D01*
X110666666Y-105130952D01*
X110619047Y-104940476D01*
X110571428Y-104845238D01*
X110476190Y-104750000D01*
X110333333Y-104702380D01*
X110238095Y-104702380D01*
X110095238Y-104750000D01*
X110047619Y-104797619D01*
D11*
X119778571Y-51755714D02*
X119607142Y-51812857D01*
X119321428Y-51812857D01*
X119207142Y-51755714D01*
X119150000Y-51698571D01*
X119092857Y-51584285D01*
X119092857Y-51470000D01*
X119150000Y-51355714D01*
X119207142Y-51298571D01*
X119321428Y-51241428D01*
X119550000Y-51184285D01*
X119664285Y-51127142D01*
X119721428Y-51070000D01*
X119778571Y-50955714D01*
X119778571Y-50841428D01*
X119721428Y-50727142D01*
X119664285Y-50670000D01*
X119550000Y-50612857D01*
X119264285Y-50612857D01*
X119092857Y-50670000D01*
X118178571Y-51184285D02*
X118007142Y-51241428D01*
X117950000Y-51298571D01*
X117892857Y-51412857D01*
X117892857Y-51584285D01*
X117950000Y-51698571D01*
X118007142Y-51755714D01*
X118121428Y-51812857D01*
X118578571Y-51812857D01*
X118578571Y-50612857D01*
X118178571Y-50612857D01*
X118064285Y-50670000D01*
X118007142Y-50727142D01*
X117950000Y-50841428D01*
X117950000Y-50955714D01*
X118007142Y-51070000D01*
X118064285Y-51127142D01*
X118178571Y-51184285D01*
X118578571Y-51184285D01*
X116864285Y-51012857D02*
X116864285Y-51812857D01*
X117378571Y-51012857D02*
X117378571Y-51641428D01*
X117321428Y-51755714D01*
X117207142Y-51812857D01*
X117035714Y-51812857D01*
X116921428Y-51755714D01*
X116864285Y-51698571D01*
X116350000Y-51755714D02*
X116235714Y-51812857D01*
X116007142Y-51812857D01*
X115892857Y-51755714D01*
X115835714Y-51641428D01*
X115835714Y-51584285D01*
X115892857Y-51470000D01*
X116007142Y-51412857D01*
X116178571Y-51412857D01*
X116292857Y-51355714D01*
X116350000Y-51241428D01*
X116350000Y-51184285D01*
X116292857Y-51070000D01*
X116178571Y-51012857D01*
X116007142Y-51012857D01*
X115892857Y-51070000D01*
X114407142Y-51812857D02*
X114407142Y-50612857D01*
X114121428Y-50612857D01*
X113950000Y-50670000D01*
X113835714Y-50784285D01*
X113778571Y-50898571D01*
X113721428Y-51127142D01*
X113721428Y-51298571D01*
X113778571Y-51527142D01*
X113835714Y-51641428D01*
X113950000Y-51755714D01*
X114121428Y-51812857D01*
X114407142Y-51812857D01*
X112750000Y-51755714D02*
X112864285Y-51812857D01*
X113092857Y-51812857D01*
X113207142Y-51755714D01*
X113264285Y-51641428D01*
X113264285Y-51184285D01*
X113207142Y-51070000D01*
X113092857Y-51012857D01*
X112864285Y-51012857D01*
X112750000Y-51070000D01*
X112692857Y-51184285D01*
X112692857Y-51298571D01*
X113264285Y-51412857D01*
X111664285Y-51755714D02*
X111778571Y-51812857D01*
X112007142Y-51812857D01*
X112121428Y-51755714D01*
X112178571Y-51698571D01*
X112235714Y-51584285D01*
X112235714Y-51241428D01*
X112178571Y-51127142D01*
X112121428Y-51070000D01*
X112007142Y-51012857D01*
X111778571Y-51012857D01*
X111664285Y-51070000D01*
X110978571Y-51812857D02*
X111092857Y-51755714D01*
X111150000Y-51698571D01*
X111207142Y-51584285D01*
X111207142Y-51241428D01*
X111150000Y-51127142D01*
X111092857Y-51070000D01*
X110978571Y-51012857D01*
X110807142Y-51012857D01*
X110692857Y-51070000D01*
X110635714Y-51127142D01*
X110578571Y-51241428D01*
X110578571Y-51584285D01*
X110635714Y-51698571D01*
X110692857Y-51755714D01*
X110807142Y-51812857D01*
X110978571Y-51812857D01*
X109550000Y-51812857D02*
X109550000Y-50612857D01*
X109550000Y-51755714D02*
X109664285Y-51812857D01*
X109892857Y-51812857D01*
X110007142Y-51755714D01*
X110064285Y-51698571D01*
X110121428Y-51584285D01*
X110121428Y-51241428D01*
X110064285Y-51127142D01*
X110007142Y-51070000D01*
X109892857Y-51012857D01*
X109664285Y-51012857D01*
X109550000Y-51070000D01*
X108521428Y-51755714D02*
X108635714Y-51812857D01*
X108864285Y-51812857D01*
X108978571Y-51755714D01*
X109035714Y-51641428D01*
X109035714Y-51184285D01*
X108978571Y-51070000D01*
X108864285Y-51012857D01*
X108635714Y-51012857D01*
X108521428Y-51070000D01*
X108464285Y-51184285D01*
X108464285Y-51298571D01*
X109035714Y-51412857D01*
X107950000Y-51812857D02*
X107950000Y-51012857D01*
X107950000Y-51241428D02*
X107892857Y-51127142D01*
X107835714Y-51070000D01*
X107721428Y-51012857D01*
X107607142Y-51012857D01*
X115578571Y-52592857D02*
X115178571Y-53792857D01*
X114778571Y-52592857D01*
X113750000Y-53792857D02*
X114435714Y-53792857D01*
X114092857Y-53792857D02*
X114092857Y-52592857D01*
X114207142Y-52764285D01*
X114321428Y-52878571D01*
X114435714Y-52935714D01*
X113235714Y-53678571D02*
X113178571Y-53735714D01*
X113235714Y-53792857D01*
X113292857Y-53735714D01*
X113235714Y-53678571D01*
X113235714Y-53792857D01*
X112435714Y-52592857D02*
X112321428Y-52592857D01*
X112207142Y-52650000D01*
X112150000Y-52707142D01*
X112092857Y-52821428D01*
X112035714Y-53050000D01*
X112035714Y-53335714D01*
X112092857Y-53564285D01*
X112150000Y-53678571D01*
X112207142Y-53735714D01*
X112321428Y-53792857D01*
X112435714Y-53792857D01*
X112550000Y-53735714D01*
X112607142Y-53678571D01*
X112664285Y-53564285D01*
X112721428Y-53335714D01*
X112721428Y-53050000D01*
X112664285Y-52821428D01*
X112607142Y-52707142D01*
X112550000Y-52650000D01*
X112435714Y-52592857D01*
X117150000Y-55887142D02*
X117264285Y-55830000D01*
X117378571Y-55715714D01*
X117550000Y-55544285D01*
X117664285Y-55487142D01*
X117778571Y-55487142D01*
X117721428Y-55772857D02*
X117835714Y-55715714D01*
X117950000Y-55601428D01*
X118007142Y-55372857D01*
X118007142Y-54972857D01*
X117950000Y-54744285D01*
X117835714Y-54630000D01*
X117721428Y-54572857D01*
X117492857Y-54572857D01*
X117378571Y-54630000D01*
X117264285Y-54744285D01*
X117207142Y-54972857D01*
X117207142Y-55372857D01*
X117264285Y-55601428D01*
X117378571Y-55715714D01*
X117492857Y-55772857D01*
X117721428Y-55772857D01*
X116692857Y-55144285D02*
X116292857Y-55144285D01*
X116121428Y-55772857D02*
X116692857Y-55772857D01*
X116692857Y-54572857D01*
X116121428Y-54572857D01*
X115664285Y-55715714D02*
X115492857Y-55772857D01*
X115207142Y-55772857D01*
X115092857Y-55715714D01*
X115035714Y-55658571D01*
X114978571Y-55544285D01*
X114978571Y-55430000D01*
X115035714Y-55315714D01*
X115092857Y-55258571D01*
X115207142Y-55201428D01*
X115435714Y-55144285D01*
X115550000Y-55087142D01*
X115607142Y-55030000D01*
X115664285Y-54915714D01*
X115664285Y-54801428D01*
X115607142Y-54687142D01*
X115550000Y-54630000D01*
X115435714Y-54572857D01*
X115150000Y-54572857D01*
X114978571Y-54630000D01*
X113607142Y-54687142D02*
X113550000Y-54630000D01*
X113435714Y-54572857D01*
X113150000Y-54572857D01*
X113035714Y-54630000D01*
X112978571Y-54687142D01*
X112921428Y-54801428D01*
X112921428Y-54915714D01*
X112978571Y-55087142D01*
X113664285Y-55772857D01*
X112921428Y-55772857D01*
X112178571Y-54572857D02*
X112064285Y-54572857D01*
X111950000Y-54630000D01*
X111892857Y-54687142D01*
X111835714Y-54801428D01*
X111778571Y-55030000D01*
X111778571Y-55315714D01*
X111835714Y-55544285D01*
X111892857Y-55658571D01*
X111950000Y-55715714D01*
X112064285Y-55772857D01*
X112178571Y-55772857D01*
X112292857Y-55715714D01*
X112350000Y-55658571D01*
X112407142Y-55544285D01*
X112464285Y-55315714D01*
X112464285Y-55030000D01*
X112407142Y-54801428D01*
X112350000Y-54687142D01*
X112292857Y-54630000D01*
X112178571Y-54572857D01*
X111321428Y-54687142D02*
X111264285Y-54630000D01*
X111150000Y-54572857D01*
X110864285Y-54572857D01*
X110750000Y-54630000D01*
X110692857Y-54687142D01*
X110635714Y-54801428D01*
X110635714Y-54915714D01*
X110692857Y-55087142D01*
X111378571Y-55772857D01*
X110635714Y-55772857D01*
X109492857Y-55772857D02*
X110178571Y-55772857D01*
X109835714Y-55772857D02*
X109835714Y-54572857D01*
X109950000Y-54744285D01*
X110064285Y-54858571D01*
X110178571Y-54915714D01*
X119778571Y-93755714D02*
X119607142Y-93812857D01*
X119321428Y-93812857D01*
X119207142Y-93755714D01*
X119150000Y-93698571D01*
X119092857Y-93584285D01*
X119092857Y-93470000D01*
X119150000Y-93355714D01*
X119207142Y-93298571D01*
X119321428Y-93241428D01*
X119550000Y-93184285D01*
X119664285Y-93127142D01*
X119721428Y-93070000D01*
X119778571Y-92955714D01*
X119778571Y-92841428D01*
X119721428Y-92727142D01*
X119664285Y-92670000D01*
X119550000Y-92612857D01*
X119264285Y-92612857D01*
X119092857Y-92670000D01*
X118178571Y-93184285D02*
X118007142Y-93241428D01*
X117950000Y-93298571D01*
X117892857Y-93412857D01*
X117892857Y-93584285D01*
X117950000Y-93698571D01*
X118007142Y-93755714D01*
X118121428Y-93812857D01*
X118578571Y-93812857D01*
X118578571Y-92612857D01*
X118178571Y-92612857D01*
X118064285Y-92670000D01*
X118007142Y-92727142D01*
X117950000Y-92841428D01*
X117950000Y-92955714D01*
X118007142Y-93070000D01*
X118064285Y-93127142D01*
X118178571Y-93184285D01*
X118578571Y-93184285D01*
X116864285Y-93012857D02*
X116864285Y-93812857D01*
X117378571Y-93012857D02*
X117378571Y-93641428D01*
X117321428Y-93755714D01*
X117207142Y-93812857D01*
X117035714Y-93812857D01*
X116921428Y-93755714D01*
X116864285Y-93698571D01*
X116350000Y-93755714D02*
X116235714Y-93812857D01*
X116007142Y-93812857D01*
X115892857Y-93755714D01*
X115835714Y-93641428D01*
X115835714Y-93584285D01*
X115892857Y-93470000D01*
X116007142Y-93412857D01*
X116178571Y-93412857D01*
X116292857Y-93355714D01*
X116350000Y-93241428D01*
X116350000Y-93184285D01*
X116292857Y-93070000D01*
X116178571Y-93012857D01*
X116007142Y-93012857D01*
X115892857Y-93070000D01*
X114407142Y-93812857D02*
X114407142Y-92612857D01*
X114121428Y-92612857D01*
X113950000Y-92670000D01*
X113835714Y-92784285D01*
X113778571Y-92898571D01*
X113721428Y-93127142D01*
X113721428Y-93298571D01*
X113778571Y-93527142D01*
X113835714Y-93641428D01*
X113950000Y-93755714D01*
X114121428Y-93812857D01*
X114407142Y-93812857D01*
X112750000Y-93755714D02*
X112864285Y-93812857D01*
X113092857Y-93812857D01*
X113207142Y-93755714D01*
X113264285Y-93641428D01*
X113264285Y-93184285D01*
X113207142Y-93070000D01*
X113092857Y-93012857D01*
X112864285Y-93012857D01*
X112750000Y-93070000D01*
X112692857Y-93184285D01*
X112692857Y-93298571D01*
X113264285Y-93412857D01*
X111664285Y-93755714D02*
X111778571Y-93812857D01*
X112007142Y-93812857D01*
X112121428Y-93755714D01*
X112178571Y-93698571D01*
X112235714Y-93584285D01*
X112235714Y-93241428D01*
X112178571Y-93127142D01*
X112121428Y-93070000D01*
X112007142Y-93012857D01*
X111778571Y-93012857D01*
X111664285Y-93070000D01*
X110978571Y-93812857D02*
X111092857Y-93755714D01*
X111150000Y-93698571D01*
X111207142Y-93584285D01*
X111207142Y-93241428D01*
X111150000Y-93127142D01*
X111092857Y-93070000D01*
X110978571Y-93012857D01*
X110807142Y-93012857D01*
X110692857Y-93070000D01*
X110635714Y-93127142D01*
X110578571Y-93241428D01*
X110578571Y-93584285D01*
X110635714Y-93698571D01*
X110692857Y-93755714D01*
X110807142Y-93812857D01*
X110978571Y-93812857D01*
X109550000Y-93812857D02*
X109550000Y-92612857D01*
X109550000Y-93755714D02*
X109664285Y-93812857D01*
X109892857Y-93812857D01*
X110007142Y-93755714D01*
X110064285Y-93698571D01*
X110121428Y-93584285D01*
X110121428Y-93241428D01*
X110064285Y-93127142D01*
X110007142Y-93070000D01*
X109892857Y-93012857D01*
X109664285Y-93012857D01*
X109550000Y-93070000D01*
X108521428Y-93755714D02*
X108635714Y-93812857D01*
X108864285Y-93812857D01*
X108978571Y-93755714D01*
X109035714Y-93641428D01*
X109035714Y-93184285D01*
X108978571Y-93070000D01*
X108864285Y-93012857D01*
X108635714Y-93012857D01*
X108521428Y-93070000D01*
X108464285Y-93184285D01*
X108464285Y-93298571D01*
X109035714Y-93412857D01*
X107950000Y-93812857D02*
X107950000Y-93012857D01*
X107950000Y-93241428D02*
X107892857Y-93127142D01*
X107835714Y-93070000D01*
X107721428Y-93012857D01*
X107607142Y-93012857D01*
X115578571Y-94592857D02*
X115178571Y-95792857D01*
X114778571Y-94592857D01*
X113750000Y-95792857D02*
X114435714Y-95792857D01*
X114092857Y-95792857D02*
X114092857Y-94592857D01*
X114207142Y-94764285D01*
X114321428Y-94878571D01*
X114435714Y-94935714D01*
X113235714Y-95678571D02*
X113178571Y-95735714D01*
X113235714Y-95792857D01*
X113292857Y-95735714D01*
X113235714Y-95678571D01*
X113235714Y-95792857D01*
X112435714Y-94592857D02*
X112321428Y-94592857D01*
X112207142Y-94650000D01*
X112150000Y-94707142D01*
X112092857Y-94821428D01*
X112035714Y-95050000D01*
X112035714Y-95335714D01*
X112092857Y-95564285D01*
X112150000Y-95678571D01*
X112207142Y-95735714D01*
X112321428Y-95792857D01*
X112435714Y-95792857D01*
X112550000Y-95735714D01*
X112607142Y-95678571D01*
X112664285Y-95564285D01*
X112721428Y-95335714D01*
X112721428Y-95050000D01*
X112664285Y-94821428D01*
X112607142Y-94707142D01*
X112550000Y-94650000D01*
X112435714Y-94592857D01*
X117150000Y-97887142D02*
X117264285Y-97830000D01*
X117378571Y-97715714D01*
X117550000Y-97544285D01*
X117664285Y-97487142D01*
X117778571Y-97487142D01*
X117721428Y-97772857D02*
X117835714Y-97715714D01*
X117950000Y-97601428D01*
X118007142Y-97372857D01*
X118007142Y-96972857D01*
X117950000Y-96744285D01*
X117835714Y-96630000D01*
X117721428Y-96572857D01*
X117492857Y-96572857D01*
X117378571Y-96630000D01*
X117264285Y-96744285D01*
X117207142Y-96972857D01*
X117207142Y-97372857D01*
X117264285Y-97601428D01*
X117378571Y-97715714D01*
X117492857Y-97772857D01*
X117721428Y-97772857D01*
X116692857Y-97144285D02*
X116292857Y-97144285D01*
X116121428Y-97772857D02*
X116692857Y-97772857D01*
X116692857Y-96572857D01*
X116121428Y-96572857D01*
X115664285Y-97715714D02*
X115492857Y-97772857D01*
X115207142Y-97772857D01*
X115092857Y-97715714D01*
X115035714Y-97658571D01*
X114978571Y-97544285D01*
X114978571Y-97430000D01*
X115035714Y-97315714D01*
X115092857Y-97258571D01*
X115207142Y-97201428D01*
X115435714Y-97144285D01*
X115550000Y-97087142D01*
X115607142Y-97030000D01*
X115664285Y-96915714D01*
X115664285Y-96801428D01*
X115607142Y-96687142D01*
X115550000Y-96630000D01*
X115435714Y-96572857D01*
X115150000Y-96572857D01*
X114978571Y-96630000D01*
X113607142Y-96687142D02*
X113550000Y-96630000D01*
X113435714Y-96572857D01*
X113150000Y-96572857D01*
X113035714Y-96630000D01*
X112978571Y-96687142D01*
X112921428Y-96801428D01*
X112921428Y-96915714D01*
X112978571Y-97087142D01*
X113664285Y-97772857D01*
X112921428Y-97772857D01*
X112178571Y-96572857D02*
X112064285Y-96572857D01*
X111950000Y-96630000D01*
X111892857Y-96687142D01*
X111835714Y-96801428D01*
X111778571Y-97030000D01*
X111778571Y-97315714D01*
X111835714Y-97544285D01*
X111892857Y-97658571D01*
X111950000Y-97715714D01*
X112064285Y-97772857D01*
X112178571Y-97772857D01*
X112292857Y-97715714D01*
X112350000Y-97658571D01*
X112407142Y-97544285D01*
X112464285Y-97315714D01*
X112464285Y-97030000D01*
X112407142Y-96801428D01*
X112350000Y-96687142D01*
X112292857Y-96630000D01*
X112178571Y-96572857D01*
X111321428Y-96687142D02*
X111264285Y-96630000D01*
X111150000Y-96572857D01*
X110864285Y-96572857D01*
X110750000Y-96630000D01*
X110692857Y-96687142D01*
X110635714Y-96801428D01*
X110635714Y-96915714D01*
X110692857Y-97087142D01*
X111378571Y-97772857D01*
X110635714Y-97772857D01*
X109492857Y-97772857D02*
X110178571Y-97772857D01*
X109835714Y-97772857D02*
X109835714Y-96572857D01*
X109950000Y-96744285D01*
X110064285Y-96858571D01*
X110178571Y-96915714D01*
X119778571Y-65755714D02*
X119607142Y-65812857D01*
X119321428Y-65812857D01*
X119207142Y-65755714D01*
X119150000Y-65698571D01*
X119092857Y-65584285D01*
X119092857Y-65470000D01*
X119150000Y-65355714D01*
X119207142Y-65298571D01*
X119321428Y-65241428D01*
X119550000Y-65184285D01*
X119664285Y-65127142D01*
X119721428Y-65070000D01*
X119778571Y-64955714D01*
X119778571Y-64841428D01*
X119721428Y-64727142D01*
X119664285Y-64670000D01*
X119550000Y-64612857D01*
X119264285Y-64612857D01*
X119092857Y-64670000D01*
X118178571Y-65184285D02*
X118007142Y-65241428D01*
X117950000Y-65298571D01*
X117892857Y-65412857D01*
X117892857Y-65584285D01*
X117950000Y-65698571D01*
X118007142Y-65755714D01*
X118121428Y-65812857D01*
X118578571Y-65812857D01*
X118578571Y-64612857D01*
X118178571Y-64612857D01*
X118064285Y-64670000D01*
X118007142Y-64727142D01*
X117950000Y-64841428D01*
X117950000Y-64955714D01*
X118007142Y-65070000D01*
X118064285Y-65127142D01*
X118178571Y-65184285D01*
X118578571Y-65184285D01*
X116864285Y-65012857D02*
X116864285Y-65812857D01*
X117378571Y-65012857D02*
X117378571Y-65641428D01*
X117321428Y-65755714D01*
X117207142Y-65812857D01*
X117035714Y-65812857D01*
X116921428Y-65755714D01*
X116864285Y-65698571D01*
X116350000Y-65755714D02*
X116235714Y-65812857D01*
X116007142Y-65812857D01*
X115892857Y-65755714D01*
X115835714Y-65641428D01*
X115835714Y-65584285D01*
X115892857Y-65470000D01*
X116007142Y-65412857D01*
X116178571Y-65412857D01*
X116292857Y-65355714D01*
X116350000Y-65241428D01*
X116350000Y-65184285D01*
X116292857Y-65070000D01*
X116178571Y-65012857D01*
X116007142Y-65012857D01*
X115892857Y-65070000D01*
X114407142Y-65812857D02*
X114407142Y-64612857D01*
X114121428Y-64612857D01*
X113950000Y-64670000D01*
X113835714Y-64784285D01*
X113778571Y-64898571D01*
X113721428Y-65127142D01*
X113721428Y-65298571D01*
X113778571Y-65527142D01*
X113835714Y-65641428D01*
X113950000Y-65755714D01*
X114121428Y-65812857D01*
X114407142Y-65812857D01*
X112750000Y-65755714D02*
X112864285Y-65812857D01*
X113092857Y-65812857D01*
X113207142Y-65755714D01*
X113264285Y-65641428D01*
X113264285Y-65184285D01*
X113207142Y-65070000D01*
X113092857Y-65012857D01*
X112864285Y-65012857D01*
X112750000Y-65070000D01*
X112692857Y-65184285D01*
X112692857Y-65298571D01*
X113264285Y-65412857D01*
X111664285Y-65755714D02*
X111778571Y-65812857D01*
X112007142Y-65812857D01*
X112121428Y-65755714D01*
X112178571Y-65698571D01*
X112235714Y-65584285D01*
X112235714Y-65241428D01*
X112178571Y-65127142D01*
X112121428Y-65070000D01*
X112007142Y-65012857D01*
X111778571Y-65012857D01*
X111664285Y-65070000D01*
X110978571Y-65812857D02*
X111092857Y-65755714D01*
X111150000Y-65698571D01*
X111207142Y-65584285D01*
X111207142Y-65241428D01*
X111150000Y-65127142D01*
X111092857Y-65070000D01*
X110978571Y-65012857D01*
X110807142Y-65012857D01*
X110692857Y-65070000D01*
X110635714Y-65127142D01*
X110578571Y-65241428D01*
X110578571Y-65584285D01*
X110635714Y-65698571D01*
X110692857Y-65755714D01*
X110807142Y-65812857D01*
X110978571Y-65812857D01*
X109550000Y-65812857D02*
X109550000Y-64612857D01*
X109550000Y-65755714D02*
X109664285Y-65812857D01*
X109892857Y-65812857D01*
X110007142Y-65755714D01*
X110064285Y-65698571D01*
X110121428Y-65584285D01*
X110121428Y-65241428D01*
X110064285Y-65127142D01*
X110007142Y-65070000D01*
X109892857Y-65012857D01*
X109664285Y-65012857D01*
X109550000Y-65070000D01*
X108521428Y-65755714D02*
X108635714Y-65812857D01*
X108864285Y-65812857D01*
X108978571Y-65755714D01*
X109035714Y-65641428D01*
X109035714Y-65184285D01*
X108978571Y-65070000D01*
X108864285Y-65012857D01*
X108635714Y-65012857D01*
X108521428Y-65070000D01*
X108464285Y-65184285D01*
X108464285Y-65298571D01*
X109035714Y-65412857D01*
X107950000Y-65812857D02*
X107950000Y-65012857D01*
X107950000Y-65241428D02*
X107892857Y-65127142D01*
X107835714Y-65070000D01*
X107721428Y-65012857D01*
X107607142Y-65012857D01*
X115578571Y-66592857D02*
X115178571Y-67792857D01*
X114778571Y-66592857D01*
X113750000Y-67792857D02*
X114435714Y-67792857D01*
X114092857Y-67792857D02*
X114092857Y-66592857D01*
X114207142Y-66764285D01*
X114321428Y-66878571D01*
X114435714Y-66935714D01*
X113235714Y-67678571D02*
X113178571Y-67735714D01*
X113235714Y-67792857D01*
X113292857Y-67735714D01*
X113235714Y-67678571D01*
X113235714Y-67792857D01*
X112435714Y-66592857D02*
X112321428Y-66592857D01*
X112207142Y-66650000D01*
X112150000Y-66707142D01*
X112092857Y-66821428D01*
X112035714Y-67050000D01*
X112035714Y-67335714D01*
X112092857Y-67564285D01*
X112150000Y-67678571D01*
X112207142Y-67735714D01*
X112321428Y-67792857D01*
X112435714Y-67792857D01*
X112550000Y-67735714D01*
X112607142Y-67678571D01*
X112664285Y-67564285D01*
X112721428Y-67335714D01*
X112721428Y-67050000D01*
X112664285Y-66821428D01*
X112607142Y-66707142D01*
X112550000Y-66650000D01*
X112435714Y-66592857D01*
X117150000Y-69887142D02*
X117264285Y-69830000D01*
X117378571Y-69715714D01*
X117550000Y-69544285D01*
X117664285Y-69487142D01*
X117778571Y-69487142D01*
X117721428Y-69772857D02*
X117835714Y-69715714D01*
X117950000Y-69601428D01*
X118007142Y-69372857D01*
X118007142Y-68972857D01*
X117950000Y-68744285D01*
X117835714Y-68630000D01*
X117721428Y-68572857D01*
X117492857Y-68572857D01*
X117378571Y-68630000D01*
X117264285Y-68744285D01*
X117207142Y-68972857D01*
X117207142Y-69372857D01*
X117264285Y-69601428D01*
X117378571Y-69715714D01*
X117492857Y-69772857D01*
X117721428Y-69772857D01*
X116692857Y-69144285D02*
X116292857Y-69144285D01*
X116121428Y-69772857D02*
X116692857Y-69772857D01*
X116692857Y-68572857D01*
X116121428Y-68572857D01*
X115664285Y-69715714D02*
X115492857Y-69772857D01*
X115207142Y-69772857D01*
X115092857Y-69715714D01*
X115035714Y-69658571D01*
X114978571Y-69544285D01*
X114978571Y-69430000D01*
X115035714Y-69315714D01*
X115092857Y-69258571D01*
X115207142Y-69201428D01*
X115435714Y-69144285D01*
X115550000Y-69087142D01*
X115607142Y-69030000D01*
X115664285Y-68915714D01*
X115664285Y-68801428D01*
X115607142Y-68687142D01*
X115550000Y-68630000D01*
X115435714Y-68572857D01*
X115150000Y-68572857D01*
X114978571Y-68630000D01*
X113607142Y-68687142D02*
X113550000Y-68630000D01*
X113435714Y-68572857D01*
X113150000Y-68572857D01*
X113035714Y-68630000D01*
X112978571Y-68687142D01*
X112921428Y-68801428D01*
X112921428Y-68915714D01*
X112978571Y-69087142D01*
X113664285Y-69772857D01*
X112921428Y-69772857D01*
X112178571Y-68572857D02*
X112064285Y-68572857D01*
X111950000Y-68630000D01*
X111892857Y-68687142D01*
X111835714Y-68801428D01*
X111778571Y-69030000D01*
X111778571Y-69315714D01*
X111835714Y-69544285D01*
X111892857Y-69658571D01*
X111950000Y-69715714D01*
X112064285Y-69772857D01*
X112178571Y-69772857D01*
X112292857Y-69715714D01*
X112350000Y-69658571D01*
X112407142Y-69544285D01*
X112464285Y-69315714D01*
X112464285Y-69030000D01*
X112407142Y-68801428D01*
X112350000Y-68687142D01*
X112292857Y-68630000D01*
X112178571Y-68572857D01*
X111321428Y-68687142D02*
X111264285Y-68630000D01*
X111150000Y-68572857D01*
X110864285Y-68572857D01*
X110750000Y-68630000D01*
X110692857Y-68687142D01*
X110635714Y-68801428D01*
X110635714Y-68915714D01*
X110692857Y-69087142D01*
X111378571Y-69772857D01*
X110635714Y-69772857D01*
X109492857Y-69772857D02*
X110178571Y-69772857D01*
X109835714Y-69772857D02*
X109835714Y-68572857D01*
X109950000Y-68744285D01*
X110064285Y-68858571D01*
X110178571Y-68915714D01*
X119778571Y-79755714D02*
X119607142Y-79812857D01*
X119321428Y-79812857D01*
X119207142Y-79755714D01*
X119150000Y-79698571D01*
X119092857Y-79584285D01*
X119092857Y-79470000D01*
X119150000Y-79355714D01*
X119207142Y-79298571D01*
X119321428Y-79241428D01*
X119550000Y-79184285D01*
X119664285Y-79127142D01*
X119721428Y-79070000D01*
X119778571Y-78955714D01*
X119778571Y-78841428D01*
X119721428Y-78727142D01*
X119664285Y-78670000D01*
X119550000Y-78612857D01*
X119264285Y-78612857D01*
X119092857Y-78670000D01*
X118178571Y-79184285D02*
X118007142Y-79241428D01*
X117950000Y-79298571D01*
X117892857Y-79412857D01*
X117892857Y-79584285D01*
X117950000Y-79698571D01*
X118007142Y-79755714D01*
X118121428Y-79812857D01*
X118578571Y-79812857D01*
X118578571Y-78612857D01*
X118178571Y-78612857D01*
X118064285Y-78670000D01*
X118007142Y-78727142D01*
X117950000Y-78841428D01*
X117950000Y-78955714D01*
X118007142Y-79070000D01*
X118064285Y-79127142D01*
X118178571Y-79184285D01*
X118578571Y-79184285D01*
X116864285Y-79012857D02*
X116864285Y-79812857D01*
X117378571Y-79012857D02*
X117378571Y-79641428D01*
X117321428Y-79755714D01*
X117207142Y-79812857D01*
X117035714Y-79812857D01*
X116921428Y-79755714D01*
X116864285Y-79698571D01*
X116350000Y-79755714D02*
X116235714Y-79812857D01*
X116007142Y-79812857D01*
X115892857Y-79755714D01*
X115835714Y-79641428D01*
X115835714Y-79584285D01*
X115892857Y-79470000D01*
X116007142Y-79412857D01*
X116178571Y-79412857D01*
X116292857Y-79355714D01*
X116350000Y-79241428D01*
X116350000Y-79184285D01*
X116292857Y-79070000D01*
X116178571Y-79012857D01*
X116007142Y-79012857D01*
X115892857Y-79070000D01*
X114407142Y-79812857D02*
X114407142Y-78612857D01*
X114121428Y-78612857D01*
X113950000Y-78670000D01*
X113835714Y-78784285D01*
X113778571Y-78898571D01*
X113721428Y-79127142D01*
X113721428Y-79298571D01*
X113778571Y-79527142D01*
X113835714Y-79641428D01*
X113950000Y-79755714D01*
X114121428Y-79812857D01*
X114407142Y-79812857D01*
X112750000Y-79755714D02*
X112864285Y-79812857D01*
X113092857Y-79812857D01*
X113207142Y-79755714D01*
X113264285Y-79641428D01*
X113264285Y-79184285D01*
X113207142Y-79070000D01*
X113092857Y-79012857D01*
X112864285Y-79012857D01*
X112750000Y-79070000D01*
X112692857Y-79184285D01*
X112692857Y-79298571D01*
X113264285Y-79412857D01*
X111664285Y-79755714D02*
X111778571Y-79812857D01*
X112007142Y-79812857D01*
X112121428Y-79755714D01*
X112178571Y-79698571D01*
X112235714Y-79584285D01*
X112235714Y-79241428D01*
X112178571Y-79127142D01*
X112121428Y-79070000D01*
X112007142Y-79012857D01*
X111778571Y-79012857D01*
X111664285Y-79070000D01*
X110978571Y-79812857D02*
X111092857Y-79755714D01*
X111150000Y-79698571D01*
X111207142Y-79584285D01*
X111207142Y-79241428D01*
X111150000Y-79127142D01*
X111092857Y-79070000D01*
X110978571Y-79012857D01*
X110807142Y-79012857D01*
X110692857Y-79070000D01*
X110635714Y-79127142D01*
X110578571Y-79241428D01*
X110578571Y-79584285D01*
X110635714Y-79698571D01*
X110692857Y-79755714D01*
X110807142Y-79812857D01*
X110978571Y-79812857D01*
X109550000Y-79812857D02*
X109550000Y-78612857D01*
X109550000Y-79755714D02*
X109664285Y-79812857D01*
X109892857Y-79812857D01*
X110007142Y-79755714D01*
X110064285Y-79698571D01*
X110121428Y-79584285D01*
X110121428Y-79241428D01*
X110064285Y-79127142D01*
X110007142Y-79070000D01*
X109892857Y-79012857D01*
X109664285Y-79012857D01*
X109550000Y-79070000D01*
X108521428Y-79755714D02*
X108635714Y-79812857D01*
X108864285Y-79812857D01*
X108978571Y-79755714D01*
X109035714Y-79641428D01*
X109035714Y-79184285D01*
X108978571Y-79070000D01*
X108864285Y-79012857D01*
X108635714Y-79012857D01*
X108521428Y-79070000D01*
X108464285Y-79184285D01*
X108464285Y-79298571D01*
X109035714Y-79412857D01*
X107950000Y-79812857D02*
X107950000Y-79012857D01*
X107950000Y-79241428D02*
X107892857Y-79127142D01*
X107835714Y-79070000D01*
X107721428Y-79012857D01*
X107607142Y-79012857D01*
X115578571Y-80592857D02*
X115178571Y-81792857D01*
X114778571Y-80592857D01*
X113750000Y-81792857D02*
X114435714Y-81792857D01*
X114092857Y-81792857D02*
X114092857Y-80592857D01*
X114207142Y-80764285D01*
X114321428Y-80878571D01*
X114435714Y-80935714D01*
X113235714Y-81678571D02*
X113178571Y-81735714D01*
X113235714Y-81792857D01*
X113292857Y-81735714D01*
X113235714Y-81678571D01*
X113235714Y-81792857D01*
X112435714Y-80592857D02*
X112321428Y-80592857D01*
X112207142Y-80650000D01*
X112150000Y-80707142D01*
X112092857Y-80821428D01*
X112035714Y-81050000D01*
X112035714Y-81335714D01*
X112092857Y-81564285D01*
X112150000Y-81678571D01*
X112207142Y-81735714D01*
X112321428Y-81792857D01*
X112435714Y-81792857D01*
X112550000Y-81735714D01*
X112607142Y-81678571D01*
X112664285Y-81564285D01*
X112721428Y-81335714D01*
X112721428Y-81050000D01*
X112664285Y-80821428D01*
X112607142Y-80707142D01*
X112550000Y-80650000D01*
X112435714Y-80592857D01*
X117150000Y-83887142D02*
X117264285Y-83830000D01*
X117378571Y-83715714D01*
X117550000Y-83544285D01*
X117664285Y-83487142D01*
X117778571Y-83487142D01*
X117721428Y-83772857D02*
X117835714Y-83715714D01*
X117950000Y-83601428D01*
X118007142Y-83372857D01*
X118007142Y-82972857D01*
X117950000Y-82744285D01*
X117835714Y-82630000D01*
X117721428Y-82572857D01*
X117492857Y-82572857D01*
X117378571Y-82630000D01*
X117264285Y-82744285D01*
X117207142Y-82972857D01*
X117207142Y-83372857D01*
X117264285Y-83601428D01*
X117378571Y-83715714D01*
X117492857Y-83772857D01*
X117721428Y-83772857D01*
X116692857Y-83144285D02*
X116292857Y-83144285D01*
X116121428Y-83772857D02*
X116692857Y-83772857D01*
X116692857Y-82572857D01*
X116121428Y-82572857D01*
X115664285Y-83715714D02*
X115492857Y-83772857D01*
X115207142Y-83772857D01*
X115092857Y-83715714D01*
X115035714Y-83658571D01*
X114978571Y-83544285D01*
X114978571Y-83430000D01*
X115035714Y-83315714D01*
X115092857Y-83258571D01*
X115207142Y-83201428D01*
X115435714Y-83144285D01*
X115550000Y-83087142D01*
X115607142Y-83030000D01*
X115664285Y-82915714D01*
X115664285Y-82801428D01*
X115607142Y-82687142D01*
X115550000Y-82630000D01*
X115435714Y-82572857D01*
X115150000Y-82572857D01*
X114978571Y-82630000D01*
X113607142Y-82687142D02*
X113550000Y-82630000D01*
X113435714Y-82572857D01*
X113150000Y-82572857D01*
X113035714Y-82630000D01*
X112978571Y-82687142D01*
X112921428Y-82801428D01*
X112921428Y-82915714D01*
X112978571Y-83087142D01*
X113664285Y-83772857D01*
X112921428Y-83772857D01*
X112178571Y-82572857D02*
X112064285Y-82572857D01*
X111950000Y-82630000D01*
X111892857Y-82687142D01*
X111835714Y-82801428D01*
X111778571Y-83030000D01*
X111778571Y-83315714D01*
X111835714Y-83544285D01*
X111892857Y-83658571D01*
X111950000Y-83715714D01*
X112064285Y-83772857D01*
X112178571Y-83772857D01*
X112292857Y-83715714D01*
X112350000Y-83658571D01*
X112407142Y-83544285D01*
X112464285Y-83315714D01*
X112464285Y-83030000D01*
X112407142Y-82801428D01*
X112350000Y-82687142D01*
X112292857Y-82630000D01*
X112178571Y-82572857D01*
X111321428Y-82687142D02*
X111264285Y-82630000D01*
X111150000Y-82572857D01*
X110864285Y-82572857D01*
X110750000Y-82630000D01*
X110692857Y-82687142D01*
X110635714Y-82801428D01*
X110635714Y-82915714D01*
X110692857Y-83087142D01*
X111378571Y-83772857D01*
X110635714Y-83772857D01*
X109492857Y-83772857D02*
X110178571Y-83772857D01*
X109835714Y-83772857D02*
X109835714Y-82572857D01*
X109950000Y-82744285D01*
X110064285Y-82858571D01*
X110178571Y-82915714D01*
X92028571Y-79755714D02*
X91857142Y-79812857D01*
X91571428Y-79812857D01*
X91457142Y-79755714D01*
X91400000Y-79698571D01*
X91342857Y-79584285D01*
X91342857Y-79470000D01*
X91400000Y-79355714D01*
X91457142Y-79298571D01*
X91571428Y-79241428D01*
X91800000Y-79184285D01*
X91914285Y-79127142D01*
X91971428Y-79070000D01*
X92028571Y-78955714D01*
X92028571Y-78841428D01*
X91971428Y-78727142D01*
X91914285Y-78670000D01*
X91800000Y-78612857D01*
X91514285Y-78612857D01*
X91342857Y-78670000D01*
X90428571Y-79184285D02*
X90257142Y-79241428D01*
X90200000Y-79298571D01*
X90142857Y-79412857D01*
X90142857Y-79584285D01*
X90200000Y-79698571D01*
X90257142Y-79755714D01*
X90371428Y-79812857D01*
X90828571Y-79812857D01*
X90828571Y-78612857D01*
X90428571Y-78612857D01*
X90314285Y-78670000D01*
X90257142Y-78727142D01*
X90200000Y-78841428D01*
X90200000Y-78955714D01*
X90257142Y-79070000D01*
X90314285Y-79127142D01*
X90428571Y-79184285D01*
X90828571Y-79184285D01*
X89114285Y-79012857D02*
X89114285Y-79812857D01*
X89628571Y-79012857D02*
X89628571Y-79641428D01*
X89571428Y-79755714D01*
X89457142Y-79812857D01*
X89285714Y-79812857D01*
X89171428Y-79755714D01*
X89114285Y-79698571D01*
X88600000Y-79755714D02*
X88485714Y-79812857D01*
X88257142Y-79812857D01*
X88142857Y-79755714D01*
X88085714Y-79641428D01*
X88085714Y-79584285D01*
X88142857Y-79470000D01*
X88257142Y-79412857D01*
X88428571Y-79412857D01*
X88542857Y-79355714D01*
X88600000Y-79241428D01*
X88600000Y-79184285D01*
X88542857Y-79070000D01*
X88428571Y-79012857D01*
X88257142Y-79012857D01*
X88142857Y-79070000D01*
X86657142Y-79812857D02*
X86657142Y-78612857D01*
X86371428Y-78612857D01*
X86200000Y-78670000D01*
X86085714Y-78784285D01*
X86028571Y-78898571D01*
X85971428Y-79127142D01*
X85971428Y-79298571D01*
X86028571Y-79527142D01*
X86085714Y-79641428D01*
X86200000Y-79755714D01*
X86371428Y-79812857D01*
X86657142Y-79812857D01*
X85000000Y-79755714D02*
X85114285Y-79812857D01*
X85342857Y-79812857D01*
X85457142Y-79755714D01*
X85514285Y-79641428D01*
X85514285Y-79184285D01*
X85457142Y-79070000D01*
X85342857Y-79012857D01*
X85114285Y-79012857D01*
X85000000Y-79070000D01*
X84942857Y-79184285D01*
X84942857Y-79298571D01*
X85514285Y-79412857D01*
X83914285Y-79755714D02*
X84028571Y-79812857D01*
X84257142Y-79812857D01*
X84371428Y-79755714D01*
X84428571Y-79698571D01*
X84485714Y-79584285D01*
X84485714Y-79241428D01*
X84428571Y-79127142D01*
X84371428Y-79070000D01*
X84257142Y-79012857D01*
X84028571Y-79012857D01*
X83914285Y-79070000D01*
X83228571Y-79812857D02*
X83342857Y-79755714D01*
X83400000Y-79698571D01*
X83457142Y-79584285D01*
X83457142Y-79241428D01*
X83400000Y-79127142D01*
X83342857Y-79070000D01*
X83228571Y-79012857D01*
X83057142Y-79012857D01*
X82942857Y-79070000D01*
X82885714Y-79127142D01*
X82828571Y-79241428D01*
X82828571Y-79584285D01*
X82885714Y-79698571D01*
X82942857Y-79755714D01*
X83057142Y-79812857D01*
X83228571Y-79812857D01*
X81800000Y-79812857D02*
X81800000Y-78612857D01*
X81800000Y-79755714D02*
X81914285Y-79812857D01*
X82142857Y-79812857D01*
X82257142Y-79755714D01*
X82314285Y-79698571D01*
X82371428Y-79584285D01*
X82371428Y-79241428D01*
X82314285Y-79127142D01*
X82257142Y-79070000D01*
X82142857Y-79012857D01*
X81914285Y-79012857D01*
X81800000Y-79070000D01*
X80771428Y-79755714D02*
X80885714Y-79812857D01*
X81114285Y-79812857D01*
X81228571Y-79755714D01*
X81285714Y-79641428D01*
X81285714Y-79184285D01*
X81228571Y-79070000D01*
X81114285Y-79012857D01*
X80885714Y-79012857D01*
X80771428Y-79070000D01*
X80714285Y-79184285D01*
X80714285Y-79298571D01*
X81285714Y-79412857D01*
X80200000Y-79812857D02*
X80200000Y-79012857D01*
X80200000Y-79241428D02*
X80142857Y-79127142D01*
X80085714Y-79070000D01*
X79971428Y-79012857D01*
X79857142Y-79012857D01*
X87828571Y-80592857D02*
X87428571Y-81792857D01*
X87028571Y-80592857D01*
X86000000Y-81792857D02*
X86685714Y-81792857D01*
X86342857Y-81792857D02*
X86342857Y-80592857D01*
X86457142Y-80764285D01*
X86571428Y-80878571D01*
X86685714Y-80935714D01*
X85485714Y-81678571D02*
X85428571Y-81735714D01*
X85485714Y-81792857D01*
X85542857Y-81735714D01*
X85485714Y-81678571D01*
X85485714Y-81792857D01*
X84685714Y-80592857D02*
X84571428Y-80592857D01*
X84457142Y-80650000D01*
X84400000Y-80707142D01*
X84342857Y-80821428D01*
X84285714Y-81050000D01*
X84285714Y-81335714D01*
X84342857Y-81564285D01*
X84400000Y-81678571D01*
X84457142Y-81735714D01*
X84571428Y-81792857D01*
X84685714Y-81792857D01*
X84800000Y-81735714D01*
X84857142Y-81678571D01*
X84914285Y-81564285D01*
X84971428Y-81335714D01*
X84971428Y-81050000D01*
X84914285Y-80821428D01*
X84857142Y-80707142D01*
X84800000Y-80650000D01*
X84685714Y-80592857D01*
X89400000Y-83887142D02*
X89514285Y-83830000D01*
X89628571Y-83715714D01*
X89800000Y-83544285D01*
X89914285Y-83487142D01*
X90028571Y-83487142D01*
X89971428Y-83772857D02*
X90085714Y-83715714D01*
X90200000Y-83601428D01*
X90257142Y-83372857D01*
X90257142Y-82972857D01*
X90200000Y-82744285D01*
X90085714Y-82630000D01*
X89971428Y-82572857D01*
X89742857Y-82572857D01*
X89628571Y-82630000D01*
X89514285Y-82744285D01*
X89457142Y-82972857D01*
X89457142Y-83372857D01*
X89514285Y-83601428D01*
X89628571Y-83715714D01*
X89742857Y-83772857D01*
X89971428Y-83772857D01*
X88942857Y-83144285D02*
X88542857Y-83144285D01*
X88371428Y-83772857D02*
X88942857Y-83772857D01*
X88942857Y-82572857D01*
X88371428Y-82572857D01*
X87914285Y-83715714D02*
X87742857Y-83772857D01*
X87457142Y-83772857D01*
X87342857Y-83715714D01*
X87285714Y-83658571D01*
X87228571Y-83544285D01*
X87228571Y-83430000D01*
X87285714Y-83315714D01*
X87342857Y-83258571D01*
X87457142Y-83201428D01*
X87685714Y-83144285D01*
X87800000Y-83087142D01*
X87857142Y-83030000D01*
X87914285Y-82915714D01*
X87914285Y-82801428D01*
X87857142Y-82687142D01*
X87800000Y-82630000D01*
X87685714Y-82572857D01*
X87400000Y-82572857D01*
X87228571Y-82630000D01*
X85857142Y-82687142D02*
X85800000Y-82630000D01*
X85685714Y-82572857D01*
X85400000Y-82572857D01*
X85285714Y-82630000D01*
X85228571Y-82687142D01*
X85171428Y-82801428D01*
X85171428Y-82915714D01*
X85228571Y-83087142D01*
X85914285Y-83772857D01*
X85171428Y-83772857D01*
X84428571Y-82572857D02*
X84314285Y-82572857D01*
X84200000Y-82630000D01*
X84142857Y-82687142D01*
X84085714Y-82801428D01*
X84028571Y-83030000D01*
X84028571Y-83315714D01*
X84085714Y-83544285D01*
X84142857Y-83658571D01*
X84200000Y-83715714D01*
X84314285Y-83772857D01*
X84428571Y-83772857D01*
X84542857Y-83715714D01*
X84600000Y-83658571D01*
X84657142Y-83544285D01*
X84714285Y-83315714D01*
X84714285Y-83030000D01*
X84657142Y-82801428D01*
X84600000Y-82687142D01*
X84542857Y-82630000D01*
X84428571Y-82572857D01*
X83571428Y-82687142D02*
X83514285Y-82630000D01*
X83400000Y-82572857D01*
X83114285Y-82572857D01*
X83000000Y-82630000D01*
X82942857Y-82687142D01*
X82885714Y-82801428D01*
X82885714Y-82915714D01*
X82942857Y-83087142D01*
X83628571Y-83772857D01*
X82885714Y-83772857D01*
X81742857Y-83772857D02*
X82428571Y-83772857D01*
X82085714Y-83772857D02*
X82085714Y-82572857D01*
X82200000Y-82744285D01*
X82314285Y-82858571D01*
X82428571Y-82915714D01*
X92028571Y-93755714D02*
X91857142Y-93812857D01*
X91571428Y-93812857D01*
X91457142Y-93755714D01*
X91400000Y-93698571D01*
X91342857Y-93584285D01*
X91342857Y-93470000D01*
X91400000Y-93355714D01*
X91457142Y-93298571D01*
X91571428Y-93241428D01*
X91800000Y-93184285D01*
X91914285Y-93127142D01*
X91971428Y-93070000D01*
X92028571Y-92955714D01*
X92028571Y-92841428D01*
X91971428Y-92727142D01*
X91914285Y-92670000D01*
X91800000Y-92612857D01*
X91514285Y-92612857D01*
X91342857Y-92670000D01*
X90428571Y-93184285D02*
X90257142Y-93241428D01*
X90200000Y-93298571D01*
X90142857Y-93412857D01*
X90142857Y-93584285D01*
X90200000Y-93698571D01*
X90257142Y-93755714D01*
X90371428Y-93812857D01*
X90828571Y-93812857D01*
X90828571Y-92612857D01*
X90428571Y-92612857D01*
X90314285Y-92670000D01*
X90257142Y-92727142D01*
X90200000Y-92841428D01*
X90200000Y-92955714D01*
X90257142Y-93070000D01*
X90314285Y-93127142D01*
X90428571Y-93184285D01*
X90828571Y-93184285D01*
X89114285Y-93012857D02*
X89114285Y-93812857D01*
X89628571Y-93012857D02*
X89628571Y-93641428D01*
X89571428Y-93755714D01*
X89457142Y-93812857D01*
X89285714Y-93812857D01*
X89171428Y-93755714D01*
X89114285Y-93698571D01*
X88600000Y-93755714D02*
X88485714Y-93812857D01*
X88257142Y-93812857D01*
X88142857Y-93755714D01*
X88085714Y-93641428D01*
X88085714Y-93584285D01*
X88142857Y-93470000D01*
X88257142Y-93412857D01*
X88428571Y-93412857D01*
X88542857Y-93355714D01*
X88600000Y-93241428D01*
X88600000Y-93184285D01*
X88542857Y-93070000D01*
X88428571Y-93012857D01*
X88257142Y-93012857D01*
X88142857Y-93070000D01*
X86657142Y-93812857D02*
X86657142Y-92612857D01*
X86371428Y-92612857D01*
X86200000Y-92670000D01*
X86085714Y-92784285D01*
X86028571Y-92898571D01*
X85971428Y-93127142D01*
X85971428Y-93298571D01*
X86028571Y-93527142D01*
X86085714Y-93641428D01*
X86200000Y-93755714D01*
X86371428Y-93812857D01*
X86657142Y-93812857D01*
X85000000Y-93755714D02*
X85114285Y-93812857D01*
X85342857Y-93812857D01*
X85457142Y-93755714D01*
X85514285Y-93641428D01*
X85514285Y-93184285D01*
X85457142Y-93070000D01*
X85342857Y-93012857D01*
X85114285Y-93012857D01*
X85000000Y-93070000D01*
X84942857Y-93184285D01*
X84942857Y-93298571D01*
X85514285Y-93412857D01*
X83914285Y-93755714D02*
X84028571Y-93812857D01*
X84257142Y-93812857D01*
X84371428Y-93755714D01*
X84428571Y-93698571D01*
X84485714Y-93584285D01*
X84485714Y-93241428D01*
X84428571Y-93127142D01*
X84371428Y-93070000D01*
X84257142Y-93012857D01*
X84028571Y-93012857D01*
X83914285Y-93070000D01*
X83228571Y-93812857D02*
X83342857Y-93755714D01*
X83400000Y-93698571D01*
X83457142Y-93584285D01*
X83457142Y-93241428D01*
X83400000Y-93127142D01*
X83342857Y-93070000D01*
X83228571Y-93012857D01*
X83057142Y-93012857D01*
X82942857Y-93070000D01*
X82885714Y-93127142D01*
X82828571Y-93241428D01*
X82828571Y-93584285D01*
X82885714Y-93698571D01*
X82942857Y-93755714D01*
X83057142Y-93812857D01*
X83228571Y-93812857D01*
X81800000Y-93812857D02*
X81800000Y-92612857D01*
X81800000Y-93755714D02*
X81914285Y-93812857D01*
X82142857Y-93812857D01*
X82257142Y-93755714D01*
X82314285Y-93698571D01*
X82371428Y-93584285D01*
X82371428Y-93241428D01*
X82314285Y-93127142D01*
X82257142Y-93070000D01*
X82142857Y-93012857D01*
X81914285Y-93012857D01*
X81800000Y-93070000D01*
X80771428Y-93755714D02*
X80885714Y-93812857D01*
X81114285Y-93812857D01*
X81228571Y-93755714D01*
X81285714Y-93641428D01*
X81285714Y-93184285D01*
X81228571Y-93070000D01*
X81114285Y-93012857D01*
X80885714Y-93012857D01*
X80771428Y-93070000D01*
X80714285Y-93184285D01*
X80714285Y-93298571D01*
X81285714Y-93412857D01*
X80200000Y-93812857D02*
X80200000Y-93012857D01*
X80200000Y-93241428D02*
X80142857Y-93127142D01*
X80085714Y-93070000D01*
X79971428Y-93012857D01*
X79857142Y-93012857D01*
X87828571Y-94592857D02*
X87428571Y-95792857D01*
X87028571Y-94592857D01*
X86000000Y-95792857D02*
X86685714Y-95792857D01*
X86342857Y-95792857D02*
X86342857Y-94592857D01*
X86457142Y-94764285D01*
X86571428Y-94878571D01*
X86685714Y-94935714D01*
X85485714Y-95678571D02*
X85428571Y-95735714D01*
X85485714Y-95792857D01*
X85542857Y-95735714D01*
X85485714Y-95678571D01*
X85485714Y-95792857D01*
X84685714Y-94592857D02*
X84571428Y-94592857D01*
X84457142Y-94650000D01*
X84400000Y-94707142D01*
X84342857Y-94821428D01*
X84285714Y-95050000D01*
X84285714Y-95335714D01*
X84342857Y-95564285D01*
X84400000Y-95678571D01*
X84457142Y-95735714D01*
X84571428Y-95792857D01*
X84685714Y-95792857D01*
X84800000Y-95735714D01*
X84857142Y-95678571D01*
X84914285Y-95564285D01*
X84971428Y-95335714D01*
X84971428Y-95050000D01*
X84914285Y-94821428D01*
X84857142Y-94707142D01*
X84800000Y-94650000D01*
X84685714Y-94592857D01*
X89400000Y-97887142D02*
X89514285Y-97830000D01*
X89628571Y-97715714D01*
X89800000Y-97544285D01*
X89914285Y-97487142D01*
X90028571Y-97487142D01*
X89971428Y-97772857D02*
X90085714Y-97715714D01*
X90200000Y-97601428D01*
X90257142Y-97372857D01*
X90257142Y-96972857D01*
X90200000Y-96744285D01*
X90085714Y-96630000D01*
X89971428Y-96572857D01*
X89742857Y-96572857D01*
X89628571Y-96630000D01*
X89514285Y-96744285D01*
X89457142Y-96972857D01*
X89457142Y-97372857D01*
X89514285Y-97601428D01*
X89628571Y-97715714D01*
X89742857Y-97772857D01*
X89971428Y-97772857D01*
X88942857Y-97144285D02*
X88542857Y-97144285D01*
X88371428Y-97772857D02*
X88942857Y-97772857D01*
X88942857Y-96572857D01*
X88371428Y-96572857D01*
X87914285Y-97715714D02*
X87742857Y-97772857D01*
X87457142Y-97772857D01*
X87342857Y-97715714D01*
X87285714Y-97658571D01*
X87228571Y-97544285D01*
X87228571Y-97430000D01*
X87285714Y-97315714D01*
X87342857Y-97258571D01*
X87457142Y-97201428D01*
X87685714Y-97144285D01*
X87800000Y-97087142D01*
X87857142Y-97030000D01*
X87914285Y-96915714D01*
X87914285Y-96801428D01*
X87857142Y-96687142D01*
X87800000Y-96630000D01*
X87685714Y-96572857D01*
X87400000Y-96572857D01*
X87228571Y-96630000D01*
X85857142Y-96687142D02*
X85800000Y-96630000D01*
X85685714Y-96572857D01*
X85400000Y-96572857D01*
X85285714Y-96630000D01*
X85228571Y-96687142D01*
X85171428Y-96801428D01*
X85171428Y-96915714D01*
X85228571Y-97087142D01*
X85914285Y-97772857D01*
X85171428Y-97772857D01*
X84428571Y-96572857D02*
X84314285Y-96572857D01*
X84200000Y-96630000D01*
X84142857Y-96687142D01*
X84085714Y-96801428D01*
X84028571Y-97030000D01*
X84028571Y-97315714D01*
X84085714Y-97544285D01*
X84142857Y-97658571D01*
X84200000Y-97715714D01*
X84314285Y-97772857D01*
X84428571Y-97772857D01*
X84542857Y-97715714D01*
X84600000Y-97658571D01*
X84657142Y-97544285D01*
X84714285Y-97315714D01*
X84714285Y-97030000D01*
X84657142Y-96801428D01*
X84600000Y-96687142D01*
X84542857Y-96630000D01*
X84428571Y-96572857D01*
X83571428Y-96687142D02*
X83514285Y-96630000D01*
X83400000Y-96572857D01*
X83114285Y-96572857D01*
X83000000Y-96630000D01*
X82942857Y-96687142D01*
X82885714Y-96801428D01*
X82885714Y-96915714D01*
X82942857Y-97087142D01*
X83628571Y-97772857D01*
X82885714Y-97772857D01*
X81742857Y-97772857D02*
X82428571Y-97772857D01*
X82085714Y-97772857D02*
X82085714Y-96572857D01*
X82200000Y-96744285D01*
X82314285Y-96858571D01*
X82428571Y-96915714D01*
X92028571Y-65755714D02*
X91857142Y-65812857D01*
X91571428Y-65812857D01*
X91457142Y-65755714D01*
X91400000Y-65698571D01*
X91342857Y-65584285D01*
X91342857Y-65470000D01*
X91400000Y-65355714D01*
X91457142Y-65298571D01*
X91571428Y-65241428D01*
X91800000Y-65184285D01*
X91914285Y-65127142D01*
X91971428Y-65070000D01*
X92028571Y-64955714D01*
X92028571Y-64841428D01*
X91971428Y-64727142D01*
X91914285Y-64670000D01*
X91800000Y-64612857D01*
X91514285Y-64612857D01*
X91342857Y-64670000D01*
X90428571Y-65184285D02*
X90257142Y-65241428D01*
X90200000Y-65298571D01*
X90142857Y-65412857D01*
X90142857Y-65584285D01*
X90200000Y-65698571D01*
X90257142Y-65755714D01*
X90371428Y-65812857D01*
X90828571Y-65812857D01*
X90828571Y-64612857D01*
X90428571Y-64612857D01*
X90314285Y-64670000D01*
X90257142Y-64727142D01*
X90200000Y-64841428D01*
X90200000Y-64955714D01*
X90257142Y-65070000D01*
X90314285Y-65127142D01*
X90428571Y-65184285D01*
X90828571Y-65184285D01*
X89114285Y-65012857D02*
X89114285Y-65812857D01*
X89628571Y-65012857D02*
X89628571Y-65641428D01*
X89571428Y-65755714D01*
X89457142Y-65812857D01*
X89285714Y-65812857D01*
X89171428Y-65755714D01*
X89114285Y-65698571D01*
X88600000Y-65755714D02*
X88485714Y-65812857D01*
X88257142Y-65812857D01*
X88142857Y-65755714D01*
X88085714Y-65641428D01*
X88085714Y-65584285D01*
X88142857Y-65470000D01*
X88257142Y-65412857D01*
X88428571Y-65412857D01*
X88542857Y-65355714D01*
X88600000Y-65241428D01*
X88600000Y-65184285D01*
X88542857Y-65070000D01*
X88428571Y-65012857D01*
X88257142Y-65012857D01*
X88142857Y-65070000D01*
X86657142Y-65812857D02*
X86657142Y-64612857D01*
X86371428Y-64612857D01*
X86200000Y-64670000D01*
X86085714Y-64784285D01*
X86028571Y-64898571D01*
X85971428Y-65127142D01*
X85971428Y-65298571D01*
X86028571Y-65527142D01*
X86085714Y-65641428D01*
X86200000Y-65755714D01*
X86371428Y-65812857D01*
X86657142Y-65812857D01*
X85000000Y-65755714D02*
X85114285Y-65812857D01*
X85342857Y-65812857D01*
X85457142Y-65755714D01*
X85514285Y-65641428D01*
X85514285Y-65184285D01*
X85457142Y-65070000D01*
X85342857Y-65012857D01*
X85114285Y-65012857D01*
X85000000Y-65070000D01*
X84942857Y-65184285D01*
X84942857Y-65298571D01*
X85514285Y-65412857D01*
X83914285Y-65755714D02*
X84028571Y-65812857D01*
X84257142Y-65812857D01*
X84371428Y-65755714D01*
X84428571Y-65698571D01*
X84485714Y-65584285D01*
X84485714Y-65241428D01*
X84428571Y-65127142D01*
X84371428Y-65070000D01*
X84257142Y-65012857D01*
X84028571Y-65012857D01*
X83914285Y-65070000D01*
X83228571Y-65812857D02*
X83342857Y-65755714D01*
X83400000Y-65698571D01*
X83457142Y-65584285D01*
X83457142Y-65241428D01*
X83400000Y-65127142D01*
X83342857Y-65070000D01*
X83228571Y-65012857D01*
X83057142Y-65012857D01*
X82942857Y-65070000D01*
X82885714Y-65127142D01*
X82828571Y-65241428D01*
X82828571Y-65584285D01*
X82885714Y-65698571D01*
X82942857Y-65755714D01*
X83057142Y-65812857D01*
X83228571Y-65812857D01*
X81800000Y-65812857D02*
X81800000Y-64612857D01*
X81800000Y-65755714D02*
X81914285Y-65812857D01*
X82142857Y-65812857D01*
X82257142Y-65755714D01*
X82314285Y-65698571D01*
X82371428Y-65584285D01*
X82371428Y-65241428D01*
X82314285Y-65127142D01*
X82257142Y-65070000D01*
X82142857Y-65012857D01*
X81914285Y-65012857D01*
X81800000Y-65070000D01*
X80771428Y-65755714D02*
X80885714Y-65812857D01*
X81114285Y-65812857D01*
X81228571Y-65755714D01*
X81285714Y-65641428D01*
X81285714Y-65184285D01*
X81228571Y-65070000D01*
X81114285Y-65012857D01*
X80885714Y-65012857D01*
X80771428Y-65070000D01*
X80714285Y-65184285D01*
X80714285Y-65298571D01*
X81285714Y-65412857D01*
X80200000Y-65812857D02*
X80200000Y-65012857D01*
X80200000Y-65241428D02*
X80142857Y-65127142D01*
X80085714Y-65070000D01*
X79971428Y-65012857D01*
X79857142Y-65012857D01*
X87828571Y-66592857D02*
X87428571Y-67792857D01*
X87028571Y-66592857D01*
X86000000Y-67792857D02*
X86685714Y-67792857D01*
X86342857Y-67792857D02*
X86342857Y-66592857D01*
X86457142Y-66764285D01*
X86571428Y-66878571D01*
X86685714Y-66935714D01*
X85485714Y-67678571D02*
X85428571Y-67735714D01*
X85485714Y-67792857D01*
X85542857Y-67735714D01*
X85485714Y-67678571D01*
X85485714Y-67792857D01*
X84685714Y-66592857D02*
X84571428Y-66592857D01*
X84457142Y-66650000D01*
X84400000Y-66707142D01*
X84342857Y-66821428D01*
X84285714Y-67050000D01*
X84285714Y-67335714D01*
X84342857Y-67564285D01*
X84400000Y-67678571D01*
X84457142Y-67735714D01*
X84571428Y-67792857D01*
X84685714Y-67792857D01*
X84800000Y-67735714D01*
X84857142Y-67678571D01*
X84914285Y-67564285D01*
X84971428Y-67335714D01*
X84971428Y-67050000D01*
X84914285Y-66821428D01*
X84857142Y-66707142D01*
X84800000Y-66650000D01*
X84685714Y-66592857D01*
X89400000Y-69887142D02*
X89514285Y-69830000D01*
X89628571Y-69715714D01*
X89800000Y-69544285D01*
X89914285Y-69487142D01*
X90028571Y-69487142D01*
X89971428Y-69772857D02*
X90085714Y-69715714D01*
X90200000Y-69601428D01*
X90257142Y-69372857D01*
X90257142Y-68972857D01*
X90200000Y-68744285D01*
X90085714Y-68630000D01*
X89971428Y-68572857D01*
X89742857Y-68572857D01*
X89628571Y-68630000D01*
X89514285Y-68744285D01*
X89457142Y-68972857D01*
X89457142Y-69372857D01*
X89514285Y-69601428D01*
X89628571Y-69715714D01*
X89742857Y-69772857D01*
X89971428Y-69772857D01*
X88942857Y-69144285D02*
X88542857Y-69144285D01*
X88371428Y-69772857D02*
X88942857Y-69772857D01*
X88942857Y-68572857D01*
X88371428Y-68572857D01*
X87914285Y-69715714D02*
X87742857Y-69772857D01*
X87457142Y-69772857D01*
X87342857Y-69715714D01*
X87285714Y-69658571D01*
X87228571Y-69544285D01*
X87228571Y-69430000D01*
X87285714Y-69315714D01*
X87342857Y-69258571D01*
X87457142Y-69201428D01*
X87685714Y-69144285D01*
X87800000Y-69087142D01*
X87857142Y-69030000D01*
X87914285Y-68915714D01*
X87914285Y-68801428D01*
X87857142Y-68687142D01*
X87800000Y-68630000D01*
X87685714Y-68572857D01*
X87400000Y-68572857D01*
X87228571Y-68630000D01*
X85857142Y-68687142D02*
X85800000Y-68630000D01*
X85685714Y-68572857D01*
X85400000Y-68572857D01*
X85285714Y-68630000D01*
X85228571Y-68687142D01*
X85171428Y-68801428D01*
X85171428Y-68915714D01*
X85228571Y-69087142D01*
X85914285Y-69772857D01*
X85171428Y-69772857D01*
X84428571Y-68572857D02*
X84314285Y-68572857D01*
X84200000Y-68630000D01*
X84142857Y-68687142D01*
X84085714Y-68801428D01*
X84028571Y-69030000D01*
X84028571Y-69315714D01*
X84085714Y-69544285D01*
X84142857Y-69658571D01*
X84200000Y-69715714D01*
X84314285Y-69772857D01*
X84428571Y-69772857D01*
X84542857Y-69715714D01*
X84600000Y-69658571D01*
X84657142Y-69544285D01*
X84714285Y-69315714D01*
X84714285Y-69030000D01*
X84657142Y-68801428D01*
X84600000Y-68687142D01*
X84542857Y-68630000D01*
X84428571Y-68572857D01*
X83571428Y-68687142D02*
X83514285Y-68630000D01*
X83400000Y-68572857D01*
X83114285Y-68572857D01*
X83000000Y-68630000D01*
X82942857Y-68687142D01*
X82885714Y-68801428D01*
X82885714Y-68915714D01*
X82942857Y-69087142D01*
X83628571Y-69772857D01*
X82885714Y-69772857D01*
X81742857Y-69772857D02*
X82428571Y-69772857D01*
X82085714Y-69772857D02*
X82085714Y-68572857D01*
X82200000Y-68744285D01*
X82314285Y-68858571D01*
X82428571Y-68915714D01*
X92028571Y-51755714D02*
X91857142Y-51812857D01*
X91571428Y-51812857D01*
X91457142Y-51755714D01*
X91400000Y-51698571D01*
X91342857Y-51584285D01*
X91342857Y-51470000D01*
X91400000Y-51355714D01*
X91457142Y-51298571D01*
X91571428Y-51241428D01*
X91800000Y-51184285D01*
X91914285Y-51127142D01*
X91971428Y-51070000D01*
X92028571Y-50955714D01*
X92028571Y-50841428D01*
X91971428Y-50727142D01*
X91914285Y-50670000D01*
X91800000Y-50612857D01*
X91514285Y-50612857D01*
X91342857Y-50670000D01*
X90428571Y-51184285D02*
X90257142Y-51241428D01*
X90200000Y-51298571D01*
X90142857Y-51412857D01*
X90142857Y-51584285D01*
X90200000Y-51698571D01*
X90257142Y-51755714D01*
X90371428Y-51812857D01*
X90828571Y-51812857D01*
X90828571Y-50612857D01*
X90428571Y-50612857D01*
X90314285Y-50670000D01*
X90257142Y-50727142D01*
X90200000Y-50841428D01*
X90200000Y-50955714D01*
X90257142Y-51070000D01*
X90314285Y-51127142D01*
X90428571Y-51184285D01*
X90828571Y-51184285D01*
X89114285Y-51012857D02*
X89114285Y-51812857D01*
X89628571Y-51012857D02*
X89628571Y-51641428D01*
X89571428Y-51755714D01*
X89457142Y-51812857D01*
X89285714Y-51812857D01*
X89171428Y-51755714D01*
X89114285Y-51698571D01*
X88600000Y-51755714D02*
X88485714Y-51812857D01*
X88257142Y-51812857D01*
X88142857Y-51755714D01*
X88085714Y-51641428D01*
X88085714Y-51584285D01*
X88142857Y-51470000D01*
X88257142Y-51412857D01*
X88428571Y-51412857D01*
X88542857Y-51355714D01*
X88600000Y-51241428D01*
X88600000Y-51184285D01*
X88542857Y-51070000D01*
X88428571Y-51012857D01*
X88257142Y-51012857D01*
X88142857Y-51070000D01*
X86657142Y-51812857D02*
X86657142Y-50612857D01*
X86371428Y-50612857D01*
X86200000Y-50670000D01*
X86085714Y-50784285D01*
X86028571Y-50898571D01*
X85971428Y-51127142D01*
X85971428Y-51298571D01*
X86028571Y-51527142D01*
X86085714Y-51641428D01*
X86200000Y-51755714D01*
X86371428Y-51812857D01*
X86657142Y-51812857D01*
X85000000Y-51755714D02*
X85114285Y-51812857D01*
X85342857Y-51812857D01*
X85457142Y-51755714D01*
X85514285Y-51641428D01*
X85514285Y-51184285D01*
X85457142Y-51070000D01*
X85342857Y-51012857D01*
X85114285Y-51012857D01*
X85000000Y-51070000D01*
X84942857Y-51184285D01*
X84942857Y-51298571D01*
X85514285Y-51412857D01*
X83914285Y-51755714D02*
X84028571Y-51812857D01*
X84257142Y-51812857D01*
X84371428Y-51755714D01*
X84428571Y-51698571D01*
X84485714Y-51584285D01*
X84485714Y-51241428D01*
X84428571Y-51127142D01*
X84371428Y-51070000D01*
X84257142Y-51012857D01*
X84028571Y-51012857D01*
X83914285Y-51070000D01*
X83228571Y-51812857D02*
X83342857Y-51755714D01*
X83400000Y-51698571D01*
X83457142Y-51584285D01*
X83457142Y-51241428D01*
X83400000Y-51127142D01*
X83342857Y-51070000D01*
X83228571Y-51012857D01*
X83057142Y-51012857D01*
X82942857Y-51070000D01*
X82885714Y-51127142D01*
X82828571Y-51241428D01*
X82828571Y-51584285D01*
X82885714Y-51698571D01*
X82942857Y-51755714D01*
X83057142Y-51812857D01*
X83228571Y-51812857D01*
X81800000Y-51812857D02*
X81800000Y-50612857D01*
X81800000Y-51755714D02*
X81914285Y-51812857D01*
X82142857Y-51812857D01*
X82257142Y-51755714D01*
X82314285Y-51698571D01*
X82371428Y-51584285D01*
X82371428Y-51241428D01*
X82314285Y-51127142D01*
X82257142Y-51070000D01*
X82142857Y-51012857D01*
X81914285Y-51012857D01*
X81800000Y-51070000D01*
X80771428Y-51755714D02*
X80885714Y-51812857D01*
X81114285Y-51812857D01*
X81228571Y-51755714D01*
X81285714Y-51641428D01*
X81285714Y-51184285D01*
X81228571Y-51070000D01*
X81114285Y-51012857D01*
X80885714Y-51012857D01*
X80771428Y-51070000D01*
X80714285Y-51184285D01*
X80714285Y-51298571D01*
X81285714Y-51412857D01*
X80200000Y-51812857D02*
X80200000Y-51012857D01*
X80200000Y-51241428D02*
X80142857Y-51127142D01*
X80085714Y-51070000D01*
X79971428Y-51012857D01*
X79857142Y-51012857D01*
X87828571Y-52592857D02*
X87428571Y-53792857D01*
X87028571Y-52592857D01*
X86000000Y-53792857D02*
X86685714Y-53792857D01*
X86342857Y-53792857D02*
X86342857Y-52592857D01*
X86457142Y-52764285D01*
X86571428Y-52878571D01*
X86685714Y-52935714D01*
X85485714Y-53678571D02*
X85428571Y-53735714D01*
X85485714Y-53792857D01*
X85542857Y-53735714D01*
X85485714Y-53678571D01*
X85485714Y-53792857D01*
X84685714Y-52592857D02*
X84571428Y-52592857D01*
X84457142Y-52650000D01*
X84400000Y-52707142D01*
X84342857Y-52821428D01*
X84285714Y-53050000D01*
X84285714Y-53335714D01*
X84342857Y-53564285D01*
X84400000Y-53678571D01*
X84457142Y-53735714D01*
X84571428Y-53792857D01*
X84685714Y-53792857D01*
X84800000Y-53735714D01*
X84857142Y-53678571D01*
X84914285Y-53564285D01*
X84971428Y-53335714D01*
X84971428Y-53050000D01*
X84914285Y-52821428D01*
X84857142Y-52707142D01*
X84800000Y-52650000D01*
X84685714Y-52592857D01*
X89400000Y-55887142D02*
X89514285Y-55830000D01*
X89628571Y-55715714D01*
X89800000Y-55544285D01*
X89914285Y-55487142D01*
X90028571Y-55487142D01*
X89971428Y-55772857D02*
X90085714Y-55715714D01*
X90200000Y-55601428D01*
X90257142Y-55372857D01*
X90257142Y-54972857D01*
X90200000Y-54744285D01*
X90085714Y-54630000D01*
X89971428Y-54572857D01*
X89742857Y-54572857D01*
X89628571Y-54630000D01*
X89514285Y-54744285D01*
X89457142Y-54972857D01*
X89457142Y-55372857D01*
X89514285Y-55601428D01*
X89628571Y-55715714D01*
X89742857Y-55772857D01*
X89971428Y-55772857D01*
X88942857Y-55144285D02*
X88542857Y-55144285D01*
X88371428Y-55772857D02*
X88942857Y-55772857D01*
X88942857Y-54572857D01*
X88371428Y-54572857D01*
X87914285Y-55715714D02*
X87742857Y-55772857D01*
X87457142Y-55772857D01*
X87342857Y-55715714D01*
X87285714Y-55658571D01*
X87228571Y-55544285D01*
X87228571Y-55430000D01*
X87285714Y-55315714D01*
X87342857Y-55258571D01*
X87457142Y-55201428D01*
X87685714Y-55144285D01*
X87800000Y-55087142D01*
X87857142Y-55030000D01*
X87914285Y-54915714D01*
X87914285Y-54801428D01*
X87857142Y-54687142D01*
X87800000Y-54630000D01*
X87685714Y-54572857D01*
X87400000Y-54572857D01*
X87228571Y-54630000D01*
X85857142Y-54687142D02*
X85800000Y-54630000D01*
X85685714Y-54572857D01*
X85400000Y-54572857D01*
X85285714Y-54630000D01*
X85228571Y-54687142D01*
X85171428Y-54801428D01*
X85171428Y-54915714D01*
X85228571Y-55087142D01*
X85914285Y-55772857D01*
X85171428Y-55772857D01*
X84428571Y-54572857D02*
X84314285Y-54572857D01*
X84200000Y-54630000D01*
X84142857Y-54687142D01*
X84085714Y-54801428D01*
X84028571Y-55030000D01*
X84028571Y-55315714D01*
X84085714Y-55544285D01*
X84142857Y-55658571D01*
X84200000Y-55715714D01*
X84314285Y-55772857D01*
X84428571Y-55772857D01*
X84542857Y-55715714D01*
X84600000Y-55658571D01*
X84657142Y-55544285D01*
X84714285Y-55315714D01*
X84714285Y-55030000D01*
X84657142Y-54801428D01*
X84600000Y-54687142D01*
X84542857Y-54630000D01*
X84428571Y-54572857D01*
X83571428Y-54687142D02*
X83514285Y-54630000D01*
X83400000Y-54572857D01*
X83114285Y-54572857D01*
X83000000Y-54630000D01*
X82942857Y-54687142D01*
X82885714Y-54801428D01*
X82885714Y-54915714D01*
X82942857Y-55087142D01*
X83628571Y-55772857D01*
X82885714Y-55772857D01*
X81742857Y-55772857D02*
X82428571Y-55772857D01*
X82085714Y-55772857D02*
X82085714Y-54572857D01*
X82200000Y-54744285D01*
X82314285Y-54858571D01*
X82428571Y-54915714D01*
X64278571Y-93755714D02*
X64107142Y-93812857D01*
X63821428Y-93812857D01*
X63707142Y-93755714D01*
X63650000Y-93698571D01*
X63592857Y-93584285D01*
X63592857Y-93470000D01*
X63650000Y-93355714D01*
X63707142Y-93298571D01*
X63821428Y-93241428D01*
X64050000Y-93184285D01*
X64164285Y-93127142D01*
X64221428Y-93070000D01*
X64278571Y-92955714D01*
X64278571Y-92841428D01*
X64221428Y-92727142D01*
X64164285Y-92670000D01*
X64050000Y-92612857D01*
X63764285Y-92612857D01*
X63592857Y-92670000D01*
X62678571Y-93184285D02*
X62507142Y-93241428D01*
X62450000Y-93298571D01*
X62392857Y-93412857D01*
X62392857Y-93584285D01*
X62450000Y-93698571D01*
X62507142Y-93755714D01*
X62621428Y-93812857D01*
X63078571Y-93812857D01*
X63078571Y-92612857D01*
X62678571Y-92612857D01*
X62564285Y-92670000D01*
X62507142Y-92727142D01*
X62450000Y-92841428D01*
X62450000Y-92955714D01*
X62507142Y-93070000D01*
X62564285Y-93127142D01*
X62678571Y-93184285D01*
X63078571Y-93184285D01*
X61364285Y-93012857D02*
X61364285Y-93812857D01*
X61878571Y-93012857D02*
X61878571Y-93641428D01*
X61821428Y-93755714D01*
X61707142Y-93812857D01*
X61535714Y-93812857D01*
X61421428Y-93755714D01*
X61364285Y-93698571D01*
X60850000Y-93755714D02*
X60735714Y-93812857D01*
X60507142Y-93812857D01*
X60392857Y-93755714D01*
X60335714Y-93641428D01*
X60335714Y-93584285D01*
X60392857Y-93470000D01*
X60507142Y-93412857D01*
X60678571Y-93412857D01*
X60792857Y-93355714D01*
X60850000Y-93241428D01*
X60850000Y-93184285D01*
X60792857Y-93070000D01*
X60678571Y-93012857D01*
X60507142Y-93012857D01*
X60392857Y-93070000D01*
X58907142Y-93812857D02*
X58907142Y-92612857D01*
X58621428Y-92612857D01*
X58450000Y-92670000D01*
X58335714Y-92784285D01*
X58278571Y-92898571D01*
X58221428Y-93127142D01*
X58221428Y-93298571D01*
X58278571Y-93527142D01*
X58335714Y-93641428D01*
X58450000Y-93755714D01*
X58621428Y-93812857D01*
X58907142Y-93812857D01*
X57250000Y-93755714D02*
X57364285Y-93812857D01*
X57592857Y-93812857D01*
X57707142Y-93755714D01*
X57764285Y-93641428D01*
X57764285Y-93184285D01*
X57707142Y-93070000D01*
X57592857Y-93012857D01*
X57364285Y-93012857D01*
X57250000Y-93070000D01*
X57192857Y-93184285D01*
X57192857Y-93298571D01*
X57764285Y-93412857D01*
X56164285Y-93755714D02*
X56278571Y-93812857D01*
X56507142Y-93812857D01*
X56621428Y-93755714D01*
X56678571Y-93698571D01*
X56735714Y-93584285D01*
X56735714Y-93241428D01*
X56678571Y-93127142D01*
X56621428Y-93070000D01*
X56507142Y-93012857D01*
X56278571Y-93012857D01*
X56164285Y-93070000D01*
X55478571Y-93812857D02*
X55592857Y-93755714D01*
X55650000Y-93698571D01*
X55707142Y-93584285D01*
X55707142Y-93241428D01*
X55650000Y-93127142D01*
X55592857Y-93070000D01*
X55478571Y-93012857D01*
X55307142Y-93012857D01*
X55192857Y-93070000D01*
X55135714Y-93127142D01*
X55078571Y-93241428D01*
X55078571Y-93584285D01*
X55135714Y-93698571D01*
X55192857Y-93755714D01*
X55307142Y-93812857D01*
X55478571Y-93812857D01*
X54050000Y-93812857D02*
X54050000Y-92612857D01*
X54050000Y-93755714D02*
X54164285Y-93812857D01*
X54392857Y-93812857D01*
X54507142Y-93755714D01*
X54564285Y-93698571D01*
X54621428Y-93584285D01*
X54621428Y-93241428D01*
X54564285Y-93127142D01*
X54507142Y-93070000D01*
X54392857Y-93012857D01*
X54164285Y-93012857D01*
X54050000Y-93070000D01*
X53021428Y-93755714D02*
X53135714Y-93812857D01*
X53364285Y-93812857D01*
X53478571Y-93755714D01*
X53535714Y-93641428D01*
X53535714Y-93184285D01*
X53478571Y-93070000D01*
X53364285Y-93012857D01*
X53135714Y-93012857D01*
X53021428Y-93070000D01*
X52964285Y-93184285D01*
X52964285Y-93298571D01*
X53535714Y-93412857D01*
X52450000Y-93812857D02*
X52450000Y-93012857D01*
X52450000Y-93241428D02*
X52392857Y-93127142D01*
X52335714Y-93070000D01*
X52221428Y-93012857D01*
X52107142Y-93012857D01*
X60078571Y-94592857D02*
X59678571Y-95792857D01*
X59278571Y-94592857D01*
X58250000Y-95792857D02*
X58935714Y-95792857D01*
X58592857Y-95792857D02*
X58592857Y-94592857D01*
X58707142Y-94764285D01*
X58821428Y-94878571D01*
X58935714Y-94935714D01*
X57735714Y-95678571D02*
X57678571Y-95735714D01*
X57735714Y-95792857D01*
X57792857Y-95735714D01*
X57735714Y-95678571D01*
X57735714Y-95792857D01*
X56935714Y-94592857D02*
X56821428Y-94592857D01*
X56707142Y-94650000D01*
X56650000Y-94707142D01*
X56592857Y-94821428D01*
X56535714Y-95050000D01*
X56535714Y-95335714D01*
X56592857Y-95564285D01*
X56650000Y-95678571D01*
X56707142Y-95735714D01*
X56821428Y-95792857D01*
X56935714Y-95792857D01*
X57050000Y-95735714D01*
X57107142Y-95678571D01*
X57164285Y-95564285D01*
X57221428Y-95335714D01*
X57221428Y-95050000D01*
X57164285Y-94821428D01*
X57107142Y-94707142D01*
X57050000Y-94650000D01*
X56935714Y-94592857D01*
X61650000Y-97887142D02*
X61764285Y-97830000D01*
X61878571Y-97715714D01*
X62050000Y-97544285D01*
X62164285Y-97487142D01*
X62278571Y-97487142D01*
X62221428Y-97772857D02*
X62335714Y-97715714D01*
X62450000Y-97601428D01*
X62507142Y-97372857D01*
X62507142Y-96972857D01*
X62450000Y-96744285D01*
X62335714Y-96630000D01*
X62221428Y-96572857D01*
X61992857Y-96572857D01*
X61878571Y-96630000D01*
X61764285Y-96744285D01*
X61707142Y-96972857D01*
X61707142Y-97372857D01*
X61764285Y-97601428D01*
X61878571Y-97715714D01*
X61992857Y-97772857D01*
X62221428Y-97772857D01*
X61192857Y-97144285D02*
X60792857Y-97144285D01*
X60621428Y-97772857D02*
X61192857Y-97772857D01*
X61192857Y-96572857D01*
X60621428Y-96572857D01*
X60164285Y-97715714D02*
X59992857Y-97772857D01*
X59707142Y-97772857D01*
X59592857Y-97715714D01*
X59535714Y-97658571D01*
X59478571Y-97544285D01*
X59478571Y-97430000D01*
X59535714Y-97315714D01*
X59592857Y-97258571D01*
X59707142Y-97201428D01*
X59935714Y-97144285D01*
X60050000Y-97087142D01*
X60107142Y-97030000D01*
X60164285Y-96915714D01*
X60164285Y-96801428D01*
X60107142Y-96687142D01*
X60050000Y-96630000D01*
X59935714Y-96572857D01*
X59650000Y-96572857D01*
X59478571Y-96630000D01*
X58107142Y-96687142D02*
X58050000Y-96630000D01*
X57935714Y-96572857D01*
X57650000Y-96572857D01*
X57535714Y-96630000D01*
X57478571Y-96687142D01*
X57421428Y-96801428D01*
X57421428Y-96915714D01*
X57478571Y-97087142D01*
X58164285Y-97772857D01*
X57421428Y-97772857D01*
X56678571Y-96572857D02*
X56564285Y-96572857D01*
X56450000Y-96630000D01*
X56392857Y-96687142D01*
X56335714Y-96801428D01*
X56278571Y-97030000D01*
X56278571Y-97315714D01*
X56335714Y-97544285D01*
X56392857Y-97658571D01*
X56450000Y-97715714D01*
X56564285Y-97772857D01*
X56678571Y-97772857D01*
X56792857Y-97715714D01*
X56850000Y-97658571D01*
X56907142Y-97544285D01*
X56964285Y-97315714D01*
X56964285Y-97030000D01*
X56907142Y-96801428D01*
X56850000Y-96687142D01*
X56792857Y-96630000D01*
X56678571Y-96572857D01*
X55821428Y-96687142D02*
X55764285Y-96630000D01*
X55650000Y-96572857D01*
X55364285Y-96572857D01*
X55250000Y-96630000D01*
X55192857Y-96687142D01*
X55135714Y-96801428D01*
X55135714Y-96915714D01*
X55192857Y-97087142D01*
X55878571Y-97772857D01*
X55135714Y-97772857D01*
X53992857Y-97772857D02*
X54678571Y-97772857D01*
X54335714Y-97772857D02*
X54335714Y-96572857D01*
X54450000Y-96744285D01*
X54564285Y-96858571D01*
X54678571Y-96915714D01*
X64278571Y-79755714D02*
X64107142Y-79812857D01*
X63821428Y-79812857D01*
X63707142Y-79755714D01*
X63650000Y-79698571D01*
X63592857Y-79584285D01*
X63592857Y-79470000D01*
X63650000Y-79355714D01*
X63707142Y-79298571D01*
X63821428Y-79241428D01*
X64050000Y-79184285D01*
X64164285Y-79127142D01*
X64221428Y-79070000D01*
X64278571Y-78955714D01*
X64278571Y-78841428D01*
X64221428Y-78727142D01*
X64164285Y-78670000D01*
X64050000Y-78612857D01*
X63764285Y-78612857D01*
X63592857Y-78670000D01*
X62678571Y-79184285D02*
X62507142Y-79241428D01*
X62450000Y-79298571D01*
X62392857Y-79412857D01*
X62392857Y-79584285D01*
X62450000Y-79698571D01*
X62507142Y-79755714D01*
X62621428Y-79812857D01*
X63078571Y-79812857D01*
X63078571Y-78612857D01*
X62678571Y-78612857D01*
X62564285Y-78670000D01*
X62507142Y-78727142D01*
X62450000Y-78841428D01*
X62450000Y-78955714D01*
X62507142Y-79070000D01*
X62564285Y-79127142D01*
X62678571Y-79184285D01*
X63078571Y-79184285D01*
X61364285Y-79012857D02*
X61364285Y-79812857D01*
X61878571Y-79012857D02*
X61878571Y-79641428D01*
X61821428Y-79755714D01*
X61707142Y-79812857D01*
X61535714Y-79812857D01*
X61421428Y-79755714D01*
X61364285Y-79698571D01*
X60850000Y-79755714D02*
X60735714Y-79812857D01*
X60507142Y-79812857D01*
X60392857Y-79755714D01*
X60335714Y-79641428D01*
X60335714Y-79584285D01*
X60392857Y-79470000D01*
X60507142Y-79412857D01*
X60678571Y-79412857D01*
X60792857Y-79355714D01*
X60850000Y-79241428D01*
X60850000Y-79184285D01*
X60792857Y-79070000D01*
X60678571Y-79012857D01*
X60507142Y-79012857D01*
X60392857Y-79070000D01*
X58907142Y-79812857D02*
X58907142Y-78612857D01*
X58621428Y-78612857D01*
X58450000Y-78670000D01*
X58335714Y-78784285D01*
X58278571Y-78898571D01*
X58221428Y-79127142D01*
X58221428Y-79298571D01*
X58278571Y-79527142D01*
X58335714Y-79641428D01*
X58450000Y-79755714D01*
X58621428Y-79812857D01*
X58907142Y-79812857D01*
X57250000Y-79755714D02*
X57364285Y-79812857D01*
X57592857Y-79812857D01*
X57707142Y-79755714D01*
X57764285Y-79641428D01*
X57764285Y-79184285D01*
X57707142Y-79070000D01*
X57592857Y-79012857D01*
X57364285Y-79012857D01*
X57250000Y-79070000D01*
X57192857Y-79184285D01*
X57192857Y-79298571D01*
X57764285Y-79412857D01*
X56164285Y-79755714D02*
X56278571Y-79812857D01*
X56507142Y-79812857D01*
X56621428Y-79755714D01*
X56678571Y-79698571D01*
X56735714Y-79584285D01*
X56735714Y-79241428D01*
X56678571Y-79127142D01*
X56621428Y-79070000D01*
X56507142Y-79012857D01*
X56278571Y-79012857D01*
X56164285Y-79070000D01*
X55478571Y-79812857D02*
X55592857Y-79755714D01*
X55650000Y-79698571D01*
X55707142Y-79584285D01*
X55707142Y-79241428D01*
X55650000Y-79127142D01*
X55592857Y-79070000D01*
X55478571Y-79012857D01*
X55307142Y-79012857D01*
X55192857Y-79070000D01*
X55135714Y-79127142D01*
X55078571Y-79241428D01*
X55078571Y-79584285D01*
X55135714Y-79698571D01*
X55192857Y-79755714D01*
X55307142Y-79812857D01*
X55478571Y-79812857D01*
X54050000Y-79812857D02*
X54050000Y-78612857D01*
X54050000Y-79755714D02*
X54164285Y-79812857D01*
X54392857Y-79812857D01*
X54507142Y-79755714D01*
X54564285Y-79698571D01*
X54621428Y-79584285D01*
X54621428Y-79241428D01*
X54564285Y-79127142D01*
X54507142Y-79070000D01*
X54392857Y-79012857D01*
X54164285Y-79012857D01*
X54050000Y-79070000D01*
X53021428Y-79755714D02*
X53135714Y-79812857D01*
X53364285Y-79812857D01*
X53478571Y-79755714D01*
X53535714Y-79641428D01*
X53535714Y-79184285D01*
X53478571Y-79070000D01*
X53364285Y-79012857D01*
X53135714Y-79012857D01*
X53021428Y-79070000D01*
X52964285Y-79184285D01*
X52964285Y-79298571D01*
X53535714Y-79412857D01*
X52450000Y-79812857D02*
X52450000Y-79012857D01*
X52450000Y-79241428D02*
X52392857Y-79127142D01*
X52335714Y-79070000D01*
X52221428Y-79012857D01*
X52107142Y-79012857D01*
X60078571Y-80592857D02*
X59678571Y-81792857D01*
X59278571Y-80592857D01*
X58250000Y-81792857D02*
X58935714Y-81792857D01*
X58592857Y-81792857D02*
X58592857Y-80592857D01*
X58707142Y-80764285D01*
X58821428Y-80878571D01*
X58935714Y-80935714D01*
X57735714Y-81678571D02*
X57678571Y-81735714D01*
X57735714Y-81792857D01*
X57792857Y-81735714D01*
X57735714Y-81678571D01*
X57735714Y-81792857D01*
X56935714Y-80592857D02*
X56821428Y-80592857D01*
X56707142Y-80650000D01*
X56650000Y-80707142D01*
X56592857Y-80821428D01*
X56535714Y-81050000D01*
X56535714Y-81335714D01*
X56592857Y-81564285D01*
X56650000Y-81678571D01*
X56707142Y-81735714D01*
X56821428Y-81792857D01*
X56935714Y-81792857D01*
X57050000Y-81735714D01*
X57107142Y-81678571D01*
X57164285Y-81564285D01*
X57221428Y-81335714D01*
X57221428Y-81050000D01*
X57164285Y-80821428D01*
X57107142Y-80707142D01*
X57050000Y-80650000D01*
X56935714Y-80592857D01*
X61650000Y-83887142D02*
X61764285Y-83830000D01*
X61878571Y-83715714D01*
X62050000Y-83544285D01*
X62164285Y-83487142D01*
X62278571Y-83487142D01*
X62221428Y-83772857D02*
X62335714Y-83715714D01*
X62450000Y-83601428D01*
X62507142Y-83372857D01*
X62507142Y-82972857D01*
X62450000Y-82744285D01*
X62335714Y-82630000D01*
X62221428Y-82572857D01*
X61992857Y-82572857D01*
X61878571Y-82630000D01*
X61764285Y-82744285D01*
X61707142Y-82972857D01*
X61707142Y-83372857D01*
X61764285Y-83601428D01*
X61878571Y-83715714D01*
X61992857Y-83772857D01*
X62221428Y-83772857D01*
X61192857Y-83144285D02*
X60792857Y-83144285D01*
X60621428Y-83772857D02*
X61192857Y-83772857D01*
X61192857Y-82572857D01*
X60621428Y-82572857D01*
X60164285Y-83715714D02*
X59992857Y-83772857D01*
X59707142Y-83772857D01*
X59592857Y-83715714D01*
X59535714Y-83658571D01*
X59478571Y-83544285D01*
X59478571Y-83430000D01*
X59535714Y-83315714D01*
X59592857Y-83258571D01*
X59707142Y-83201428D01*
X59935714Y-83144285D01*
X60050000Y-83087142D01*
X60107142Y-83030000D01*
X60164285Y-82915714D01*
X60164285Y-82801428D01*
X60107142Y-82687142D01*
X60050000Y-82630000D01*
X59935714Y-82572857D01*
X59650000Y-82572857D01*
X59478571Y-82630000D01*
X58107142Y-82687142D02*
X58050000Y-82630000D01*
X57935714Y-82572857D01*
X57650000Y-82572857D01*
X57535714Y-82630000D01*
X57478571Y-82687142D01*
X57421428Y-82801428D01*
X57421428Y-82915714D01*
X57478571Y-83087142D01*
X58164285Y-83772857D01*
X57421428Y-83772857D01*
X56678571Y-82572857D02*
X56564285Y-82572857D01*
X56450000Y-82630000D01*
X56392857Y-82687142D01*
X56335714Y-82801428D01*
X56278571Y-83030000D01*
X56278571Y-83315714D01*
X56335714Y-83544285D01*
X56392857Y-83658571D01*
X56450000Y-83715714D01*
X56564285Y-83772857D01*
X56678571Y-83772857D01*
X56792857Y-83715714D01*
X56850000Y-83658571D01*
X56907142Y-83544285D01*
X56964285Y-83315714D01*
X56964285Y-83030000D01*
X56907142Y-82801428D01*
X56850000Y-82687142D01*
X56792857Y-82630000D01*
X56678571Y-82572857D01*
X55821428Y-82687142D02*
X55764285Y-82630000D01*
X55650000Y-82572857D01*
X55364285Y-82572857D01*
X55250000Y-82630000D01*
X55192857Y-82687142D01*
X55135714Y-82801428D01*
X55135714Y-82915714D01*
X55192857Y-83087142D01*
X55878571Y-83772857D01*
X55135714Y-83772857D01*
X53992857Y-83772857D02*
X54678571Y-83772857D01*
X54335714Y-83772857D02*
X54335714Y-82572857D01*
X54450000Y-82744285D01*
X54564285Y-82858571D01*
X54678571Y-82915714D01*
X64278571Y-65755714D02*
X64107142Y-65812857D01*
X63821428Y-65812857D01*
X63707142Y-65755714D01*
X63650000Y-65698571D01*
X63592857Y-65584285D01*
X63592857Y-65470000D01*
X63650000Y-65355714D01*
X63707142Y-65298571D01*
X63821428Y-65241428D01*
X64050000Y-65184285D01*
X64164285Y-65127142D01*
X64221428Y-65070000D01*
X64278571Y-64955714D01*
X64278571Y-64841428D01*
X64221428Y-64727142D01*
X64164285Y-64670000D01*
X64050000Y-64612857D01*
X63764285Y-64612857D01*
X63592857Y-64670000D01*
X62678571Y-65184285D02*
X62507142Y-65241428D01*
X62450000Y-65298571D01*
X62392857Y-65412857D01*
X62392857Y-65584285D01*
X62450000Y-65698571D01*
X62507142Y-65755714D01*
X62621428Y-65812857D01*
X63078571Y-65812857D01*
X63078571Y-64612857D01*
X62678571Y-64612857D01*
X62564285Y-64670000D01*
X62507142Y-64727142D01*
X62450000Y-64841428D01*
X62450000Y-64955714D01*
X62507142Y-65070000D01*
X62564285Y-65127142D01*
X62678571Y-65184285D01*
X63078571Y-65184285D01*
X61364285Y-65012857D02*
X61364285Y-65812857D01*
X61878571Y-65012857D02*
X61878571Y-65641428D01*
X61821428Y-65755714D01*
X61707142Y-65812857D01*
X61535714Y-65812857D01*
X61421428Y-65755714D01*
X61364285Y-65698571D01*
X60850000Y-65755714D02*
X60735714Y-65812857D01*
X60507142Y-65812857D01*
X60392857Y-65755714D01*
X60335714Y-65641428D01*
X60335714Y-65584285D01*
X60392857Y-65470000D01*
X60507142Y-65412857D01*
X60678571Y-65412857D01*
X60792857Y-65355714D01*
X60850000Y-65241428D01*
X60850000Y-65184285D01*
X60792857Y-65070000D01*
X60678571Y-65012857D01*
X60507142Y-65012857D01*
X60392857Y-65070000D01*
X58907142Y-65812857D02*
X58907142Y-64612857D01*
X58621428Y-64612857D01*
X58450000Y-64670000D01*
X58335714Y-64784285D01*
X58278571Y-64898571D01*
X58221428Y-65127142D01*
X58221428Y-65298571D01*
X58278571Y-65527142D01*
X58335714Y-65641428D01*
X58450000Y-65755714D01*
X58621428Y-65812857D01*
X58907142Y-65812857D01*
X57250000Y-65755714D02*
X57364285Y-65812857D01*
X57592857Y-65812857D01*
X57707142Y-65755714D01*
X57764285Y-65641428D01*
X57764285Y-65184285D01*
X57707142Y-65070000D01*
X57592857Y-65012857D01*
X57364285Y-65012857D01*
X57250000Y-65070000D01*
X57192857Y-65184285D01*
X57192857Y-65298571D01*
X57764285Y-65412857D01*
X56164285Y-65755714D02*
X56278571Y-65812857D01*
X56507142Y-65812857D01*
X56621428Y-65755714D01*
X56678571Y-65698571D01*
X56735714Y-65584285D01*
X56735714Y-65241428D01*
X56678571Y-65127142D01*
X56621428Y-65070000D01*
X56507142Y-65012857D01*
X56278571Y-65012857D01*
X56164285Y-65070000D01*
X55478571Y-65812857D02*
X55592857Y-65755714D01*
X55650000Y-65698571D01*
X55707142Y-65584285D01*
X55707142Y-65241428D01*
X55650000Y-65127142D01*
X55592857Y-65070000D01*
X55478571Y-65012857D01*
X55307142Y-65012857D01*
X55192857Y-65070000D01*
X55135714Y-65127142D01*
X55078571Y-65241428D01*
X55078571Y-65584285D01*
X55135714Y-65698571D01*
X55192857Y-65755714D01*
X55307142Y-65812857D01*
X55478571Y-65812857D01*
X54050000Y-65812857D02*
X54050000Y-64612857D01*
X54050000Y-65755714D02*
X54164285Y-65812857D01*
X54392857Y-65812857D01*
X54507142Y-65755714D01*
X54564285Y-65698571D01*
X54621428Y-65584285D01*
X54621428Y-65241428D01*
X54564285Y-65127142D01*
X54507142Y-65070000D01*
X54392857Y-65012857D01*
X54164285Y-65012857D01*
X54050000Y-65070000D01*
X53021428Y-65755714D02*
X53135714Y-65812857D01*
X53364285Y-65812857D01*
X53478571Y-65755714D01*
X53535714Y-65641428D01*
X53535714Y-65184285D01*
X53478571Y-65070000D01*
X53364285Y-65012857D01*
X53135714Y-65012857D01*
X53021428Y-65070000D01*
X52964285Y-65184285D01*
X52964285Y-65298571D01*
X53535714Y-65412857D01*
X52450000Y-65812857D02*
X52450000Y-65012857D01*
X52450000Y-65241428D02*
X52392857Y-65127142D01*
X52335714Y-65070000D01*
X52221428Y-65012857D01*
X52107142Y-65012857D01*
X60078571Y-66592857D02*
X59678571Y-67792857D01*
X59278571Y-66592857D01*
X58250000Y-67792857D02*
X58935714Y-67792857D01*
X58592857Y-67792857D02*
X58592857Y-66592857D01*
X58707142Y-66764285D01*
X58821428Y-66878571D01*
X58935714Y-66935714D01*
X57735714Y-67678571D02*
X57678571Y-67735714D01*
X57735714Y-67792857D01*
X57792857Y-67735714D01*
X57735714Y-67678571D01*
X57735714Y-67792857D01*
X56935714Y-66592857D02*
X56821428Y-66592857D01*
X56707142Y-66650000D01*
X56650000Y-66707142D01*
X56592857Y-66821428D01*
X56535714Y-67050000D01*
X56535714Y-67335714D01*
X56592857Y-67564285D01*
X56650000Y-67678571D01*
X56707142Y-67735714D01*
X56821428Y-67792857D01*
X56935714Y-67792857D01*
X57050000Y-67735714D01*
X57107142Y-67678571D01*
X57164285Y-67564285D01*
X57221428Y-67335714D01*
X57221428Y-67050000D01*
X57164285Y-66821428D01*
X57107142Y-66707142D01*
X57050000Y-66650000D01*
X56935714Y-66592857D01*
X61650000Y-69887142D02*
X61764285Y-69830000D01*
X61878571Y-69715714D01*
X62050000Y-69544285D01*
X62164285Y-69487142D01*
X62278571Y-69487142D01*
X62221428Y-69772857D02*
X62335714Y-69715714D01*
X62450000Y-69601428D01*
X62507142Y-69372857D01*
X62507142Y-68972857D01*
X62450000Y-68744285D01*
X62335714Y-68630000D01*
X62221428Y-68572857D01*
X61992857Y-68572857D01*
X61878571Y-68630000D01*
X61764285Y-68744285D01*
X61707142Y-68972857D01*
X61707142Y-69372857D01*
X61764285Y-69601428D01*
X61878571Y-69715714D01*
X61992857Y-69772857D01*
X62221428Y-69772857D01*
X61192857Y-69144285D02*
X60792857Y-69144285D01*
X60621428Y-69772857D02*
X61192857Y-69772857D01*
X61192857Y-68572857D01*
X60621428Y-68572857D01*
X60164285Y-69715714D02*
X59992857Y-69772857D01*
X59707142Y-69772857D01*
X59592857Y-69715714D01*
X59535714Y-69658571D01*
X59478571Y-69544285D01*
X59478571Y-69430000D01*
X59535714Y-69315714D01*
X59592857Y-69258571D01*
X59707142Y-69201428D01*
X59935714Y-69144285D01*
X60050000Y-69087142D01*
X60107142Y-69030000D01*
X60164285Y-68915714D01*
X60164285Y-68801428D01*
X60107142Y-68687142D01*
X60050000Y-68630000D01*
X59935714Y-68572857D01*
X59650000Y-68572857D01*
X59478571Y-68630000D01*
X58107142Y-68687142D02*
X58050000Y-68630000D01*
X57935714Y-68572857D01*
X57650000Y-68572857D01*
X57535714Y-68630000D01*
X57478571Y-68687142D01*
X57421428Y-68801428D01*
X57421428Y-68915714D01*
X57478571Y-69087142D01*
X58164285Y-69772857D01*
X57421428Y-69772857D01*
X56678571Y-68572857D02*
X56564285Y-68572857D01*
X56450000Y-68630000D01*
X56392857Y-68687142D01*
X56335714Y-68801428D01*
X56278571Y-69030000D01*
X56278571Y-69315714D01*
X56335714Y-69544285D01*
X56392857Y-69658571D01*
X56450000Y-69715714D01*
X56564285Y-69772857D01*
X56678571Y-69772857D01*
X56792857Y-69715714D01*
X56850000Y-69658571D01*
X56907142Y-69544285D01*
X56964285Y-69315714D01*
X56964285Y-69030000D01*
X56907142Y-68801428D01*
X56850000Y-68687142D01*
X56792857Y-68630000D01*
X56678571Y-68572857D01*
X55821428Y-68687142D02*
X55764285Y-68630000D01*
X55650000Y-68572857D01*
X55364285Y-68572857D01*
X55250000Y-68630000D01*
X55192857Y-68687142D01*
X55135714Y-68801428D01*
X55135714Y-68915714D01*
X55192857Y-69087142D01*
X55878571Y-69772857D01*
X55135714Y-69772857D01*
X53992857Y-69772857D02*
X54678571Y-69772857D01*
X54335714Y-69772857D02*
X54335714Y-68572857D01*
X54450000Y-68744285D01*
X54564285Y-68858571D01*
X54678571Y-68915714D01*
X64278571Y-51755714D02*
X64107142Y-51812857D01*
X63821428Y-51812857D01*
X63707142Y-51755714D01*
X63650000Y-51698571D01*
X63592857Y-51584285D01*
X63592857Y-51470000D01*
X63650000Y-51355714D01*
X63707142Y-51298571D01*
X63821428Y-51241428D01*
X64050000Y-51184285D01*
X64164285Y-51127142D01*
X64221428Y-51070000D01*
X64278571Y-50955714D01*
X64278571Y-50841428D01*
X64221428Y-50727142D01*
X64164285Y-50670000D01*
X64050000Y-50612857D01*
X63764285Y-50612857D01*
X63592857Y-50670000D01*
X62678571Y-51184285D02*
X62507142Y-51241428D01*
X62450000Y-51298571D01*
X62392857Y-51412857D01*
X62392857Y-51584285D01*
X62450000Y-51698571D01*
X62507142Y-51755714D01*
X62621428Y-51812857D01*
X63078571Y-51812857D01*
X63078571Y-50612857D01*
X62678571Y-50612857D01*
X62564285Y-50670000D01*
X62507142Y-50727142D01*
X62450000Y-50841428D01*
X62450000Y-50955714D01*
X62507142Y-51070000D01*
X62564285Y-51127142D01*
X62678571Y-51184285D01*
X63078571Y-51184285D01*
X61364285Y-51012857D02*
X61364285Y-51812857D01*
X61878571Y-51012857D02*
X61878571Y-51641428D01*
X61821428Y-51755714D01*
X61707142Y-51812857D01*
X61535714Y-51812857D01*
X61421428Y-51755714D01*
X61364285Y-51698571D01*
X60850000Y-51755714D02*
X60735714Y-51812857D01*
X60507142Y-51812857D01*
X60392857Y-51755714D01*
X60335714Y-51641428D01*
X60335714Y-51584285D01*
X60392857Y-51470000D01*
X60507142Y-51412857D01*
X60678571Y-51412857D01*
X60792857Y-51355714D01*
X60850000Y-51241428D01*
X60850000Y-51184285D01*
X60792857Y-51070000D01*
X60678571Y-51012857D01*
X60507142Y-51012857D01*
X60392857Y-51070000D01*
X58907142Y-51812857D02*
X58907142Y-50612857D01*
X58621428Y-50612857D01*
X58450000Y-50670000D01*
X58335714Y-50784285D01*
X58278571Y-50898571D01*
X58221428Y-51127142D01*
X58221428Y-51298571D01*
X58278571Y-51527142D01*
X58335714Y-51641428D01*
X58450000Y-51755714D01*
X58621428Y-51812857D01*
X58907142Y-51812857D01*
X57250000Y-51755714D02*
X57364285Y-51812857D01*
X57592857Y-51812857D01*
X57707142Y-51755714D01*
X57764285Y-51641428D01*
X57764285Y-51184285D01*
X57707142Y-51070000D01*
X57592857Y-51012857D01*
X57364285Y-51012857D01*
X57250000Y-51070000D01*
X57192857Y-51184285D01*
X57192857Y-51298571D01*
X57764285Y-51412857D01*
X56164285Y-51755714D02*
X56278571Y-51812857D01*
X56507142Y-51812857D01*
X56621428Y-51755714D01*
X56678571Y-51698571D01*
X56735714Y-51584285D01*
X56735714Y-51241428D01*
X56678571Y-51127142D01*
X56621428Y-51070000D01*
X56507142Y-51012857D01*
X56278571Y-51012857D01*
X56164285Y-51070000D01*
X55478571Y-51812857D02*
X55592857Y-51755714D01*
X55650000Y-51698571D01*
X55707142Y-51584285D01*
X55707142Y-51241428D01*
X55650000Y-51127142D01*
X55592857Y-51070000D01*
X55478571Y-51012857D01*
X55307142Y-51012857D01*
X55192857Y-51070000D01*
X55135714Y-51127142D01*
X55078571Y-51241428D01*
X55078571Y-51584285D01*
X55135714Y-51698571D01*
X55192857Y-51755714D01*
X55307142Y-51812857D01*
X55478571Y-51812857D01*
X54050000Y-51812857D02*
X54050000Y-50612857D01*
X54050000Y-51755714D02*
X54164285Y-51812857D01*
X54392857Y-51812857D01*
X54507142Y-51755714D01*
X54564285Y-51698571D01*
X54621428Y-51584285D01*
X54621428Y-51241428D01*
X54564285Y-51127142D01*
X54507142Y-51070000D01*
X54392857Y-51012857D01*
X54164285Y-51012857D01*
X54050000Y-51070000D01*
X53021428Y-51755714D02*
X53135714Y-51812857D01*
X53364285Y-51812857D01*
X53478571Y-51755714D01*
X53535714Y-51641428D01*
X53535714Y-51184285D01*
X53478571Y-51070000D01*
X53364285Y-51012857D01*
X53135714Y-51012857D01*
X53021428Y-51070000D01*
X52964285Y-51184285D01*
X52964285Y-51298571D01*
X53535714Y-51412857D01*
X52450000Y-51812857D02*
X52450000Y-51012857D01*
X52450000Y-51241428D02*
X52392857Y-51127142D01*
X52335714Y-51070000D01*
X52221428Y-51012857D01*
X52107142Y-51012857D01*
X60078571Y-52592857D02*
X59678571Y-53792857D01*
X59278571Y-52592857D01*
X58250000Y-53792857D02*
X58935714Y-53792857D01*
X58592857Y-53792857D02*
X58592857Y-52592857D01*
X58707142Y-52764285D01*
X58821428Y-52878571D01*
X58935714Y-52935714D01*
X57735714Y-53678571D02*
X57678571Y-53735714D01*
X57735714Y-53792857D01*
X57792857Y-53735714D01*
X57735714Y-53678571D01*
X57735714Y-53792857D01*
X56935714Y-52592857D02*
X56821428Y-52592857D01*
X56707142Y-52650000D01*
X56650000Y-52707142D01*
X56592857Y-52821428D01*
X56535714Y-53050000D01*
X56535714Y-53335714D01*
X56592857Y-53564285D01*
X56650000Y-53678571D01*
X56707142Y-53735714D01*
X56821428Y-53792857D01*
X56935714Y-53792857D01*
X57050000Y-53735714D01*
X57107142Y-53678571D01*
X57164285Y-53564285D01*
X57221428Y-53335714D01*
X57221428Y-53050000D01*
X57164285Y-52821428D01*
X57107142Y-52707142D01*
X57050000Y-52650000D01*
X56935714Y-52592857D01*
X61650000Y-55887142D02*
X61764285Y-55830000D01*
X61878571Y-55715714D01*
X62050000Y-55544285D01*
X62164285Y-55487142D01*
X62278571Y-55487142D01*
X62221428Y-55772857D02*
X62335714Y-55715714D01*
X62450000Y-55601428D01*
X62507142Y-55372857D01*
X62507142Y-54972857D01*
X62450000Y-54744285D01*
X62335714Y-54630000D01*
X62221428Y-54572857D01*
X61992857Y-54572857D01*
X61878571Y-54630000D01*
X61764285Y-54744285D01*
X61707142Y-54972857D01*
X61707142Y-55372857D01*
X61764285Y-55601428D01*
X61878571Y-55715714D01*
X61992857Y-55772857D01*
X62221428Y-55772857D01*
X61192857Y-55144285D02*
X60792857Y-55144285D01*
X60621428Y-55772857D02*
X61192857Y-55772857D01*
X61192857Y-54572857D01*
X60621428Y-54572857D01*
X60164285Y-55715714D02*
X59992857Y-55772857D01*
X59707142Y-55772857D01*
X59592857Y-55715714D01*
X59535714Y-55658571D01*
X59478571Y-55544285D01*
X59478571Y-55430000D01*
X59535714Y-55315714D01*
X59592857Y-55258571D01*
X59707142Y-55201428D01*
X59935714Y-55144285D01*
X60050000Y-55087142D01*
X60107142Y-55030000D01*
X60164285Y-54915714D01*
X60164285Y-54801428D01*
X60107142Y-54687142D01*
X60050000Y-54630000D01*
X59935714Y-54572857D01*
X59650000Y-54572857D01*
X59478571Y-54630000D01*
X58107142Y-54687142D02*
X58050000Y-54630000D01*
X57935714Y-54572857D01*
X57650000Y-54572857D01*
X57535714Y-54630000D01*
X57478571Y-54687142D01*
X57421428Y-54801428D01*
X57421428Y-54915714D01*
X57478571Y-55087142D01*
X58164285Y-55772857D01*
X57421428Y-55772857D01*
X56678571Y-54572857D02*
X56564285Y-54572857D01*
X56450000Y-54630000D01*
X56392857Y-54687142D01*
X56335714Y-54801428D01*
X56278571Y-55030000D01*
X56278571Y-55315714D01*
X56335714Y-55544285D01*
X56392857Y-55658571D01*
X56450000Y-55715714D01*
X56564285Y-55772857D01*
X56678571Y-55772857D01*
X56792857Y-55715714D01*
X56850000Y-55658571D01*
X56907142Y-55544285D01*
X56964285Y-55315714D01*
X56964285Y-55030000D01*
X56907142Y-54801428D01*
X56850000Y-54687142D01*
X56792857Y-54630000D01*
X56678571Y-54572857D01*
X55821428Y-54687142D02*
X55764285Y-54630000D01*
X55650000Y-54572857D01*
X55364285Y-54572857D01*
X55250000Y-54630000D01*
X55192857Y-54687142D01*
X55135714Y-54801428D01*
X55135714Y-54915714D01*
X55192857Y-55087142D01*
X55878571Y-55772857D01*
X55135714Y-55772857D01*
X53992857Y-55772857D02*
X54678571Y-55772857D01*
X54335714Y-55772857D02*
X54335714Y-54572857D01*
X54450000Y-54744285D01*
X54564285Y-54858571D01*
X54678571Y-54915714D01*
M02*
